<?xml version="1.0" encoding="UTF-8"?>
<!DOCTYPE svg  PUBLIC '-//W3C//DTD SVG 1.1//EN'  'http://www.w3.org/Graphics/SVG/1.1/DTD/svg11.dtd'>
<svg version="1.1" xmlns="http://www.w3.org/2000/svg">
<defs>
<font id="FolhaII-SemiBold" horiz-adv-x="488">
<font-face font-family="FolhaII-SemiBold" font-weight="400" ascent="770" bbox="-51 -207 779 903" cap-height="691" descent="-230" panose-1="2 10 6 3 7 5 2 2 2 4" underline-position="-177" underline-thickness="48" unicode-range="U+0020-00FE" units-per-em="1000" x-height="459"/>
<missing-glyph/>
<glyph glyph-name="space" horiz-adv-x="200" unicode=" "/>
<glyph d="M191 61q0 -32 -19.5 -52t-48.5 -20t-47.5 19t-18.5 51t19.5 52t48.5 20t47.5 -19.5t18.5 -50.5zM186 657q0 -35 -3.5 -85.5t-9 -112t-11.5 -130.5t-11 -140h-54q-6 71 -12 140t-11 130.5t-8.5 112t-3.5 85.5q0 37 16.5 56t45.5 19t45.5 -19t16.5 -56z" glyph-name="exclam" horiz-adv-x="228" unicode="!"/>
<glyph d="M148 747l-21 -279h-57l-20 279h98zM322 747l-21 -279h-57l-21 279h99z" glyph-name="quotedbl" horiz-adv-x="371" unicode='"'/>
<glyph d="M175 262h115l21 168h-114zM44 484h102l28 207h57l-28 -207h115l27 207h57l-27 -207h92v-54h-98l-22 -168h97v-53h-104l-27 -209h-57l27 209h-115l-27 -209h-57l27 209h-91v53h98l22 168h-96v54z" glyph-name="numbersign" unicode="#"/>
<glyph d="M352 138q0 22 -8 40.5t-21.5 34t-31.5 29t-38 26.5l-18 -228q57 2 87 27t30 71zM238 618q-49 -4 -74.5 -28t-25.5 -65q0 -38 24 -65.5t59 -50.5zM451 165q0 -75 -54.5 -119t-165.5 -48l-11 -137h-45l12 137q-35 1 -71.5 5.5t-68.5 11.5v178h36q6 -16 12 -35 q5 -17 11.5 -41t11.5 -53q30 -17 73 -23l19 252q-32 19 -62 39t-53.5 44t-38 53.5t-14.5 68.5q0 69 50.5 112.5t148.5 48.5l10 121h45l-11 -120q32 -1 64.5 -5t61.5 -10v-156h-36q-7 14 -13 32q-5 15 -11.5 36t-11.5 47q-25 11 -57 14l-19 -235q33 -19 66.5 -39.5t60.5 -46 t44 -57.5t17 -75z" glyph-name="dollar" unicode="$"/>
<glyph d="M480 274q-31 0 -44.5 -31t-13.5 -94q0 -67 13.5 -98.5t44.5 -31.5t44 31.5t13 94.5q0 67 -13.5 98t-43.5 31zM170 644q-30 0 -43.5 -31.5t-13.5 -94.5q0 -67 13.5 -98t43.5 -31q32 0 45 31t13 94q0 68 -13.5 99t-44.5 31zM487 304q69 0 99.5 -34.5t30.5 -113.5 q0 -78 -33.5 -122t-111.5 -44q-69 0 -99.5 34.5t-30.5 113.5t33.5 122.5t111.5 43.5zM577 694l-450 -724h-55l451 724h54zM178 673q69 0 99.5 -34.5t30.5 -113.5q0 -78 -33 -122t-112 -44q-69 0 -99.5 35t-30.5 113q0 79 33.5 122.5t111.5 43.5z" glyph-name="percent" horiz-adv-x="651" unicode="%"/>
<glyph d="M432 100q-72 62 -126.5 115t-92.5 100q-26 -26 -38.5 -56.5t-12.5 -70.5q0 -70 35 -106.5t95 -36.5q38 0 74.5 14t65.5 41zM344 583q0 51 -18 74t-53 23q-32 0 -52.5 -23.5t-20.5 -67.5q0 -35 14 -74.5t47 -85.5q38 33 60.5 69t22.5 85zM685 107q-15 -33 -34 -63.5 t-41 -54.5h-32q-29 21 -56 41.5t-53 40.5q-43 -39 -99.5 -60t-122.5 -21q-95 0 -146.5 42.5t-51.5 124.5q0 35 9.5 63t26.5 52t40.5 45t51.5 41q-45 62 -63 111.5t-18 92.5q0 37 13.5 66.5t38 50t58.5 31t76 10.5q78 0 122.5 -30.5t44.5 -93.5q0 -38 -13 -66.5t-34.5 -51.5 t-50.5 -43.5t-60 -42.5q35 -43 85 -93t118 -108q17 37 22.5 72.5t5.5 64.5q0 21 -2 43q-12 3 -22 7t-17 8q-8 4 -14 8v28h190v-28q-7 -4 -15 -8q-7 -4 -17 -8t-22 -7q-5 -63 -21 -117.5t-42 -99.5q19 -15 38.5 -30.5t41.5 -31.5l41 33z" glyph-name="ampersand" horiz-adv-x="717" unicode="&amp;"/>
<glyph d="M148 747l-21 -279h-57l-20 279h98z" glyph-name="quotesingle" horiz-adv-x="197" unicode="'"/>
<glyph d="M236 -203q-88 105 -133 234t-45 276q0 148 45 277t133 235l29 -19q-28 -50 -49.5 -108.5t-36 -121.5t-22 -129.5t-7.5 -131.5t8 -132t23 -130.5t36 -122.5t48 -109z" glyph-name="parenleft" horiz-adv-x="301" unicode="("/>
<glyph d="M65 819q88 -105 132.5 -234t44.5 -275q0 -149 -45 -278t-133 -235l-29 18q28 50 50 109t37 122.5t22.5 129.5t7.5 131t-8 131.5t-23.5 130.5t-37 122.5t-48.5 108.5z" glyph-name="parenright" horiz-adv-x="301" unicode=")"/>
<glyph d="M192 525q-11 -26 -22 -51t-22 -53l-50 -21l-32 23l8 52l46 34t46 35q-27 3 -55 5.5t-56 4.5l-32 40l14 37l52 7q21 -17 41.5 -33t43.5 -32q-8 28 -15 54.5t-15 54.5l26 47h43l26 -47q-8 -28 -15 -54.5t-14 -54.5q22 16 43 32t42 33l52 -7l13 -37l-31 -40 q-29 -2 -56.5 -4.5t-55.5 -5.5q23 -18 46 -35l46 -34l9 -52l-33 -23l-50 21q-11 28 -21.5 53t-21.5 51z" glyph-name="asterisk" horiz-adv-x="384" unicode="*"/>
<glyph d="M462 278h-190v-212h-57v212h-189v48h189v210h57v-210h190v-48z" glyph-name="plus" unicode="+"/>
<glyph d="M190 18q0 -65 -38 -112t-117 -76l-14 30q47 25 67.5 51t20.5 52q0 21 -10 32.5t-22 21.5t-22 22t-10 35q0 25 16.5 42t44.5 17q35 0 59.5 -30.5t24.5 -84.5z" glyph-name="comma" horiz-adv-x="228" unicode=","/>
<glyph d="M220 260h-190v51h190v-51z" glyph-name="hyphen" horiz-adv-x="250" unicode="-"/>
<glyph d="M220 260h-190v51h190v-51z" glyph-name="hyphen" horiz-adv-x="250" unicode="­"/>
<glyph d="M171 62q0 -32 -19 -52.5t-50 -20.5q-29 0 -47 19.5t-18 51.5t19 52.5t48 20.5t48 -20.5t19 -50.5z" glyph-name="period" horiz-adv-x="207" unicode="."/>
<glyph d="M402 827l-316 -990h-68l316 990h68z" glyph-name="slash" horiz-adv-x="427" unicode="/"/>
<glyph d="M275 624q-32 0 -54 -16.5t-36.5 -51.5t-21 -89.5t-6.5 -131.5q0 -159 26.5 -230.5t90.5 -71.5q63 0 90.5 68t27.5 221q0 159 -26.5 230.5t-90.5 71.5zM286 669q115 0 167 -77t52 -240q0 -183 -57 -273t-185 -90q-114 0 -166.5 77t-52.5 240q0 183 57 273t185 90z" glyph-name="zero" horiz-adv-x="550" unicode="0"/>
<glyph d="M326 0h-293v29q12 5 28 9q14 4 32 8t41 9v519l-116 -28v41q48 20 89.5 40t80.5 42h57q-1 -27 -1 -55v-58v-501q38 -10 59 -17q12 -4 23 -9v-29z" glyph-name="one" horiz-adv-x="342" unicode="1"/>
<glyph d="M423 0h-406v55q61 67 105.5 119.5t75 94t49.5 74t29.5 61.5t14 56t3.5 56q0 62 -21 85.5t-62 23.5q-30 0 -52 -14l-36 -120q-16 -7 -37 -7q-52 0 -52 51q0 31 14 55.5t39 42t60.5 27t77.5 9.5q88 0 136 -35.5t48 -123.5q0 -48 -13.5 -88.5t-47 -87t-91 -106 t-144.5 -144.5h239q5 25 10.5 45.5t10.5 34.5q6 17 12 30h38v-194z" glyph-name="two" horiz-adv-x="461" unicode="2"/>
<glyph d="M429 194q0 -54 -17.5 -92.5t-49 -63.5t-75 -37t-96.5 -12q-87 0 -128.5 29.5t-41.5 79.5q0 26 14.5 40t40.5 14q8 0 15 -1t12 -3l53 -108q19 -7 46 -7q52 0 82 35.5t30 110.5q0 74 -35.5 108.5t-113.5 34.5h-21v43h19q132 0 132 138q0 70 -21.5 96t-68.5 26 q-17 0 -29 -3.5t-23 -8.5l-38 -110q-16 -7 -34 -7q-23 0 -37 13t-14 39q0 54 50 87.5t142 33.5t139 -33t47 -111q0 -33 -9.5 -59.5t-26 -47t-38.5 -35t-46 -23.5q69 -4 105 -44.5t36 -121.5z" glyph-name="three" horiz-adv-x="462" unicode="3"/>
<glyph d="M274 253v323l-188 -323h188zM490 177h-109v-124q15 -4 27 -8t21 -8q10 -4 18 -9v-28h-236v28q7 5 17 9q8 4 20 8t26 8v124h-260v58l252 426h115v-408h56q3 13 7 23t7 18q4 9 7 16h32v-133z" glyph-name="four" horiz-adv-x="508" unicode="4"/>
<glyph d="M405 212q0 -54 -17 -95.5t-48 -70t-73 -43t-91 -14.5q-79 0 -114.5 29.5t-35.5 73.5q0 54 55 54q14 0 23 -3l52 -106q5 -2 14.5 -3.5t18.5 -1.5q53 0 80.5 36t27.5 115q0 40 -10.5 69.5t-36 47.5t-58.5 22.5t-62 4.5q-25 0 -54 -2l-25 19l35 314h249l22 25h30l-17 -110 h-242l-17 -165q25 2 49 2q117 0 181 -46.5t64 -151.5z" glyph-name="five" horiz-adv-x="439" unicode="5"/>
<glyph d="M350 183q0 140 -90 140q-59 0 -103 -46q0 -68 6.5 -115t20 -75.5t33.5 -41t47 -12.5q45 0 65.5 41.5t20.5 108.5zM464 209q0 -106 -58 -163t-159 -57q-50 0 -88 14.5t-63.5 47.5t-38.5 87.5t-13 134.5q0 200 69 297.5t220 97.5q29 0 59 -4t59 -10l-5 -42q-42 9 -79 9 q-59 0 -99 -20.5t-64.5 -58t-35 -91t-11.5 -118.5q28 25 63 42t83 17q77 0 119 -44.5t42 -138.5z" glyph-name="six" horiz-adv-x="497" unicode="6"/>
<glyph d="M419 604q-59 -107 -94.5 -186t-55.5 -141.5t-26.5 -113.5t-6.5 -102q0 -35 -16 -53.5t-47 -18.5q-30 0 -46 17.5t-16 48.5q0 43 14.5 91t43 108.5t72 138.5t102.5 180h-253q-5 -23 -9 -42t-9 -33q-5 -16 -10 -28h-38v188h395v-54z" glyph-name="seven" horiz-adv-x="428" unicode="7"/>
<glyph d="M348 140q0 25 -7.5 45.5t-22.5 39.5t-39 37.5t-57 38.5q-38 -33 -57.5 -67.5t-19.5 -81.5q0 -57 26 -88.5t74 -31.5t75.5 27.5t27.5 80.5zM327 527q0 99 -81 99q-44 0 -64.5 -26.5t-20.5 -64.5q0 -45 25 -77t77 -65q31 28 47.5 60.5t16.5 73.5zM457 167q0 -45 -16.5 -78 t-46.5 -55.5t-71.5 -33.5t-91.5 -11q-100 0 -149 38.5t-49 113.5q0 32 9 58t27 48.5t44.5 43t61.5 40.5q-61 39 -90.5 81.5t-29.5 98.5q0 72 52 115t145 43q94 0 139 -35t45 -99q0 -56 -34 -96t-93 -76q76 -44 112 -88.5t36 -107.5z" glyph-name="eight" horiz-adv-x="492" unicode="8"/>
<glyph d="M341 380q0 69 -7 115.5t-20 75.5t-33.5 41.5t-47.5 12.5q-23 0 -39 -11t-26.5 -31t-15.5 -47.5t-5 -60.5q0 -141 90 -141q29 0 55 12t49 34zM454 384q0 -202 -69.5 -298.5t-219.5 -96.5q-30 0 -61.5 4t-61.5 11l4 42q22 -5 44 -7.5t41 -2.5q59 0 98.5 20.5t64 58t35.5 91 t12 118.5q-28 -25 -63.5 -42t-83.5 -17q-77 0 -119 44.5t-42 138.5q0 106 57 163.5t159 57.5q50 0 88 -14.5t64 -48t39.5 -88t13.5 -134.5z" glyph-name="nine" horiz-adv-x="497" unicode="9"/>
<glyph d="M192 60q0 -32 -19 -51.5t-48 -19.5t-47 19.5t-18 49.5q0 32 19 52t48 20t47 -20t18 -50zM192 398q0 -32 -19 -52t-48 -20t-47 19.5t-18 50.5q0 32 19 51.5t48 19.5t47 -19.5t18 -49.5z" glyph-name="colon" horiz-adv-x="252" unicode=":"/>
<glyph d="M449 48l-419 235v35l419 237v-57l-352 -197l352 -195v-58z" glyph-name="less" unicode="&lt;"/>
<glyph d="M462 186h-436v49h436v-49zM462 370h-436v48h436v-48z" glyph-name="equal" unicode="="/>
<glyph d="M458 283l-419 -235v57l353 196l-353 196v58l419 -237v-35z" glyph-name="greater" unicode="&gt;"/>
<glyph d="M244 61q0 -32 -19.5 -52t-48.5 -20t-47.5 19t-18.5 51t19.5 52t48.5 20t47.5 -19.5t18.5 -50.5zM374 598q0 -38 -12.5 -69t-31.5 -57.5t-40.5 -50t-40.5 -46.5t-31.5 -47.5t-12.5 -53.5v-85h-54q-11 28 -19 56t-8 57q0 46 21.5 80t47 65t47 64t21.5 77q0 48 -19 73.5 t-54 25.5q-23 0 -37 -8l-36 -108l-8 -2q-5 -1 -19 -1q-54 0 -54 54q0 29 15.5 49.5t40 34t55.5 20t63 6.5q166 0 166 -134z" glyph-name="question" horiz-adv-x="406" unicode="?"/>
<glyph d="M486 488q-10 5 -21 8t-25 3q-22 0 -39 -13.5t-30 -35t-21.5 -48.5t-13.5 -54.5t-7.5 -53t-2.5 -42.5q0 -43 8.5 -61.5t24.5 -18.5t33 18t32.5 49t28.5 73t21 90zM779 431q0 -72 -19 -130.5t-50.5 -99.5t-72.5 -63.5t-85 -22.5q-50 0 -70.5 29t-20.5 72q0 10 1 20 q-25 -57 -61.5 -89t-79.5 -32q-48 0 -69.5 31.5t-21.5 94.5q0 27 3.5 59.5t12.5 65.5t24.5 63.5t40 54.5t59 38.5t80.5 14.5q20 0 40 -2.5t39 -5.5l43 9l21 -15q-8 -26 -15.5 -67.5t-13.5 -85t-9.5 -81t-3.5 -55.5q0 -36 9 -51.5t28 -15.5q23 0 44 16t36.5 47.5t25 78 t9.5 106.5q0 61 -17.5 111.5t-49.5 87t-76 56.5t-98 20q-73 0 -134 -34t-105.5 -92.5t-69 -137.5t-24.5 -170q0 -143 62 -220t190 -78q51 0 94.5 10.5t81.5 30.5l13 -27q-93 -60 -215 -60h-4q-145 0 -224 79t-79 243q0 108 34.5 199.5t93 158t137 103.5t165.5 37 q67 0 122.5 -20.5t95 -59.5t61.5 -95t22 -126z" glyph-name="at" horiz-adv-x="821" unicode="@"/>
<glyph d="M357 226l-103 380q-13 -45 -25.5 -94.5t-23.5 -99t-21 -97t-17 -89.5h190zM568 0h-230v29q8 5 18 9q8 4 20 8.5t26 9.5l-33 124h-209q-5 -29 -9 -61t-8 -63q14 -5 25.5 -9.5t19.5 -8.5q10 -4 17 -9v-29h-199v29q6 5 13 9q6 4 14 8.5t19 9.5q41 161 85 320.5t98 314.5h110 l177 -635q11 -5 19.5 -9.5t14.5 -8.5q7 -4 12 -9v-29z" glyph-name="A" horiz-adv-x="575" unicode="A"/>
<glyph d="M401 197q0 72 -36 108t-114 36h-40v-234q0 -20 2.5 -32t10 -18.5t21 -8.5t36.5 -2q64 0 92 40.5t28 110.5zM371 517q0 69 -29 98.5t-81 29.5h-50v-260h56q56 0 80 37t24 95zM520 209q0 -42 -13.5 -80t-44.5 -66.5t-81.5 -45.5t-124.5 -17h-226v29q8 5 19 9q9 4 21 8.5 t28 9.5v579q-15 4 -27.5 9t-20.5 9q-11 4 -18 9v29h257q56 0 93.5 -11.5t60.5 -32.5t33 -49.5t10 -62.5q0 -63 -35 -106.5t-97 -55.5q81 -5 123.5 -47.5t42.5 -116.5z" glyph-name="B" horiz-adv-x="549" unicode="B"/>
<glyph d="M465 26q-40 -18 -86.5 -27.5t-93.5 -9.5q-68 0 -115 19.5t-76.5 60.5t-43 106t-13.5 156q0 181 65.5 276t213.5 95q37 0 74 -5.5t69 -16.5l-12 -168h-37q-6 15 -12 34q-5 17 -11 40t-11 52q-16 10 -34.5 14t-39.5 4q-40 0 -68 -21.5t-45.5 -60.5t-25.5 -93.5t-8 -120.5 q0 -84 7.5 -145.5t25 -101t47.5 -59t75 -19.5q18 0 36 3.5t31 9.5q8 33 16 60.5t16 47.5q9 23 17 42h39v-172z" glyph-name="C" horiz-adv-x="501" unicode="C"/>
<glyph d="M455 345q0 73 -9 129t-30 94.5t-55 58t-85 19.5q-18 0 -35 -0.5t-30 -2.5v-595q11 -1 25.5 -2t26.5 -1q53 0 90 19t59.5 56.5t32.5 93.5t10 131zM573 365q0 -89 -17.5 -157t-56.5 -114.5t-101 -70t-150 -23.5h-218v29q8 5 19 9q9 4 21 8.5t28 9.5v579q-15 4 -27.5 9 t-20.5 9q-11 4 -18 9v29h259q72 0 125 -18t88 -57t52 -101t17 -150z" glyph-name="D" horiz-adv-x="609" unicode="D"/>
<glyph d="M460 0h-430v29q8 5 19 9q9 4 21 8.5t28 9.5v579q-15 4 -27.5 9t-20.5 9q-11 4 -18 9v29h414l8 -163h-38q-8 14 -17 32q-8 15 -16 37t-15 48h-157v-260h92q5 18 12 32t12 25q6 12 12 22h35v-208h-35q-6 10 -12 23q-5 11 -12 26.5t-12 35.5h-92v-295h163q7 30 15.5 55 t15.5 42q8 20 16 37h39v-180z" glyph-name="E" horiz-adv-x="497" unicode="E"/>
<glyph d="M437 691l7 -166h-38q-8 15 -17 33q-8 16 -16 38t-16 49h-146v-268h93q5 18 12 33t12 26q6 12 13 22h34v-213h-34q-7 11 -13 24q-5 11 -11.5 27t-11.5 36h-94v-275q17 -5 31.5 -10t24.5 -9q11 -5 21 -9v-29h-258v29q8 5 19 9q9 4 21 8.5t28 9.5v579q-15 4 -27.5 9t-20.5 9 q-11 4 -18 9v29h405z" glyph-name="F" horiz-adv-x="451" unicode="F"/>
<glyph d="M539 324q-6 -5 -13 -9q-12 -8 -34 -16v-272q-48 -19 -97.5 -29t-100.5 -10q-72 0 -121 20t-79.5 62t-44 106t-13.5 152q0 185 68.5 279.5t224.5 94.5q38 0 79.5 -5t76.5 -16l-14 -166h-38q-6 16 -12 35q-5 17 -11.5 40t-11.5 52q-17 8 -38.5 11.5t-41.5 3.5 q-86 0 -124.5 -80.5t-38.5 -228.5q0 -163 36.5 -238t122.5 -75q17 0 34 2.5t31 7.5v253q-14 4 -25 8.5t-19 8.5q-10 4 -16 9v29h220v-29z" glyph-name="G" horiz-adv-x="566" unicode="G"/>
<glyph d="M637 0h-241v29q6 5 16 9q8 4 19 8.5t25 9.5v283h-245v-283q14 -5 24.5 -9.5t18.5 -8.5q9 -4 17 -9v-29h-241v29q8 5 19 9q9 4 21 8.5t28 9.5v579q-15 4 -27.5 9t-20.5 9q-11 4 -18 9v29h239v-29q-8 -5 -17 -9q-8 -4 -18.5 -8.5t-24.5 -8.5v-250h245v250q-14 4 -25 8.5 t-19 8.5q-10 4 -16 9v29h239v-29q-8 -5 -18 -9q-9 -4 -21 -9t-27 -9v-579q15 -5 27.5 -9.5t21.5 -8.5q11 -4 19 -9v-29z" glyph-name="H" horiz-adv-x="668" unicode="H"/>
<glyph d="M30 0v29q8 5 19 9q9 4 21 8.5t28 9.5v579q-15 4 -27.5 9t-20.5 9q-11 4 -18 9v29h246v-29q-7 -5 -18 -9q-9 -4 -21.5 -9t-27.5 -9v-579q15 -5 27.5 -9.5t21.5 -8.5q11 -4 18 -9v-29h-248z" glyph-name="I" horiz-adv-x="310" unicode="I"/>
<glyph d="M264 662q-7 -5 -17 -9q-8 -4 -19 -9t-25 -9v-509q0 -65 -11 -111.5t-34.5 -80.5t-60.5 -57t-89 -40l-15 31q28 17 46.5 34.5t30 43.5t16 64t4.5 96v529q-15 4 -27 9t-20 9q-10 4 -18 9v29h239v-29z" glyph-name="J" horiz-adv-x="290" unicode="J"/>
<glyph d="M574 0h-158l-205 344v-288q14 -5 26 -9.5t20 -8.5q10 -4 17 -9v-29h-244v29q8 5 19 9q9 4 21 8.5t28 9.5v579q-15 4 -27.5 9t-20.5 9q-11 4 -18 9v29h239v-29q-8 -5 -17 -9q-8 -4 -18.5 -9t-24.5 -9v-262q55 66 102.5 133t87.5 132q-19 7 -31 16q-7 4 -12 8v29h189v-29 q-6 -5 -15 -9q-8 -4 -18 -8.5t-22 -8.5q-45 -57 -91.5 -113t-96.5 -111l218 -357q23 -9 38 -17q8 -4 14 -8v-30z" glyph-name="K" horiz-adv-x="574" unicode="K"/>
<glyph d="M456 0h-426v29q8 5 19 9q9 4 21 8.5t28 9.5v579q-15 4 -27.5 9t-20.5 9q-11 4 -18 9v29h250v-29q-8 -5 -19 -9q-9 -4 -22.5 -9t-29.5 -9v-588h156q8 39 16 71.5t16 55.5q9 27 18 48h39v-222z" glyph-name="L" horiz-adv-x="475" unicode="L"/>
<glyph d="M541 0v29q7 5 17 9q8 4 20 8.5t27 9.5l-38 363l-16 169l-148 -589h-73l-110 434l-39 155l-35 -532q14 -5 25 -9.5t19 -8.5q10 -4 17 -9v-29h-191v29q6 5 14 9q7 4 15.5 8.5t19.5 9.5l69 580q-15 4 -27 9t-20 9q-10 4 -17 9v28h198l94 -363l34 -138l35 138l92 363h197v-28 q-7 -5 -17 -9q-8 -4 -20.5 -9t-26.5 -9l64 -580q11 -5 21 -9.5t17 -8.5q8 -4 14 -9v-29h-231z" glyph-name="M" horiz-adv-x="787" unicode="M"/>
<glyph d="M583 662q-8 -5 -17 -9q-8 -4 -18.5 -9t-24.5 -9l-10 -639h-90l-254 527l-15 50l20 -517q16 -5 29 -9.5t22 -8.5q11 -4 19 -9v-29h-216v29q7 5 18 9q9 4 21 8.5t28 9.5l8 579q-16 4 -28.5 9t-21.5 9q-11 4 -19 9v29h188l224 -465l19 -54l-17 463q-15 4 -27.5 9t-20.5 9 q-10 4 -17 9v29h200v-29z" glyph-name="N" horiz-adv-x="596" unicode="N"/>
<glyph d="M304 656q-79 0 -114.5 -77t-35.5 -233q0 -84 9.5 -143.5t28 -97t46.5 -54.5t66 -17q79 0 114.5 77t35.5 233q0 84 -9.5 143.5t-28 97t-47 54.5t-65.5 17zM315 702q69 0 117.5 -18.5t79.5 -59t45 -105.5t14 -158q0 -87 -14 -156t-46 -117.5t-85.5 -74t-132.5 -25.5 q-69 0 -118 18.5t-80 59t-45 106t-14 158.5q0 87 14 156t46 117t85.5 73.5t133.5 25.5z" glyph-name="O" horiz-adv-x="608" unicode="O"/>
<glyph d="M387 480q0 78 -29 121.5t-94 43.5h-53v-324q30 -6 63 -6q51 0 82 40t31 125zM504 493q0 -46 -12.5 -86.5t-41.5 -71t-75.5 -48t-115.5 -17.5h-23.5t-24.5 1v-215q17 -5 29.5 -9.5t22.5 -8.5q11 -4 20 -9v-29h-253v29q8 5 19 9q9 4 21 8.5t28 9.5v579q-15 4 -27.5 9 t-20.5 9q-11 4 -18 9v29h265q56 0 95.5 -13.5t64 -39t36 -62t11.5 -83.5z" glyph-name="P" horiz-adv-x="514" unicode="P"/>
<glyph d="M304 656q-79 0 -114.5 -77t-35.5 -233q0 -84 9.5 -143.5t28 -97t46.5 -54.5t66 -17q79 0 114.5 77t35.5 233q0 84 -9.5 143.5t-28 97t-47 54.5t-65.5 17zM315 702q69 0 117.5 -18.5t79.5 -59t45 -105.5t14 -158q0 -81 -12 -147t-40 -113.5t-73.5 -76t-112.5 -34.5 l-30 -54q40 13 74 13q2 0 21.5 -0.5t50.5 -8.5t58.5 -19t54 -18.5t53.5 -7.5t56 15l19 -30q-40 -34 -73.5 -43t-61.5 -9q-9 0 -32 2t-58 14.5t-69 24.5t-58 17t-40 5l-35 -4l-19 30l38 72q-66 1 -112.5 20t-76.5 60t-43.5 105t-13.5 156q0 87 14 156t46 117t85.5 73.5 t133.5 25.5z" glyph-name="Q" horiz-adv-x="608" unicode="Q"/>
<glyph d="M368 516q0 65 -26 97t-83 32h-48v-272h40q62 0 89.5 39.5t27.5 103.5zM559 3q-19 -6 -40.5 -10t-41.5 -4q-43 0 -63 21.5t-32 78.5l-24 122q-7 33 -15.5 55.5t-21 36.5t-29 20t-39.5 6h-42v-273q15 -5 27 -9.5t21 -8.5q11 -4 19 -9v-29h-248v29q8 5 19 9q9 4 21 8.5 t28 9.5v579q-15 4 -27.5 9t-20.5 9q-11 4 -18 9v29h254q199 0 199 -162q0 -141 -139 -173q54 -7 83.5 -39t43.5 -99l24 -120q3 -15 7 -28t9 -21l46 -17v-29z" glyph-name="R" horiz-adv-x="563" unicode="R"/>
<glyph d="M431 168q0 -45 -16.5 -79t-47 -56.5t-73 -33.5t-93.5 -11q-40 0 -82 5t-80 13v188h37q6 -17 13 -38q5 -18 12 -43t12 -56q20 -10 45.5 -16.5t56.5 -6.5q54 0 80.5 27.5t26.5 71.5q0 38 -21.5 69.5t-53.5 60t-69 56.5t-69 59.5t-53.5 69t-21.5 85.5q0 42 15.5 74t44 53 t68 32t88.5 11q33 0 70 -4t70 -12v-166h-36q-6 15 -13 34q-6 16 -13 38.5t-12 50.5q-14 7 -35 11t-43 4q-50 0 -74 -26t-24 -66q0 -37 21.5 -67.5t54 -58.5t70 -56.5t70 -60.5t54 -70t21.5 -86z" glyph-name="S" horiz-adv-x="460" unicode="S"/>
<glyph d="M479 505q-7 16 -15 38q-7 18 -14.5 44t-13.5 58h-113v-588q37 -9 60 -18q12 -5 23 -10v-29h-278v29q11 5 23 10q20 9 59 18v588h-112q-7 -32 -14.5 -58t-13.5 -44q-8 -22 -15 -38h-39v186l39 11l43 -11h338l43 11l38 -11v-186h-38z" glyph-name="T" horiz-adv-x="534" unicode="T"/>
<glyph d="M607 662q-7 -5 -17 -9q-8 -4 -19.5 -9t-25.5 -9l-7 -389q-2 -119 -58 -188.5t-170 -69.5q-61 0 -103.5 14.5t-69.5 42.5t-39.5 69.5t-12.5 95.5v425q-15 4 -27 9t-20 9q-10 4 -17 9v29h241v-29q-8 -5 -18 -9q-8 -4 -20.5 -9t-26.5 -9v-403q0 -97 31 -146t106 -49 t105.5 47.5t30.5 142.5v18l-8 390q-14 4 -25 9t-19 9q-10 4 -17 9v29h206v-29z" glyph-name="U" horiz-adv-x="623" unicode="U"/>
<glyph d="M559 662q-6 -5 -13 -9q-6 -4 -14.5 -9t-18.5 -9q-41 -161 -83.5 -320.5t-96.5 -314.5h-110l-176 635q-11 4 -19 9t-14 9q-7 4 -12 9v29h229v-29q-8 -5 -18 -9q-8 -4 -19.5 -9t-25.5 -9l145 -549q18 64 34.5 133.5t31 140t25.5 140.5t19 135q-14 4 -24.5 9t-18.5 9 q-9 4 -16 9v29h195v-29z" glyph-name="V" horiz-adv-x="561" unicode="V"/>
<glyph d="M779 662q-6 -5 -13 -9q-6 -4 -15 -9t-20 -9q-26 -164 -59.5 -320t-71.5 -315h-108l-87 407l-18 91l-87 -498h-112l-134 635q-11 4 -19 9t-14 9q-7 4 -13 9v29h225v-29q-7 -5 -17 -9q-8 -4 -19 -8.5t-25 -8.5l77 -390l24 -125l97 570h87l94 -438l27 -132q24 125 42 257 t28 257q-14 4 -25 9t-19 9q-10 4 -16 9v29h191v-29z" glyph-name="W" horiz-adv-x="787" unicode="W"/>
<glyph d="M334 0v29q7 5 16 9q8 4 18 8.5t23 9.5l-117 234l-112 -234q14 -5 24.5 -9.5t18.5 -8.5q9 -4 17 -9v-29h-208v29q6 5 14 10q7 4 17 8.5t22 8.5l174 282l-160 298q-11 4 -20.5 8.5t-15.5 8.5q-8 4 -13 9v29h241v-29q-7 -5 -16 -9q-8 -4 -18.5 -8t-23.5 -8l106 -213l103 212 q-11 4 -20 8.5t-15 8.5q-7 4 -13 9v29h189v-29q-7 -5 -15 -9t-17.5 -9t-21.5 -9l-158 -258l175 -321q11 -5 21 -9.5t17 -8.5q8 -4 14 -9v-29h-246z" glyph-name="X" horiz-adv-x="595" unicode="X"/>
<glyph d="M543 662q-5 -5 -12 -9q-6 -4 -14 -9t-18 -9l-170 -366v-213q18 -4 33 -8.5t26 -8.5q12 -5 22 -10v-29h-275v29q10 5 22 10q11 4 26 8.5t33 8.5v213l-171 366q-10 4 -17.5 9t-12.5 9q-6 4 -12 9v29h222v-29q-6 -5 -14 -9q-7 -4 -15.5 -8.5t-19.5 -8.5l131 -293 q33 74 58.5 147t45.5 146q-11 4 -19.5 8.5t-15.5 8.5q-8 4 -14 9v29h181v-29z" glyph-name="Y" horiz-adv-x="546" unicode="Y"/>
<glyph d="M439 201q-1 -24 -1 -55q0 -26 -0.5 -63.5t-0.5 -82.5h-405v44l274 602h-166q-8 -32 -17 -58t-17 -44q-9 -22 -18 -38h-38q2 22 4 51q2 24 3.5 58t3.5 76h371v-43l-273 -603h187q8 35 17.5 64.5t17.5 49.5q10 24 19 42h39z" glyph-name="Z" horiz-adv-x="477" unicode="Z"/>
<glyph d="M268 -195h-181v1006h181v-30q-12 -5 -27 -9q-13 -4 -31 -8t-40 -8v-896q22 -5 40 -9.5t31 -8.5q15 -4 27 -9v-28z" glyph-name="bracketleft" horiz-adv-x="306" unicode="["/>
<glyph d="M410 -163h-68l-317 990h68z" glyph-name="backslash" horiz-adv-x="427" unicode="\"/>
<glyph d="M219 -195h-181v28q12 5 27 9q13 4 30.5 8.5t40.5 9.5v896q-23 4 -40.5 8t-30.5 8q-15 4 -27 9v30h181v-1006z" glyph-name="bracketright" horiz-adv-x="306" unicode="]"/>
<glyph d="M452 310h-84l-126 304l-125 -304h-81l175 397h66z" glyph-name="asciicircum" unicode="^"/>
<glyph d="M488 -201h-488v48h488v-48z" glyph-name="underscore" unicode="_"/>
<glyph d="M215 533h-43l-138 134v22h102l79 -134v-22z" glyph-name="grave" horiz-adv-x="249" unicode="`"/>
<glyph d="M271 219q-20 3 -44 3q-27 0 -45.5 -7t-29 -19.5t-15 -30t-4.5 -37.5q0 -83 50 -83q38 0 63 35.5t25 100.5v38zM428 13q-15 -4 -33 -8q-16 -3 -38 -7t-49 -7l-19 10q-5 14 -6.5 33t-2.5 37q-17 -38 -54 -60t-85 -22q-60 0 -86 32.5t-26 89.5v1q0 66 48 107.5t156 41.5 h20.5t17.5 -1q0 18 0.5 35.5t0.5 32.5q0 55 -15.5 78.5t-53.5 23.5q-19 0 -40 -8l-27 -78q-13 -5 -34 -5q-54 0 -54 45q0 16 8.5 31.5t28.5 27.5t52.5 19.5t81.5 7.5q79 0 118 -29t39 -104q0 -46 -1 -100.5t-1 -97.5q0 -21 1.5 -42.5t4.5 -39.5l48 -15v-29z" glyph-name="a" horiz-adv-x="444" unicode="a"/>
<glyph d="M263 410q-18 0 -35 -11.5t-30 -33.5t-21 -52.5t-8 -68.5v-193q29 -20 67 -20q28 0 47 15t31 41.5t17.5 63t5.5 79.5q0 83 -17 131.5t-57 48.5zM304 470q40 0 66.5 -17t43 -47t23.5 -70t7 -85q0 -50 -10.5 -97t-36 -83.5t-67.5 -58.5t-105 -22q-41 0 -81 5.5t-73 15.5 l-11 16q2 15 3.5 34t1.5 42v555l-59 17v29l40 8q19 4 45.5 7.5t59.5 7.5l21 -10q-3 -45 -3 -149v-186q19 42 53.5 65t81.5 23z" glyph-name="b" horiz-adv-x="477" unicode="b"/>
<glyph d="M360 51q-32 -29 -72 -45.5t-90 -16.5q-48 0 -80 17t-50.5 47.5t-26.5 72t-8 91.5q0 52 9.5 98t32 80.5t59.5 54.5t91 20q57 0 94 -21t37 -66q0 -54 -52 -54q-20 0 -34 8l-26 88q-5 2 -11.5 3t-13.5 1q-22 0 -37 -15t-24.5 -42t-13.5 -63.5t-4 -78.5q0 -40 5 -73.5t16 -58 t30 -38.5t46 -14t52.5 9.5t51.5 26.5z" glyph-name="c" horiz-adv-x="377" unicode="c"/>
<glyph d="M240 428q-28 0 -47 -15t-31 -41.5t-17 -63t-5 -79.5q0 -83 16.5 -131.5t57.5 -48.5q18 0 35 11.5t30 33t21 52.5t8 69v193q-30 20 -68 20zM251 469q14 0 29.5 -1t27.5 -3v193l-64 17v29q18 4 41 8q20 4 47.5 7.5t61.5 7.5l21 -10q-2 -23 -2.5 -59.5t-0.5 -82.5v-438 q0 -22 1 -42t3 -37l49 -16v-28q-16 -4 -35 -8q-17 -4 -39.5 -8t-51.5 -7l-21 10q-3 18 -4 35t-1 30v18q-20 -46 -55.5 -70.5t-84.5 -24.5q-40 0 -66.5 17t-43 47t-23.5 70t-7 85q0 50 10.5 97t35.5 83.5t67 58.5t105 22z" glyph-name="d" horiz-adv-x="482" unicode="d"/>
<glyph d="M286 299q0 61 -14.5 96t-50.5 35q-75 0 -81 -143h146v12zM389 306q0 -11 -0.5 -24t-1.5 -24l-248 -23v-8q0 -41 6 -74.5t19 -57t35.5 -36t55.5 -12.5t63 8t61 22l16 -32q-38 -28 -84.5 -42t-97.5 -14q-50 0 -84.5 16.5t-55.5 46.5t-30.5 71.5t-9.5 90.5t8 95t29.5 82 t59.5 57.5t97 21.5q85 0 123.5 -44t38.5 -120z" glyph-name="e" horiz-adv-x="420" unicode="e"/>
<glyph d="M352 651q0 -23 -13 -36.5t-36 -13.5q-20 0 -33 8l-26 73q-8 3 -18 3q-23 0 -34.5 -28.5t-11.5 -101.5v-96h100v-49h-100v-358q33 -8 50 -15q11 -4 19 -9v-28h-228v28q6 4 15 8q8 4 17.5 8t22.5 8v358h-60v30l60 17v35q0 115 38 175t121 60q60 0 88.5 -20.5t28.5 -55.5z " glyph-name="f" horiz-adv-x="286" unicode="f"/>
<glyph d="M283 325q0 50 -14.5 77.5t-58.5 27.5q-39 0 -56 -27.5t-17 -78.5q0 -49 14 -76.5t58 -27.5q39 0 56.5 27t17.5 78zM342 -54q0 29 -19.5 43.5t-70.5 21.5l-58 9q-9 2 -17.5 3.5t-13.5 2.5q-30 -27 -42 -53.5t-12 -50.5q0 -15 4.5 -28.5t16 -23.5t30.5 -15.5t48 -5.5 q66 0 100 28t34 69zM407 491l-50 -61q15 -16 22.5 -38t7.5 -55q0 -34 -8.5 -63t-30 -50t-58 -33t-91.5 -12q-8 0 -18.5 0.5t-18.5 1.5l-26 -42q8 -7 28.5 -14.5t63.5 -13.5l58 -8q74 -12 104 -40t30 -80q0 -38 -17.5 -72t-50.5 -60t-79 -41.5t-103 -15.5q-84 0 -122.5 25.5 t-38.5 70.5q0 31 22.5 67.5t84.5 81.5q-20 7 -35.5 16t-26.5 19v27l62 88q-42 13 -62.5 41t-20.5 81q0 34 8.5 63t29.5 50.5t57.5 33.5t92.5 12q30 0 65 -6l102 51z" glyph-name="g" horiz-adv-x="435" unicode="g"/>
<glyph d="M493 0h-155v289q0 53 -14 87t-51 34q-21 0 -39 -11.5t-31.5 -33.5t-21 -52.5t-7.5 -68.5v-192q12 -4 22 -8t18 -8l16 -8v-28h-211v28q6 4 14 8q7 4 16.5 8t20.5 8v606l-61 17v29q18 4 41 8q38 7 106 15l20 -10q-1 -21 -1.5 -63t-0.5 -99v-173q18 42 54.5 65t88.5 23 q36 0 60.5 -12t38.5 -32.5t20 -48t6 -57.5v-268q11 -4 20.5 -8t16.5 -8q8 -4 14 -8v-28z" glyph-name="h" horiz-adv-x="511" unicode="h"/>
<glyph d="M21 0v28q6 4 15 8q8 4 17.5 8t22.5 8v347l-55 17v28q17 5 39 9q36 7 103 15l20 -10q-2 -22 -2.5 -52t-0.5 -59v-295q12 -4 21.5 -8t16.5 -8q8 -4 14 -8v-28h-211zM194 607q0 -29 -18 -49t-48 -20q-29 0 -47 18.5t-18 48.5t18 49.5t49 19.5q28 0 46 -18t18 -49z" glyph-name="i" horiz-adv-x="252" unicode="i"/>
<glyph d="M186 607q0 -29 -18 -49t-49 -20q-28 0 -46 18.5t-18 48.5t18 49.5t48 19.5q29 0 47 -18t18 -49zM175 459q-3 -42 -3 -113v-291q0 -100 -40.5 -163.5t-129.5 -98.5l-17 28q43 29 63 76t20 125v377l-51 17v28q17 5 38 9q18 4 43.5 7.5t56.5 7.5z" glyph-name="j" horiz-adv-x="236" unicode="j"/>
<glyph d="M461 0h-142l-145 236v-184q11 -4 19 -8t14 -8q7 -4 13 -8v-28h-201v28q6 4 14 8q7 4 16.5 8t20.5 8v606l-61 17v29q18 4 41 8q38 7 106 15l21 -10q-3 -42 -3 -141v-312q35 33 65.5 70.5t54.5 74.5q-9 3 -17 7t-13 7q-7 4 -12 8v28h189v-28q-7 -4 -15 -8q-7 -4 -16.5 -8 t-21.5 -7q-26 -30 -58 -62.5t-64 -58.5l153 -237q9 -3 17 -7t13 -7l12 -8v-28z" glyph-name="k" horiz-adv-x="464" unicode="k"/>
<glyph d="M225 0h-206v28q6 4 14 8q7 4 16.5 8t20.5 8v606l-61 17v29q18 4 41 8q38 7 106 15l21 -10q-2 -23 -2.5 -56.5t-0.5 -81.5v-527q11 -4 20.5 -8t16.5 -8q8 -4 14 -8v-28z" glyph-name="l" horiz-adv-x="244" unicode="l"/>
<glyph d="M762 0h-155v289q0 54 -13.5 87.5t-50.5 33.5q-20 0 -38 -11.5t-31.5 -33.5t-21.5 -52.5t-8 -68.5v-192q13 -4 22.5 -8t17.5 -8t15 -8v-28h-157v289q0 53 -13.5 87t-50.5 34q-41 0 -69.5 -45t-28.5 -121v-192q12 -4 22 -8t18 -8q9 -4 15 -8v-28h-214v28q6 4 15 8 q8 4 17.5 8t22.5 8v347l-55 17v29q16 4 37 8q17 4 42 7.5t55 7.5l19 -10v-84q18 45 55.5 70.5t91.5 25.5q100 0 118 -95q18 45 55.5 70t91.5 25q36 0 60 -12t38.5 -32.5t20.5 -48t6 -57.5v-268q11 -4 20.5 -8t16.5 -8q8 -4 14 -8v-28z" glyph-name="m" horiz-adv-x="779" unicode="m"/>
<glyph d="M499 0h-154v289q0 53 -14 87t-51 34q-21 0 -39 -11.5t-31.5 -33.5t-21.5 -52.5t-8 -68.5v-192q12 -4 22 -8t18 -8l16 -8v-28h-215v28q6 4 15 8q8 4 17.5 8t22.5 8v347l-55 17v29q16 4 37 8q17 4 42 7.5t55 7.5l19 -10v-84q18 45 56 70.5t93 25.5q36 0 60.5 -12t39 -32.5 t20.5 -48t6 -57.5v-268q11 -4 20 -8t16 -8q8 -4 14 -8v-28z" glyph-name="n" horiz-adv-x="517" unicode="n"/>
<glyph d="M239 428q-29 0 -48 -14.5t-30 -40.5t-16 -61t-5 -75q0 -98 21.5 -152t77.5 -54q28 0 47.5 14.5t30.5 40.5t16 60.5t5 75.5v1q0 97 -21.5 151t-77.5 54zM251 470q58 0 96 -15.5t59.5 -45.5t30 -72.5t8.5 -96.5q0 -45 -9 -89.5t-33 -80.5t-66.5 -58.5t-109.5 -22.5 q-59 0 -96.5 15.5t-59 45.5t-30 72.5t-8.5 96.5v1q0 45 8.5 89.5t32.5 80t66.5 58t110.5 22.5z" glyph-name="o" horiz-adv-x="479" unicode="o"/>
<glyph d="M69 399l-51 17v29q16 4 36 8q33 7 94 15l20 -10v-84q18 46 54.5 71t85.5 25q40 0 66.5 -17t43 -47t23.5 -70t7 -85q0 -50 -10.5 -97t-35.5 -83t-66.5 -58t-103.5 -22q-16 0 -31 1t-28 3v-134l61 -18v-28q-17 -3 -40 -7q-20 -3 -47 -6.5t-60 -6.5l-21 11q2 20 2.5 44 t0.5 56v493zM267 410q-18 0 -35 -11.5t-30 -33.5t-21 -52.5t-8 -68.5v-193q29 -20 67 -20q28 0 47 15t31 41.5t17.5 63t5.5 79.5q0 83 -16.5 131.5t-57.5 48.5z" glyph-name="p" horiz-adv-x="482" unicode="p"/>
<glyph d="M308 408q-30 20 -68 20q-28 0 -47 -15t-31 -41.5t-17 -62.5t-5 -79v-1q0 -83 16.5 -131.5t57.5 -48.5q18 0 35 11.5t30 33t21 52.5t8 69v193zM471 -184q-18 -4 -40 -8q-19 -3 -46 -6.5t-59 -6.5l-20 11q1 19 1.5 41.5t0.5 52.5v177q-19 -42 -53.5 -65t-81.5 -23 q-40 0 -66.5 17t-43 47t-23.5 70t-7 85q0 50 10.5 97t35.5 83.5t67 58.5t105 22q23 0 46.5 -2t47.5 -6l51 8l20 -11q-2 -23 -3 -54t-1 -66v-476l59 -18v-28z" glyph-name="q" horiz-adv-x="477" unicode="q"/>
<glyph d="M348 410q0 -24 -13 -39.5t-36 -20.5l-57 43q-29 -19 -45.5 -58.5t-16.5 -96.5v-185q15 -4 27 -8t20 -8q10 -4 18 -9v-28h-224v28q6 4 15 8q8 4 17.5 8t22.5 8v347l-55 17v29q16 4 37 8q17 4 42 7.5t55 7.5l20 -10v-89q16 48 45 74.5t65 26.5q32 0 47.5 -16t15.5 -44z" glyph-name="r" horiz-adv-x="355" unicode="r"/>
<glyph d="M283 332q-6 11 -12 25q-5 12 -11 28t-11 36q-13 5 -27 7t-28 2q-31 0 -50.5 -14.5t-19.5 -43.5q0 -24 17 -42t42 -33.5t54.5 -30.5t54.5 -34t42 -44.5t17 -61.5q0 -60 -45 -98.5t-128 -38.5q-32 0 -66.5 6t-64.5 19l-5 133h36q6 -13 13 -29q6 -14 13 -32t13 -41 q14 -8 32.5 -11.5t36.5 -3.5q74 0 74 60q0 26 -16.5 44.5t-41.5 34.5t-54.5 31t-54.5 34t-41.5 44t-16.5 60q0 60 45.5 96t121.5 36q59 0 112 -18l3 -120h-34z" glyph-name="s" horiz-adv-x="377" unicode="s"/>
<glyph d="M301 28q-53 -39 -124 -39q-56 0 -80.5 31.5t-24.5 88.5v301h-58v30l63 19l62 158h37v-158h112v-49h-112v-259q0 -54 9 -79t41 -25q29 0 61 15z" glyph-name="t" horiz-adv-x="311" unicode="t"/>
<glyph d="M494 14q-16 -4 -36 -8q-17 -4 -42 -8t-54 -7l-20 10v83q-18 -45 -55.5 -70t-92.5 -25q-37 0 -61 12t-38.5 32.5t-20.5 48t-6 57.5v260l-52 17v28q17 5 38 9q18 4 43.5 7.5t57.5 7.5l20 -10q-2 -21 -2.5 -50t-0.5 -66v-172q0 -53 13.5 -87t51.5 -34q21 0 39 11.5 t31.5 33.5t21.5 52t8 68v185l-52 17v28q17 5 38 9q18 4 43.5 7.5t56.5 7.5l20 -10q-1 -21 -1.5 -51.5t-0.5 -78.5v-268l53 -17v-29z" glyph-name="u" horiz-adv-x="512" unicode="u"/>
<glyph d="M160 0l-121 408q-8 3 -13.5 7t-10.5 8t-9 8v28h188v-28l-12 -8q-5 -4 -13 -8t-17 -7l93 -337q26 79 45 162t31 174q-9 4 -16 8t-12 8q-6 4 -10 8v28h144v-28q-4 -4 -9 -8t-10.5 -8t-12.5 -8q-24 -100 -57.5 -205.5t-72.5 -201.5h-105z" glyph-name="v" horiz-adv-x="433" unicode="v"/>
<glyph d="M651 431l-8 -8q-4 -4 -10 -8t-13 -8q-19 -102 -49.5 -207.5t-64.5 -199.5h-101l-50 189l-32 114q-14 -82 -29 -153t-36 -150h-106l-112 408q-8 3 -14 7t-11 8t-9 8v28h191v-28q-6 -4 -13 -8q-6 -4 -14 -8t-19 -7l51 -204l32 -126q10 43 20 90.5t19 97t17.5 99t16.5 95.5 h76l79 -284l23 -99q21 77 37 160.5t27 170.5q-10 3 -18 7t-14 8q-7 4 -12 8v28h146v-28z" glyph-name="w" horiz-adv-x="659" unicode="w"/>
<glyph d="M254 0v27q4 3 10 7q5 3 12 6.5t16 7.5l-82 139l-79 -139q8 -4 13.5 -7.5t10.5 -6.5q5 -4 9 -7v-27h-160v28q4 4 10 8q11 8 28 15l136 177l-120 181q-9 3 -16 7t-12 7q-6 4 -11 7v29h202v-28q-5 -2 -10 -6q-5 -3 -10.5 -6.5t-13.5 -5.5l70 -118l71 117q-16 7 -22 12 q-4 4 -8 7v28h153v-29q-5 -3 -11 -7q-5 -3 -13 -7t-17 -7l-122 -154l137 -204q19 -8 29 -15q6 -4 11 -8v-28h-211z" glyph-name="x" horiz-adv-x="471" unicode="x"/>
<glyph d="M160 0l-121 408q-8 3 -13.5 7t-10.5 8t-9 8v28h188v-28l-12 -8q-5 -4 -13 -8t-17 -7l93 -337q26 79 45 162t31 174q-9 4 -16 8t-12 8q-6 4 -10 8v28h144v-28l-32 -24q-23 -98 -55.5 -204.5t-74.5 -202.5q-27 -60 -50 -100t-46.5 -63.5t-49 -33t-55.5 -9.5 q-41 0 -60.5 14.5t-19.5 37.5q0 21 14 34t34 13q19 0 39.5 -8.5t42.5 -8.5q13 0 25 6t23.5 20.5t23.5 38t27 59.5h-53z" glyph-name="y" horiz-adv-x="435" unicode="y"/>
<glyph d="M349 0h-327v32l203 388h-114q-7 -23 -14 -41t-14 -31q-8 -15 -15 -27h-33l8 138h303v-32l-202 -386h127q8 26 17 46.5t17 35.5q9 18 18 31h33z" glyph-name="z" horiz-adv-x="381" unicode="z"/>
<glyph d="M287 -198q-48 0 -81.5 5.5t-55 19.5t-31.5 39t-10 64v261q0 49 -17.5 75.5t-70.5 31.5v30q54 5 71 29.5t17 71.5v237q0 43 10.5 71.5t32.5 45t55.5 23.5t79.5 7v-31q-47 0 -70.5 -24t-23.5 -78v-235q0 -52 -22 -85t-73 -47q51 -14 73 -45.5t22 -84.5v-239 q0 -60 21.5 -85.5t72.5 -26.5v-30z" glyph-name="braceleft" horiz-adv-x="326" unicode="{"/>
<glyph d="M148 -163h-64v990h64v-990z" glyph-name="bar" horiz-adv-x="233" unicode="|"/>
<glyph d="M305 300q-27 -2 -44.5 -9.5t-27.5 -20t-14 -30.5t-4 -41v-250q0 -43 -10.5 -71.5t-32.5 -45t-55 -23.5t-79 -7v31q48 0 71.5 24t23.5 77v248q0 53 21.5 85.5t72.5 47.5q-51 14 -72.5 45.5t-21.5 84.5v226q0 60 -22 85t-72 26v31q47 0 80.5 -5.5t54.5 -20t31 -39.5t10 -64 v-248q0 -49 18 -75.5t72 -30.5v-30z" glyph-name="braceright" horiz-adv-x="326" unicode="}"/>
<glyph d="M450 596q-7 -89 -40 -127.5t-82 -38.5q-32 0 -56.5 18.5t-45.5 40t-40 40t-40 18.5t-36 -21.5t-22 -69.5l-50 7q7 89 40 127t82 38q32 0 57 -18.5t46 -40t40 -40t39 -18.5q22 0 36 21.5t22 69.5z" glyph-name="asciitilde" unicode="~"/>
<glyph glyph-name="nonbreakingspace" horiz-adv-x="200" unicode=" "/>
<glyph d="M37 508q0 32 19.5 52t48.5 20t47.5 -19t18.5 -51t-19.5 -52t-48.5 -20t-47.5 19.5t-18.5 50.5zM42 -88q0 34 3.5 85t8.5 112.5t11.5 130.5t11.5 140h54q6 -71 12 -140t11 -130.5t8.5 -112.5t3.5 -85q0 -37 -16.5 -56t-45.5 -19t-45.5 19t-16.5 56z" glyph-name="exclamdown" horiz-adv-x="228" unicode="¡"/>
<glyph d="M163 424q0 -75 15 -115t46 -55l26 362q-46 -8 -66.5 -57.5t-20.5 -134.5zM218 185q-41 3 -70.5 17t-49 41t-29 68t-9.5 99q0 115 46 179.5t148 70.5l9 118h45l-10 -118q59 -4 93.5 -25t34.5 -62q0 -54 -51 -54q-11 0 -19.5 2.5t-15.5 6.5l-25 88q-5 1 -10 1.5t-10 1.5 l-27 -377h13q37 0 68.5 9t63.5 27l16 -30q-67 -61 -165 -64h-1l-11 -137h-44z" glyph-name="cent" unicode="¢"/>
<glyph d="M463 132q0 -24 -12.5 -49.5t-33.5 -46t-49.5 -34t-60.5 -13.5q-26 0 -49 5.5t-44 12.5t-41.5 12.5t-41.5 5.5q-24 0 -42 -8.5t-36 -25.5l-29 29q28 33 48 61t32.5 55t18 54t5.5 58q0 18 -2 35t-5 34h-92v42h83q-8 35 -15 68t-7 68q0 42 14.5 75t40.5 55t60.5 33.5 t75.5 11.5q36 0 62 -7t43 -19t25.5 -27.5t8.5 -32.5q0 -22 -13.5 -36.5t-39.5 -14.5q-7 0 -14.5 1t-13.5 4l-34 84q-17 5 -37 5q-35 0 -55.5 -23t-20.5 -70q0 -43 11 -86.5t19 -88.5h127v-42h-121q3 -21 3 -41q0 -48 -21 -93t-72 -92q24 10 47 10q6 0 22.5 -2t42 -10.5 t49.5 -17.5t45 -9q17 0 27 5v105q18 12 41 12q24 0 37.5 -13.5t13.5 -38.5z" glyph-name="sterling" unicode="£"/>
<glyph d="M452 68l-89 -34l-51 131q-33 -10 -79 -10q-34 0 -59 5l-50 -126l-88 34l80 116q-11 8 -19 18q-19 24 -27 58t-7 76q-1 36 7 72t30 64q10 13 23 24l21 -30l45 28l-12 31q33 11 79 11q33 0 58 -5l-14 -37l44 -28l28 40q12 -8 20 -18q18 -24 26 -58t7 -77q1 -35 -7 -71 t-29 -64q-10 -13 -24 -24zM244 495q-22 0 -36 -11q-14 -10 -23 -30t-13 -46t-4 -58q0 -74 17 -114t59 -40q22 0 36 11t24 30q8 19 12 45t4 58q0 74 -16 114t-60 41zM452 622l-88 36l-50 -127q14 -3 26 -7q18 -7 32 -18zM126 658l-90 -36l87 -126q15 12 35 22q9 4 19 7z" glyph-name="currency" unicode="¤"/>
<glyph d="M479 629q-5 -4 -11 -8q-5 -4 -12 -8.5t-16 -8.5l-141 -301v-18h141v-42h-141v-81h141v-41h-141v-69q17 -4 31 -8t25 -8t21 -8v-28h-264v28q9 4 21 8q10 4 24.5 8t31.5 8v69h-141v41h141v81h-141v42h141v18l-140 299q-9 4 -16.5 9t-12.5 9q-6 4 -11 9v29h205v-29l-12 -8 q-5 -4 -13 -8t-17 -7l106 -237q28 63 48 119.5t35 118.5q-10 3 -17.5 7t-12.5 7l-12 8v29h160v-29z" glyph-name="yen" unicode="¥"/>
<glyph d="M148 439h-64v388h64v-388zM148 -163h-64v387h64v-387z" glyph-name="brokenbar" horiz-adv-x="233" unicode="¦"/>
<glyph d="M399 157q0 53 -23 96t-55.5 81.5t-67 75t-58 76t-26.5 65.5t-3 34q0 38 21 84q-80 -81 -80 -193q0 -53 23.5 -96t56 -81.5t67 -75t58 -76t26.5 -65.5t3 -34q0 -38 -22 -84q41 42 60.5 87.5t19.5 100.5v5zM479 203q0 -68 -27.5 -130.5t-71 -111t-97.5 -77.5t-106 -29 q-42 0 -62 17.5t-20 40.5t15.5 36t37.5 13q5 0 10 -1l55 -58q30 8 47 28.5t17 52.5q0 34 -18.5 65.5t-46.5 63t-60 64.5t-60 71t-46.5 82.5t-18.5 98.5q0 68 28 131t71.5 111.5t97 77.5t105.5 29q42 0 62 -17.5t20 -41.5q0 -23 -15 -35.5t-36 -12.5q-6 0 -12 1l-54 57 q-30 -8 -47.5 -28t-17.5 -52q0 -34 18.5 -65.5t46.5 -63t60 -64.5t60 -71.5t46.5 -83t18.5 -98.5z" glyph-name="section" horiz-adv-x="507" unicode="§"/>
<glyph d="M321 608q0 -27 -16.5 -45t-43.5 -18q-26 0 -42 17.5t-16 43.5t17 44t43 18t42 -17t16 -43zM153 608q0 -27 -17 -45t-44 -18q-26 0 -41.5 17.5t-15.5 43.5t16.5 44t42.5 18t42.5 -17t16.5 -43z" glyph-name="dieresis" horiz-adv-x="356" unicode="¨"/>
<glyph d="M529 196q-29 -31 -71 -48t-90 -17q-85 0 -127.5 48.5t-42.5 158.5q0 121 49 176.5t144 55.5q60 0 97 -22t37 -61q0 -49 -49 -49q-20 0 -35 9l-24 81q-11 4 -30 4q-41 0 -64 -41t-23 -138q0 -92 25.5 -129.5t76.5 -37.5q56 0 107 37zM656 344q0 66 -20.5 124.5t-57 101.5 t-88 68t-112.5 25q-62 0 -112.5 -25t-87.5 -67.5t-57 -100t-20 -123.5t20 -124.5t57 -102t88.5 -68.5t113.5 -25q61 0 112 25t87.5 68t56.5 101t20 123zM714 349q0 -77 -26 -143.5t-71 -115t-107 -76.5t-134 -28t-133.5 27.5t-105.5 75.5t-69 113t-25 140q0 77 26 143.5 t71.5 115t107.5 76.5t135 28q72 0 132.5 -27t105 -75t69 -113t24.5 -141z" glyph-name="copyright" horiz-adv-x="756" unicode="©"/>
<glyph d="M233 512q-5 1 -13 1.5t-16 0.5q-64 0 -64 -67q0 -59 35 -59q26 0 42 29t16 66v29zM356 229h-296v40h296v-40zM364 360q-11 -3 -26 -6q-13 -3 -30.5 -6t-38.5 -6l-17 9q-3 11 -5.5 23t-3.5 24q-15 -28 -41.5 -43t-60.5 -15q-46 0 -68 23.5t-22 67.5v8q0 51 38 79t117 28 h15t13 -1v46q0 43 -12.5 60t-35.5 17q-17 0 -27 -3l-19 -62q-17 -5 -33 -5q-42 0 -42 38q0 29 33 47.5t102 18.5q67 0 95.5 -25t28.5 -81v-133q0 -40 7 -65l33 -12v-26z" glyph-name="ordfeminine" horiz-adv-x="406" unicode="ª"/>
<glyph d="M221 250l158 204l34 -18l-87 -186l87 -186l-34 -19zM37 250l179 227l33 -18l-103 -209l103 -209l-33 -18z" glyph-name="guillemotleft" horiz-adv-x="456" unicode="«"/>
<glyph d="M444 85h-59v193h-359v48h418v-241z" glyph-name="logicalnot" unicode="¬"/>
<glyph d="M342 511q0 26 -11.5 37t-35.5 11h-23v-99h19q28 0 39.5 12.5t11.5 38.5zM439 320q-11 -6 -25 -9.5t-27 -3.5q-19 0 -30.5 10.5t-19.5 37.5l-13 38q-9 25 -17.5 32.5t-20.5 7.5h-14v-91q15 -3 23 -6l9 -3v-22h-128v22q4 1 8 3t9.5 2.5t13.5 2.5v213q-7 1 -12 2.5t-9 3.5 t-8 3v22h129q55 0 79 -17t24 -53q0 -26 -16 -42.5t-51 -24.5q20 -4 31 -15.5t16 -28.5l13 -34q5 -20 11 -26l25 -8v-16zM503 447q0 41 -13 81.5t-39 72.5t-64 52t-87 20q-48 0 -86 -19t-63.5 -50.5t-39 -72.5t-13.5 -85q0 -41 13 -81.5t38.5 -72.5t63 -52t87.5 -20 q48 0 86 19t64 50.5t39.5 72.5t13.5 85zM554 450q0 -53 -18 -102t-51.5 -86t-81 -59t-106.5 -22q-57 0 -103 20.5t-78.5 55.5t-50.5 83t-18 103q0 53 18 102t51 86t80.5 59t106.5 22q57 0 103 -20.5t79 -56t51 -83t18 -102.5z" glyph-name="registered" horiz-adv-x="598" unicode="®"/>
<glyph d="M236 629q0 38 -19.5 60t-49.5 22q-31 0 -50 -21.5t-19 -59.5t19 -60t50 -22q30 0 49.5 21.5t19.5 59.5zM298 630q0 -58 -37 -94t-96 -36t-94 34.5t-35 93.5t36.5 94.5t95.5 35.5q60 0 95 -34t35 -94z" glyph-name="degree" horiz-adv-x="334" unicode="°"/>
<glyph d="M458 0h-428v48h428v-48zM458 342h-186v-205h-57v205h-185v49h185v201h57v-201h186v-49z" glyph-name="plusminus" unicode="±"/>
<glyph d="M212 493q2 12 5.5 22t5.5 18q3 9 6 15h25v-108h-228v33q46 43 74 72.5t43 53t19.5 43t4.5 41.5q0 26 -10.5 37.5t-28.5 11.5q-14 0 -24 -3l-21 -66q-12 -6 -24 -6q-7 0 -19.5 4.5t-12.5 28.5q0 33 30 53t80 20q55 0 81 -21t26 -57q0 -21 -5.5 -39.5t-21.5 -40t-45 -48.5 t-77 -64h117z" glyph-name="twosuperior" horiz-adv-x="287" unicode="²"/>
<glyph d="M23 494q0 20 12 26t21 6t19 -4l22 -55q5 -2 12.5 -3t15.5 -1q25 0 39.5 15.5t14.5 49.5q0 33 -16.5 47t-56.5 14h-19v30h16q33 0 49.5 14t16.5 46t-10 43t-31 11q-13 0 -25 -3l-18 -50q-8 -5 -18 -6.5t-18.5 1t-14 9t-5.5 18.5q0 26 28.5 43.5t79.5 17.5q56 0 80.5 -18 t24.5 -53q0 -26 -17.5 -46t-52.5 -30q42 -4 61.5 -23.5t19.5 -57.5q0 -47 -34 -73.5t-97 -26.5q-51 0 -75 16.5t-24 42.5z" glyph-name="threesuperior" horiz-adv-x="283" unicode="³"/>
<glyph d="M215 667l-139 -134h-42v22l79 134h102v-22z" glyph-name="acute" horiz-adv-x="249" unicode="´"/>
<glyph d="M260 646q-56 0 -83 -41t-27 -127q0 -75 24.5 -112.5t89.5 -39.5q4 78 5.5 157.5t1.5 162.5h-11zM506 662q-7 -5 -17 -9q-8 -4 -20 -8.5t-26 -8.5v-696l26 -51q8 -19 8 -37q0 -27 -17.5 -42.5t-46.5 -16.5q-29 0 -45.5 17t-16.5 46t7 99t13.5 166.5t11.5 227t5 297.5h-62 q0 -110 -3.5 -216.5t-10.5 -210.5t-18.5 -208t-26.5 -209h-60q19 120 32.5 238.5t21.5 240.5h-23q-45 0 -83.5 7t-66 28.5t-41 57.5t-13.5 89q0 52 15.5 94t45.5 72t75.5 46t105.5 16h230v-29z" glyph-name="paragraph" horiz-adv-x="536" unicode="¶"/>
<glyph d="M210 -110q0 -38 -42 -63.5t-132 -33.5l-4 30q50 9 67.5 22.5t17.5 30.5q0 27 -45 42l47 82h50l-23 -42q64 -23 64 -68z" glyph-name="cedilla" horiz-adv-x="243" unicode="¸"/>
<glyph d="M234 440h-192v25q7 2 17 5q8 2 19.5 5t26.5 6v219q-19 -5 -37.5 -9t-33.5 -7v29q31 12 54.5 22t46.5 24h47q-1 -17 -1.5 -33t-0.5 -33v-212q24 -6 39 -11l15 -5v-25z" glyph-name="onesuperior" horiz-adv-x="268" unicode="¹"/>
<glyph d="M211 667q-37 0 -52 -35t-15 -104q0 -76 13.5 -113t51.5 -37q36 0 51 34.5t15 103.5q0 78 -14.5 114.5t-49.5 36.5zM357 229h-295v40h295v-40zM218 702q46 0 75 -11t46 -33t23.5 -54t6.5 -74q0 -39 -8 -73t-27 -59.5t-51.5 -40.5t-81.5 -15q-45 0 -74.5 11t-46.5 33 t-23.5 54t-6.5 74q0 38 7.5 72.5t27 60t51.5 40.5t82 15z" glyph-name="ordmasculine" horiz-adv-x="419" unicode="º"/>
<glyph d="M235 250l-159 -205l-34 19l87 186l-87 186l34 18zM419 250l-179 -227l-33 18l102 209l-102 209l33 18z" glyph-name="guillemotright" horiz-adv-x="456" unicode="»"/>
<glyph d="M479 124v146l-85 -146h85zM602 76h-57v-42q9 -2 16 -4t12 -4q6 -2 11 -4v-23h-147v23l12 4q5 2 12.5 4t17.5 4v42h-130v37l126 206h70v-195h57v-48zM591 720l-462 -750h-54l461 750h55zM234 374h-192v25q7 2 17 5q8 2 19.5 5t26.5 6v219q-19 -5 -37.5 -9t-33.5 -7v29 q31 12 54.5 22t46.5 24h47q-1 -17 -1.5 -33t-0.5 -33v-212q24 -6 39 -11l15 -5v-25z" glyph-name="onequarter" horiz-adv-x="651" unicode="¼"/>
<glyph d="M569 52q2 12 5.5 22t5.5 18q3 9 6 15h25v-108h-228v33q46 43 74 72.5t43 53t19.5 43t4.5 41.5q0 26 -10.5 37.5t-28.5 11.5q-14 0 -24 -3l-21 -66q-12 -6 -24 -6q-7 0 -19.5 4.5t-12.5 28.5q0 33 30 53t80 20q55 0 81 -21t26 -57q0 -21 -5.5 -39.5t-21.5 -40t-45 -48.5 t-77 -64h117zM591 720l-462 -750h-54l461 750h55zM234 374h-192v25q7 2 17 5q8 2 19.5 5t26.5 6v219q-19 -5 -37.5 -9t-33.5 -7v29q31 12 54.5 22t46.5 24h47q-1 -17 -1.5 -33t-0.5 -33v-212q24 -6 39 -11l15 -5v-25z" glyph-name="onehalf" horiz-adv-x="651" unicode="½"/>
<glyph d="M479 124v146l-85 -146h85zM602 76h-57v-42q9 -2 16 -4t12 -4q6 -2 11 -4v-23h-147v23l12 4q5 2 12.5 4t17.5 4v42h-130v37l126 206h70v-195h57v-48zM591 720l-462 -750h-54l461 750h55zM23 428q0 20 12 26t21 6t19 -4l22 -55q5 -2 12.5 -3t15.5 -1q25 0 39.5 15.5 t14.5 49.5q0 33 -16.5 47t-56.5 14h-19v30h16q33 0 49.5 14t16.5 46t-10 43t-31 11q-13 0 -25 -3l-18 -50q-8 -5 -18 -6.5t-18.5 1t-14 9t-5.5 18.5q0 26 28.5 43.5t79.5 17.5q56 0 80.5 -18t24.5 -53q0 -26 -17.5 -46t-52.5 -30q42 -4 61.5 -23.5t19.5 -57.5 q0 -47 -34 -73.5t-97 -26.5q-51 0 -75 16.5t-24 42.5z" glyph-name="threequarters" horiz-adv-x="651" unicode="¾"/>
<glyph d="M162 508q0 32 19.5 52t48.5 20t47 -19.5t18 -50.5q0 -32 -19 -52t-49 -20q-28 0 -46.5 19.5t-18.5 50.5zM32 -30q0 38 12.5 69t31.5 57.5t40.5 50t40.5 46.5t31.5 47.5t12.5 53.5v85h54q11 -28 19 -56t8 -57q0 -46 -21.5 -80t-47 -65t-47 -64t-21.5 -77q0 -48 19 -73.5 t54 -25.5q11 0 20.5 2.5t16.5 6.5l36 107q4 0 8 1t8.5 1.5t10.5 0.5q55 0 55 -54q0 -29 -15.5 -49.5t-40.5 -33.5t-56.5 -19.5t-63.5 -6.5q-165 0 -165 133z" glyph-name="questiondown" horiz-adv-x="406" unicode="¿"/>
<glyph d="M324 749h-43l-147 114v23h107l83 -114v-23zM357 226l-103 380q-13 -45 -25.5 -94.5t-23.5 -99t-21 -97t-17 -89.5h190zM568 0h-230v29q8 5 18 9q8 4 20 8.5t26 9.5l-33 124h-209q-5 -29 -9 -61t-8 -63q14 -5 25.5 -9.5t19.5 -8.5q10 -4 17 -9v-29h-199v29q6 5 13 9 q6 4 14 8.5t19 9.5q41 161 85 320.5t98 314.5h110l177 -635q11 -5 19.5 -9.5t14.5 -8.5q7 -4 12 -9v-29z" glyph-name="Agrave" horiz-adv-x="575" unicode="À"/>
<glyph d="M437 863l-148 -114h-42v23l83 114h107v-23zM357 226l-103 380q-13 -45 -25.5 -94.5t-23.5 -99t-21 -97t-17 -89.5h190zM568 0h-230v29q8 5 18 9q8 4 20 8.5t26 9.5l-33 124h-209q-5 -29 -9 -61t-8 -63q14 -5 25.5 -9.5t19.5 -8.5q10 -4 17 -9v-29h-199v29q6 5 13 9 q6 4 14 8.5t19 9.5q41 161 85 320.5t98 314.5h110l177 -635q11 -5 19.5 -9.5t14.5 -8.5q7 -4 12 -9v-29z" glyph-name="Aacute" horiz-adv-x="575" unicode="Á"/>
<glyph d="M412 749h-44l-79 61l-80 -61h-43v23l96 114h54l96 -114v-23zM357 226l-103 380q-13 -45 -25.5 -94.5t-23.5 -99t-21 -97t-17 -89.5h190zM568 0h-230v29q8 5 18 9q8 4 20 8.5t26 9.5l-33 124h-209q-5 -29 -9 -61t-8 -63q14 -5 25.5 -9.5t19.5 -8.5q10 -4 17 -9v-29h-199 v29q6 5 13 9q6 4 14 8.5t19 9.5q41 161 85 320.5t98 314.5h110l177 -635q11 -5 19.5 -9.5t14.5 -8.5q7 -4 12 -9v-29z" glyph-name="Acircumflex" horiz-adv-x="575" unicode="Â"/>
<glyph d="M440 839q-19 -47 -41.5 -67t-56.5 -20q-23 0 -41.5 8.5t-33.5 19t-28.5 19t-25.5 8.5t-22 -8.5t-23 -31.5l-31 21q19 46 41.5 66.5t56.5 20.5q23 0 41 -8.5t33.5 -19t28.5 -19t25 -8.5q13 0 23 8t23 31zM357 226l-103 380q-13 -45 -25.5 -94.5t-23.5 -99t-21 -97 t-17 -89.5h190zM568 0h-230v29q8 5 18 9q8 4 20 8.5t26 9.5l-33 124h-209q-5 -29 -9 -61t-8 -63q14 -5 25.5 -9.5t19.5 -8.5q10 -4 17 -9v-29h-199v29q6 5 13 9q6 4 14 8.5t19 9.5q41 161 85 320.5t98 314.5h110l177 -635q11 -5 19.5 -9.5t14.5 -8.5q7 -4 12 -9v-29z" glyph-name="Atilde" horiz-adv-x="575" unicode="Ã"/>
<glyph d="M437 811q0 -26 -17 -44t-43 -18t-42 17t-16 43q0 28 16.5 45.5t43.5 17.5q26 0 42 -17.5t16 -43.5zM256 811q0 -26 -17 -44t-44 -18q-26 0 -41.5 17t-15.5 43q0 28 16.5 45.5t42.5 17.5t42.5 -17.5t16.5 -43.5zM357 226l-103 380q-13 -45 -25.5 -94.5t-23.5 -99t-21 -97 t-17 -89.5h190zM568 0h-230v29q8 5 18 9q8 4 20 8.5t26 9.5l-33 124h-209q-5 -29 -9 -61t-8 -63q14 -5 25.5 -9.5t19.5 -8.5q10 -4 17 -9v-29h-199v29q6 5 13 9q6 4 14 8.5t19 9.5q41 161 85 320.5t98 314.5h110l177 -635q11 -5 19.5 -9.5t14.5 -8.5q7 -4 12 -9v-29z" glyph-name="Adieresis" horiz-adv-x="575" unicode="Ä"/>
<glyph d="M322 816q0 27 -7.5 41.5t-27.5 14.5q-19 0 -26 -14t-7 -41t7 -41.5t27 -14.5q19 0 26.5 14.5t7.5 40.5zM397 821q0 -45 -29 -68t-83 -23q-106 0 -106 82q0 46 28.5 68.5t82.5 22.5q107 0 107 -82zM357 226l-103 380q-13 -45 -25.5 -94.5t-23.5 -99t-21 -97t-17 -89.5h190 zM568 0h-230v29q8 5 18 9q8 4 20 8.5t26 9.5l-33 124h-209q-5 -29 -9 -61t-8 -63q14 -5 25.5 -9.5t19.5 -8.5q10 -4 17 -9v-29h-199v29q6 5 13 9q6 4 14 8.5t19 9.5q41 161 85 320.5t98 314.5h110l177 -635q11 -5 19.5 -9.5t14.5 -8.5q7 -4 12 -9v-29z" glyph-name="Aring" horiz-adv-x="575" unicode="Å"/>
<glyph d="M335 226v412h-2q-51 -106 -93.5 -208.5t-77.5 -203.5h173zM697 0h-428v29q7 5 18 9q9 4 21 8.5t27 9.5v124h-190q-11 -31 -21.5 -62.5l-20.5 -61.5q12 -5 22 -9.5t17 -8.5q8 -4 15 -9v-29h-193v29q6 5 14 9q7 4 16 8.5t20 9.5q64 148 130.5 296.5t135.5 282.5 q-16 4 -28 9t-21 9q-11 4 -19 9v29h471l9 -163h-39q-8 14 -17 32q-8 15 -16.5 37t-15.5 48h-156v-260h92q5 18 12 32t12 25q6 12 13 22h34v-208h-34q-7 10 -13 23q-5 11 -11.5 26.5t-11.5 35.5h-93v-295h163q7 30 15 55t16 42q9 20 17 37h38v-180z" glyph-name="AE" horiz-adv-x="733" unicode="Æ"/>
<glyph d="M347 -110q0 -38 -42.5 -63.5t-131.5 -33.5l-4 30q50 9 67.5 22.5t17.5 30.5q0 27 -45 42l41 72q-57 4 -97.5 26t-66 63.5t-37.5 104t-12 147.5q0 181 65.5 276t213.5 95q37 0 74 -5.5t69 -16.5l-12 -168h-37q-6 15 -12 34q-5 17 -11 40t-11 52q-16 10 -34.5 14t-39.5 4 q-40 0 -68 -21.5t-45.5 -60.5t-25.5 -93.5t-8 -120.5q0 -84 7.5 -145.5t25 -101t47.5 -59t75 -19.5q18 0 36 3.5t31 9.5q8 33 16 60.5t16 47.5q9 23 17 42h39v-172q-37 -17 -80 -26t-86 -11l-16 -31q64 -23 64 -68z" glyph-name="Ccedilla" horiz-adv-x="501" unicode="Ç"/>
<glyph d="M294 749h-43l-147 114v23h107l83 -114v-23zM460 0h-430v29q8 5 19 9q9 4 21 8.5t28 9.5v579q-15 4 -27.5 9t-20.5 9q-11 4 -18 9v29h414l8 -163h-38q-8 14 -17 32q-8 15 -16 37t-15 48h-157v-260h92q5 18 12 32t12 25q6 12 12 22h35v-208h-35q-6 10 -12 23 q-5 11 -12 26.5t-12 35.5h-92v-295h163q7 30 15.5 55t15.5 42q8 20 16 37h39v-180z" glyph-name="Egrave" horiz-adv-x="497" unicode="È"/>
<glyph d="M406 863l-148 -114h-42v23l83 114h107v-23zM460 0h-430v29q8 5 19 9q9 4 21 8.5t28 9.5v579q-15 4 -27.5 9t-20.5 9q-11 4 -18 9v29h414l8 -163h-38q-8 14 -17 32q-8 15 -16 37t-15 48h-157v-260h92q5 18 12 32t12 25q6 12 12 22h35v-208h-35q-6 10 -12 23 q-5 11 -12 26.5t-12 35.5h-92v-295h163q7 30 15.5 55t15.5 42q8 20 16 37h39v-180z" glyph-name="Eacute" horiz-adv-x="497" unicode="É"/>
<glyph d="M382 749h-44l-79 61l-80 -61h-43v23l96 114h54l96 -114v-23zM460 0h-430v29q8 5 19 9q9 4 21 8.5t28 9.5v579q-15 4 -27.5 9t-20.5 9q-11 4 -18 9v29h414l8 -163h-38q-8 14 -17 32q-8 15 -16 37t-15 48h-157v-260h92q5 18 12 32t12 25q6 12 12 22h35v-208h-35 q-6 10 -12 23q-5 11 -12 26.5t-12 35.5h-92v-295h163q7 30 15.5 55t15.5 42q8 20 16 37h39v-180z" glyph-name="Ecircumflex" horiz-adv-x="497" unicode="Ê"/>
<glyph d="M405 811q0 -26 -17 -44t-43 -18t-42 17t-16 43q0 28 16.5 45.5t43.5 17.5q26 0 42 -17.5t16 -43.5zM224 811q0 -26 -17 -44t-44 -18q-26 0 -41.5 17t-15.5 43q0 28 16.5 45.5t42.5 17.5t42.5 -17.5t16.5 -43.5zM460 0h-430v29q8 5 19 9q9 4 21 8.5t28 9.5v579 q-15 4 -27.5 9t-20.5 9q-11 4 -18 9v29h414l8 -163h-38q-8 14 -17 32q-8 15 -16 37t-15 48h-157v-260h92q5 18 12 32t12 25q6 12 12 22h35v-208h-35q-6 10 -12 23q-5 11 -12 26.5t-12 35.5h-92v-295h163q7 30 15.5 55t15.5 42q8 20 16 37h39v-180z" glyph-name="Edieresis" horiz-adv-x="497" unicode="Ë"/>
<glyph d="M196 749h-43l-147 114v23h107l83 -114v-23zM30 0v29q8 5 19 9q9 4 21 8.5t28 9.5v579q-15 4 -27.5 9t-20.5 9q-11 4 -18 9v29h246v-29q-7 -5 -18 -9q-9 -4 -21.5 -9t-27.5 -9v-579q15 -5 27.5 -9.5t21.5 -8.5q11 -4 18 -9v-29h-248z" glyph-name="Igrave" horiz-adv-x="310" unicode="Ì"/>
<glyph d="M303 863l-148 -114h-42v23l83 114h107v-23zM30 0v29q8 5 19 9q9 4 21 8.5t28 9.5v579q-15 4 -27.5 9t-20.5 9q-11 4 -18 9v29h246v-29q-7 -5 -18 -9q-9 -4 -21.5 -9t-27.5 -9v-579q15 -5 27.5 -9.5t21.5 -8.5q11 -4 18 -9v-29h-248z" glyph-name="Iacute" horiz-adv-x="310" unicode="Í"/>
<glyph d="M278 749h-44l-79 61l-80 -61h-43v23l96 114h54l96 -114v-23zM30 0v29q8 5 19 9q9 4 21 8.5t28 9.5v579q-15 4 -27.5 9t-20.5 9q-11 4 -18 9v29h246v-29q-7 -5 -18 -9q-9 -4 -21.5 -9t-27.5 -9v-579q15 -5 27.5 -9.5t21.5 -8.5q11 -4 18 -9v-29h-248z" glyph-name="Icircumflex" horiz-adv-x="310" unicode="Î"/>
<glyph d="M304 811q0 -26 -17 -44t-43 -18t-42 17t-16 43q0 28 16.5 45.5t43.5 17.5q26 0 42 -17.5t16 -43.5zM123 811q0 -26 -17 -44t-44 -18q-26 0 -41.5 17t-15.5 43q0 28 16.5 45.5t42.5 17.5t42.5 -17.5t16.5 -43.5zM30 0v29q8 5 19 9q9 4 21 8.5t28 9.5v579q-15 4 -27.5 9 t-20.5 9q-11 4 -18 9v29h246v-29q-7 -5 -18 -9q-9 -4 -21.5 -9t-27.5 -9v-579q15 -5 27.5 -9.5t21.5 -8.5q11 -4 18 -9v-29h-248z" glyph-name="Idieresis" horiz-adv-x="310" unicode="Ï"/>
<glyph d="M462 345q0 73 -9 129t-30 94.5t-55.5 58t-85.5 19.5q-18 0 -35 -0.5t-30 -2.5v-258h101v-44h-101v-293q11 -1 25.5 -2t26.5 -1q53 0 90 19t59.5 56.5t33 93.5t10.5 131zM579 365q0 -89 -17.5 -157t-56.5 -114.5t-101 -70t-150 -23.5h-218v29q8 5 19 9q9 4 21 8.5t28 9.5 v285h-74v44h74v250q-15 4 -27.5 9t-20.5 9q-11 4 -18 9v29h259q72 0 125 -18t88 -57t52 -101t17 -150z" glyph-name="Eth" horiz-adv-x="616" unicode="Ð"/>
<glyph d="M458 839q-19 -47 -41.5 -67t-56.5 -20q-23 0 -41.5 8.5t-33.5 19t-28.5 19t-25.5 8.5t-22 -8.5t-23 -31.5l-31 21q19 46 41.5 66.5t56.5 20.5q23 0 41 -8.5t33.5 -19t28.5 -19t25 -8.5q13 0 23 8t23 31zM583 662q-8 -5 -17 -9q-8 -4 -18.5 -9t-24.5 -9l-10 -639h-90 l-254 527l-15 50l20 -517q16 -5 29 -9.5t22 -8.5q11 -4 19 -9v-29h-216v29q7 5 18 9q9 4 21 8.5t28 9.5l8 579q-16 4 -28.5 9t-21.5 9q-11 4 -19 9v29h188l224 -465l19 -54l-17 463q-15 4 -27.5 9t-20.5 9q-10 4 -17 9v29h200v-29z" glyph-name="Ntilde" horiz-adv-x="596" unicode="Ñ"/>
<glyph d="M340 749h-43l-147 114v23h107l83 -114v-23zM304 656q-79 0 -114.5 -77t-35.5 -233q0 -84 9.5 -143.5t28 -97t46.5 -54.5t66 -17q79 0 114.5 77t35.5 233q0 84 -9.5 143.5t-28 97t-47 54.5t-65.5 17zM315 702q69 0 117.5 -18.5t79.5 -59t45 -105.5t14 -158q0 -87 -14 -156 t-46 -117.5t-85.5 -74t-132.5 -25.5q-69 0 -118 18.5t-80 59t-45 106t-14 158.5q0 87 14 156t46 117t85.5 73.5t133.5 25.5z" glyph-name="Ograve" horiz-adv-x="608" unicode="Ò"/>
<glyph d="M458 863l-148 -114h-42v23l83 114h107v-23zM304 656q-79 0 -114.5 -77t-35.5 -233q0 -84 9.5 -143.5t28 -97t46.5 -54.5t66 -17q79 0 114.5 77t35.5 233q0 84 -9.5 143.5t-28 97t-47 54.5t-65.5 17zM315 702q69 0 117.5 -18.5t79.5 -59t45 -105.5t14 -158q0 -87 -14 -156 t-46 -117.5t-85.5 -74t-132.5 -25.5q-69 0 -118 18.5t-80 59t-45 106t-14 158.5q0 87 14 156t46 117t85.5 73.5t133.5 25.5z" glyph-name="Oacute" horiz-adv-x="608" unicode="Ó"/>
<glyph d="M427 749h-44l-79 61l-80 -61h-43v23l96 114h54l96 -114v-23zM304 656q-79 0 -114.5 -77t-35.5 -233q0 -84 9.5 -143.5t28 -97t46.5 -54.5t66 -17q79 0 114.5 77t35.5 233q0 84 -9.5 143.5t-28 97t-47 54.5t-65.5 17zM315 702q69 0 117.5 -18.5t79.5 -59t45 -105.5 t14 -158q0 -87 -14 -156t-46 -117.5t-85.5 -74t-132.5 -25.5q-69 0 -118 18.5t-80 59t-45 106t-14 158.5q0 87 14 156t46 117t85.5 73.5t133.5 25.5z" glyph-name="Ocircumflex" horiz-adv-x="608" unicode="Ô"/>
<glyph d="M456 839q-19 -47 -41.5 -67t-56.5 -20q-23 0 -41.5 8.5t-33.5 19t-28.5 19t-25.5 8.5t-22 -8.5t-23 -31.5l-31 21q19 46 41.5 66.5t56.5 20.5q23 0 41 -8.5t33.5 -19t28.5 -19t25 -8.5q13 0 23 8t23 31zM304 656q-79 0 -114.5 -77t-35.5 -233q0 -84 9.5 -143.5t28 -97 t46.5 -54.5t66 -17q79 0 114.5 77t35.5 233q0 84 -9.5 143.5t-28 97t-47 54.5t-65.5 17zM315 702q69 0 117.5 -18.5t79.5 -59t45 -105.5t14 -158q0 -87 -14 -156t-46 -117.5t-85.5 -74t-132.5 -25.5q-69 0 -118 18.5t-80 59t-45 106t-14 158.5q0 87 14 156t46 117t85.5 73.5 t133.5 25.5z" glyph-name="Otilde" horiz-adv-x="608" unicode="Õ"/>
<glyph d="M453 811q0 -26 -17 -44t-43 -18t-42 17t-16 43q0 28 16.5 45.5t43.5 17.5q26 0 42 -17.5t16 -43.5zM272 811q0 -26 -17 -44t-44 -18q-26 0 -41.5 17t-15.5 43q0 28 16.5 45.5t42.5 17.5t42.5 -17.5t16.5 -43.5zM304 656q-79 0 -114.5 -77t-35.5 -233q0 -84 9.5 -143.5 t28 -97t46.5 -54.5t66 -17q79 0 114.5 77t35.5 233q0 84 -9.5 143.5t-28 97t-47 54.5t-65.5 17zM315 702q69 0 117.5 -18.5t79.5 -59t45 -105.5t14 -158q0 -87 -14 -156t-46 -117.5t-85.5 -74t-132.5 -25.5q-69 0 -118 18.5t-80 59t-45 106t-14 158.5q0 87 14 156t46 117 t85.5 73.5t133.5 25.5z" glyph-name="Odieresis" horiz-adv-x="608" unicode="Ö"/>
<glyph d="M281 301l162 -165l-36 -36l-163 163l-163 -163l-36 35l163 165l-163 164l37 37l163 -164l162 164l36 -36z" glyph-name="multiply" unicode="×"/>
<glyph d="M149 346q0 -100 14 -165t42 -105h1l155 570q-25 11 -57 11q-82 0 -118.5 -77t-36.5 -234zM459 344q0 100 -14.5 165t-42.5 105v1l-156 -570q13 -5 27 -8.5t31 -3.5q81 0 118 77t37 234zM184 3q-39 12 -67 36.5t-46 64.5t-26.5 95.5t-8.5 130.5q0 86 13.5 155t46 117 t85.5 74t132 26q34 0 63 -6l33 108l45 -10l-32 -106q79 -24 114 -101.5t35 -225.5q0 -86 -13.5 -155t-46 -117.5t-85.5 -74.5t-131 -26q-18 0 -34 2t-30 4l-32 -109l-46 10z" glyph-name="Oslash" horiz-adv-x="608" unicode="Ø"/>
<glyph d="M352 749h-43l-147 114v23h107l83 -114v-23zM607 662q-7 -5 -17 -9q-8 -4 -19.5 -9t-25.5 -9l-7 -389q-2 -119 -58 -188.5t-170 -69.5q-61 0 -103.5 14.5t-69.5 42.5t-39.5 69.5t-12.5 95.5v425q-15 4 -27 9t-20 9q-10 4 -17 9v29h241v-29q-8 -5 -18 -9q-8 -4 -20.5 -9 t-26.5 -9v-403q0 -97 31 -146t106 -49t105.5 47.5t30.5 142.5v18l-8 390q-14 4 -25 9t-19 9q-10 4 -17 9v29h206v-29z" glyph-name="Ugrave" horiz-adv-x="623" unicode="Ù"/>
<glyph d="M475 863l-148 -114h-42v23l83 114h107v-23zM607 662q-7 -5 -17 -9q-8 -4 -19.5 -9t-25.5 -9l-7 -389q-2 -119 -58 -188.5t-170 -69.5q-61 0 -103.5 14.5t-69.5 42.5t-39.5 69.5t-12.5 95.5v425q-15 4 -27 9t-20 9q-10 4 -17 9v29h241v-29q-8 -5 -18 -9q-8 -4 -20.5 -9 t-26.5 -9v-403q0 -97 31 -146t106 -49t105.5 47.5t30.5 142.5v18l-8 390q-14 4 -25 9t-19 9q-10 4 -17 9v29h206v-29z" glyph-name="Uacute" horiz-adv-x="623" unicode="Ú"/>
<glyph d="M451 749h-44l-79 61l-80 -61h-43v23l96 114h54l96 -114v-23zM607 662q-7 -5 -17 -9q-8 -4 -19.5 -9t-25.5 -9l-7 -389q-2 -119 -58 -188.5t-170 -69.5q-61 0 -103.5 14.5t-69.5 42.5t-39.5 69.5t-12.5 95.5v425q-15 4 -27 9t-20 9q-10 4 -17 9v29h241v-29q-8 -5 -18 -9 q-8 -4 -20.5 -9t-26.5 -9v-403q0 -97 31 -146t106 -49t105.5 47.5t30.5 142.5v18l-8 390q-14 4 -25 9t-19 9q-10 4 -17 9v29h206v-29z" glyph-name="Ucircumflex" horiz-adv-x="623" unicode="Û"/>
<glyph d="M475 811q0 -26 -17 -44t-43 -18t-42 17t-16 43q0 28 16.5 45.5t43.5 17.5q26 0 42 -17.5t16 -43.5zM294 811q0 -26 -17 -44t-44 -18q-26 0 -41.5 17t-15.5 43q0 28 16.5 45.5t42.5 17.5t42.5 -17.5t16.5 -43.5zM607 662q-7 -5 -17 -9q-8 -4 -19.5 -9t-25.5 -9l-7 -389 q-2 -119 -58 -188.5t-170 -69.5q-61 0 -103.5 14.5t-69.5 42.5t-39.5 69.5t-12.5 95.5v425q-15 4 -27 9t-20 9q-10 4 -17 9v29h241v-29q-8 -5 -18 -9q-8 -4 -20.5 -9t-26.5 -9v-403q0 -97 31 -146t106 -49t105.5 47.5t30.5 142.5v18l-8 390q-14 4 -25 9t-19 9q-10 4 -17 9 v29h206v-29z" glyph-name="Udieresis" horiz-adv-x="623" unicode="Ü"/>
<glyph d="M438 863l-148 -114h-42v23l83 114h107v-23zM543 662q-5 -5 -12 -9q-6 -4 -14 -9t-18 -9l-170 -366v-213q18 -4 33 -8.5t26 -8.5q12 -5 22 -10v-29h-275v29q10 5 22 10q11 4 26 8.5t33 8.5v213l-171 366q-10 4 -17.5 9t-12.5 9q-6 4 -12 9v29h222v-29q-6 -5 -14 -9 q-7 -4 -15.5 -8.5t-19.5 -8.5l131 -293q33 74 58.5 147t45.5 146q-11 4 -19.5 8.5t-15.5 8.5q-8 4 -14 9v29h181v-29z" glyph-name="Yacute" horiz-adv-x="546" unicode="Ý"/>
<glyph d="M387 347q0 78 -29.5 120.5t-93.5 42.5h-53v-321q15 -4 30.5 -5t32.5 -1q51 0 82 39t31 125zM504 360q0 -46 -12.5 -86.5t-41 -70.5t-75.5 -47.5t-116 -17.5h-23.5t-24.5 1v-83q17 -5 29.5 -9.5t22.5 -8.5q11 -4 20 -9v-29h-253v29q8 5 19 9q9 4 21 8.5t28 9.5v579 q-15 4 -27.5 9t-20.5 9q-11 4 -18 9v29h246v-29q-8 -5 -19 -9q-9 -4 -21 -8.5t-27 -8.5v-80h86q57 0 96.5 -13.5t64 -39t35.5 -61.5t11 -82z" glyph-name="Thorn" horiz-adv-x="514" unicode="Þ"/>
<glyph d="M537 136q0 -64 -44.5 -105t-125.5 -41q-63 0 -94.5 20t-31.5 55q0 23 14 37t41 14q16 0 28 -4l18 -76q6 -2 15 -4t20 -2q68 0 68 70q0 28 -14.5 49.5t-36 40.5t-47 37t-47 38.5t-36 45.5t-14.5 58q0 39 17.5 65.5t38.5 50t38.5 49t17.5 63.5q0 44 -22.5 66t-64.5 22 q-48 0 -71.5 -31.5t-23.5 -107.5v-546h-159v28q6 4 15 8q8 4 17.5 8t22.5 8v358h-60v30q6 2 16 6q8 2 19 5.5t25 6.5v40q0 116 52.5 172.5t163.5 56.5q38 0 70 -6.5t55.5 -20.5t36.5 -35.5t13 -50.5q0 -35 -20.5 -59t-45 -45t-45 -44t-20.5 -57q0 -24 15 -44.5t37 -39 t48.5 -37.5t48.5 -41t37 -49t15 -62z" glyph-name="germandbls" horiz-adv-x="556" unicode="ß"/>
<glyph d="M253 533h-43l-138 134v22h102l79 -134v-22zM271 219q-20 3 -44 3q-27 0 -45.5 -7t-29 -19.5t-15 -30t-4.5 -37.5q0 -83 50 -83q38 0 63 35.5t25 100.5v38zM428 13q-15 -4 -33 -8q-16 -3 -38 -7t-49 -7l-19 10q-5 14 -6.5 33t-2.5 37q-17 -38 -54 -60t-85 -22 q-60 0 -86 32.5t-26 89.5v1q0 66 48 107.5t156 41.5h20.5t17.5 -1q0 18 0.5 35.5t0.5 32.5q0 55 -15.5 78.5t-53.5 23.5q-19 0 -40 -8l-27 -78q-13 -5 -34 -5q-54 0 -54 45q0 16 8.5 31.5t28.5 27.5t52.5 19.5t81.5 7.5q79 0 118 -29t39 -104q0 -46 -1 -100.5t-1 -97.5 q0 -21 1.5 -42.5t4.5 -39.5l48 -15v-29z" glyph-name="agrave" horiz-adv-x="444" unicode="à"/>
<glyph d="M356 667l-139 -134h-42v22l79 134h102v-22zM271 219q-20 3 -44 3q-27 0 -45.5 -7t-29 -19.5t-15 -30t-4.5 -37.5q0 -83 50 -83q38 0 63 35.5t25 100.5v38zM428 13q-15 -4 -33 -8q-16 -3 -38 -7t-49 -7l-19 10q-5 14 -6.5 33t-2.5 37q-17 -38 -54 -60t-85 -22 q-60 0 -86 32.5t-26 89.5v1q0 66 48 107.5t156 41.5h20.5t17.5 -1q0 18 0.5 35.5t0.5 32.5q0 55 -15.5 78.5t-53.5 23.5q-19 0 -40 -8l-27 -78q-13 -5 -34 -5q-54 0 -54 45q0 16 8.5 31.5t28.5 27.5t52.5 19.5t81.5 7.5q79 0 118 -29t39 -104q0 -46 -1 -100.5t-1 -97.5 q0 -21 1.5 -42.5t4.5 -39.5l48 -15v-29z" glyph-name="aacute" horiz-adv-x="444" unicode="á"/>
<glyph d="M340 533h-43l-78 76l-79 -76h-42v22l94 136h53l95 -136v-22zM271 219q-20 3 -44 3q-27 0 -45.5 -7t-29 -19.5t-15 -30t-4.5 -37.5q0 -83 50 -83q38 0 63 35.5t25 100.5v38zM428 13q-15 -4 -33 -8q-16 -3 -38 -7t-49 -7l-19 10q-5 14 -6.5 33t-2.5 37q-17 -38 -54 -60 t-85 -22q-60 0 -86 32.5t-26 89.5v1q0 66 48 107.5t156 41.5h20.5t17.5 -1q0 18 0.5 35.5t0.5 32.5q0 55 -15.5 78.5t-53.5 23.5q-19 0 -40 -8l-27 -78q-13 -5 -34 -5q-54 0 -54 45q0 16 8.5 31.5t28.5 27.5t52.5 19.5t81.5 7.5q79 0 118 -29t39 -104q0 -46 -1 -100.5 t-1 -97.5q0 -21 1.5 -42.5t4.5 -39.5l48 -15v-29z" glyph-name="acircumflex" horiz-adv-x="444" unicode="â"/>
<glyph d="M369 632q-18 -48 -41 -70t-56 -22q-23 0 -40.5 9t-32.5 20.5t-28 20.5t-25 9t-22 -9.5t-22 -32.5l-31 22q18 47 40.5 68.5t56.5 21.5q22 0 40 -9t33 -20t27.5 -20t24.5 -9t22.5 9t22.5 32zM271 219q-20 3 -44 3q-27 0 -45.5 -7t-29 -19.5t-15 -30t-4.5 -37.5 q0 -83 50 -83q38 0 63 35.5t25 100.5v38zM428 13q-15 -4 -33 -8q-16 -3 -38 -7t-49 -7l-19 10q-5 14 -6.5 33t-2.5 37q-17 -38 -54 -60t-85 -22q-60 0 -86 32.5t-26 89.5v1q0 66 48 107.5t156 41.5h20.5t17.5 -1q0 18 0.5 35.5t0.5 32.5q0 55 -15.5 78.5t-53.5 23.5 q-19 0 -40 -8l-27 -78q-13 -5 -34 -5q-54 0 -54 45q0 16 8.5 31.5t28.5 27.5t52.5 19.5t81.5 7.5q79 0 118 -29t39 -104q0 -46 -1 -100.5t-1 -97.5q0 -21 1.5 -42.5t4.5 -39.5l48 -15v-29z" glyph-name="atilde" horiz-adv-x="444" unicode="ã"/>
<glyph d="M363 608q0 -27 -16.5 -45t-43.5 -18q-26 0 -42 17.5t-16 43.5t17 44t43 18t42 -17t16 -43zM195 608q0 -27 -17 -45t-44 -18q-26 0 -41.5 17.5t-15.5 43.5t16.5 44t42.5 18t42.5 -17t16.5 -43zM271 219q-20 3 -44 3q-27 0 -45.5 -7t-29 -19.5t-15 -30t-4.5 -37.5 q0 -83 50 -83q38 0 63 35.5t25 100.5v38zM428 13q-15 -4 -33 -8q-16 -3 -38 -7t-49 -7l-19 10q-5 14 -6.5 33t-2.5 37q-17 -38 -54 -60t-85 -22q-60 0 -86 32.5t-26 89.5v1q0 66 48 107.5t156 41.5h20.5t17.5 -1q0 18 0.5 35.5t0.5 32.5q0 55 -15.5 78.5t-53.5 23.5 q-19 0 -40 -8l-27 -78q-13 -5 -34 -5q-54 0 -54 45q0 16 8.5 31.5t28.5 27.5t52.5 19.5t81.5 7.5q79 0 118 -29t39 -104q0 -46 -1 -100.5t-1 -97.5q0 -21 1.5 -42.5t4.5 -39.5l48 -15v-29z" glyph-name="adieresis" horiz-adv-x="444" unicode="ä"/>
<glyph d="M252 611q0 58 -35 58q-19 0 -26.5 -14t-7.5 -43t7.5 -43.5t27.5 -14.5q34 0 34 57zM327 616q0 -46 -29 -69.5t-83 -23.5q-107 0 -107 84q0 47 28.5 70t82.5 23t81 -20t27 -64zM271 219q-20 3 -44 3q-27 0 -45.5 -7t-29 -19.5t-15 -30t-4.5 -37.5q0 -83 50 -83 q38 0 63 35.5t25 100.5v38zM428 13q-15 -4 -33 -8q-16 -3 -38 -7t-49 -7l-19 10q-5 14 -6.5 33t-2.5 37q-17 -38 -54 -60t-85 -22q-60 0 -86 32.5t-26 89.5v1q0 66 48 107.5t156 41.5h20.5t17.5 -1q0 18 0.5 35.5t0.5 32.5q0 55 -15.5 78.5t-53.5 23.5q-19 0 -40 -8l-27 -78 q-13 -5 -34 -5q-54 0 -54 45q0 16 8.5 31.5t28.5 27.5t52.5 19.5t81.5 7.5q79 0 118 -29t39 -104q0 -46 -1 -100.5t-1 -97.5q0 -21 1.5 -42.5t4.5 -39.5l48 -15v-29z" glyph-name="aring" horiz-adv-x="444" unicode="å"/>
<glyph d="M521 299q0 61 -14.5 96t-50.5 35t-57 -35t-24 -108h146v12zM624 306q0 -11 -0.5 -24t-1.5 -24l-248 -23v-8q0 -41 6 -74.5t19.5 -57t36 -36t55.5 -12.5q32 0 62 8t61 22l16 -32q-79 -56 -182 -56q-58 0 -97 22t-57 69q-26 -47 -65.5 -69t-87.5 -22q-60 0 -86 32.5 t-26 89.5v1q0 66 48 107.5t156 41.5h20.5t17.5 -1q0 18 0.5 35.5t0.5 32.5q0 55 -15.5 78.5t-53.5 23.5q-19 0 -40 -8l-27 -78q-13 -5 -34 -5q-54 0 -54 45q0 16 8.5 31.5t28.5 27.5t52.5 19.5t81.5 7.5q45 0 75 -9.5t47 -32.5q20 21 51 31.5t70 10.5q85 0 123.5 -44 t38.5 -120zM271 219q-20 3 -44 3q-27 0 -45.5 -7t-29 -19.5t-15 -30t-4.5 -37.5q0 -83 50 -83q38 0 63 35.5t25 100.5v38z" glyph-name="ae" horiz-adv-x="656" unicode="æ"/>
<glyph d="M273 -110q0 -38 -42.5 -63.5t-132.5 -33.5l-3 30q50 9 67 22.5t17 30.5q0 28 -44 42l41 72q-41 4 -68.5 22.5t-44 48.5t-23.5 69.5t-7 86.5q0 52 9.5 98t32 80.5t59.5 54.5t91 20q57 0 94 -21t37 -66q0 -54 -52 -54q-20 0 -34 8l-26 88q-5 2 -11.5 3t-13.5 1 q-22 0 -37 -15t-24.5 -42t-13.5 -63.5t-4 -78.5q0 -40 5 -73.5t16 -58t30 -38.5t46 -14t52.5 9.5t51.5 26.5l19 -31q-27 -25 -60 -40.5t-74 -19.5l-18 -33q65 -23 65 -68z" glyph-name="ccedilla" horiz-adv-x="377" unicode="ç"/>
<glyph d="M255 533h-43l-138 134v22h102l79 -134v-22zM286 299q0 61 -14.5 96t-50.5 35q-75 0 -81 -143h146v12zM389 306q0 -11 -0.5 -24t-1.5 -24l-248 -23v-8q0 -41 6 -74.5t19 -57t35.5 -36t55.5 -12.5t63 8t61 22l16 -32q-38 -28 -84.5 -42t-97.5 -14q-50 0 -84.5 16.5 t-55.5 46.5t-30.5 71.5t-9.5 90.5t8 95t29.5 82t59.5 57.5t97 21.5q85 0 123.5 -44t38.5 -120z" glyph-name="egrave" horiz-adv-x="420" unicode="è"/>
<glyph d="M354 667l-139 -134h-42v22l79 134h102v-22zM286 299q0 61 -14.5 96t-50.5 35q-75 0 -81 -143h146v12zM389 306q0 -11 -0.5 -24t-1.5 -24l-248 -23v-8q0 -41 6 -74.5t19 -57t35.5 -36t55.5 -12.5t63 8t61 22l16 -32q-38 -28 -84.5 -42t-97.5 -14q-50 0 -84.5 16.5 t-55.5 46.5t-30.5 71.5t-9.5 90.5t8 95t29.5 82t59.5 57.5t97 21.5q85 0 123.5 -44t38.5 -120z" glyph-name="eacute" horiz-adv-x="420" unicode="é"/>
<glyph d="M340 533h-43l-78 76l-79 -76h-42v22l94 136h53l95 -136v-22zM286 299q0 61 -14.5 96t-50.5 35q-75 0 -81 -143h146v12zM389 306q0 -11 -0.5 -24t-1.5 -24l-248 -23v-8q0 -41 6 -74.5t19 -57t35.5 -36t55.5 -12.5t63 8t61 22l16 -32q-38 -28 -84.5 -42t-97.5 -14 q-50 0 -84.5 16.5t-55.5 46.5t-30.5 71.5t-9.5 90.5t8 95t29.5 82t59.5 57.5t97 21.5q85 0 123.5 -44t38.5 -120z" glyph-name="ecircumflex" horiz-adv-x="420" unicode="ê"/>
<glyph d="M362 608q0 -27 -16.5 -45t-43.5 -18q-26 0 -42 17.5t-16 43.5t17 44t43 18t42 -17t16 -43zM194 608q0 -27 -17 -45t-44 -18q-26 0 -41.5 17.5t-15.5 43.5t16.5 44t42.5 18t42.5 -17t16.5 -43zM286 299q0 61 -14.5 96t-50.5 35q-75 0 -81 -143h146v12zM389 306 q0 -11 -0.5 -24t-1.5 -24l-248 -23v-8q0 -41 6 -74.5t19 -57t35.5 -36t55.5 -12.5t63 8t61 22l16 -32q-38 -28 -84.5 -42t-97.5 -14q-50 0 -84.5 16.5t-55.5 46.5t-30.5 71.5t-9.5 90.5t8 95t29.5 82t59.5 57.5t97 21.5q85 0 123.5 -44t38.5 -120z" glyph-name="edieresis" horiz-adv-x="420" unicode="ë"/>
<glyph d="M175 533h-43l-138 134v22h102l79 -134v-22zM21 0v28q6 4 15 8q8 4 17.5 8t22.5 8v347l-55 17v28q17 5 39 9q36 7 103 15l20 -10q-2 -22 -2.5 -52t-0.5 -59v-295q12 -4 21.5 -8t16.5 -8q8 -4 14 -8v-28h-211z" glyph-name="igrave" horiz-adv-x="252" unicode="ì"/>
<glyph d="M256 667l-139 -134h-42v22l79 134h102v-22zM21 0v28q6 4 15 8q8 4 17.5 8t22.5 8v347l-55 17v28q17 5 39 9q36 7 103 15l20 -10q-2 -22 -2.5 -52t-0.5 -59v-295q12 -4 21.5 -8t16.5 -8q8 -4 14 -8v-28h-211z" glyph-name="iacute" horiz-adv-x="252" unicode="í"/>
<glyph d="M246 533h-43l-78 76l-79 -76h-42v22l94 136h53l95 -136v-22zM21 0v28q6 4 15 8q8 4 17.5 8t22.5 8v347l-55 17v28q17 5 39 9q36 7 103 15l20 -10q-2 -22 -2.5 -52t-0.5 -59v-295q12 -4 21.5 -8t16.5 -8q8 -4 14 -8v-28h-211z" glyph-name="icircumflex" horiz-adv-x="252" unicode="î"/>
<glyph d="M269 608q0 -27 -16.5 -45t-43.5 -18q-26 0 -42 17.5t-16 43.5t17 44t43 18t42 -17t16 -43zM101 608q0 -27 -17 -45t-44 -18q-26 0 -41.5 17.5t-15.5 43.5t16.5 44t42.5 18t42.5 -17t16.5 -43zM21 0v28q6 4 15 8q8 4 17.5 8t22.5 8v347l-55 17v28q17 5 39 9q36 7 103 15 l20 -10q-2 -22 -2.5 -52t-0.5 -59v-295q12 -4 21.5 -8t16.5 -8q8 -4 14 -8v-28h-211z" glyph-name="idieresis" horiz-adv-x="252" unicode="ï"/>
<glyph d="M338 237q0 90 -29 174q-34 14 -68 14q-53 0 -77 -48t-24 -142q0 -100 22 -152t77 -52q48 0 73.5 48t25.5 158zM108 557l111 43q-12 20 -26.5 37.5t-28.5 31.5l-57 13v28q17 4 38 8q35 7 98 15q23 -20 44 -45t39 -51l105 39l14 -43l-95 -37q45 -76 70 -163.5t25 -182.5 q0 -123 -50.5 -192t-167.5 -69q-58 0 -95.5 15t-59.5 44.5t-30.5 72t-8.5 97.5q0 50 10 94.5t33.5 78.5t63.5 53.5t100 19.5q14 1 26.5 -0.5t25.5 -3.5q-17 53 -45 101l-126 -47z" glyph-name="eth" horiz-adv-x="484" unicode="ð"/>
<glyph d="M409 632q-18 -48 -41 -70t-56 -22q-23 0 -40.5 9t-32.5 20.5t-28 20.5t-25 9t-22 -9.5t-22 -32.5l-31 22q18 47 40.5 68.5t56.5 21.5q22 0 40 -9t33 -20t27.5 -20t24.5 -9t22.5 9t22.5 32zM499 0h-154v289q0 53 -14 87t-51 34q-21 0 -39 -11.5t-31.5 -33.5t-21.5 -52.5 t-8 -68.5v-192q12 -4 22 -8t18 -8l16 -8v-28h-215v28q6 4 15 8q8 4 17.5 8t22.5 8v347l-55 17v29q16 4 37 8q17 4 42 7.5t55 7.5l19 -10v-84q18 45 56 70.5t93 25.5q36 0 60.5 -12t39 -32.5t20.5 -48t6 -57.5v-268q11 -4 20 -8t16 -8q8 -4 14 -8v-28z" glyph-name="ntilde" horiz-adv-x="517" unicode="ñ"/>
<glyph d="M277 533h-43l-138 134v22h102l79 -134v-22zM239 428q-29 0 -48 -14.5t-30 -40.5t-16 -61t-5 -75q0 -98 21.5 -152t77.5 -54q28 0 47.5 14.5t30.5 40.5t16 60.5t5 75.5v1q0 97 -21.5 151t-77.5 54zM251 470q58 0 96 -15.5t59.5 -45.5t30 -72.5t8.5 -96.5q0 -45 -9 -89.5 t-33 -80.5t-66.5 -58.5t-109.5 -22.5q-59 0 -96.5 15.5t-59 45.5t-30 72.5t-8.5 96.5v1q0 45 8.5 89.5t32.5 80t66.5 58t110.5 22.5z" glyph-name="ograve" horiz-adv-x="479" unicode="ò"/>
<glyph d="M382 667l-139 -134h-42v22l79 134h102v-22zM239 428q-29 0 -48 -14.5t-30 -40.5t-16 -61t-5 -75q0 -98 21.5 -152t77.5 -54q28 0 47.5 14.5t30.5 40.5t16 60.5t5 75.5v1q0 97 -21.5 151t-77.5 54zM251 470q58 0 96 -15.5t59.5 -45.5t30 -72.5t8.5 -96.5q0 -45 -9 -89.5 t-33 -80.5t-66.5 -58.5t-109.5 -22.5q-59 0 -96.5 15.5t-59 45.5t-30 72.5t-8.5 96.5v1q0 45 8.5 89.5t32.5 80t66.5 58t110.5 22.5z" glyph-name="oacute" horiz-adv-x="479" unicode="ó"/>
<glyph d="M360 533h-43l-78 76l-79 -76h-42v22l94 136h53l95 -136v-22zM239 428q-29 0 -48 -14.5t-30 -40.5t-16 -61t-5 -75q0 -98 21.5 -152t77.5 -54q28 0 47.5 14.5t30.5 40.5t16 60.5t5 75.5v1q0 97 -21.5 151t-77.5 54zM251 470q58 0 96 -15.5t59.5 -45.5t30 -72.5t8.5 -96.5 q0 -45 -9 -89.5t-33 -80.5t-66.5 -58.5t-109.5 -22.5q-59 0 -96.5 15.5t-59 45.5t-30 72.5t-8.5 96.5v1q0 45 8.5 89.5t32.5 80t66.5 58t110.5 22.5z" glyph-name="ocircumflex" horiz-adv-x="479" unicode="ô"/>
<glyph d="M388 632q-18 -48 -41 -70t-56 -22q-23 0 -40.5 9t-32.5 20.5t-28 20.5t-25 9t-22 -9.5t-22 -32.5l-31 22q18 47 40.5 68.5t56.5 21.5q22 0 40 -9t33 -20t27.5 -20t24.5 -9t22.5 9t22.5 32zM239 428q-29 0 -48 -14.5t-30 -40.5t-16 -61t-5 -75q0 -98 21.5 -152t77.5 -54 q28 0 47.5 14.5t30.5 40.5t16 60.5t5 75.5v1q0 97 -21.5 151t-77.5 54zM251 470q58 0 96 -15.5t59.5 -45.5t30 -72.5t8.5 -96.5q0 -45 -9 -89.5t-33 -80.5t-66.5 -58.5t-109.5 -22.5q-59 0 -96.5 15.5t-59 45.5t-30 72.5t-8.5 96.5v1q0 45 8.5 89.5t32.5 80t66.5 58 t110.5 22.5z" glyph-name="otilde" horiz-adv-x="479" unicode="õ"/>
<glyph d="M383 608q0 -27 -16.5 -45t-43.5 -18q-26 0 -42 17.5t-16 43.5t17 44t43 18t42 -17t16 -43zM215 608q0 -27 -17 -45t-44 -18q-26 0 -41.5 17.5t-15.5 43.5t16.5 44t42.5 18t42.5 -17t16.5 -43zM239 428q-29 0 -48 -14.5t-30 -40.5t-16 -61t-5 -75q0 -98 21.5 -152 t77.5 -54q28 0 47.5 14.5t30.5 40.5t16 60.5t5 75.5v1q0 97 -21.5 151t-77.5 54zM251 470q58 0 96 -15.5t59.5 -45.5t30 -72.5t8.5 -96.5q0 -45 -9 -89.5t-33 -80.5t-66.5 -58.5t-109.5 -22.5q-59 0 -96.5 15.5t-59 45.5t-30 72.5t-8.5 96.5v1q0 45 8.5 89.5t32.5 80 t66.5 58t110.5 22.5z" glyph-name="odieresis" horiz-adv-x="479" unicode="ö"/>
<glyph d="M307 114q0 -31 -18 -49.5t-46 -18.5t-45 18.5t-17 48.5t17.5 48.5t46.5 18.5q27 0 44.5 -18t17.5 -48zM456 278h-423v48h423v-48zM307 492q0 -31 -18 -50t-46 -19t-45 18.5t-17 48.5q0 31 17.5 50t46.5 19q27 0 44.5 -18.5t17.5 -48.5z" glyph-name="divide" unicode="÷"/>
<glyph d="M114 -120l35 117q-35 10 -57.5 29.5t-35.5 47.5t-18 65t-5 81q0 49 10 94.5t34.5 80t66.5 55t106 20.5q9 0 16.5 -0.5t15.5 -0.5l38 121l45 -11l-36 -117q35 -10 57.5 -29.5t35.5 -47.5t18 -64.5t5 -80.5q0 -48 -9.5 -93.5t-34 -80.5t-66.5 -56t-107 -21q-9 0 -17 0.5 t-15 1.5l-38 -122zM240 28q30 0 50.5 15t32.5 41t17.5 61.5t5.5 77.5q0 55 -8 98t-28 72l-1 1l-101 -361q8 -2 15 -3.5t17 -1.5zM132 237q0 -56 8 -99t28 -72l2 -1l99 361q-13 5 -31 5q-30 0 -50 -15t-32.5 -41t-18 -61.5t-5.5 -76.5z" glyph-name="oslash" horiz-adv-x="479" unicode="ø"/>
<glyph d="M285 533h-43l-138 134v22h102l79 -134v-22zM494 14q-16 -4 -36 -8q-17 -4 -42 -8t-54 -7l-20 10v83q-18 -45 -55.5 -70t-92.5 -25q-37 0 -61 12t-38.5 32.5t-20.5 48t-6 57.5v260l-52 17v28q17 5 38 9q18 4 43.5 7.5t57.5 7.5l20 -10q-2 -21 -2.5 -50t-0.5 -66v-172 q0 -53 13.5 -87t51.5 -34q21 0 39 11.5t31.5 33.5t21.5 52t8 68v185l-52 17v28q17 5 38 9q18 4 43.5 7.5t56.5 7.5l20 -10q-1 -21 -1.5 -51.5t-0.5 -78.5v-268l53 -17v-29z" glyph-name="ugrave" horiz-adv-x="512" unicode="ù"/>
<glyph d="M398 667l-139 -134h-42v22l79 134h102v-22zM494 14q-16 -4 -36 -8q-17 -4 -42 -8t-54 -7l-20 10v83q-18 -45 -55.5 -70t-92.5 -25q-37 0 -61 12t-38.5 32.5t-20.5 48t-6 57.5v260l-52 17v28q17 5 38 9q18 4 43.5 7.5t57.5 7.5l20 -10q-2 -21 -2.5 -50t-0.5 -66v-172 q0 -53 13.5 -87t51.5 -34q21 0 39 11.5t31.5 33.5t21.5 52t8 68v185l-52 17v28q17 5 38 9q18 4 43.5 7.5t56.5 7.5l20 -10q-1 -21 -1.5 -51.5t-0.5 -78.5v-268l53 -17v-29z" glyph-name="uacute" horiz-adv-x="512" unicode="ú"/>
<glyph d="M376 533h-43l-78 76l-79 -76h-42v22l94 136h53l95 -136v-22zM494 14q-16 -4 -36 -8q-17 -4 -42 -8t-54 -7l-20 10v83q-18 -45 -55.5 -70t-92.5 -25q-37 0 -61 12t-38.5 32.5t-20.5 48t-6 57.5v260l-52 17v28q17 5 38 9q18 4 43.5 7.5t57.5 7.5l20 -10q-2 -21 -2.5 -50 t-0.5 -66v-172q0 -53 13.5 -87t51.5 -34q21 0 39 11.5t31.5 33.5t21.5 52t8 68v185l-52 17v28q17 5 38 9q18 4 43.5 7.5t56.5 7.5l20 -10q-1 -21 -1.5 -51.5t-0.5 -78.5v-268l53 -17v-29z" glyph-name="ucircumflex" horiz-adv-x="512" unicode="û"/>
<glyph d="M398 608q0 -27 -16.5 -45t-43.5 -18q-26 0 -42 17.5t-16 43.5t17 44t43 18t42 -17t16 -43zM230 608q0 -27 -17 -45t-44 -18q-26 0 -41.5 17.5t-15.5 43.5t16.5 44t42.5 18t42.5 -17t16.5 -43zM494 14q-16 -4 -36 -8q-17 -4 -42 -8t-54 -7l-20 10v83q-18 -45 -55.5 -70 t-92.5 -25q-37 0 -61 12t-38.5 32.5t-20.5 48t-6 57.5v260l-52 17v28q17 5 38 9q18 4 43.5 7.5t57.5 7.5l20 -10q-2 -21 -2.5 -50t-0.5 -66v-172q0 -53 13.5 -87t51.5 -34q21 0 39 11.5t31.5 33.5t21.5 52t8 68v185l-52 17v28q17 5 38 9q18 4 43.5 7.5t56.5 7.5l20 -10 q-1 -21 -1.5 -51.5t-0.5 -78.5v-268l53 -17v-29z" glyph-name="udieresis" horiz-adv-x="512" unicode="ü"/>
<glyph d="M377 667l-139 -134h-42v22l79 134h102v-22zM427 431q-5 -4 -9 -8l-10 -8t-12 -7q-35 -140 -73.5 -255.5t-82.5 -192.5q-50 -92 -103 -129.5t-108 -37.5q-37 0 -58.5 15.5t-21.5 41.5q0 22 14.5 34.5t42.5 12.5q10 0 15 -1l50 -48q30 10 59 40t55 85l-148 434q-8 4 -13 8 l-10 8t-9 8v28h188v-28l-12 -8q-5 -4 -13 -8t-17 -7l103 -316q46 144 67 316q-9 3 -16.5 7t-12.5 8q-6 4 -10 8v28h145v-28z" glyph-name="yacute" horiz-adv-x="435" unicode="ý"/>
<glyph d="M444 251q0 -50 -10.5 -97t-35.5 -83t-67 -58t-104 -22q-15 0 -30.5 1t-27.5 3v-141q14 -4 25 -8t19 -8q10 -4 17 -8v-28h-220v28q6 4 15 8q7 4 17 8t23 8v804l-59 17v29l40 8q19 4 45.5 7.5t59.5 7.5l21 -10q-3 -45 -3 -149v-186q19 42 53.5 65t81.5 23q40 0 66.5 -17 t43 -47t23.5 -70t7 -85zM337 230q0 83 -17 131.5t-57 48.5q-18 0 -35 -11.5t-30 -33.5t-21 -52.5t-8 -68.5v-193q29 -20 67 -20q28 0 47 15t31 41.5t17.5 63t5.5 79.5z" glyph-name="thorn" horiz-adv-x="477" unicode="þ"/>
</font>
</defs>
</svg>
