<?xml version="1.0" encoding="UTF-8"?>
<!DOCTYPE svg  PUBLIC '-//W3C//DTD SVG 1.1//EN'  'http://www.w3.org/Graphics/SVG/1.1/DTD/svg11.dtd'>
<svg version="1.1" xmlns="http://www.w3.org/2000/svg">
<defs>
<font id="FolhaTexto-Bold" horiz-adv-x="540">
<font-face font-family="Folha Texto" font-weight="700" ascent="750" bbox="-21 -250 935 895" cap-height="646" descent="-250" panose-1="0 0 8 0 0 0 0 0 0 0" underline-position="-144" underline-thickness="46" unicode-range="U+0020-00FE" units-per-em="1000" x-height="482"/>
<missing-glyph/>
<glyph glyph-name="space" horiz-adv-x="223" unicode=" "/>
<glyph d="M154 202l-60 344q-11 68 -11 76q2 32 88 32q86 -2 87 -74q0 -19 -14 -84l-50 -294h-40zM173 -9q-55 0 -71 46q-5 14 -5 30q0 56 47 72q14 5 29 5q57 0 73 -48q4 -14 4 -29q0 -55 -47 -71q-14 -5 -30 -5z" glyph-name="exclam" horiz-adv-x="344" unicode="!"/>
<glyph d="M256 403l-26 222v21h123v-21l-26 -222h-71zM82 403l-26 222v21h123v-21l-26 -222h-71z" glyph-name="quotedbl" horiz-adv-x="408" unicode='"'/>
<glyph d="M105 0l12 154h-58l10 109h58l11 123h-58l9 110h59l13 150h65l-13 -150h139l13 150h65l-13 -150h63l-10 -110h-62l-11 -123h62l-9 -109h-63l-13 -154h-65l13 154h-139l-13 -154h-65zM193 263h138l11 123h-139z" glyph-name="numbersign" unicode="#"/>
<glyph d="M184 -116l15 104q-62 6 -106 27q-31 14 -38 33q-4 12 -6 31l-11 128l26 5q47 -139 142 -172l32 218l-29 9q-152 50 -162 179q-1 10 -1 20q0 99 83 154q61 40 146 40h20l13 90h44l-13 -94q48 -7 83 -21q31 -12 34 -42q1 -7 1 -16v-120h-26q-29 113 -100 146l-30 -212 l34 -12q117 -42 146 -117q12 -32 12 -73q0 -116 -98 -170q-62 -33 -148 -33h-4l-15 -102h-44zM163 518q0 -61 57 -94q17 -9 39 -18l30 208q-7 1 -19 1q-89 0 -104 -70q-3 -13 -3 -27zM375 133q-2 80 -95 111l-31 -213h11q93 0 111 70q4 16 4 32z" glyph-name="dollar" horiz-adv-x="527" unicode="$"/>
<glyph d="M172 282q-89 0 -126 85q-18 43 -18 101q0 118 70 165q33 21 74 21q89 0 126 -84q19 -44 19 -102q0 -119 -71 -165q-33 -21 -74 -21zM232 0h-69l356 646h69zM175 314q35 0 42 80q3 30 3 74q0 144 -45 153q-3 1 -5 1q-35 0 -43 -75q-3 -32 -3 -79q0 -138 43 -153q4 -1 8 -1 zM573 -13q-89 0 -126 85q-18 43 -18 101q0 118 70 165q33 21 74 21q89 0 126 -84q19 -44 19 -102q0 -119 -71 -165q-33 -21 -74 -21zM576 19q35 0 42 80q3 30 3 74q0 144 -45 153q-3 1 -5 1q-35 0 -43 -75q-3 -32 -3 -79q0 -138 43 -153q4 -1 8 -1z" glyph-name="percent" horiz-adv-x="746" unicode="%"/>
<glyph d="M272 -13q-155 0 -213 89q-26 41 -26 94q0 102 94 158q20 12 44 22q-42 75 -42 138q0 98 79 144q48 27 114 27q107 0 145 -71q15 -29 15 -63q0 -107 -162 -152q-1 -1 -2 -1q66 -94 198 -206q33 64 44 155l-79 9v31h196v-31l-22 -2q-24 -3 -35 -26q-5 -11 -11 -30 q-21 -77 -58 -135q117 -93 168 -107v-30h-73q-76 0 -151 39q-9 6 -21 12q-82 -64 -202 -64zM295 405q71 43 72 125q0 58 -38 80q-12 7 -25 7q-54 -2 -55 -74q1 -64 46 -138zM334 49q57 1 98 26q-119 77 -210 198q-17 23 -31 44q-28 -35 -28 -91q0 -88 63 -140 q46 -37 108 -37z" glyph-name="ampersand" horiz-adv-x="728" unicode="&amp;"/>
<glyph d="M82 403l-26 222v21h123v-21l-26 -222h-71z" glyph-name="quotesingle" horiz-adv-x="234" unicode="'"/>
<glyph d="M361 -240q-278 169 -279 488q0 285 224 452q26 19 55 37l11 -32q-129 -129 -150 -375q-3 -41 -3 -82q0 -261 117 -415q18 -23 36 -41z" glyph-name="parenleft" horiz-adv-x="403" unicode="("/>
<glyph d="M42 -240l-11 32q131 131 150 379q3 38 3 77q0 259 -115 413q-18 24 -38 44l11 32q250 -155 276 -422q3 -33 3 -67q-1 -320 -279 -488z" glyph-name="parenright" horiz-adv-x="403" unicode=")"/>
<glyph d="M284 383q-8 2 -14 18l-47 145l-26 -89q-18 -57 -41 -64q-6 -2 -13 -2q-35 0 -63 32q-14 17 -14 31q2 6 13 14l125 90q-59 -4 -107 -4q-67 4 -68 48q0 35 24 65q9 11 16 12q6 -1 16 -8l124 -91l-32 87q-11 28 -11 47q2 47 59 48q38 0 55 -13q2 -3 3 -5q-1 -7 -5 -17 l-47 -146l74 57q37 28 60 29q31 0 45 -42q6 -19 6 -41q-9 -22 -23 -24l-153 1l77 -53q48 -32 49 -60q0 -40 -44 -58q-18 -7 -38 -7z" glyph-name="asterisk" horiz-adv-x="441" unicode="*"/>
<glyph d="M226 109v192h-164v74h164v171h90v-171h162v-74h-162v-192h-90z" glyph-name="plus" unicode="+"/>
<glyph d="M55 -170l-11 20q61 71 71 148l-43 97q-4 11 -4 16q0 20 33 35q19 8 40 8q75 0 83 -78q1 -9 1 -17q0 -105 -109 -190q-29 -21 -61 -39z" glyph-name="comma" horiz-adv-x="284" unicode=","/>
<glyph d="M48 234v56l203 10v-56z" glyph-name="hyphen" horiz-adv-x="299" unicode="-"/>
<glyph d="M142 -9q-58 0 -77 49q-6 17 -6 35q0 59 49 78q16 6 34 6q59 0 78 -49q6 -17 6 -35q0 -59 -49 -78q-17 -6 -35 -6z" glyph-name="period" horiz-adv-x="284" unicode="."/>
<glyph d="M4 -250l370 1000h66l-370 -1000h-66z" glyph-name="slash" horiz-adv-x="444" unicode="/"/>
<glyph d="M296 -13q-136 0 -202 123q-45 85 -45 213q0 193 99 282q61 54 147 54q135 0 201 -123q45 -85 45 -213q0 -192 -99 -282q-61 -54 -146 -54zM299 34q57 0 77 89q15 68 15 200q0 225 -66 277q-16 12 -34 12q-57 0 -77 -89q-15 -68 -15 -200q0 -225 66 -277q16 -12 34 -12z " glyph-name="zero" horiz-adv-x="590" unicode="0"/>
<glyph d="M43 0v30l56 10q37 7 45 25q5 14 5 38v442l-126 -22l-5 30l134 78q31 18 78 18h72q-6 -88 -6 -178v-367q0 -43 20 -54q10 -6 30 -10l59 -10v-30h-362z" glyph-name="one" horiz-adv-x="426" unicode="1"/>
<glyph d="M483 -8q-5 0 -34 2q-80 6 -122 6h-276l-7 43q178 148 233 254q40 76 40 164q0 95 -53 134q-23 16 -50 16q-36 0 -60 -14l-22 -106q-4 -23 -17 -26q-8 -2 -25 -2q-44 0 -54 34q-2 8 -2 15q0 63 65 107q60 41 145 41q146 0 206 -93q30 -48 30 -111q0 -122 -105 -217 q-63 -56 -170 -115h206q52 0 71 24q8 10 15 24l9 19l30 -5l-20 -159q-4 -30 -22 -34q-6 -1 -11 -1z" glyph-name="two" horiz-adv-x="572" unicode="2"/>
<glyph d="M230 -14q-103 0 -159 60q-33 36 -33 80q0 40 35 52q10 4 21 4q31 0 37 -11q4 -7 8 -24l22 -104q32 -14 57 -14q74 0 106 64q16 33 16 75q0 104 -94 140q-29 11 -63 14v29q140 16 141 141q0 76 -52 107q-23 14 -50 14q-33 0 -59 -12l-21 -98q-6 -27 -16 -31q-9 -3 -28 -3 q-43 0 -51 39q-1 7 -1 14q0 58 66 101q57 37 127 37q159 0 204 -97q14 -32 14 -71q0 -78 -76 -121q-43 -23 -97 -28q128 -11 174 -87q20 -34 20 -75q0 -127 -118 -173q-56 -22 -130 -22z" glyph-name="three" horiz-adv-x="534" unicode="3"/>
<glyph d="M176 0v33l108 12v123h-249l-5 36l246 412q16 27 49 31q4 1 8 1l92 5q-6 -84 -6 -174v-222h95l-10 -89h-85v-78q0 -40 27 -48q5 -2 10 -3l46 -10v-29h-326zM125 257h159v271z" glyph-name="four" horiz-adv-x="569" unicode="4"/>
<glyph d="M218 -14q-98 0 -153 57q-33 35 -33 77q2 54 56 55q28 0 33 -9q4 -7 9 -25l23 -97q32 -15 62 -15q78 0 102 68q8 24 8 52q0 88 -87 128q-49 22 -114 23h-3h-3.5h-4h-5t-4.5 0.5t-4 0.5h-3.5h-2.5h-2l28 345h233q41 0 56 20q3 4 5 7l6 9l28 -2l-14 -118q-12 -38 -47 -40 h-227l-11 -123h21q213 -2 272 -120q19 -40 19 -88q0 -113 -95 -169q-62 -36 -148 -36z" glyph-name="five" horiz-adv-x="518" unicode="5"/>
<glyph d="M289 -13q-133 0 -197 97q-42 64 -42 156q0 180 133 299q107 96 269 122l7 -30q-144 -48 -207 -164q-28 -51 -46 -119q47 58 127 64q8 1 15 1q104 0 152 -83q28 -50 28 -119q0 -116 -87 -179q-63 -45 -152 -45zM301 29q59 0 80 74q9 32 9 72q0 91 -58 132q-29 20 -62 20 q-38 -1 -69 -18q-7 -32 -7 -74q0 -106 46 -169q28 -36 61 -37z" glyph-name="six" horiz-adv-x="576" unicode="6"/>
<glyph d="M146 -4q-66 1 -67 19q1 14 24 41q114 132 178 257l104 209h-229q-44 0 -61 -23q-5 -7 -9 -14l-13 -26h-29l11 152q5 34 36 35h387l6 -30l-187 -400l-54 -141q-23 -59 -56 -73q-17 -6 -41 -6z" glyph-name="seven" horiz-adv-x="512" unicode="7"/>
<glyph d="M263 -14q-135 0 -188 79q-25 37 -25 85q0 84 82 130q25 14 53 22l-24 13q-103 58 -104 164q0 90 80 142q61 39 146 39q117 0 172 -68q31 -39 31 -89q0 -85 -76 -128q-19 -10 -40 -16l26 -13q111 -54 112 -163q0 -104 -91 -159q-64 -38 -154 -38zM332 377q45 49 45 128 q0 73 -56 101q-24 12 -52 12q-67 0 -82 -60q-4 -15 -4 -31q0 -73 89 -121q9 -5 18 -9zM273 29q77 0 99 64q7 20 7 44q-2 80 -106 127l-48 21q-69 -50 -70 -132q0 -76 56 -108q28 -16 62 -16z" glyph-name="eight" horiz-adv-x="558" unicode="8"/>
<glyph d="M287 661q133 0 197 -97q42 -64 42 -156q0 -180 -133 -299q-107 -96 -269 -122l-7 30q144 48 207 164q28 51 46 119q-47 -58 -127 -64q-8 -1 -15 -1q-104 0 -152 83q-28 50 -28 119q0 116 87 179q63 45 152 45zM275 619q-59 0 -80 -74q-9 -32 -9 -72q0 -91 58 -132 q29 -20 62 -20q38 1 69 18q7 32 7 74q0 106 -46 169q-28 36 -61 37z" glyph-name="nine" horiz-adv-x="576" unicode="9"/>
<glyph d="M142 293q-58 0 -77 49q-6 17 -6 35q0 59 49 78q16 6 34 6q59 0 78 -49q6 -17 6 -35q0 -59 -49 -78q-17 -6 -35 -6zM142 -9q-58 0 -77 49q-6 17 -6 35q0 59 49 78q16 6 34 6q59 0 78 -49q6 -17 6 -35q0 -59 -49 -78q-17 -6 -35 -6z" glyph-name="colon" horiz-adv-x="284" unicode=":"/>
<glyph d="M142 293q-58 0 -77 49q-6 17 -6 35q0 59 49 78q16 6 34 6q59 0 78 -49q6 -17 6 -35q0 -59 -49 -78q-17 -6 -35 -6zM55 -170l-11 20q61 71 71 148l-43 97q-4 11 -4 16q0 20 33 35q19 8 40 8q75 0 83 -78q1 -9 1 -17q0 -105 -109 -190q-29 -21 -61 -39z" glyph-name="semicolon" horiz-adv-x="284" unicode=";"/>
<glyph d="M461 53l-403 241v64l403 242l18 -87l-304 -177l304 -179z" glyph-name="less" unicode="&lt;"/>
<glyph d="M72 401v74h396v-74h-396zM72 201v74h396v-74h-396z" glyph-name="equal" unicode="="/>
<glyph d="M73 599l403 -241v-64l-403 -242l-18 87l304 177l-304 179z" glyph-name="greater" unicode="&gt;"/>
<glyph d="M180 194q-6 44 -6 77q0 63 35 95q15 14 38 27q70 42 76 104q1 8 1 15q0 66 -54 92q-23 11 -50 11q-31 0 -64 -17l-13 -97q-3 -25 -17 -29q-9 -2 -28 -2q-61 2 -62 53q0 60 72 101q61 35 140 35q109 0 168 -68q41 -46 41 -109q0 -106 -93 -161q-32 -19 -80 -37 q-41 -16 -48 -41q-3 -10 -3 -22v-27h-53zM206 -9q-57 0 -73 47q-4 13 -4 27q0 52 46 69q14 5 31 5q55 0 73 -45q5 -14 5 -29q0 -53 -47 -69q-15 -5 -31 -5z" glyph-name="question" horiz-adv-x="515" unicode="?"/>
<glyph d="M430 -195q-200 0 -307 129q-87 105 -87 267q0 196 123 324q121 126 310 134h21q185 0 290 -110q87 -91 87 -229q0 -159 -98 -236q-63 -49 -153 -49q-82 0 -105 64l-4 16q-4 13 -4 37q-51 -107 -117 -108q-74 0 -102 85q-12 39 -12 89q0 123 75 190q52 46 121 46 q91 0 167 -33q-17 -62 -22 -117l-11 -130q-2 -22 -2 -33q1 -54 36 -55q75 0 108 96q19 56 19 133q0 150 -100 229q-73 58 -178 58q-170 0 -263 -124q-76 -103 -76 -259q0 -196 124 -285q78 -56 192 -56q94 0 174 36l-2 -34q-75 -68 -185 -74q-10 -1 -19 -1zM430 115 q30 0 55 71q14 44 19 97l9 107q-22 31 -47 31q-40 0 -63 -75q-15 -53 -15 -121q1 -109 42 -110z" glyph-name="at" horiz-adv-x="902" unicode="@"/>
<glyph d="M-5 0v29l13 3q31 7 43 29q4 8 8 19l211 569h55q30 0 42 -24l4 -10l204 -533q14 -36 36 -44q9 -3 19 -5l16 -3v-30h-305v32l88 10l-55 150h-208l-53 -151l81 -9v-32h-199zM182 238h175l-89 244z" glyph-name="A" horiz-adv-x="641" unicode="A"/>
<glyph d="M36 0v30l38 7q38 7 46 30q4 13 4 36v440q0 45 -21 57q-11 6 -29 9l-38 7v30h302q163 0 214 -88q19 -33 19 -74q0 -74 -70 -115q-41 -23 -92 -27q124 -7 172 -83q23 -35 23 -79q0 -135 -143 -170q-44 -10 -98 -10h-327zM312 358q93 0 112 79q4 18 4 38q0 78 -62 111 q-25 13 -55 15q-33 0 -41 -1v-238q24 -4 42 -4zM331 43q94 0 116 84q5 21 5 46q0 95 -78 129q-26 11 -57 13q-16 1 -47 1v-264q36 -9 61 -9z" glyph-name="B" horiz-adv-x="642" unicode="B"/>
<glyph d="M356 -14q-170 0 -252 124q-56 85 -56 212q0 154 98 251q88 87 216 87q97 0 167 -27q39 -16 40 -59v-132h-27q-42 169 -187 170q-116 0 -138 -170q-5 -38 -5 -82q0 -186 75 -275q44 -50 100 -51q96 0 151 133q11 25 19 53l28 -4l-15 -126q-5 -52 -21 -66q-14 -11 -44 -20 q-62 -18 -149 -18z" glyph-name="C" horiz-adv-x="629" unicode="C"/>
<glyph d="M36 0v30l38 7q38 7 46 30q4 13 4 36v440q0 45 -21 57q-11 6 -29 9l-38 7v30h242q231 0 334 -128q65 -82 65 -201q0 -169 -126 -255q-93 -62 -232 -62h-283zM324 45q149 0 182 162q9 43 9 95q0 183 -109 258q-47 32 -109 38q-4 1 -25 1v-546q24 -8 52 -8z" glyph-name="D" horiz-adv-x="718" unicode="D"/>
<glyph d="M36 0v30l38 7q38 7 46 30q4 13 4 36v440q0 45 -21 57q-11 6 -29 9l-38 7v30h510q29 -2 30 -29v-159h-27l-7 29q-19 78 -60 99q-27 13 -76 13h-135v-235h169l14 90h29v-228h-28l-15 91h-169v-263q65 -11 124 -11q86 0 125 56q19 28 35 75l9 28l27 -5l-22 -174 q-6 -30 -31 -31q-6 0 -42 2q-79 6 -108 6h-352z" glyph-name="E" horiz-adv-x="626" unicode="E"/>
<glyph d="M36 0v30l38 7q38 7 46 30q4 13 4 36v440q0 45 -21 57q-11 6 -29 9l-38 7v30h503q29 -2 30 -29v-159h-27l-7 29q-19 78 -60 99q-27 13 -76 13h-128v-243h165l16 91h29v-229h-29l-16 91h-164v-264l117 -12v-33h-353z" glyph-name="F" horiz-adv-x="596" unicode="F"/>
<glyph d="M365 -14q-191 0 -271 139q-46 81 -46 196q0 160 99 255q88 84 221 84q95 0 165 -28q5 -2 8 -3q31 -13 35 -40q1 -9 1 -18v-128h-28q-47 168 -184 169q-152 -2 -153 -262q0 -168 72 -258q47 -57 109 -58q35 0 59 9v211l-75 10v32h259v-32l-17 -4q-22 -5 -27 -24 q-2 -11 -2 -29v-131q0 -41 -24 -54l-8 -4q-79 -32 -193 -32z" glyph-name="G" horiz-adv-x="672" unicode="G"/>
<glyph d="M36 0v30l38 7q38 7 46 30q4 13 4 36v440q0 45 -21 57q-11 6 -29 9l-38 7v30h318v-31l-82 -11v-236h243v236l-83 11v31h319v-30l-39 -7q-37 -7 -45 -30q-4 -13 -4 -36v-440q0 -45 21 -57q11 -6 28 -9l39 -7v-30h-319v31l83 11v278h-243v-278l82 -11v-31h-318z" glyph-name="H" horiz-adv-x="787" unicode="H"/>
<glyph d="M36 0v30l38 7q38 7 46 30q4 13 4 36v440q0 45 -21 57q-11 6 -29 9l-38 7v30h324v-30l-39 -7q-37 -7 -45 -30q-4 -13 -4 -36v-440q0 -45 21 -57q11 -6 28 -9l39 -7v-30h-324z" glyph-name="I" horiz-adv-x="395" unicode="I"/>
<glyph d="M20 -157l-9 25q61 43 79 87q17 44 17 141v447q0 45 -21 57q-11 6 -28 9l-39 7v30h324v-30l-38 -7q-38 -7 -46 -30q-4 -13 -4 -36v-388q0 -139 -52 -205q-51 -62 -183 -107z" glyph-name="J" horiz-adv-x="360" unicode="J"/>
<glyph d="M36 0v30l38 7q38 7 46 30q4 13 4 36v440q0 45 -21 57q-11 6 -29 9l-38 7v30h318v-31l-82 -11v-562l82 -11v-31h-318zM568 0q-44 0 -69 28q-7 8 -14 19l-205 287l-2 8l277 263l-77 11v30h222v-31l-19 -5q-45 -11 -74 -37l-198 -185l236 -320q21 -27 53 -35l8 -2v-31h-138z " glyph-name="K" horiz-adv-x="695" unicode="K"/>
<glyph d="M504 -8q-8 0 -45 3q-81 5 -117 5h-306v30l38 7q38 7 46 30q4 13 4 36v440q0 45 -21 57q-11 6 -29 9l-38 7v30h343v-32l-107 -12v-549q32 -7 76 -7q93 0 138 66q20 31 36 76l13 36l26 -5l-25 -198q-5 -28 -32 -29z" glyph-name="L" horiz-adv-x="584" unicode="L"/>
<glyph d="M25 0v29l35 8q33 6 40 28q3 11 4 26l22 408q3 55 3 63q0 32 -29 41q-6 2 -13 3l-45 10v30h215q33 0 45 -22q3 -6 6 -13l128 -329l143 364h255v-30l-43 -9q-40 -8 -44 -34q-1 -6 -1 -11q0 -8 3 -63l23 -410q2 -38 27 -47q6 -2 13 -4l39 -8v-30h-320v31l95 13l-25 498 l-180 -460h-35q-22 0 -31 15q-3 7 -7 16l-165 418l-24 -488l93 -13v-30h-227z" glyph-name="M" horiz-adv-x="879" unicode="M"/>
<glyph d="M40 0v30l28 5q37 8 46 29q5 15 6 41q1 66 5 304q2 120 2 130q0 41 -31 57q-8 4 -19 8l-39 12v30h170q37 0 52 -15q5 -6 10 -13l285 -405v389l-97 15v29h232v-30l-30 -6q-35 -6 -43 -26q-5 -15 -6 -43l-8 -542h-40q-32 0 -49 21l-8 10l-329 467v-453l97 -15v-29h-234z" glyph-name="N" horiz-adv-x="709" unicode="N"/>
<glyph d="M360 -14q-158 0 -244 112q-68 89 -68 222q0 157 97 254q88 86 217 86q158 0 244 -112q68 -89 68 -222q0 -158 -98 -255q-87 -85 -216 -85zM372 34q138 2 139 273q0 157 -64 246q-43 58 -97 59q-137 -2 -138 -273q0 -156 64 -246q43 -58 96 -59z" glyph-name="O" horiz-adv-x="722" unicode="O"/>
<glyph d="M36 0v30l38 7q38 7 46 30q4 13 4 36v440q0 45 -21 57q-11 6 -29 9l-38 7v30h283q170 0 242 -88q39 -49 39 -116q0 -125 -116 -171q-56 -22 -130 -22q-42 0 -82 6v-210l116 -12v-33h-352zM314 294q126 2 127 147q0 110 -81 146q-25 11 -54 13q-16 1 -35 -1v-298 q28 -7 43 -7z" glyph-name="P" horiz-adv-x="620" unicode="P"/>
<glyph d="M611 -158q-112 0 -173 39q-17 11 -33 25q-36 30 -93 88q-149 18 -218 139q-46 80 -46 187q0 157 97 254q88 86 217 86q158 0 244 -112q68 -89 68 -222q0 -160 -100 -254q-48 -45 -110 -65q100 -98 160 -121q21 -8 43 -11v-33h-56zM212 339q0 -167 67 -258q20 -27 43 -41 l35 25q16 10 27 10q13 -1 30 -18l16 -16q81 52 81 266q0 155 -65 245q-43 59 -97 60q-137 -2 -137 -273z" glyph-name="Q" horiz-adv-x="722" unicode="Q"/>
<glyph d="M36 0v30l38 7q38 7 46 30q4 13 4 36v440q0 45 -21 57q-11 6 -29 9l-38 7v30h294q159 0 226 -79q34 -41 34 -95q0 -116 -120 -147q-34 -9 -75 -10q73 -11 109 -56q7 -9 13 -19q22 -34 68 -134q5 -12 9 -20q19 -38 46 -49q11 -4 25 -6v-31h-80q-83 0 -118 35q-13 14 -26 35 q-15 25 -49 122q-5 13 -8 21q-26 62 -59 73q-13 4 -28 4h-31v-247l83 -12v-31h-313zM310 331q117 0 124 118v13q0 88 -69 123q-27 13 -60 16q-15 1 -39 -1v-264q17 -5 44 -5z" glyph-name="R" horiz-adv-x="663" unicode="R"/>
<glyph d="M247 -14q-94 0 -154 29q-31 14 -38 33q-4 12 -6 31l-11 128l26 5q50 -148 153 -175q21 -6 43 -6q93 0 111 70q4 16 4 32q-2 80 -101 113l-65 21q-152 50 -162 179q-1 10 -1 20q0 99 83 154q61 40 146 40t147 -25q31 -12 34 -42q1 -7 1 -16v-120h-26q-41 157 -161 158 q-89 0 -104 -70q-3 -13 -3 -27q0 -62 58 -95q21 -12 50 -22l64 -22q117 -42 146 -117q12 -32 12 -73q0 -116 -98 -170q-62 -33 -148 -33z" glyph-name="S" horiz-adv-x="535" unicode="S"/>
<glyph d="M135 0v30l48 9q42 8 51 25q6 14 6 45v490h-37q-83 0 -115 -53q-15 -26 -25 -66l-8 -36h-27v173q2 28 30 29h519q28 -2 29 -29v-173h-26l-8 36q-21 88 -77 109q-26 10 -64 10h-43v-490q0 -45 17 -57q12 -8 40 -13l48 -9v-30h-358z" glyph-name="T" horiz-adv-x="635" unicode="T"/>
<glyph d="M370 -13q-214 0 -258 182q-11 45 -11 98v276q0 44 -20 56q-11 6 -30 10l-33 7v30h323v-32l-91 -11v-373q0 -146 84 -184q24 -11 53 -11q112 0 138 111q9 40 9 94v364l-80 12v30h231v-30l-33 -7q-39 -8 -47 -29q-5 -14 -5 -38v-298q0 -198 -142 -244q-40 -13 -88 -13z" glyph-name="U" horiz-adv-x="704" unicode="U"/>
<glyph d="M311 -4q-34 0 -47 24l-6 14l-208 540q-11 29 -37 36q-2 1 -3 1l-14 4v31h293v-32l-89 -12l159 -420l152 421l-76 12v31h191v-30l-22 -5q-25 -5 -39 -38q-1 -3 -2 -5l-209 -572h-43z" glyph-name="V" horiz-adv-x="624" unicode="V"/>
<glyph d="M275 -4q-33 0 -44 26q-2 4 -3 8l-166 544q-9 29 -38 36l-17 4v32h277v-33l-74 -8l123 -425l105 364l-19 61l-48 8v33h276v-33l-72 -8l119 -425l128 424l-72 11v31h185v-30l-18 -4q-28 -6 -38 -36q-1 -3 -2 -5l-179 -575h-62q-36 0 -46 29q0 3 -1 5l-120 413l-128 -447 h-66z" glyph-name="W" horiz-adv-x="942" unicode="W"/>
<glyph d="M-9 0v29l14 3q33 8 50 29q5 5 11 14l168 232l-172 264q-20 30 -46 39q-2 1 -4 1l-16 5v30h296v-32l-84 -12l128 -195l143 197l-73 11v31h200v-29l-20 -5q-30 -8 -59 -45q-4 -4 -8 -9l-151 -199l182 -278q24 -36 48 -44q7 -3 13 -4l19 -4v-29h-307v31l83 12l-139 214 l-148 -215l75 -11v-31h-203z" glyph-name="X" horiz-adv-x="615" unicode="X"/>
<glyph d="M111 0v30l55 10q38 7 45 27q5 13 5 37v156l-178 317q-16 28 -40 35l-14 4v30h283v-33l-79 -10l141 -261l140 261l-74 12v31h191v-29l-22 -7q-27 -8 -42 -33q-3 -4 -5 -8l-153 -279v-186q0 -43 19 -54q11 -6 31 -10l55 -10v-30h-358z" glyph-name="Y" horiz-adv-x="572" unicode="Y"/>
<glyph d="M517 -8q-8 0 -45 3q-79 5 -115 5h-318l-4 36l338 563h-159q-79 0 -109 -47q-15 -26 -24 -67l-8 -41h-27v171q2 30 30 31h465l4 -41l-337 -556q86 -4 153 -4q91 0 135 64q22 31 39 79l13 36l26 -5l-25 -198q-5 -28 -32 -29z" glyph-name="Z" horiz-adv-x="606" unicode="Z"/>
<glyph d="M116 -235v966h258v-46h-121v-874h121v-46h-258z" glyph-name="bracketleft" horiz-adv-x="403" unicode="["/>
<glyph d="M371 -250l-364 1000h66l363 -1000h-65z" glyph-name="backslash" horiz-adv-x="444" unicode="\"/>
<glyph d="M287 -235h-258v46h121v874h-121v46h258v-966z" glyph-name="bracketright" horiz-adv-x="403" unicode="]"/>
<glyph d="M63 199l177 444l83 7l177 -451h-143l-114 304l-117 -304h-63z" glyph-name="asciicircum" horiz-adv-x="563" unicode="^"/>
<glyph d="M-1 -130v45h502v-45h-502z" glyph-name="underscore" horiz-adv-x="500" unicode="_"/>
<glyph d="M290 543l-165 60q-44 17 -45 63q0 40 38 63q17 10 34 10q8 0 20 -14q3 -4 10 -12l118 -151z" glyph-name="grave" horiz-adv-x="500" unicode="`"/>
<glyph d="M171 -14q-83 0 -119 59q-16 28 -16 62q0 75 84 118q46 23 123 44l66 18q2 41 2 66q-2 103 -90 104q-35 0 -64 -16l-13 -91q-3 -23 -15 -26q-8 -2 -26 -2q-52 7 -56 50q0 52 71 93q65 37 143 37q126 0 169 -86q17 -35 17 -79q0 -28 -3 -120q-3 -98 -3 -131q0 -40 27 -46 q9 -2 20 -2q7 0 17 2l2 -22q-50 -31 -97 -31q-73 0 -90 67q-2 7 -3 13q-55 -80 -146 -81zM238 57q42 0 59 48q5 16 6 35l4 93l-32 -2q-108 -9 -109 -86q0 -61 42 -81q14 -7 30 -7z" glyph-name="a" horiz-adv-x="523" unicode="a"/>
<glyph d="M292 -14q-118 0 -191 42q-16 9 -31 19q8 80 8 183v393q0 40 -22 52q-7 3 -15 6l-37 11v24q78 22 196 23h23q-7 -86 -7 -206v-113q59 81 142 82q115 0 167 -97q32 -60 32 -143q0 -147 -99 -223q-69 -53 -166 -53zM300 31q71 0 97 97q12 44 12 101q0 132 -70 170 q-23 12 -49 12q-45 -1 -74 -27v-198q0 -117 54 -147q14 -8 30 -8z" glyph-name="b" horiz-adv-x="600" unicode="b"/>
<glyph d="M277 -14q-134 0 -197 102q-40 65 -40 156q0 130 88 203q67 55 160 55q88 0 141 -53q33 -34 33 -74q-2 -52 -64 -53q-19 0 -24 10q-2 6 -6 17l-32 101q-21 9 -36 9q-113 -2 -114 -188q0 -152 92 -193q29 -13 63 -13q62 1 114 39l11 -17q-82 -100 -189 -101z" glyph-name="c" horiz-adv-x="491" unicode="c"/>
<glyph d="M242 -14q-112 0 -166 99q-34 64 -34 152q0 129 87 204q67 58 158 58q59 0 92 -9v133q0 40 -21 51q-7 4 -16 7l-39 12v23q77 22 196 23h26q-8 -93 -8 -206v-441q0 -30 22 -37q6 -2 12 -3l34 -5v-27q-78 -29 -187 -29h-8v82q-51 -71 -122 -85q-14 -2 -26 -2zM315 76 q40 1 64 23v308q-38 47 -89 50q-68 0 -92 -90q-10 -40 -10 -92q0 -152 80 -189q22 -10 47 -10z" glyph-name="d" horiz-adv-x="602" unicode="d"/>
<glyph d="M290 -14q-136 0 -204 96q-46 65 -46 160q0 127 84 202q66 58 156 58q149 0 186 -134q11 -40 11 -88l-300 -18q0 -115 73 -166q40 -27 91 -27q73 1 127 44l11 -17q-86 -109 -189 -110zM178 317q63 -5 129 -5q37 0 42 21q1 6 1 13q0 81 -45 107q-15 8 -31 8q-61 0 -86 -83 q-7 -28 -10 -61z" glyph-name="e" horiz-adv-x="513" unicode="e"/>
<glyph d="M29 0v28l29 5q28 6 33 31q2 6 2 12q6 72 6 137v215h-53l-3 41l32 8q23 8 23 32v21q0 92 71 157q64 57 147 57q80 0 103 -42q6 -13 6 -26q-7 -43 -43 -47q-9 1 -19 7l-72 67q-56 -26 -56 -145v-77l139 5l-4 -33q-3 -21 -18 -24q-6 -1 -14 -1h-101v-388l83 -7v-33h-291z " glyph-name="f" horiz-adv-x="367" unicode="f"/>
<glyph d="M253 -249q-168 0 -209 76q-11 20 -11 44q0 60 65 87q19 8 42 11q-54 25 -55 77q0 63 73 97q14 6 28 10q-106 21 -136 108q-9 28 -9 59q0 96 81 147q56 35 132 35q47 0 109 -17l103 55q14 7 20 7q12 0 20 -22q4 -12 4 -26q-2 -49 -63 -50q-25 0 -59 8q70 -35 81 -115 q1 -11 1 -22q0 -125 -129 -167q-37 -11 -81 -15q-46 -3 -61 -28q-4 -7 -4 -14q2 -34 57 -35h110q130 0 151 -88q3 -15 3 -31q0 -83 -83 -139q-76 -52 -180 -52zM260 182q71 0 77 119v17q0 84 -43 124q-20 18 -42 18q-61 0 -74 -90q-3 -21 -3 -46q0 -86 44 -125 q19 -17 41 -17zM271 -208q73 0 110 46q18 22 18 47q-2 64 -102 65h-77q-77 -3 -79 -61q0 -57 58 -83q31 -14 72 -14z" glyph-name="g" horiz-adv-x="542" unicode="g"/>
<glyph d="M16 0v28l29 5q28 6 33 30q1 6 2 13q6 72 6 137v410q0 40 -22 52q-7 3 -15 6l-38 11v24q79 22 197 23h23q-7 -76 -7 -206v-129q63 82 147 96q13 2 25 2q144 -2 145 -163v-269q0 -28 25 -34q3 -1 4 -1l38 -6v-29h-265v30l59 8v305q-2 80 -65 81q-85 0 -113 -125v-2v-259 l59 -8v-30h-267z" glyph-name="h" horiz-adv-x="622" unicode="h"/>
<glyph d="M158 564q-56 0 -75 45q-6 15 -6 32q0 54 47 72q16 6 34 6q56 0 75 -45q6 -16 6 -33q0 -52 -45 -70q-17 -7 -36 -7zM25 0v28l29 5q28 6 33 31q2 6 2 12q6 72 6 137v169q0 32 -18 43q-6 4 -14 7l-24 9v25q74 22 166 22h36q-8 -79 -8 -191v-227q0 -27 26 -34q3 -1 5 -1 l37 -6v-29h-276z" glyph-name="i" horiz-adv-x="319" unicode="i"/>
<glyph d="M149 564q-56 0 -75 45q-6 15 -6 32q0 54 47 72q16 6 34 6q56 0 75 -45q6 -16 6 -33q0 -52 -45 -70q-17 -7 -36 -7zM17 -243l-11 26q53 46 66 87q13 39 13 126v386q0 33 -17 43q-6 4 -14 7l-24 9v25q74 22 166 22h36q-8 -79 -8 -191v-259q0 -121 -44 -177 q-43 -55 -163 -104z" glyph-name="j" horiz-adv-x="299" unicode="j"/>
<glyph d="M16 0v28l29 5q28 6 33 30q1 6 2 13q6 72 6 137v410q0 40 -22 52q-7 3 -15 6l-38 11v24q79 22 197 23h23q-7 -76 -7 -206v-247l33 14q41 18 73 49l93 93l-85 9v31h239v-31q-62 -8 -91 -28q-17 -11 -38 -31l-79 -75l156 -238q21 -34 42 -42q5 -2 12 -4l8 -2v-31h-114 q-54 0 -80 32q-6 8 -12 17l-119 195l-38 -18v-188l57 -7v-31h-265z" glyph-name="k" horiz-adv-x="584" unicode="k"/>
<glyph d="M16 0v28l29 5q28 6 33 30q1 6 2 13q6 72 6 137v410q0 40 -22 52l-16 6l-38 11v24q79 22 198 23h23q-7 -64 -7 -206v-463q0 -30 25 -35q3 -1 5 -1l37 -4v-30h-275z" glyph-name="l" horiz-adv-x="308" unicode="l"/>
<glyph d="M25 0v28l29 5q28 6 33 31q2 6 2 12q6 72 6 137v169q0 33 -19 44q-6 3 -13 6l-24 9v25q76 22 165 22h18v-97q51 74 126 101q29 10 54 10q95 0 124 -89q4 -9 6 -19q56 80 136 102q23 6 44 6q103 0 127 -107q6 -29 6 -63v-262q0 -27 24 -33q4 -1 7 -2l37 -6v-29h-264v30 l58 8v300q-1 85 -64 86q-63 0 -93 -88q-7 -19 -11 -40v-258l58 -8v-30h-254v30l58 8v300q-1 85 -65 86q-60 0 -90 -81q-8 -22 -13 -46v-259l58 -8v-30h-266z" glyph-name="m" horiz-adv-x="927" unicode="m"/>
<glyph d="M25 0v28l29 5q28 6 33 31q2 6 2 12q6 72 6 137v169q0 32 -18 43q-6 4 -14 7l-24 9v25q74 22 165 22h18v-97q57 81 138 105q23 6 44 6q135 0 142 -151v-18v-263q0 -27 24 -33q4 -1 7 -2l37 -6v-29h-264v30l58 8v299q-1 86 -64 87q-83 0 -111 -125v-2v-259l58 -8v-30h-266z " glyph-name="n" horiz-adv-x="628" unicode="n"/>
<glyph d="M293 -13q-131 0 -202 90q-52 68 -52 165q0 125 88 200q70 60 168 60q130 0 201 -90q53 -68 53 -166q0 -124 -87 -199q-71 -60 -169 -60zM303 30q77 0 94 134q4 34 4 74q0 118 -52 184q-30 35 -64 36q-88 0 -97 -171q-1 -18 -1 -37q0 -118 52 -184q30 -35 64 -36z" glyph-name="o" horiz-adv-x="588" unicode="o"/>
<glyph d="M16 -235v28l29 5q28 6 33 31q2 6 2 12q5 90 5 137v404q0 33 -17 43q-6 4 -14 7l-24 9v25q74 22 165 22h19v-82q47 80 122 94q12 2 24 2q131 0 179 -117q23 -56 23 -131q0 -145 -99 -217q-69 -49 -166 -49q-41 0 -73 13v-196l84 -7v-33h-292zM310 31q67 0 92 91 q12 44 12 103q0 149 -85 180q-18 6 -39 6q-40 -1 -66 -28v-206q0 -100 48 -134q18 -12 38 -12z" glyph-name="p" horiz-adv-x="605" unicode="p"/>
<glyph d="M284 -235v30l46 7q34 6 39 40q1 5 1 10q5 90 5 126v85q-47 -68 -123 -76q-9 -1 -17 -1q-108 0 -160 97q-33 63 -33 150q0 134 92 208q70 57 169 57q138 0 219 -44q-9 -95 -9 -217v-433l54 -7v-32h-283zM313 74q35 1 62 23v306q-40 52 -87 53q-64 0 -88 -88 q-12 -43 -12 -102q0 -128 66 -174q27 -18 59 -18z" glyph-name="q" horiz-adv-x="589" unicode="q"/>
<glyph d="M25 0v28l29 5q28 6 33 31q2 6 2 12q6 72 6 137v169q0 32 -18 43q-6 4 -14 7l-24 9v25q74 22 165 22h18v-116q36 79 99 111q26 13 49 13q67 0 74 -60q1 -6 1 -12q0 -33 -24 -54q-11 -8 -20 -8q-9 1 -16 7l-59 53q-57 -18 -77 -73q-11 -30 -16 -79v-230l83 -7v-33h-291z " glyph-name="r" horiz-adv-x="456" unicode="r"/>
<glyph d="M215 -14q-72 0 -125 20q-34 11 -42 47q-2 8 -3 17l-9 91l25 3q49 -127 141 -136q8 -1 16 -1q70 0 87 48q4 12 4 25q-2 52 -72 75l-61 20q-128 42 -129 148q0 84 75 129q51 30 118 30q56 0 121 -20q33 -13 34 -52v-87h-25q-36 117 -131 118q-62 0 -77 -45q-3 -10 -3 -21 q0 -46 53 -72q15 -7 34 -13l56 -19q118 -41 119 -140q0 -92 -83 -137q-52 -28 -123 -28z" glyph-name="s" horiz-adv-x="456" unicode="s"/>
<glyph d="M240 -13q-106 0 -139 86q-11 31 -11 69v287h-56l-3 40l41 10q28 9 34 31l19 79l102 7v-116l148 5l-4 -32q-2 -21 -14 -24q-6 -1 -15 -1h-114v-287q0 -74 65 -82q7 -1 14 -1q36 1 70 18l8 -20q-67 -62 -126 -68q-10 -1 -19 -1z" glyph-name="t" horiz-adv-x="399" unicode="t"/>
<glyph d="M222 -14q-143 2 -144 168v228q0 33 -18 45q-5 2 -9 4l-27 11v25q69 21 160 21h33v-333q2 -90 67 -91q61 0 91 89q5 17 9 35v237l-62 14v26q73 23 168 23h40q-8 -74 -8 -198v-199q0 -32 23 -40q5 -2 11 -3l34 -5v-23q-55 -23 -162 -29q-16 -1 -28 -1h-8v105 q-76 -103 -170 -109z" glyph-name="u" horiz-adv-x="608" unicode="u"/>
<glyph d="M293 -4l-56 3q-32 1 -45 26q-2 4 -3 7l-148 378q-13 31 -33 39q-5 2 -9 3l-12 3v27h261v-31l-72 -7l115 -302l111 303l-59 7v30h170v-29l-16 -3q-30 -5 -42 -30q-4 -7 -7 -16z" glyph-name="v" horiz-adv-x="501" unicode="v"/>
<glyph d="M285 -4l-74 4q-31 3 -40 30l-116 385q-9 26 -31 34q-4 2 -9 3l-15 4v26h252v-29l-63 -6l85 -304l115 340h57q27 0 35 -25q1 -3 2 -5l91 -311l96 307l-54 5v28h163v-26l-19 -4q-28 -7 -41 -39q-3 -7 -5 -14l-131 -403l-71 4q-31 3 -39 30l-84 278z" glyph-name="w" horiz-adv-x="777" unicode="w"/>
<glyph d="M0 0v27l16 5q37 12 62 42l123 156l-127 183q-23 31 -58 39l-16 3v27h271v-30l-68 -6l90 -137l109 138l-57 5v30h177v-27l-20 -4q-30 -7 -57 -38l-8 -10l-113 -134l135 -197q22 -32 53 -40l10 -2l18 -3v-27h-276v29l67 7l-98 153l-113 -152l68 -8v-29h-188z" glyph-name="x" horiz-adv-x="538" unicode="x"/>
<glyph d="M122 -247q-48 0 -59 40q-2 8 -2 17q0 20 9 24q7 2 22 4l91 13q27 46 50 114l9 25l-206 418q-14 30 -29 39q-7 3 -15 6l-8 3v26h260v-32l-71 -5l133 -287l98 288l-60 5v31h170v-26l-13 -3q-29 -6 -43 -32q-8 -16 -19 -46l-173 -480q-42 -116 -104 -136q-18 -6 -40 -6z" glyph-name="y" horiz-adv-x="508" unicode="y"/>
<glyph d="M418 -7q-4 0 -43 2q-62 4 -81 5h-254l-4 28l256 409h-99q-59 0 -85 -36q-15 -21 -28 -61l-8 -26h-26v139q2 28 29 29h381l3 -28l-258 -409h108q74 0 110 60q11 19 20 44l13 32l25 -5l-17 -146q-5 -36 -42 -37z" glyph-name="z" horiz-adv-x="508" unicode="z"/>
<glyph d="M362 -240q-208 5 -209 179v160q0 88 -47 113q-21 11 -52 15v42q71 9 90 59q9 27 9 68v162q0 174 207 179h2v-38q-49 -7 -63 -42q-12 -31 -12 -106v-144q0 -104 -65 -138q-28 -15 -69 -21q97 -14 122 -81q12 -32 12 -79v-143q0 -99 23 -125q17 -18 52 -23v-37z" glyph-name="braceleft" horiz-adv-x="403" unicode="{"/>
<glyph d="M71 -250v1000h60v-1000h-60z" glyph-name="bar" horiz-adv-x="202" unicode="|"/>
<glyph d="M41 -240v37q49 7 63 42q12 31 12 106v143q0 104 64 139q28 15 70 21q-98 14 -123 82q-11 31 -11 77v144q0 99 -23 125q-17 18 -52 23v38q208 -6 209 -179v-162q0 -86 46 -112q21 -11 53 -15v-42q-72 -9 -90 -62q-9 -26 -9 -66v-160q0 -175 -207 -179h-2z" glyph-name="braceright" horiz-adv-x="403" unicode="}"/>
<glyph d="M362 271q-50 0 -119 35q-58 29 -89 29q-45 0 -68 -26q-11 -13 -22 -33l-21 8q35 149 133 154q45 0 116 -35q61 -29 92 -29q56 0 82 41q7 12 14 28l23 -10q-33 -130 -101 -155q-19 -7 -40 -7z" glyph-name="asciitilde" unicode="~"/>
<glyph glyph-name="uni00A0" horiz-adv-x="223" unicode=" "/>
<glyph d="M176 496q56 0 72 -47q5 -14 5 -29q0 -57 -48 -73q-14 -4 -29 -4q-55 0 -71 47q-5 14 -5 30q0 55 46 71q14 5 30 5zM157 285h40l50 -294q14 -66 14 -84q-2 -73 -87 -74q-87 1 -88 32q0 8 11 76z" glyph-name="exclamdown" horiz-adv-x="344" unicode="¡"/>
<glyph d="M213 -116l26 186q-124 18 -177 123q-29 58 -29 132q0 128 92 201q72 57 172 57h15l24 167h44l-25 -174q82 -19 114 -73q14 -24 14 -47q-2 -52 -69 -53q-19 0 -24 10q-2 6 -6 17l-35 101l-53 -376q26 -9 58 -9q66 1 121 39l12 -17q-87 -100 -202 -101h-2l-26 -183h-44z M190 352q1 -123 65 -174l51 362q-84 -2 -108 -107q-8 -36 -8 -81z" glyph-name="cent" horiz-adv-x="516" unicode="¢"/>
<glyph d="M72 293l5 51h84q-8 63 -8 107q0 142 122 189q51 19 117 19q92 0 151 -56q39 -38 40 -83q-2 -52 -61 -53q-28 0 -34 10q-3 7 -7 21l-24 104q-26 12 -60 12q-77 0 -90 -66q-4 -18 -4 -40q0 -11 14 -139q1 -14 2 -25h188l-7 -51h-180q-4 -114 -75 -168q-34 -26 -88 -46 q79 22 142 22q35 0 110 -12q22 -4 37 -4q89 0 114 73q1 3 2 5l25 -5q-4 -129 -58 -169q-40 -28 -116 -28q-40 0 -144 24q-91 21 -155 21q-33 0 -69 -7l-5 43q100 66 123 129q11 30 11 66q0 23 -5 56h-97z" glyph-name="sterling" horiz-adv-x="642" unicode="£"/>
<glyph d="M77 93l-43 42l70 67q-43 56 -43 123q1 69 43 121l-70 69l43 41l64 -75q50 37 111 37q61 -1 110 -37l63 75l44 -41l-70 -68q43 -53 43 -122q-1 -70 -44 -122l71 -68l-44 -42l-64 75q-48 -37 -109 -37q-63 1 -112 37zM252 212q57 0 84 53q13 27 13 60q0 69 -49 99 q-23 13 -48 13q-59 0 -85 -54q-13 -26 -13 -58q0 -71 51 -101q22 -12 47 -12z" glyph-name="currency" horiz-adv-x="504" unicode="¤"/>
<glyph d="M114 0v30l55 10q38 7 45 27q5 13 5 37v69h-155v47h155v40l-11 20h-144v46h118l-141 251q-16 28 -40 35l-14 4v30h283v-33l-79 -10l141 -261l140 261l-74 12v31h191v-29l-22 -7q-27 -8 -42 -33q-3 -4 -5 -8l-133 -243h135v-46h-155v-60h155v-47h-155v-69q0 -43 19 -54 q11 -6 31 -10l55 -10v-30h-358z" glyph-name="yen" horiz-adv-x="583" unicode="¥"/>
<glyph d="M71 281v469h60v-469h-60zM71 219h60v-469h-60v469z" glyph-name="brokenbar" horiz-adv-x="202" unicode="¦"/>
<glyph d="M257 -248q-97 0 -158 29q-36 16 -44 42q-3 11 -4 26l-10 125l26 4q59 -153 152 -176q21 -5 42 -5q101 2 102 92q-2 63 -107 136l-65 45q-97 67 -127 146q-22 60 -22 153q0 157 90 263q87 101 213 102q83 0 147 -27q30 -12 34 -40q1 -8 1 -18v-119h-27q-31 132 -117 155 q-21 5 -44 5q-77 0 -84 -68q-1 -7 -1 -13q0 -53 60 -109q21 -19 52 -43l66 -50q120 -92 137 -209q4 -24 4 -50q0 -200 -107 -310q-84 -86 -209 -86zM326 144q95 -72 121 -120q11 -23 16 -47q4 -31 3 -50q32 56 32 143t-56 148q-31 33 -86 73l-55 40q-95 68 -124 127 q-17 36 -21 79q-2 21 -2 36q-38 -71 -38 -154q0 -91 65 -159q25 -25 59 -51z" glyph-name="section" horiz-adv-x="617" unicode="§"/>
<glyph d="M348 568q-53 0 -71 43q-5 15 -5 30q0 52 45 69q15 5 31 5q53 0 71 -44q5 -14 5 -30q0 -51 -45 -68q-15 -5 -31 -5zM152 569q-52 0 -69 43q-6 14 -6 29q0 50 44 68q15 5 31 5q53 0 71 -43q5 -15 5 -30q0 -49 -43 -66q-16 -6 -33 -6z" glyph-name="dieresis" horiz-adv-x="500" unicode="¨"/>
<glyph d="M408 -22q-193 0 -285 132q-62 90 -62 219q0 164 104 263q95 89 243 89q194 0 286 -132q62 -90 62 -219q0 -163 -103 -261q-96 -91 -245 -91zM408 43q152 0 223 113q46 73 46 174q0 154 -98 232q-69 54 -171 54q-150 0 -222 -112q-47 -73 -47 -175q0 -153 97 -231 q70 -55 172 -55zM419 169q-110 0 -149 85q-17 36 -17 83q0 89 68 138q44 31 102 31q51 0 84 -14q22 -10 23 -30v-65h-16q-21 77 -83 82q-6 1 -12 1q-61 0 -69 -88q-2 -17 -2 -36q0 -113 51 -150q18 -12 38 -12q57 2 85 92l15 -1l-6 -65q-3 -28 -16 -35q-7 -4 -20 -8 q-25 -8 -76 -8z" glyph-name="copyright" horiz-adv-x="817" unicode="©"/>
<glyph d="M131 296q-62 0 -86 47q-8 18 -8 38q0 57 70 88q30 13 75 25l45 12q1 17 1 47q-2 71 -61 72q-24 0 -44 -11l-8 -64q-3 -16 -11 -18q-6 -1 -19 -1q-39 2 -40 34q0 41 57 70q43 22 93 22q101 0 126 -72q7 -21 7 -44q0 -20 -2 -83q-3 -68 -3 -92q0 -30 23 -32q5 -1 9 -1 q5 0 12 2l2 -17q-38 -22 -70 -22q-56 2 -66 57q-37 -56 -102 -57zM180 347q32 0 40 39q2 9 2 17l4 65l-21 -1q-72 -9 -74 -58q0 -42 30 -57q9 -5 19 -5z" glyph-name="ordfeminine" horiz-adv-x="405" unicode="ª"/>
<glyph d="M216 37l-158 146q-24 23 -24 52v14q1 29 24 51l158 147l28 -6l-95 -200l95 -199zM398 37l-158 146q-24 23 -24 52v14q1 29 24 51l158 147l28 -6l-95 -200l95 -199z" glyph-name="guillemotleft" horiz-adv-x="461" unicode="«"/>
<glyph d="M33 335v77h449v-302h-123v225h-326z" glyph-name="logicalnot" unicode="¬"/>
<glyph d="M48 234v56l203 10v-56z" glyph-name="uni00AD" horiz-adv-x="299" unicode="­"/>
<glyph d="M408 -22q-182 0 -276 123q-71 93 -71 228q0 159 102 258q97 94 245 94q181 0 276 -122q72 -93 72 -229q0 -158 -102 -257q-97 -95 -246 -95zM408 43q152 0 223 113q46 73 46 174q0 154 -98 232q-69 54 -171 54q-150 0 -222 -112q-47 -73 -47 -175q0 -153 97 -231 q70 -55 172 -55zM245 177v16l20 4q22 3 25 19q1 5 1 12v222q0 24 -16 29l-10 2l-20 4v15h161q106 0 134 -53q8 -16 8 -33q0 -63 -74 -76q-15 -3 -32 -3q44 -7 66 -34q1 -2 2 -3q8 -12 38 -71l2 -4q11 -24 32 -28q3 -1 6 -1v-17h-46q-51 0 -69 20q-5 7 -10 15q-5 10 -31 73 q-13 32 -33 35q-6 1 -11 1h-15v-121l44 -6v-17h-172zM394 343q63 2 64 64q0 47 -40 64q-12 5 -25 6h-20v-133q5 -1 21 -1z" glyph-name="registered" horiz-adv-x="817" unicode="®"/>
<glyph d="M134 599v51h232v-51h-232z" glyph-name="macron" horiz-adv-x="500" unicode="¯"/>
<glyph d="M193 316q-92 0 -138 71q-27 42 -27 97q0 93 68 140q42 28 97 28q92 0 138 -71q27 -42 27 -97q0 -93 -68 -140q-42 -28 -97 -28zM193 384q57 0 78 52q9 21 9 48q0 73 -55 94q-15 6 -32 6q-57 0 -78 -52q-9 -21 -9 -48q0 -73 55 -94q15 -6 32 -6z" glyph-name="degree" horiz-adv-x="385" unicode="°"/>
<glyph d="M226 209v192h-164v74h164v171h90v-171h162v-74h-162v-192h-90zM72 6v74h396v-74h-396z" glyph-name="plusminus" unicode="±"/>
<glyph d="M283 286q-2 0 -25 1q-35 2 -48 3h-171l-3 26q109 86 137 146q18 37 18 82q0 57 -38 76q-12 5 -24 5q-20 -1 -33 -8l-10 -64q-2 -17 -12 -19q-6 -1 -18 -1q-30 5 -34 29q0 38 47 68q38 24 82 24q98 0 129 -65q10 -22 10 -48q0 -77 -89 -138q-31 -21 -74 -43h116 q31 0 44 20l4 8l5 9l17 -2l-11 -90q-5 -18 -19 -19z" glyph-name="twosuperior" horiz-adv-x="333" unicode="²"/>
<glyph d="M141 282q-76 0 -102 46q-8 15 -8 32q2 28 31 29q21 0 25 -9q1 -5 2 -11l12 -55q15 -7 32 -7q43 0 59 40q5 14 5 31q0 55 -55 71q-16 4 -33 4v17l86 104h-100q-28 0 -35 -15q-1 -3 -1 -4l-5 -14h-17l3 85q2 19 20 20h220l4 -17l-122 -141q84 0 111 -52q10 -20 10 -43 q0 -78 -78 -102q-29 -9 -64 -9z" glyph-name="threesuperior" horiz-adv-x="316" unicode="³"/>
<glyph d="M211 544l-11 18l118 151q24 25 30 26q35 0 58 -32q14 -20 14 -41q-1 -47 -45 -63z" glyph-name="acute" horiz-adv-x="500" unicode="´"/>
<glyph d="M16 -243l-11 26q52 46 66 84q14 41 14 129v386q0 33 -20 45l-8 4l-27 11v25q69 21 160 21h33v-333q2 -90 67 -91q61 0 91 89q5 17 9 35v237l-62 14v26q73 23 168 23h40q-8 -74 -8 -198v-199q0 -32 23 -40q5 -2 11 -3l34 -5v-23q-55 -23 -162 -29q-16 -1 -28 -1h-8v105 q-61 -92 -141 -105q-19 -3 -36 0q-8 -103 -65 -155q-43 -38 -140 -78z" glyph-name="mu" horiz-adv-x="613" unicode="µ"/>
<glyph d="M226 -248l-9 28q56 42 71 78q17 41 17 142v112h-63q-110 0 -162 87q-31 53 -31 123q0 140 98 199q54 33 126 33h366l-6 -72h-44v-482h-61v482h-83v-429q0 -138 -51 -201q-47 -58 -168 -100z" glyph-name="paragraph" horiz-adv-x="654" unicode="¶"/>
<glyph d="M127 228q-55 0 -74 45q-6 16 -6 33q0 52 44 71q17 7 36 7q55 0 74 -45q6 -16 6 -33q0 -52 -44 -71q-17 -7 -36 -7z" glyph-name="periodcentered" horiz-adv-x="254" unicode="·"/>
<glyph d="M221 -248q-64 0 -94 39q-12 17 -12 34q2 26 33 27q17 0 20 -6q2 -4 3 -10l11 -47q15 -8 26 -8q42 2 43 44q0 46 -59 70l-10 4l58 116h54l-47 -63q78 -27 89 -81q2 -11 2 -23q0 -63 -61 -87q-25 -9 -56 -9z" glyph-name="cedilla" horiz-adv-x="500" unicode="¸"/>
<glyph d="M47 290v21l32 7q23 4 27 18q1 7 1 16v235l-75 -13l-3 18l81 46q16 9 44 9h49q-5 -44 -5 -97v-198q0 -25 15 -31q6 -2 13 -3l35 -7v-21h-214z" glyph-name="onesuperior" horiz-adv-x="287" unicode="¹"/>
<glyph d="M217 297q-109 0 -155 81q-24 42 -24 98q0 94 70 146q48 35 110 35q111 0 157 -82q23 -42 23 -97q0 -96 -72 -147q-48 -34 -109 -34zM224 328q66 2 67 140q0 100 -43 142q-18 16 -37 16q-66 -2 -66 -140q0 -97 42 -140q18 -18 37 -18z" glyph-name="ordmasculine" horiz-adv-x="440" unicode="º"/>
<glyph d="M63 37l-28 5l95 199l-95 200l28 6l158 -147q24 -23 24 -51v-14q-1 -30 -24 -52zM245 37l-28 5l95 199l-95 200l28 6l158 -147q24 -23 24 -51v-14q-1 -30 -24 -52z" glyph-name="guillemotright" horiz-adv-x="461" unicode="»"/>
<glyph d="M47 290v21l32 7q23 4 27 18q1 7 1 16v235l-75 -13l-3 18l81 46q16 9 44 9h49q-5 -44 -5 -97v-198q0 -25 15 -31q6 -2 13 -3l35 -7v-21h-214zM219 0h-69l356 646h69zM447 0v19l62 6v67h-143l-2 20l143 227q12 16 33 18l53 3q-3 -35 -3 -95v-123h54l-5 -50h-49v-41 q2 -26 22 -30l25 -4v-17h-190zM417 142h92v154z" glyph-name="onequarter" horiz-adv-x="682" unicode="¼"/>
<glyph d="M47 290v21l32 7q23 4 27 18q1 7 1 16v235l-75 -13l-3 18l81 46q16 9 44 9h49q-5 -44 -5 -97v-198q0 -25 15 -31q6 -2 13 -3l35 -7v-21h-214zM229 0h-69l356 646h69zM703 -4q-2 0 -25 1q-35 2 -48 3h-171l-3 26q109 86 137 146q18 37 18 82q0 57 -38 76q-12 5 -24 5 q-20 -1 -33 -8l-10 -64q-2 -17 -12 -19q-6 -1 -18 -1q-30 5 -34 29q0 38 47 68q38 24 82 24q98 0 129 -65q10 -22 10 -48q0 -77 -89 -138q-31 -21 -74 -43h116q31 0 44 20l4 8l5 9l17 -2l-11 -90q-5 -18 -19 -19z" glyph-name="onehalf" horiz-adv-x="766" unicode="½"/>
<glyph d="M141 282q-76 0 -102 46q-8 15 -8 32q2 28 31 29q21 0 25 -9q1 -5 2 -11l12 -55q15 -7 32 -7q43 0 59 40q5 14 5 31q0 55 -55 71q-16 4 -33 4v17l86 104h-100q-28 0 -35 -15q-1 -3 -1 -4l-5 -14h-17l3 85q2 19 20 20h220l4 -17l-122 -141q84 0 111 -52q10 -20 10 -43 q0 -78 -78 -102q-29 -9 -64 -9zM234 0h-69l356 646h69zM465 -4v19l62 6v67h-143l-2 20l143 227q12 16 33 18l53 3q-3 -35 -3 -95v-123h54l-5 -50h-49v-41q2 -26 22 -30l25 -4v-17h-190zM435 138h92v154z" glyph-name="threequarters" horiz-adv-x="685" unicode="¾"/>
<glyph d="M303 495q57 0 73 -47q4 -13 4 -27q0 -52 -46 -69q-14 -5 -31 -5q-55 0 -73 45q-5 14 -5 29q0 53 47 69q15 5 31 5zM329 292q6 -44 6 -77q0 -63 -35 -95q-15 -14 -38 -27q-70 -42 -76 -104q-1 -8 -1 -15q0 -66 54 -92q23 -11 50 -11q31 0 64 17l13 97q3 25 17 29q9 2 28 2 q61 -2 62 -53q0 -60 -72 -101q-61 -35 -140 -35q-109 0 -168 68q-41 46 -41 109q0 106 93 161q32 19 80 37q41 16 48 41q3 10 3 22v27h53z" glyph-name="questiondown" horiz-adv-x="515" unicode="¿"/>
<glyph d="M343 695l-165 41q-52 15 -53 62q0 42 35 61q14 7 28 7q11 -2 30 -20l133 -134zM-5 0v29l13 3q31 7 43 29q4 8 8 19l211 569h55q30 0 42 -24l4 -10l204 -533q14 -36 36 -44q9 -3 19 -5l16 -3v-30h-305v32l88 10l-55 150h-208l-53 -151l81 -9v-32h-199zM182 238h175 l-89 244z" glyph-name="Agrave" horiz-adv-x="641" unicode="À"/>
<glyph d="M269 695l-8 17l134 135q21 19 29 19q37 0 55 -36q8 -16 8 -33q-2 -47 -53 -61zM-5 0v29l13 3q31 7 43 29q4 8 8 19l211 569h55q30 0 42 -24l4 -10l204 -533q14 -36 36 -44q9 -3 19 -5l16 -3v-30h-305v32l88 10l-55 150h-208l-53 -151l81 -9v-32h-199zM182 238h175 l-89 244z" glyph-name="Aacute" horiz-adv-x="641" unicode="Á"/>
<glyph d="M188 693l-21 5l65 121q16 30 35 34q7 1 15 1h48q27 0 41 -21q5 -6 9 -14l65 -121l-21 -5l-118 78zM-5 0v29l13 3q31 7 43 29q4 8 8 19l211 569h55q30 0 42 -24l4 -10l204 -533q14 -36 36 -44q9 -3 19 -5l16 -3v-30h-305v32l88 10l-55 150h-208l-53 -151l81 -9v-32h-199z M182 238h175l-89 244z" glyph-name="Acircumflex" horiz-adv-x="641" unicode="Â"/>
<glyph d="M349 705q-26 0 -67 20q-25 12 -42 12q-29 0 -38 -33q-1 -1 -1 -2h-25q6 125 82 126q21 0 64 -19q26 -12 44 -12q35 0 42 41q1 2 1 4l25 -1q-10 -130 -85 -136zM-5 0v29l13 3q31 7 43 29q4 8 8 19l211 569h55q30 0 42 -24l4 -10l204 -533q14 -36 36 -44q9 -3 19 -5l16 -3 v-30h-305v32l88 10l-55 150h-208l-53 -151l81 -9v-32h-199zM182 238h175l-89 244z" glyph-name="Atilde" horiz-adv-x="641" unicode="Ã"/>
<glyph d="M207 699q-55 0 -72 44q-5 13 -5 28q0 50 44 66q16 6 33 6q56 0 72 -44q5 -14 5 -28q0 -53 -48 -68q-14 -4 -29 -4zM405 699q-58 0 -73 47q-4 12 -4 25q0 51 46 67q14 5 31 5q54 0 72 -43q5 -14 5 -29q0 -52 -47 -68q-15 -4 -30 -4zM-5 0v29l13 3q31 7 43 29q4 8 8 19 l211 569h55q30 0 42 -24l4 -10l204 -533q14 -36 36 -44q9 -3 19 -5l16 -3v-30h-305v32l88 10l-55 150h-208l-53 -151l81 -9v-32h-199zM182 238h175l-89 244z" glyph-name="Adieresis" horiz-adv-x="641" unicode="Ä"/>
<glyph d="M306 685q-79 0 -103 63q-7 20 -7 43q0 73 62 96q22 8 48 8q79 0 102 -61q8 -20 8 -43q0 -71 -58 -96q-24 -10 -52 -10zM306 735q42 0 48 43q1 6 1 12q-5 52 -49 55q-42 0 -48 -43q-1 -6 -1 -12q0 -45 36 -54q7 -1 13 -1zM-5 0v29l13 3q31 7 43 29q4 8 8 19l211 569h55 q30 0 42 -24l4 -10l204 -533q14 -36 36 -44q9 -3 19 -5l16 -3v-30h-305v32l88 10l-55 150h-208l-53 -151l81 -9v-32h-199zM182 238h175l-89 244z" glyph-name="Aring" horiz-adv-x="641" unicode="Å"/>
<glyph d="M763 -8q-6 0 -42 2q-79 6 -108 6h-340v30l85 12v176h-167l-94 -177l76 -10v-31h-194v29l13 3q30 8 45 31q5 7 10 17l260 474q9 18 9 29q-2 20 -25 26l-39 7v30h519q29 -2 30 -29v-159h-27l-7 29q-19 78 -60 99q-27 13 -76 13h-126v-235h160l14 90h29v-228h-28l-15 91 h-160v-263q65 -11 115 -11q86 0 125 56q19 28 35 75l9 28l27 -5l-22 -174q-6 -30 -31 -31zM215 264h143v269z" glyph-name="AE" horiz-adv-x="851" unicode="Æ"/>
<glyph d="M340 -248q-65 0 -95 39q-12 16 -12 33q2 28 34 29q17 0 20 -6q2 -4 3 -9l10 -49q14 -8 26 -8q42 4 44 44q-2 47 -73 69l44 92q-167 6 -243 134q-50 83 -50 202q0 154 98 251q88 87 216 87q97 0 167 -27q39 -16 40 -59v-132h-27q-42 169 -187 170q-116 0 -138 -170 q-5 -38 -5 -82q0 -186 75 -275q44 -50 100 -51q96 0 151 133q11 25 19 53l28 -4l-15 -126q-5 -52 -21 -66q-14 -11 -44 -20q-49 -15 -118 -17l-29 -40q92 -16 100 -88q1 -7 1 -13q0 -60 -60 -84q-27 -10 -59 -10z" glyph-name="Ccedilla" horiz-adv-x="629" unicode="Ç"/>
<glyph d="M356 695l-165 41q-52 15 -53 62q0 42 35 61q14 7 28 7q11 -2 30 -20l133 -134zM36 0v30l38 7q38 7 46 30q4 13 4 36v440q0 45 -21 57q-11 6 -29 9l-38 7v30h510q29 -2 30 -29v-159h-27l-7 29q-19 78 -60 99q-27 13 -76 13h-135v-235h169l14 90h29v-228h-28l-15 91h-169 v-263q65 -11 124 -11q86 0 125 56q19 28 35 75l9 28l27 -5l-22 -174q-6 -30 -31 -31q-6 0 -42 2q-79 6 -108 6h-352z" glyph-name="Egrave" horiz-adv-x="626" unicode="È"/>
<glyph d="M282 695l-8 17l134 135q21 19 29 19q37 0 55 -36q8 -16 8 -33q-2 -47 -53 -61zM36 0v30l38 7q38 7 46 30q4 13 4 36v440q0 45 -21 57q-11 6 -29 9l-38 7v30h510q29 -2 30 -29v-159h-27l-7 29q-19 78 -60 99q-27 13 -76 13h-135v-235h169l14 90h29v-228h-28l-15 91h-169 v-263q65 -11 124 -11q86 0 125 56q19 28 35 75l9 28l27 -5l-22 -174q-6 -30 -31 -31q-6 0 -42 2q-79 6 -108 6h-352z" glyph-name="Eacute" horiz-adv-x="626" unicode="É"/>
<glyph d="M201 693l-21 5l65 121q16 30 35 34q7 1 15 1h48q27 0 41 -21q5 -6 9 -14l65 -121l-21 -5l-118 78zM36 0v30l38 7q38 7 46 30q4 13 4 36v440q0 45 -21 57q-11 6 -29 9l-38 7v30h510q29 -2 30 -29v-159h-27l-7 29q-19 78 -60 99q-27 13 -76 13h-135v-235h169l14 90h29v-228 h-28l-15 91h-169v-263q65 -11 124 -11q86 0 125 56q19 28 35 75l9 28l27 -5l-22 -174q-6 -30 -31 -31q-6 0 -42 2q-79 6 -108 6h-352z" glyph-name="Ecircumflex" horiz-adv-x="626" unicode="Ê"/>
<glyph d="M220 699q-55 0 -72 44q-5 13 -5 28q0 50 44 66q16 6 33 6q56 0 72 -44q5 -14 5 -28q0 -53 -48 -68q-14 -4 -29 -4zM418 699q-58 0 -73 47q-4 12 -4 25q0 51 46 67q14 5 31 5q54 0 72 -43q5 -14 5 -29q0 -52 -47 -68q-15 -4 -30 -4zM36 0v30l38 7q38 7 46 30q4 13 4 36 v440q0 45 -21 57q-11 6 -29 9l-38 7v30h510q29 -2 30 -29v-159h-27l-7 29q-19 78 -60 99q-27 13 -76 13h-135v-235h169l14 90h29v-228h-28l-15 91h-169v-263q65 -11 124 -11q86 0 125 56q19 28 35 75l9 28l27 -5l-22 -174q-6 -30 -31 -31q-6 0 -42 2q-79 6 -108 6h-352z" glyph-name="Edieresis" horiz-adv-x="626" unicode="Ë"/>
<glyph d="M252 695l-165 41q-52 15 -53 62q0 42 35 61q14 7 28 7q11 -2 30 -20l133 -134zM36 0v30l38 7q38 7 46 30q4 13 4 36v440q0 45 -21 57q-11 6 -29 9l-38 7v30h324v-30l-39 -7q-37 -7 -45 -30q-4 -13 -4 -36v-440q0 -45 21 -57q11 -6 28 -9l39 -7v-30h-324z" glyph-name="Igrave" horiz-adv-x="395" unicode="Ì"/>
<glyph d="M147 695l-8 17l134 135q21 19 29 19q37 0 55 -36q8 -16 8 -33q-2 -47 -53 -61zM36 0v30l38 7q38 7 46 30q4 13 4 36v440q0 45 -21 57q-11 6 -29 9l-38 7v30h324v-30l-39 -7q-37 -7 -45 -30q-4 -13 -4 -36v-440q0 -45 21 -57q11 -6 28 -9l39 -7v-30h-324z" glyph-name="Iacute" horiz-adv-x="395" unicode="Í"/>
<glyph d="M80 693l-21 5l65 121q16 30 35 34q7 1 15 1h48q27 0 41 -21q5 -6 9 -14l65 -121l-21 -5l-118 78zM36 0v30l38 7q38 7 46 30q4 13 4 36v440q0 45 -21 57q-11 6 -29 9l-38 7v30h324v-30l-39 -7q-37 -7 -45 -30q-4 -13 -4 -36v-440q0 -45 21 -57q11 -6 28 -9l39 -7v-30h-324 z" glyph-name="Icircumflex" horiz-adv-x="395" unicode="Î"/>
<glyph d="M99 699q-55 0 -72 44q-5 13 -5 28q0 50 44 66q16 6 33 6q56 0 72 -44q5 -14 5 -28q0 -53 -48 -68q-14 -4 -29 -4zM297 699q-58 0 -73 47q-4 12 -4 25q0 51 46 67q14 5 31 5q54 0 72 -43q5 -14 5 -29q0 -52 -47 -68q-15 -4 -30 -4zM36 0v30l38 7q38 7 46 30q4 13 4 36v440 q0 45 -21 57q-11 6 -29 9l-38 7v30h324v-30l-39 -7q-37 -7 -45 -30q-4 -13 -4 -36v-440q0 -45 21 -57q11 -6 28 -9l39 -7v-30h-324z" glyph-name="Idieresis" horiz-adv-x="395" unicode="Ï"/>
<glyph d="M36 0v30l38 7q38 7 46 30q4 13 4 36v215h-65v42h65v183q0 45 -21 57q-11 6 -29 9l-38 7v30h242q231 0 334 -128q65 -82 65 -201q0 -169 -126 -255q-93 -62 -232 -62h-283zM272 53q24 -8 52 -8q149 0 182 162q9 43 9 95q0 183 -109 258q-47 32 -109 38q-4 1 -25 1v-239 h107v-42h-107v-265z" glyph-name="Eth" horiz-adv-x="718" unicode="Ð"/>
<glyph d="M411 705q-26 0 -67 20q-25 12 -42 12q-29 0 -38 -33q-1 -1 -1 -2h-25q6 125 82 126q21 0 64 -19q26 -12 44 -12q35 0 42 41q1 2 1 4l25 -1q-10 -130 -85 -136zM40 0v30l28 5q37 8 46 29q5 15 6 41q1 66 5 304q2 120 2 130q0 41 -31 57q-8 4 -19 8l-39 12v30h170 q37 0 52 -15q5 -6 10 -13l285 -405v389l-97 15v29h232v-30l-30 -6q-35 -6 -43 -26q-5 -15 -6 -43l-8 -542h-40q-32 0 -49 21l-8 10l-329 467v-453l97 -15v-29h-234z" glyph-name="Ntilde" horiz-adv-x="709" unicode="Ñ"/>
<glyph d="M397 695l-165 41q-52 15 -53 62q0 42 35 61q14 7 28 7q11 -2 30 -20l133 -134zM360 -14q-158 0 -244 112q-68 89 -68 222q0 157 97 254q88 86 217 86q158 0 244 -112q68 -89 68 -222q0 -158 -98 -255q-87 -85 -216 -85zM372 34q138 2 139 273q0 157 -64 246 q-43 58 -97 59q-137 -2 -138 -273q0 -156 64 -246q43 -58 96 -59z" glyph-name="Ograve" horiz-adv-x="722" unicode="Ò"/>
<glyph d="M323 695l-8 17l134 135q21 19 29 19q37 0 55 -36q8 -16 8 -33q-2 -47 -53 -61zM360 -14q-158 0 -244 112q-68 89 -68 222q0 157 97 254q88 86 217 86q158 0 244 -112q68 -89 68 -222q0 -158 -98 -255q-87 -85 -216 -85zM372 34q138 2 139 273q0 157 -64 246 q-43 58 -97 59q-137 -2 -138 -273q0 -156 64 -246q43 -58 96 -59z" glyph-name="Oacute" horiz-adv-x="722" unicode="Ó"/>
<glyph d="M242 693l-21 5l65 121q16 30 35 34q7 1 15 1h48q27 0 41 -21q5 -6 9 -14l65 -121l-21 -5l-118 78zM360 -14q-158 0 -244 112q-68 89 -68 222q0 157 97 254q88 86 217 86q158 0 244 -112q68 -89 68 -222q0 -158 -98 -255q-87 -85 -216 -85zM372 34q138 2 139 273 q0 157 -64 246q-43 58 -97 59q-137 -2 -138 -273q0 -156 64 -246q43 -58 96 -59z" glyph-name="Ocircumflex" horiz-adv-x="722" unicode="Ô"/>
<glyph d="M403 705q-26 0 -67 20q-25 12 -42 12q-29 0 -38 -33q-1 -1 -1 -2h-25q6 125 82 126q21 0 64 -19q26 -12 44 -12q35 0 42 41q1 2 1 4l25 -1q-10 -130 -85 -136zM360 -14q-158 0 -244 112q-68 89 -68 222q0 157 97 254q88 86 217 86q158 0 244 -112q68 -89 68 -222 q0 -158 -98 -255q-87 -85 -216 -85zM372 34q138 2 139 273q0 157 -64 246q-43 58 -97 59q-137 -2 -138 -273q0 -156 64 -246q43 -58 96 -59z" glyph-name="Otilde" horiz-adv-x="722" unicode="Õ"/>
<glyph d="M261 699q-55 0 -72 44q-5 13 -5 28q0 50 44 66q16 6 33 6q56 0 72 -44q5 -14 5 -28q0 -53 -48 -68q-14 -4 -29 -4zM459 699q-58 0 -73 47q-4 12 -4 25q0 51 46 67q14 5 31 5q54 0 72 -43q5 -14 5 -29q0 -52 -47 -68q-15 -4 -30 -4zM360 -14q-158 0 -244 112 q-68 89 -68 222q0 157 97 254q88 86 217 86q158 0 244 -112q68 -89 68 -222q0 -158 -98 -255q-87 -85 -216 -85zM372 34q138 2 139 273q0 157 -64 246q-43 58 -97 59q-137 -2 -138 -273q0 -156 64 -246q43 -58 96 -59z" glyph-name="Odieresis" horiz-adv-x="722" unicode="Ö"/>
<glyph d="M127 125l-62 65l140 144l-135 138l66 66l133 -139l137 140l63 -64l-136 -141l141 -144l-62 -65l-143 145z" glyph-name="multiply" unicode="×"/>
<glyph d="M30 -22l93 111q-75 91 -75 231q0 157 97 254q88 86 217 86q114 -1 191 -60l56 67h70l-87 -103q82 -91 82 -238q0 -158 -98 -255q-87 -85 -216 -85q-118 1 -198 66l-63 -74h-69zM227 212l246 293q-51 104 -123 107q-137 -2 -138 -273q0 -70 15 -127zM372 34q138 2 139 273 q0 75 -19 138l-247 -294q39 -97 104 -114q12 -3 23 -3z" glyph-name="Oslash" horiz-adv-x="722" unicode="Ø"/>
<glyph d="M430 695l-165 41q-52 15 -53 62q0 42 35 61q14 7 28 7q11 -2 30 -20l133 -134zM370 -13q-214 0 -258 182q-11 45 -11 98v276q0 44 -20 56q-11 6 -30 10l-33 7v30h323v-32l-91 -11v-373q0 -146 84 -184q24 -11 53 -11q112 0 138 111q9 40 9 94v364l-80 12v30h231v-30 l-33 -7q-39 -8 -47 -29q-5 -14 -5 -38v-298q0 -198 -142 -244q-40 -13 -88 -13z" glyph-name="Ugrave" horiz-adv-x="704" unicode="Ù"/>
<glyph d="M356 695l-8 17l134 135q21 19 29 19q37 0 55 -36q8 -16 8 -33q-2 -47 -53 -61zM370 -13q-214 0 -258 182q-11 45 -11 98v276q0 44 -20 56q-11 6 -30 10l-33 7v30h323v-32l-91 -11v-373q0 -146 84 -184q24 -11 53 -11q112 0 138 111q9 40 9 94v364l-80 12v30h231v-30 l-33 -7q-39 -8 -47 -29q-5 -14 -5 -38v-298q0 -198 -142 -244q-40 -13 -88 -13z" glyph-name="Uacute" horiz-adv-x="704" unicode="Ú"/>
<glyph d="M275 693l-21 5l65 121q16 30 35 34q7 1 15 1h48q27 0 41 -21q5 -6 9 -14l65 -121l-21 -5l-118 78zM370 -13q-214 0 -258 182q-11 45 -11 98v276q0 44 -20 56q-11 6 -30 10l-33 7v30h323v-32l-91 -11v-373q0 -146 84 -184q24 -11 53 -11q112 0 138 111q9 40 9 94v364 l-80 12v30h231v-30l-33 -7q-39 -8 -47 -29q-5 -14 -5 -38v-298q0 -198 -142 -244q-40 -13 -88 -13z" glyph-name="Ucircumflex" horiz-adv-x="704" unicode="Û"/>
<glyph d="M294 699q-55 0 -72 44q-5 13 -5 28q0 50 44 66q16 6 33 6q56 0 72 -44q5 -14 5 -28q0 -53 -48 -68q-14 -4 -29 -4zM492 699q-58 0 -73 47q-4 12 -4 25q0 51 46 67q14 5 31 5q54 0 72 -43q5 -14 5 -29q0 -52 -47 -68q-15 -4 -30 -4zM370 -13q-214 0 -258 182 q-11 45 -11 98v276q0 44 -20 56q-11 6 -30 10l-33 7v30h323v-32l-91 -11v-373q0 -146 84 -184q24 -11 53 -11q112 0 138 111q9 40 9 94v364l-80 12v30h231v-30l-33 -7q-39 -8 -47 -29q-5 -14 -5 -38v-298q0 -198 -142 -244q-40 -13 -88 -13z" glyph-name="Udieresis" horiz-adv-x="704" unicode="Ü"/>
<glyph d="M289 695l-8 17l134 135q21 19 29 19q37 0 55 -36q8 -16 8 -33q-2 -47 -53 -61zM111 0v30l55 10q38 7 45 27q5 13 5 37v156l-178 317q-16 28 -40 35l-14 4v30h283v-33l-79 -10l141 -261l140 261l-74 12v31h191v-29l-22 -7q-27 -8 -42 -33q-3 -4 -5 -8l-153 -279v-186 q0 -43 19 -54q11 -6 31 -10l55 -10v-30h-358z" glyph-name="Yacute" horiz-adv-x="572" unicode="Ý"/>
<glyph d="M360 30v-30h-324v30l38 7q38 7 46 30q4 13 4 36v440q0 45 -21 57q-11 6 -29 9l-38 7v30h324v-30l-39 -7q-37 -7 -45 -30q-4 -13 -4 -36v-30h22q21 1 25 1q189 0 255 -97q28 -42 28 -97q0 -131 -141 -167q-49 -12 -110 -12q-45 0 -79 8v-46q0 -45 21 -57q11 -6 28 -9z M313 186q108 0 125 99q3 16 3 34q0 94 -75 132q-29 14 -63 17q-16 1 -31 -1v-275q37 -6 41 -6z" glyph-name="Thorn" horiz-adv-x="615" unicode="Þ"/>
<glyph d="M448 -14q-64 0 -112 19q-31 11 -39 38q-2 9 -4 22l-9 95l24 3q37 -99 85 -124q25 -12 58 -12q63 0 80 46q5 14 5 28q-2 50 -72 76l-27 10q-108 38 -115 128v14q0 48 37 106q38 59 47 91q9 30 9 63q-2 110 -96 111q-87 -2 -88 -118v-582h-202v29l27 6q26 6 30 27l2 12 l8 108v246h-53l-3 41l32 8q21 12 23 30v17q0 106 78 168q60 46 142 46q196 0 224 -108q4 -16 4 -34q0 -51 -53 -95q-6 -5 -19 -15q-47 -36 -58 -60q-6 -15 -6 -31q0 -44 30 -65q17 -11 45 -22l48 -17q96 -35 113 -101q5 -18 5 -38q0 -97 -85 -141q-49 -25 -115 -25z" glyph-name="germandbls" horiz-adv-x="657" unicode="ß"/>
<glyph d="M286 544l-165 60q-44 17 -45 63q0 40 38 63q17 10 34 10q8 0 20 -14q3 -4 10 -12l118 -151zM171 -14q-83 0 -119 59q-16 28 -16 62q0 75 84 118q46 23 123 44l66 18q2 41 2 66q-2 103 -90 104q-35 0 -64 -16l-13 -91q-3 -23 -15 -26q-8 -2 -26 -2q-52 7 -56 50 q0 52 71 93q65 37 143 37q126 0 169 -86q17 -35 17 -79q0 -28 -3 -120q-3 -98 -3 -131q0 -40 27 -46q9 -2 20 -2q7 0 17 2l2 -22q-50 -31 -97 -31q-73 0 -90 67q-2 7 -3 13q-55 -80 -146 -81zM238 57q42 0 59 48q5 16 6 35l4 93l-32 -2q-108 -9 -109 -86q0 -61 42 -81 q14 -7 30 -7z" glyph-name="agrave" horiz-adv-x="523" unicode="à"/>
<glyph d="M207 545l-11 18l118 151q24 25 30 26q35 0 58 -32q14 -20 14 -41q-1 -47 -45 -63zM171 -14q-83 0 -119 59q-16 28 -16 62q0 75 84 118q46 23 123 44l66 18q2 41 2 66q-2 103 -90 104q-35 0 -64 -16l-13 -91q-3 -23 -15 -26q-8 -2 -26 -2q-52 7 -56 50q0 52 71 93 q65 37 143 37q126 0 169 -86q17 -35 17 -79q0 -28 -3 -120q-3 -98 -3 -131q0 -40 27 -46q9 -2 20 -2q7 0 17 2l2 -22q-50 -31 -97 -31q-73 0 -90 67q-2 7 -3 13q-55 -80 -146 -81zM238 57q42 0 59 48q5 16 6 35l4 93l-32 -2q-108 -9 -109 -86q0 -61 42 -81q14 -7 30 -7z" glyph-name="aacute" horiz-adv-x="523" unicode="á"/>
<glyph d="M136 538l-27 5l68 156q13 30 31 34q7 2 16 2h44q27 0 39 -20q4 -7 8 -16l68 -156l-27 -5l-110 102zM171 -14q-83 0 -119 59q-16 28 -16 62q0 75 84 118q46 23 123 44l66 18q2 41 2 66q-2 103 -90 104q-35 0 -64 -16l-13 -91q-3 -23 -15 -26q-8 -2 -26 -2q-52 7 -56 50 q0 52 71 93q65 37 143 37q126 0 169 -86q17 -35 17 -79q0 -28 -3 -120q-3 -98 -3 -131q0 -40 27 -46q9 -2 20 -2q7 0 17 2l2 -22q-50 -31 -97 -31q-73 0 -90 67q-2 7 -3 13q-55 -80 -146 -81zM238 57q42 0 59 48q5 16 6 35l4 93l-32 -2q-108 -9 -109 -86q0 -61 42 -81 q14 -7 30 -7z" glyph-name="acircumflex" horiz-adv-x="523" unicode="â"/>
<glyph d="M115 559q1 143 80 144q22 0 67 -22q30 -14 48 -14q26 0 34 30q4 12 6 30l28 -4q-1 -156 -85 -157q-30 0 -76 27q-26 15 -40 15q-19 0 -28 -25q-4 -10 -7 -24h-27zM171 -14q-83 0 -119 59q-16 28 -16 62q0 75 84 118q46 23 123 44l66 18q2 41 2 66q-2 103 -90 104 q-35 0 -64 -16l-13 -91q-3 -23 -15 -26q-8 -2 -26 -2q-52 7 -56 50q0 52 71 93q65 37 143 37q126 0 169 -86q17 -35 17 -79q0 -28 -3 -120q-3 -98 -3 -131q0 -40 27 -46q9 -2 20 -2q7 0 17 2l2 -22q-50 -31 -97 -31q-73 0 -90 67q-2 7 -3 13q-55 -80 -146 -81zM238 57 q42 0 59 48q5 16 6 35l4 93l-32 -2q-108 -9 -109 -86q0 -61 42 -81q14 -7 30 -7z" glyph-name="atilde" horiz-adv-x="523" unicode="ã"/>
<glyph d="M347 569q-53 0 -71 43q-5 15 -5 30q0 52 45 69q15 5 31 5q53 0 71 -44q5 -14 5 -30q0 -51 -45 -68q-15 -5 -31 -5zM151 570q-52 0 -69 43q-6 14 -6 29q0 50 44 68q15 5 31 5q53 0 71 -43q5 -15 5 -30q0 -49 -43 -66q-16 -6 -33 -6zM171 -14q-83 0 -119 59q-16 28 -16 62 q0 75 84 118q46 23 123 44l66 18q2 41 2 66q-2 103 -90 104q-35 0 -64 -16l-13 -91q-3 -23 -15 -26q-8 -2 -26 -2q-52 7 -56 50q0 52 71 93q65 37 143 37q126 0 169 -86q17 -35 17 -79q0 -28 -3 -120q-3 -98 -3 -131q0 -40 27 -46q9 -2 20 -2q7 0 17 2l2 -22 q-50 -31 -97 -31q-73 0 -90 67q-2 7 -3 13q-55 -80 -146 -81zM238 57q42 0 59 48q5 16 6 35l4 93l-32 -2q-108 -9 -109 -86q0 -61 42 -81q14 -7 30 -7z" glyph-name="adieresis" horiz-adv-x="523" unicode="ä"/>
<glyph d="M246 541q-64 0 -95 50q-16 26 -16 57q0 64 54 92q26 13 57 13q64 0 95 -49q16 -25 16 -56q0 -60 -51 -91q-28 -16 -60 -16zM246 592q43 8 47 55q-2 54 -47 55q-41 0 -47 -43q-1 -6 -1 -12q0 -45 35 -54q7 -1 13 -1zM171 -14q-83 0 -119 59q-16 28 -16 62q0 75 84 118 q46 23 123 44l66 18q2 41 2 66q-2 103 -90 104q-35 0 -64 -16l-13 -91q-3 -23 -15 -26q-8 -2 -26 -2q-52 7 -56 50q0 52 71 93q65 37 143 37q126 0 169 -86q17 -35 17 -79q0 -28 -3 -120q-3 -98 -3 -131q0 -40 27 -46q9 -2 20 -2q7 0 17 2l2 -22q-50 -31 -97 -31 q-73 0 -90 67q-2 7 -3 13q-55 -80 -146 -81zM238 57q42 0 59 48q5 16 6 35l4 93l-32 -2q-108 -9 -109 -86q0 -61 42 -81q14 -7 30 -7z" glyph-name="aring" horiz-adv-x="523" unicode="å"/>
<glyph d="M171 -14q-83 0 -119 59q-16 28 -16 62q0 75 84 118q46 23 123 44l66 18q2 41 2 66q-2 103 -90 104q-35 0 -64 -16l-13 -91q-3 -23 -15 -26q-8 -2 -26 -2q-52 7 -56 50q0 52 71 93q65 37 143 37q91 -1 139 -56q60 56 148 56q147 0 185 -133q11 -40 11 -89l-300 -18 q0 -115 73 -166q40 -27 91 -27q73 1 127 44l11 -17q-86 -109 -188 -110q-142 1 -198 99q-78 -98 -189 -99zM445 317q63 -5 129 -5q39 0 43 23q1 5 1 11q0 79 -44 106q-16 9 -33 9q-63 0 -87 -89q-6 -25 -9 -55zM237 57q47 0 62 54q3 14 4 30l4 92l-32 -2q-106 -12 -109 -86 q0 -62 43 -82q13 -6 28 -6z" glyph-name="ae" horiz-adv-x="780" unicode="æ"/>
<glyph d="M249 -248q-64 0 -94 39q-12 17 -12 34q2 26 33 27q17 0 20 -6q2 -4 3 -10l11 -47q15 -8 26 -8q42 2 43 44q0 46 -59 70l-10 4l44 88q-126 9 -182 115q-32 61 -32 142q0 130 88 203q67 55 160 55q88 0 141 -53q33 -34 33 -74q-2 -52 -64 -53q-19 0 -24 10q-2 6 -6 17 l-32 101q-21 9 -36 9q-113 -2 -114 -188q0 -152 92 -193q29 -13 63 -13q62 1 114 39l11 -17q-71 -89 -165 -99l-26 -36q78 -27 89 -81q2 -11 2 -23q0 -63 -61 -87q-25 -9 -56 -9z" glyph-name="ccedilla" horiz-adv-x="491" unicode="ç"/>
<glyph d="M310 544l-165 60q-44 17 -45 63q0 40 38 63q17 10 34 10q8 0 20 -14q3 -4 10 -12l118 -151zM290 -14q-136 0 -204 96q-46 65 -46 160q0 127 84 202q66 58 156 58q149 0 186 -134q11 -40 11 -88l-300 -18q0 -115 73 -166q40 -27 91 -27q73 1 127 44l11 -17 q-86 -109 -189 -110zM178 317q63 -5 129 -5q37 0 42 21q1 6 1 13q0 81 -45 107q-15 8 -31 8q-61 0 -86 -83q-7 -28 -10 -61z" glyph-name="egrave" horiz-adv-x="513" unicode="è"/>
<glyph d="M231 545l-11 18l118 151q24 25 30 26q35 0 58 -32q14 -20 14 -41q-1 -47 -45 -63zM290 -14q-136 0 -204 96q-46 65 -46 160q0 127 84 202q66 58 156 58q149 0 186 -134q11 -40 11 -88l-300 -18q0 -115 73 -166q40 -27 91 -27q73 1 127 44l11 -17q-86 -109 -189 -110z M178 317q63 -5 129 -5q37 0 42 21q1 6 1 13q0 81 -45 107q-15 8 -31 8q-61 0 -86 -83q-7 -28 -10 -61z" glyph-name="eacute" horiz-adv-x="513" unicode="é"/>
<glyph d="M160 538l-27 5l68 156q13 30 31 34q7 2 16 2h44q27 0 39 -20q4 -7 8 -16l68 -156l-27 -5l-110 102zM290 -14q-136 0 -204 96q-46 65 -46 160q0 127 84 202q66 58 156 58q149 0 186 -134q11 -40 11 -88l-300 -18q0 -115 73 -166q40 -27 91 -27q73 1 127 44l11 -17 q-86 -109 -189 -110zM178 317q63 -5 129 -5q37 0 42 21q1 6 1 13q0 81 -45 107q-15 8 -31 8q-61 0 -86 -83q-7 -28 -10 -61z" glyph-name="ecircumflex" horiz-adv-x="513" unicode="ê"/>
<glyph d="M368 569q-53 0 -71 43q-5 15 -5 30q0 52 45 69q15 5 31 5q53 0 71 -44q5 -14 5 -30q0 -51 -45 -68q-15 -5 -31 -5zM172 570q-52 0 -69 43q-6 14 -6 29q0 50 44 68q15 5 31 5q53 0 71 -43q5 -15 5 -30q0 -49 -43 -66q-16 -6 -33 -6zM290 -14q-136 0 -204 96 q-46 65 -46 160q0 127 84 202q66 58 156 58q149 0 186 -134q11 -40 11 -88l-300 -18q0 -115 73 -166q40 -27 91 -27q73 1 127 44l11 -17q-86 -109 -189 -110zM178 317q63 -5 129 -5q37 0 42 21q1 6 1 13q0 81 -45 107q-15 8 -31 8q-61 0 -86 -83q-7 -28 -10 -61z" glyph-name="edieresis" horiz-adv-x="513" unicode="ë"/>
<glyph d="M209 543l-165 60q-44 17 -45 63q0 40 38 63q17 10 34 10q8 0 20 -14q3 -4 10 -12l118 -151zM27 0v28l25 5q29 6 34 31q2 6 2 12l7 109v196q0 33 -18 44q-6 3 -13 6l-25 9v26q74 22 166 22h37q-9 -89 -9 -191v-227q0 -27 26 -34q3 -1 5 -1l38 -6v-29h-275z" glyph-name="igrave" horiz-adv-x="319" unicode="ì"/>
<glyph d="M94 544l-11 18l118 151q24 25 30 26q35 0 58 -32q14 -20 14 -41q-1 -47 -45 -63zM27 0v28l25 5q29 6 34 31q2 6 2 12l7 109v196q0 33 -18 44q-6 3 -13 6l-25 9v26q74 22 166 22h37q-9 -89 -9 -191v-227q0 -27 26 -34q3 -1 5 -1l38 -6v-29h-275z" glyph-name="iacute" horiz-adv-x="319" unicode="í"/>
<glyph d="M36 535l-27 5l68 156q13 30 31 34q7 2 16 2h44q27 0 39 -20q4 -7 8 -16l68 -156l-27 -5l-110 102zM27 0v28l25 5q29 6 34 31q2 6 2 12l7 109v196q0 33 -18 44q-6 3 -13 6l-25 9v26q74 22 166 22h37q-9 -89 -9 -191v-227q0 -27 26 -34q3 -1 5 -1l38 -6v-29h-275z" glyph-name="icircumflex" horiz-adv-x="319" unicode="î"/>
<glyph d="M258 568q-53 0 -71 43q-5 15 -5 30q0 52 45 69q15 5 31 5q53 0 71 -44q5 -14 5 -30q0 -51 -45 -68q-15 -5 -31 -5zM62 569q-52 0 -69 43q-6 14 -6 29q0 50 44 68q15 5 31 5q53 0 71 -43q5 -15 5 -30q0 -49 -43 -66q-16 -6 -33 -6zM27 0v28l25 5q29 6 34 31q2 6 2 12 l7 109v196q0 33 -18 44q-6 3 -13 6l-25 9v26q74 22 166 22h37q-9 -89 -9 -191v-227q0 -27 26 -34q3 -1 5 -1l38 -6v-29h-275z" glyph-name="idieresis" horiz-adv-x="319" unicode="ï"/>
<glyph d="M293 -13q-142 0 -211 99q-44 64 -44 156q0 126 89 200q70 57 166 57q33 0 68 -11q-15 56 -60 118l-103 -37l-10 36l87 33q-46 52 -99 90l51 4q59 -29 112 -69l109 40l13 -39l-85 -31q159 -138 172 -328q1 -16 1 -31q0 -161 -103 -239q-65 -48 -153 -48zM303 30 q98 2 99 201q0 126 -55 190q-29 33 -64 34q-97 -2 -97 -198q0 -127 53 -192q30 -34 64 -35z" glyph-name="eth" horiz-adv-x="589" unicode="ð"/>
<glyph d="M188 558q1 143 80 144q22 0 67 -22q30 -14 48 -14q26 0 34 30q4 12 6 30l28 -4q-1 -156 -85 -157q-30 0 -76 27q-26 15 -40 15q-19 0 -28 -25q-4 -10 -7 -24h-27zM25 0v28l29 5q28 6 33 31q2 6 2 12q6 72 6 137v169q0 32 -18 43q-6 4 -14 7l-24 9v25q74 22 165 22h18v-97 q57 81 138 105q23 6 44 6q135 0 142 -151v-18v-263q0 -27 24 -33q4 -1 7 -2l37 -6v-29h-264v30l58 8v299q-1 86 -64 87q-83 0 -111 -125v-2v-259l58 -8v-30h-266z" glyph-name="ntilde" horiz-adv-x="628" unicode="ñ"/>
<glyph d="M327 544l-165 60q-44 17 -45 63q0 40 38 63q17 10 34 10q8 0 20 -14q3 -4 10 -12l118 -151zM293 -13q-131 0 -202 90q-52 68 -52 165q0 125 88 200q70 60 168 60q130 0 201 -90q53 -68 53 -166q0 -124 -87 -199q-71 -60 -169 -60zM303 30q77 0 94 134q4 34 4 74 q0 118 -52 184q-30 35 -64 36q-88 0 -97 -171q-1 -18 -1 -37q0 -118 52 -184q30 -35 64 -36z" glyph-name="ograve" horiz-adv-x="588" unicode="ò"/>
<glyph d="M248 545l-11 18l118 151q24 25 30 26q35 0 58 -32q14 -20 14 -41q-1 -47 -45 -63zM293 -13q-131 0 -202 90q-52 68 -52 165q0 125 88 200q70 60 168 60q130 0 201 -90q53 -68 53 -166q0 -124 -87 -199q-71 -60 -169 -60zM303 30q77 0 94 134q4 34 4 74q0 118 -52 184 q-30 35 -64 36q-88 0 -97 -171q-1 -18 -1 -37q0 -118 52 -184q30 -35 64 -36z" glyph-name="oacute" horiz-adv-x="588" unicode="ó"/>
<glyph d="M177 538l-27 5l68 156q13 30 31 34q7 2 16 2h44q27 0 39 -20q4 -7 8 -16l68 -156l-27 -5l-110 102zM293 -13q-131 0 -202 90q-52 68 -52 165q0 125 88 200q70 60 168 60q130 0 201 -90q53 -68 53 -166q0 -124 -87 -199q-71 -60 -169 -60zM303 30q77 0 94 134q4 34 4 74 q0 118 -52 184q-30 35 -64 36q-88 0 -97 -171q-1 -18 -1 -37q0 -118 52 -184q30 -35 64 -36z" glyph-name="ocircumflex" horiz-adv-x="588" unicode="ô"/>
<glyph d="M156 559q1 143 80 144q22 0 67 -22q30 -14 48 -14q26 0 34 30q4 12 6 30l28 -4q-1 -156 -85 -157q-30 0 -76 27q-26 15 -40 15q-19 0 -28 -25q-4 -10 -7 -24h-27zM293 -13q-131 0 -202 90q-52 68 -52 165q0 125 88 200q70 60 168 60q130 0 201 -90q53 -68 53 -166 q0 -124 -87 -199q-71 -60 -169 -60zM303 30q77 0 94 134q4 34 4 74q0 118 -52 184q-30 35 -64 36q-88 0 -97 -171q-1 -18 -1 -37q0 -118 52 -184q30 -35 64 -36z" glyph-name="otilde" horiz-adv-x="588" unicode="õ"/>
<glyph d="M385 569q-53 0 -71 43q-5 15 -5 30q0 52 45 69q15 5 31 5q53 0 71 -44q5 -14 5 -30q0 -51 -45 -68q-15 -5 -31 -5zM189 570q-52 0 -69 43q-6 14 -6 29q0 50 44 68q15 5 31 5q53 0 71 -43q5 -15 5 -30q0 -49 -43 -66q-16 -6 -33 -6zM293 -13q-131 0 -202 90 q-52 68 -52 165q0 125 88 200q70 60 168 60q130 0 201 -90q53 -68 53 -166q0 -124 -87 -199q-71 -60 -169 -60zM303 30q77 0 94 134q4 34 4 74q0 118 -52 184q-30 35 -64 36q-88 0 -97 -171q-1 -18 -1 -37q0 -118 52 -184q30 -35 64 -36z" glyph-name="odieresis" horiz-adv-x="588" unicode="ö"/>
<glyph d="M271 458q-51 0 -66 42q-4 12 -4 25q0 47 42 62q13 5 28 5q50 0 65 -42q4 -12 4 -25q0 -47 -41 -62q-13 -5 -28 -5zM72 301v74h396v-74h-396zM271 84q-51 0 -66 42q-4 12 -4 25q0 47 42 62q13 5 28 5q50 0 65 -42q4 -12 4 -25q0 -47 -41 -62q-13 -5 -28 -5z" glyph-name="divide" unicode="÷"/>
<glyph d="M79 -61l57 96q-94 75 -97 207q0 125 88 200q70 60 168 60q60 0 108 -21l38 63h50l-49 -83q97 -63 106 -192q1 -12 1 -23q0 -124 -87 -199q-71 -60 -169 -60q-67 0 -120 26l-43 -74h-51zM202 146l157 261q-33 50 -74 51q-88 0 -97 -171q-1 -18 -1 -37q0 -54 15 -104z M303 30q77 0 94 134q4 34 4 74q0 65 -20 121l-159 -265q35 -63 81 -64z" glyph-name="oslash" horiz-adv-x="588" unicode="ø"/>
<glyph d="M322 543l-165 60q-44 17 -45 63q0 40 38 63q17 10 34 10q8 0 20 -14q3 -4 10 -12l118 -151zM222 -14q-143 2 -144 168v228q0 33 -18 45q-5 2 -9 4l-27 11v25q69 21 160 21h33v-333q2 -90 67 -91q61 0 91 89q5 17 9 35v237l-62 14v26q73 23 168 23h40q-8 -74 -8 -198v-199 q0 -32 23 -40q5 -2 11 -3l34 -5v-23q-55 -23 -162 -29q-16 -1 -28 -1h-8v105q-76 -103 -170 -109z" glyph-name="ugrave" horiz-adv-x="608" unicode="ù"/>
<glyph d="M265 544l-11 18l118 151q24 25 30 26q35 0 58 -32q14 -20 14 -41q-1 -47 -45 -63zM222 -14q-143 2 -144 168v228q0 33 -18 45q-5 2 -9 4l-27 11v25q69 21 160 21h33v-333q2 -90 67 -91q61 0 91 89q5 17 9 35v237l-62 14v26q73 23 168 23h40q-8 -74 -8 -198v-199 q0 -32 23 -40q5 -2 11 -3l34 -5v-23q-55 -23 -162 -29q-16 -1 -28 -1h-8v105q-76 -103 -170 -109z" glyph-name="uacute" horiz-adv-x="608" unicode="ú"/>
<glyph d="M181 537l-27 5l68 156q13 30 31 34q7 2 16 2h44q27 0 39 -20q4 -7 8 -16l68 -156l-27 -5l-110 102zM222 -14q-143 2 -144 168v228q0 33 -18 45q-5 2 -9 4l-27 11v25q69 21 160 21h33v-333q2 -90 67 -91q61 0 91 89q5 17 9 35v237l-62 14v26q73 23 168 23h40 q-8 -74 -8 -198v-199q0 -32 23 -40q5 -2 11 -3l34 -5v-23q-55 -23 -162 -29q-16 -1 -28 -1h-8v105q-76 -103 -170 -109z" glyph-name="ucircumflex" horiz-adv-x="608" unicode="û"/>
<glyph d="M393 568q-53 0 -71 43q-5 15 -5 30q0 52 45 69q15 5 31 5q53 0 71 -44q5 -14 5 -30q0 -51 -45 -68q-15 -5 -31 -5zM197 569q-52 0 -69 43q-6 14 -6 29q0 50 44 68q15 5 31 5q53 0 71 -43q5 -15 5 -30q0 -49 -43 -66q-16 -6 -33 -6zM222 -14q-143 2 -144 168v228 q0 33 -18 45q-5 2 -9 4l-27 11v25q69 21 160 21h33v-333q2 -90 67 -91q61 0 91 89q5 17 9 35v237l-62 14v26q73 23 168 23h40q-8 -74 -8 -198v-199q0 -32 23 -40q5 -2 11 -3l34 -5v-23q-55 -23 -162 -29q-16 -1 -28 -1h-8v105q-76 -103 -170 -109z" glyph-name="udieresis" horiz-adv-x="608" unicode="ü"/>
<glyph d="M258 545l-11 18l118 151q24 25 30 26q35 0 58 -32q14 -20 14 -41q-1 -47 -45 -63zM122 -247q-48 0 -59 40q-2 8 -2 17q0 20 9 24q7 2 22 4l91 13q27 46 50 114l9 25l-206 418q-14 30 -29 39q-7 3 -15 6l-8 3v26h260v-32l-71 -5l133 -287l98 288l-60 5v31h170v-26l-13 -3 q-29 -6 -43 -32q-8 -16 -19 -46l-173 -480q-42 -116 -104 -136q-18 -6 -40 -6z" glyph-name="yacute" horiz-adv-x="508" unicode="ý"/>
<glyph d="M11 -235v29l27 5q29 5 33 35v4q7 84 7 142v639q0 40 -22 52q-7 4 -15 7l-34 11v25q72 25 193 25h28q-12 -93 -12 -209v-110q58 80 141 81q116 0 168 -99q30 -58 30 -140q0 -147 -99 -223q-69 -53 -166 -53q-37 0 -73 5v-186l85 -7v-33h-291zM298 31q71 0 97 97 q12 44 12 101q0 119 -61 164q-26 18 -57 18q-42 -1 -73 -31v-195q0 -124 58 -149q12 -5 24 -5z" glyph-name="thorn" horiz-adv-x="598" unicode="þ"/>
</font>
</defs>
</svg>
