<?xml version="1.0" encoding="UTF-8"?>
<!DOCTYPE svg  PUBLIC '-//W3C//DTD SVG 1.1//EN'  'http://www.w3.org/Graphics/SVG/1.1/DTD/svg11.dtd'>
<svg version="1.1" xmlns="http://www.w3.org/2000/svg">
<defs>
<font id="FolhaGrafico-Bold" horiz-adv-x="540">
<font-face font-family="Folha Grafico" font-weight="700" ascent="750" bbox="-65 -283 901 889" cap-height="646" descent="-250" panose-1="0 0 8 0 0 0 0 0 0 0" underline-position="-144" underline-thickness="46" unicode-range="U+0020-00FE" units-per-em="1000" x-height="495"/>
<missing-glyph/>
<glyph glyph-name="space" horiz-adv-x="201" unicode=" "/>
<glyph d="M109 202l-38 444h180l-38 -444h-104zM86 0v138h150v-138h-150z" glyph-name="exclam" horiz-adv-x="322" unicode="!"/>
<glyph d="M48 398l-9 248h113l-9 -248h-95zM231 398l-9 248h113l-9 -248h-95z" glyph-name="quotedbl" horiz-adv-x="374" unicode='"'/>
<glyph d="M72 0l16 172h-55l9 110h56l11 102h-58l9 111h59l14 151h112l-14 -151h103l14 151h113l-15 -151h60l-8 -111h-62l-10 -102h63l-10 -110h-63l-17 -172h-112l17 172h-104l-16 -172h-112zM211 282h103l10 102h-103z" glyph-name="numbersign" unicode="#"/>
<glyph d="M162 -118l17 110q-65 9 -117 36l-12 143q85 -40 149 -49l22 145l-18 6q-138 47 -151 164q-1 14 -1 27q0 118 99 168q55 27 131 27l14 90h78l-15 -96q67 -11 115 -35l-14 -133q-47 25 -121 39l-21 -140l24 -9q117 -40 142 -120q9 -28 9 -62q0 -126 -103 -178 q-57 -28 -134 -28l-16 -105h-77zM191 474q0 -38 43 -59q5 -2 9 -4l18 119q-69 -6 -70 -56zM352 179q0 35 -40 54q-8 4 -18 8l-19 -123q76 6 77 61z" glyph-name="dollar" unicode="$"/>
<glyph d="M169 283q-102 0 -131 104q-10 36 -10 81q0 137 85 174q26 11 56 11q104 0 132 -109q8 -34 8 -76q0 -136 -83 -174q-26 -11 -57 -11zM251 0h-111l368 646h112zM169 372q47 2 47 96q-1 95 -47 96q-49 -2 -49 -96q1 -95 49 -96zM593 -7q-102 0 -131 104q-10 36 -10 81 q0 137 85 174q26 11 56 11q104 0 132 -109q8 -34 8 -76q0 -136 -83 -174q-26 -11 -57 -11zM593 82q47 2 47 96q-1 95 -47 96q-49 -2 -49 -96q1 -95 49 -96z" glyph-name="percent" horiz-adv-x="761" unicode="%"/>
<glyph d="M263 -13q-150 0 -207 91q-27 44 -27 102q1 109 110 171q-42 72 -42 142q0 91 72 137q47 29 111 29q108 0 154 -72q24 -37 24 -85q-2 -119 -134 -173q50 -58 128 -108q37 73 42 172l124 -12q-12 -132 -58 -223q55 -29 107 -47l-32 -120q-86 27 -157 66q-85 -70 -215 -70z M257 406q72 37 75 92q0 44 -39 53q-7 1 -13 1q-41 0 -52 -38q-3 -10 -3 -20q1 -41 32 -88zM279 106q45 1 79 22q-94 64 -158 138q-31 -28 -32 -69q2 -90 111 -91z" glyph-name="ampersand" horiz-adv-x="682" unicode="&amp;"/>
<glyph d="M48 398l-9 248h113l-9 -248h-95z" glyph-name="quotesingle" horiz-adv-x="191" unicode="'"/>
<glyph d="M355 -273q-229 118 -279 383q-13 69 -13 145q0 329 233 491q29 20 59 36l26 -134q-161 -116 -177 -345q-2 -24 -2 -48q0 -255 169 -386q5 -5 10 -8z" glyph-name="parenleft" horiz-adv-x="385" unicode="("/>
<glyph d="M30 783q229 -118 279 -383q13 -69 13 -145q0 -329 -233 -491q-29 -20 -59 -36l-26 134q161 116 177 345q2 24 2 48q0 255 -169 386q-5 5 -10 8z" glyph-name="parenright" horiz-adv-x="385" unicode=")"/>
<glyph d="M110 408l54 119l-131 2l7 101l131 -14l-37 127l97 23l27 -128l108 76l52 -87l-114 -65l105 -79l-65 -75l-96 87l-44 -126z" glyph-name="asterisk" horiz-adv-x="453" unicode="*"/>
<glyph d="M54 281v116h149v167h133v-167h150v-116h-150v-183h-133v183h-149z" glyph-name="plus" unicode="+"/>
<glyph d="M144 -172l-122 17q37 92 43 170q2 34 2 82v45h131v-65q0 -147 -54 -249z" glyph-name="comma" horiz-adv-x="266" unicode=","/>
<glyph d="M50 201v110l234 11v-110z" glyph-name="hyphen" horiz-adv-x="334" unicode="-"/>
<glyph d="M56 0v145h154v-145h-154z" glyph-name="period" horiz-adv-x="266" unicode="."/>
<glyph d="M13 -250l368 1000h95l-368 -1000h-95z" glyph-name="slash" horiz-adv-x="489" unicode="/"/>
<glyph d="M280 -13q-142 0 -198 145q-31 79 -31 191q0 207 102 292q54 44 127 44q144 0 200 -146q30 -79 30 -190q0 -208 -102 -292q-54 -44 -128 -44zM280 121q80 0 93 140q2 28 2 62q-8 195 -95 202q-82 0 -92 -150q-2 -25 -2 -52q3 -199 94 -202z" glyph-name="zero" horiz-adv-x="561" unicode="0"/>
<glyph d="M299 0h-144v482l-130 -36l-12 119l216 84h70v-649z" glyph-name="one" horiz-adv-x="396" unicode="1"/>
<glyph d="M17 0l-6 59q166 144 216 228q38 65 38 129q0 74 -65 98q-23 9 -50 9q-63 -1 -114 -37l-13 129q65 41 157 44q141 0 200 -96q32 -53 32 -123q0 -124 -81 -220q-36 -42 -90 -87h220l-11 -133h-433z" glyph-name="two" horiz-adv-x="482" unicode="2"/>
<glyph d="M194 -13q-83 0 -147 36l-12 131q74 -42 148 -42q99 2 100 80q0 77 -108 84q-10 1 -20 1h-9q-8 -1 -12 -1l-1 109h20q103 3 105 78q0 49 -49 66q-16 5 -35 5q-63 -1 -119 -34l-15 120q61 39 156 39q122 0 176 -77q28 -41 28 -94q-1 -103 -81 -143q78 -21 103 -96 q9 -27 9 -57q0 -133 -114 -182q-53 -23 -123 -23z" glyph-name="three" horiz-adv-x="480" unicode="3"/>
<glyph d="M297 0v128h-280l-6 58l258 456l156 8v-409h78l-11 -113h-67v-128h-128zM174 241h123v224z" glyph-name="four" horiz-adv-x="533" unicode="4"/>
<glyph d="M184 -13q-76 0 -145 34l-12 132q73 -38 137 -38q98 0 106 72q1 6 1 12q0 81 -140 97q-30 3 -64 3l17 347h337l-11 -133h-204l-7 -110q154 -9 202 -113q18 -40 18 -90q0 -129 -102 -184q-56 -29 -133 -29z" glyph-name="five" horiz-adv-x="471" unicode="5"/>
<glyph d="M276 -13q-125 0 -188 110q-44 79 -44 197q0 186 131 285q101 76 259 80l12 -121q-199 -13 -248 -145q40 27 88 27q128 0 180 -95q26 -49 26 -114q0 -127 -89 -187q-54 -37 -127 -37zM276 107q69 0 81 70q3 14 3 29q0 71 -60 94q-22 8 -47 8q-41 0 -73 -26q-2 -1 -3 -2 q4 -142 71 -168q14 -5 28 -5z" glyph-name="six" horiz-adv-x="531" unicode="6"/>
<glyph d="M39 0l233 514h-249l10 132h410l6 -59l-251 -587h-159z" glyph-name="seven" horiz-adv-x="465" unicode="7"/>
<glyph d="M262 -13q-138 0 -194 88q-29 46 -29 106q1 92 92 149q-77 53 -78 147q0 95 79 146q57 36 134 36q135 0 186 -85q23 -40 23 -91q-1 -98 -80 -146q92 -56 93 -157q0 -110 -91 -161q-57 -32 -135 -32zM300 381q44 35 45 84q0 54 -48 71q-16 5 -33 5q-65 0 -75 -49 q-2 -8 -2 -16q2 -45 69 -76zM264 105q75 9 80 75q0 43 -56 73q-13 7 -28 14l-35 16q-48 -39 -49 -94q0 -62 54 -79q16 -5 34 -5z" glyph-name="eight" horiz-adv-x="527" unicode="8"/>
<glyph d="M255 659q125 0 188 -110q44 -79 44 -197q0 -186 -131 -285q-101 -76 -259 -80l-12 121q199 13 248 145q-40 -27 -88 -27q-128 0 -180 95q-26 49 -26 114q0 127 89 187q54 37 127 37zM255 539q-69 0 -81 -70q-3 -14 -3 -29q0 -71 60 -94q22 -8 47 -8q41 0 73 26q2 1 3 2 q-4 142 -71 168q-14 5 -28 5z" glyph-name="nine" horiz-adv-x="531" unicode="9"/>
<glyph d="M56 284v145h154v-145h-154zM56 0v145h154v-145h-154z" glyph-name="colon" horiz-adv-x="266" unicode=":"/>
<glyph d="M56 284v145h154v-145h-154zM144 -172l-122 17q37 92 43 170q2 34 2 82v45h131v-65q0 -147 -54 -249z" glyph-name="semicolon" horiz-adv-x="266" unicode=";"/>
<glyph d="M480 12l-439 261v100l439 261l18 -142l-293 -164l293 -165z" glyph-name="less" unicode="&lt;"/>
<glyph d="M64 386v116h411v-116h-411zM64 176v116h411v-116h-411z" glyph-name="equal" unicode="="/>
<glyph d="M59 634l439 -261v-100l-439 -261l-18 142l293 164l-293 165z" glyph-name="greater" unicode="&gt;"/>
<glyph d="M114 207l-9 142q103 42 120 89q5 14 5 29q-2 69 -92 70q-57 0 -107 -28l10 123q68 26 136 26q120 0 170 -78q26 -41 26 -96q0 -121 -112 -176q-11 -5 -23 -10l-7 -91h-117zM100 0v138h150v-138h-150z" glyph-name="question" horiz-adv-x="423" unicode="?"/>
<glyph d="M415 -150q-187 0 -288 119q-82 97 -82 249q0 197 120 315q113 110 289 110q188 0 287 -112q73 -85 73 -210q0 -161 -109 -233q-65 -42 -157 -42q-66 1 -84 46q-6 14 -6 30q-30 -68 -88 -69q-74 0 -102 79q-12 35 -12 80q0 143 87 201q45 30 104 30q75 0 141 -24 q-15 -61 -21 -130l-8 -89v-9q-1 -7 -1 -10q2 -26 27 -27q66 0 91 82q11 38 11 85q0 158 -136 201q-45 14 -101 14q-169 0 -239 -134q-39 -76 -39 -183q0 -176 131 -235q55 -25 129 -25q101 0 162 33l-6 -111q-76 -31 -173 -31zM399 152q35 0 53 86q5 27 8 58l5 43 q-12 5 -32 5q-65 -2 -66 -122q2 -68 32 -70z" glyph-name="at" horiz-adv-x="859" unicode="@"/>
<glyph d="M10 0l220 644l144 7l224 -651h-144l-40 125h-227l-40 -125h-137zM224 245h152l-76 237z" glyph-name="A" horiz-adv-x="609" unicode="A"/>
<glyph d="M75 0v646h210q229 -7 234 -174q-2 -101 -96 -130q92 -19 117 -101q8 -26 8 -55q-2 -185 -250 -186h-223zM215 387h75q83 2 84 67q-2 66 -86 67h-73v-134zM215 125h95q92 2 93 76q0 66 -80 73q-9 1 -18 1h-90v-150z" glyph-name="B" horiz-adv-x="587" unicode="B"/>
<glyph d="M323 -13q-205 0 -262 185q-20 66 -20 151q0 197 117 284q71 52 172 52q82 0 139 -28l-18 -136q-53 27 -114 27q-148 -2 -149 -199q0 -169 113 -195q19 -4 40 -4q65 1 125 38l-12 -146q-59 -29 -131 -29z" glyph-name="C" horiz-adv-x="506" unicode="C"/>
<glyph d="M75 0v646h156q187 0 280 -116q65 -83 65 -207q0 -195 -142 -276q-83 -47 -201 -47h-158zM218 134h33q166 0 176 168q1 11 1 21q0 121 -85 168q-40 21 -92 21h-33v-378z" glyph-name="D" horiz-adv-x="615" unicode="D"/>
<glyph d="M75 0v646h425v-132h-284v-118h258v-124h-258v-140h292l-12 -132h-421z" glyph-name="E" horiz-adv-x="551" unicode="E"/>
<glyph d="M75 0v646h420l-12 -132h-265v-129h247v-125h-247v-260h-143z" glyph-name="F" horiz-adv-x="526" unicode="F"/>
<glyph d="M331 -13q-183 0 -254 149q-36 78 -36 187q0 192 117 280q75 56 184 56q90 0 164 -33l-16 -138q-67 34 -136 34q-164 -2 -165 -199q0 -145 85 -186q28 -13 61 -13q34 0 69 10v104h-69v114h196v-313q-83 -52 -200 -52z" glyph-name="G" horiz-adv-x="590" unicode="G"/>
<glyph d="M75 0v646h143v-238h222v238h143v-646h-143v276h-222v-276h-143z" glyph-name="H" horiz-adv-x="658" unicode="H"/>
<glyph d="M75 0v646h143v-646h-143z" glyph-name="I" horiz-adv-x="293" unicode="I"/>
<glyph d="M28 -10l-9 130q89 5 115 58q16 33 16 94v374h142v-390q0 -179 -118 -235q-57 -27 -146 -31z" glyph-name="J" horiz-adv-x="354" unicode="J"/>
<glyph d="M75 0v646h143v-292l224 292h156l-236 -305l234 -341h-160l-218 318v-318h-143z" glyph-name="K" horiz-adv-x="596" unicode="K"/>
<glyph d="M75 0v646h143v-514h254l-12 -132h-385z" glyph-name="L" horiz-adv-x="493" unicode="L"/>
<glyph d="M53 0l43 646h173l133 -354l136 354h167l43 -646h-143l-22 435l-131 -343l-111 5l-128 339l-23 -436h-137z" glyph-name="M" horiz-adv-x="804" unicode="M"/>
<glyph d="M75 0v646h129l242 -386v386h128v-643l-118 -7l-253 402v-398h-128z" glyph-name="N" horiz-adv-x="649" unicode="N"/>
<glyph d="M317 -13q-156 0 -228 126q-48 84 -48 210q0 186 106 276q70 60 170 60q154 0 227 -125q48 -85 48 -211q0 -186 -105 -276q-71 -60 -170 -60zM317 124q113 0 126 157q2 20 2 42q0 181 -107 197q-11 2 -21 2q-127 -2 -128 -199q10 -191 128 -199z" glyph-name="O" horiz-adv-x="633" unicode="O"/>
<glyph d="M75 0v646h204q178 0 236 -112q23 -46 23 -105q0 -134 -111 -188q-59 -29 -141 -29h-69v-212h-142zM217 343h61q103 0 111 71q1 8 1 15q-2 85 -112 86h-61v-172z" glyph-name="P" horiz-adv-x="568" unicode="P"/>
<glyph d="M418 -141l-65 79q-29 36 -53 46q-14 5 -37 9q-142 23 -195 165q-27 72 -27 165q0 186 105 276q71 60 170 60q156 0 228 -126q48 -84 48 -210q0 -185 -106 -275q-26 -22 -56 -36q25 -13 56 -53l69 -90zM316 124q127 2 128 199q-10 191 -128 199q-127 -2 -128 -199 q0 -181 107 -197q11 -2 21 -2z" glyph-name="Q" horiz-adv-x="633" unicode="Q"/>
<glyph d="M75 0v646h217q164 0 219 -106q23 -45 23 -102q0 -99 -70 -146q-19 -12 -39 -19q25 -22 52 -84q2 -4 3 -7l72 -182h-148l-61 158q-24 59 -53 70q-11 4 -24 4h-51v-232h-140zM215 355h65q99 0 107 66q1 8 1 15q-2 82 -110 83h-63v-164z" glyph-name="R" horiz-adv-x="586" unicode="R"/>
<glyph d="M239 -13q-109 0 -189 41l-11 143q106 -54 200 -54q92 1 93 62q0 37 -43 58q-12 6 -27 11l-71 25q-151 53 -152 191q0 116 98 166q56 29 134 29q110 0 190 -41l-13 -133q-85 44 -178 44q-82 -1 -83 -55q0 -37 41 -58q15 -7 34 -14l67 -25q121 -44 144 -130q7 -25 7 -54 q0 -127 -106 -179q-57 -27 -135 -27z" glyph-name="S" horiz-adv-x="520" unicode="S"/>
<glyph d="M194 0v514h-175v132h503l-11 -132h-174v-514h-143z" glyph-name="T" horiz-adv-x="537" unicode="T"/>
<glyph d="M312 -13q-176 0 -230 143q-21 55 -21 128v388h144v-367q1 -153 109 -154q103 0 108 139v16v366h143v-386q0 -176 -119 -242q-57 -31 -134 -31z" glyph-name="U" horiz-adv-x="625" unicode="U"/>
<glyph d="M231 -4l-219 650h146l140 -439l142 439h140l-219 -643z" glyph-name="V" horiz-adv-x="592" unicode="V"/>
<glyph d="M193 -3l-162 649h151l95 -436l119 433l150 6l97 -428l115 425h143l-185 -644l-153 -5l-105 440l-112 -435z" glyph-name="W" horiz-adv-x="925" unicode="W"/>
<glyph d="M0 0l203 333l-184 313h163l112 -198l121 198h160l-204 -307l202 -339h-167l-123 216l-121 -216h-162z" glyph-name="X" horiz-adv-x="579" unicode="X"/>
<glyph d="M198 0v271l-205 375h151l129 -241l128 241h144l-204 -376v-270h-143z" glyph-name="Y" horiz-adv-x="542" unicode="Y"/>
<glyph d="M28 0l-6 59l282 455h-262v132h466l7 -59l-283 -455h287l-12 -132h-479z" glyph-name="Z" horiz-adv-x="549" unicode="Z"/>
<glyph d="M112 -277v1037h275v-122h-138v-793h138v-122h-275z" glyph-name="bracketleft" horiz-adv-x="385" unicode="["/>
<glyph d="M378 -250l-368 1000h101l368 -1000h-101z" glyph-name="backslash" horiz-adv-x="489" unicode="\"/>
<glyph d="M273 760v-1037h-275v122h138v793h-138v122h275z" glyph-name="bracketright" horiz-adv-x="385" unicode="]"/>
<glyph d="M36 211l180 440h107l182 -440h-141l-98 268l-98 -268h-132z" glyph-name="asciicircum" unicode="^"/>
<glyph d="M-1 -171v80h502v-80h-502z" glyph-name="underscore" horiz-adv-x="500" unicode="_"/>
<glyph d="M200 567l-47 63q-37 54 -49 91l125 4q10 -35 36 -77l47 -81h-112z" glyph-name="grave" horiz-adv-x="500" unicode="`"/>
<glyph d="M180 -13q-101 0 -135 78q-12 30 -12 67q0 113 143 155l30 8l91 20v9q-2 63 -75 64q-90 0 -161 -43l-13 117q78 45 179 45q161 0 197 -119q9 -31 9 -68q0 -6 -1 -29q-1 -43 -1 -66v-109q0 -61 23 -113l-126 -13q-12 24 -18 63q-45 -64 -130 -66zM217 89q50 0 70 49 q8 20 8 44v36l-58 -10q-67 -11 -75 -48q-2 -8 -2 -16q0 -45 41 -53q8 -2 16 -2z" glyph-name="a" horiz-adv-x="490" unicode="a"/>
<glyph d="M247 -12q-115 1 -191 54q6 65 6 174v337q0 89 -7 157l136 6q6 -42 6 -108v-171q35 69 114 70q123 0 169 -117q22 -56 22 -131q0 -182 -126 -244q-55 -27 -129 -27zM263 106q98 2 99 140q-1 137 -85 138q-79 -2 -80 -154v-103q29 -21 66 -21z" glyph-name="b" horiz-adv-x="538" unicode="b"/>
<glyph d="M272 -13q-159 0 -213 129q-24 56 -24 131q0 166 109 230q53 30 125 30q70 0 116 -19l-12 -125q-39 20 -81 20q-118 -2 -119 -136q0 -107 81 -130q20 -6 42 -6q49 1 92 30l-8 -130q-50 -24 -108 -24z" glyph-name="c" horiz-adv-x="418" unicode="c"/>
<glyph d="M231 -13q-117 0 -167 109q-28 61 -28 147q0 154 91 223q53 40 125 40q52 0 89 -21v73q0 81 -7 152l138 6q5 -50 5 -110v-479q0 -70 22 -120l-130 -13q-11 25 -16 61q-36 -67 -122 -68zM260 109q73 0 80 128q1 14 1 28v96q-29 28 -70 28q-96 -2 -97 -138q1 -141 86 -142z " glyph-name="d" horiz-adv-x="544" unicode="d"/>
<glyph d="M282 -13q-170 0 -225 134q-22 55 -22 126q0 157 97 224q54 36 128 36q157 0 191 -162q9 -43 9 -93q0 -26 -1 -37l-288 -8q7 -91 105 -98q9 -1 17 -1q93 1 163 41l-9 -121q-65 -41 -165 -41zM173 304h162q-6 90 -79 91q-60 0 -78 -62q-4 -14 -5 -29z" glyph-name="e" horiz-adv-x="499" unicode="e"/>
<glyph d="M84 0v376h-47l-7 98l37 10q20 9 21 34v7q0 116 92 168q53 29 126 29q17 0 37 -2l10 -117q-12 2 -32 2q-97 -8 -101 -93v-17h112v-119h-111v-376h-137z" glyph-name="f" horiz-adv-x="338" unicode="f"/>
<glyph d="M226 -233q-139 0 -186 73q-18 29 -18 63q2 88 96 110q-38 21 -39 67q0 51 48 75q6 3 11 5q-98 51 -99 162q0 113 89 160q47 25 109 25q21 0 101 -11q25 -4 42 -4q50 0 77 9l14 -114q-14 -5 -31 -7q-16 -2 -28 0q17 -29 17 -67q0 -131 -126 -161q-29 -7 -64 -10 q-36 -2 -42 -25q-1 -3 -1 -6q0 -24 34 -28q10 -1 23 -1h86q123 0 148 -90q5 -20 5 -42q0 -94 -93 -145q-71 -38 -173 -38zM235 244q66 2 67 81q0 71 -53 80q-7 1 -14 1q-54 0 -65 -56q-2 -12 -2 -25q0 -71 53 -80q7 -1 14 -1zM240 -136q100 0 115 48q2 8 2 15q-2 45 -60 46 h-66q-82 -1 -83 -53q2 -55 92 -56z" glyph-name="g" horiz-adv-x="503" unicode="g"/>
<glyph d="M64 0v555q0 87 -7 155l137 6q6 -32 6 -106v-185q38 81 133 82q133 0 157 -132q5 -27 5 -57v-318h-136v287q-1 93 -66 94q-87 0 -93 -145v-18v-218h-136z" glyph-name="h" horiz-adv-x="554" unicode="h"/>
<glyph d="M63 581v120h138v-120h-138zM64 0v495h136v-495h-136z" glyph-name="i" horiz-adv-x="264" unicode="i"/>
<glyph d="M63 581v120h138v-120h-138zM-8 -233l-12 115q57 12 73 46q11 27 11 81v486h136v-499q0 -152 -104 -202q-43 -20 -104 -27z" glyph-name="j" horiz-adv-x="264" unicode="j"/>
<glyph d="M64 0v555q0 87 -7 155l137 6q6 -32 6 -106v-319l73 81q60 67 86 122l2 4l140 -6q-28 -77 -106 -156l-7 -7l-55 -55l180 -274h-152l-161 248v-248h-136z" glyph-name="k" horiz-adv-x="512" unicode="k"/>
<glyph d="M234 -7q-119 6 -156 69q-24 42 -24 116v372q0 92 -7 160l138 6q5 -35 5 -111v-422q0 -49 28 -63q11 -6 29 -9z" glyph-name="l" horiz-adv-x="266" unicode="l"/>
<glyph d="M65 0v330q0 97 -7 162l131 6q5 -27 5 -82v-8q35 97 142 98q100 0 134 -81q4 -9 7 -18q37 86 123 97q12 2 23 2q144 0 159 -155q1 -16 1 -33v-318h-136v287q0 85 -50 95q-8 1 -16 1q-58 0 -79 -79q-10 -37 -10 -84v-220h-136v287q0 88 -52 95q-6 1 -12 1q-60 0 -81 -80 q-10 -37 -10 -83v-220h-136z" glyph-name="m" horiz-adv-x="842" unicode="m"/>
<glyph d="M65 0v329q0 98 -7 163l131 6q5 -30 5 -83v-7q25 79 104 95q18 4 36 4q123 0 152 -121q7 -32 7 -70v-316h-136v286q-4 94 -66 97q-67 0 -85 -99q-5 -30 -5 -67v-217h-136z" glyph-name="n" horiz-adv-x="552" unicode="n"/>
<glyph d="M263 -13q-128 0 -189 101q-39 66 -39 159q0 149 93 218q56 42 135 42q130 0 190 -102q39 -66 39 -158q0 -149 -93 -218q-57 -42 -136 -42zM263 112q85 0 90 122v13q0 121 -73 134q-8 2 -17 2q-78 0 -89 -105q-1 -15 -1 -31q0 -116 69 -133q11 -2 21 -2z" glyph-name="o" horiz-adv-x="526" unicode="o"/>
<glyph d="M65 -220v549q0 97 -7 163l131 6q3 -30 5 -75q22 61 86 78q19 5 40 5q110 0 158 -103q28 -61 28 -148q0 -183 -117 -242q-48 -24 -111 -24q-41 1 -77 21v-230h-136zM270 106q95 2 96 141q-1 135 -86 136q-72 0 -79 -125q-1 -14 -1 -27v-99q28 -26 70 -26z" glyph-name="p" horiz-adv-x="542" unicode="p"/>
<glyph d="M339 -220v270q-39 -61 -114 -62q-120 0 -166 118q-23 58 -23 138q0 162 104 228q55 34 131 34q120 0 200 -51q7 -4 12 -8q-7 -71 -7 -151v-516h-137zM255 108q85 2 85 171v87q-28 24 -69 24q-96 -2 -97 -139q1 -142 81 -143z" glyph-name="q" horiz-adv-x="538" unicode="q"/>
<glyph d="M65 0v330q0 79 -7 162l130 6q6 -34 6 -83v-15q23 81 106 101q22 5 46 5h8l10 -125q-10 1 -34 1q-105 0 -125 -123q-4 -27 -4 -57v-202h-136z" glyph-name="r" horiz-adv-x="376" unicode="r"/>
<glyph d="M202 -13q-97 0 -161 33l-10 124q81 -43 172 -43q64 1 65 37q0 25 -34 39l-18 6l-48 15q-99 32 -121 99q-8 25 -8 56q0 92 83 132q46 22 107 22q90 0 159 -29l-17 -116q-76 32 -144 32q-52 -1 -53 -34q0 -22 28 -35q13 -7 36 -14l43 -15q94 -31 115 -95q7 -24 7 -53 q0 -107 -99 -144q-44 -17 -102 -17z" glyph-name="s" horiz-adv-x="437" unicode="s"/>
<glyph d="M254 -9q-157 0 -175 150q-2 18 -2 37v198h-58l-7 96q51 16 66 47q10 21 21 79l114 6v-109h129v-119h-129v-178q0 -82 66 -88q8 -1 15 -1q31 0 60 13l-11 -117q-34 -14 -89 -14z" glyph-name="t" horiz-adv-x="372" unicode="t"/>
<glyph d="M212 -13q-107 0 -141 96q-13 38 -13 86v326h136v-295q1 -86 61 -87q68 0 86 115q6 37 6 82v185h136v-341q0 -79 14 -148l-128 -14q-14 46 -14 89q-44 -93 -143 -94z" glyph-name="u" horiz-adv-x="549" unicode="u"/>
<glyph d="M175 -4l-174 499h139l104 -317l105 317h136l-176 -492z" glyph-name="v" horiz-adv-x="488" unicode="v"/>
<glyph d="M144 -4l-129 499h135l75 -312l78 309l156 5l75 -312l80 310h130l-139 -491l-151 -8l-78 343l-81 -335z" glyph-name="w" horiz-adv-x="757" unicode="w"/>
<glyph d="M1 0l162 256l-150 239h150l86 -143l88 143h144l-159 -243l160 -252h-151l-92 159l-95 -159h-143z" glyph-name="x" horiz-adv-x="488" unicode="x"/>
<glyph d="M50 -230l-9 114q92 6 125 45q14 18 24 46l8 25l-196 495h140l120 -317l87 317h135l-157 -515q-41 -135 -134 -179q-57 -27 -143 -31z" glyph-name="y" horiz-adv-x="499" unicode="y"/>
<glyph d="M27 0l-4 50l210 326h-199v119h382l3 -51l-214 -326h223l-12 -118h-389z" glyph-name="z" horiz-adv-x="451" unicode="z"/>
<glyph d="M339 -283q-203 0 -211 154v12v203q0 73 -38 93q-16 7 -40 11v104q54 8 69 43q9 23 9 62v202q0 154 179 165q16 1 32 1l9 -129q-53 0 -67 -26q-10 -21 -10 -70v-162q-1 -115 -89 -138q88 -23 89 -137v-162q0 -70 25 -86q17 -10 52 -10z" glyph-name="braceleft" horiz-adv-x="385" unicode="{"/>
<glyph d="M76 -250v1000h98v-1000h-98z" glyph-name="bar" horiz-adv-x="250" unicode="|"/>
<glyph d="M46 767q203 0 211 -154v-12v-203q0 -73 38 -93q16 -7 40 -11v-104q-54 -8 -69 -43q-9 -23 -9 -62v-202q0 -154 -179 -165q-16 -1 -32 -1l-9 129q53 0 67 26q10 21 10 70v162q1 115 89 138q-88 23 -89 137v162q0 70 -25 86q-17 10 -52 10z" glyph-name="braceright" horiz-adv-x="385" unicode="}"/>
<glyph d="M45 233l-1 123q49 77 127 80q45 0 106 -33q54 -28 84 -28q67 0 120 79q6 8 10 15l1 -130q-45 -81 -132 -82q-44 0 -107 32q-54 27 -85 27q-71 -1 -123 -83z" glyph-name="asciitilde" unicode="~"/>
<glyph glyph-name="uni00A0" horiz-adv-x="201" unicode=" "/>
<glyph d="M236 495v-138h-150v138h150zM213 293l38 -444h-180l38 444h104z" glyph-name="exclamdown" horiz-adv-x="322" unicode="¡"/>
<glyph d="M208 -118l30 196q-116 34 -154 148q-16 47 -16 102q0 144 98 215q64 45 151 45l25 161h77l-26 -168q40 -8 68 -20l-12 -125q-36 20 -74 25l-42 -270h15q53 1 110 38l-9 -130q-66 -32 -125 -32h-10l-28 -185h-78zM207 328q1 -80 52 -115l38 246q-89 -21 -90 -131z" glyph-name="cent" unicode="¢"/>
<glyph d="M374 -43q-59 0 -170 22q-57 12 -96 15q-55 3 -57 3l-14 86q83 41 104 111q7 23 10 51q1 11 1 29h-91l1 102h82q-6 54 -6 77q0 135 110 183q52 22 120 22q43 0 101 -16l12 -127q-45 15 -94 15q-101 -2 -102 -90q0 -21 7 -64h156v-102h-149q0 -19 -3 -35q-13 -90 -86 -129 q13 -1 103 -17q39 -7 70 -7q62 1 108 34l-11 -137q-35 -26 -106 -26z" glyph-name="sterling" unicode="£"/>
<glyph d="M55 149l72 72q-31 54 -31 111q1 59 31 112l-72 72l89 89l71 -71q56 30 112 30q57 0 112 -30l72 71l89 -89l-72 -72q30 -53 30 -112q-1 -59 -30 -111l72 -72l-89 -89l-72 72q-54 -31 -112 -31q-59 1 -112 31l-71 -72zM220 332q0 -58 49 -90q27 -17 58 -17q58 0 90 48 q18 27 18 59q0 58 -48 90q-28 18 -60 18q-57 0 -89 -48q-18 -28 -18 -60z" glyph-name="currency" horiz-adv-x="655" unicode="¤"/>
<glyph d="M40 125v87h162v52h-162v87h118l-161 295h151l129 -241l128 241h144l-160 -295h117v-87h-161v-52h161v-87h-161v-125h-143v125h-162z" glyph-name="yen" unicode="¥"/>
<glyph d="M76 289v461h98v-461h-98zM76 -250v461h98v-461h-98z" glyph-name="brokenbar" horiz-adv-x="250" unicode="¦"/>
<glyph d="M252 -215q-111 0 -186 40l-8 139q92 -52 200 -52q97 1 98 58q0 32 -35 54q-12 8 -31 17l-74 36q-134 66 -172 175q-19 56 -19 129q0 172 107 268q85 75 209 75q100 0 175 -30l-13 -135q-81 39 -179 39q-70 0 -81 -42q-2 -7 -2 -13q0 -33 25 -51q14 -10 41 -23l77 -38 q151 -75 178 -214q7 -36 7 -76q0 -203 -125 -297q-80 -59 -192 -59zM427 98q5 27 5 49q-1 96 -93 148l-93 53q-61 35 -78 77q-7 -24 -7 -59q0 -95 88 -144q3 -1 4 -2l85 -48q63 -35 82 -63q4 -6 7 -11z" glyph-name="section" horiz-adv-x="593" unicode="§"/>
<glyph d="M93 581v120h130v-120h-130zM277 581v120h130v-120h-130z" glyph-name="dieresis" horiz-adv-x="500" unicode="¨"/>
<glyph d="M412 -68q-180 0 -284 121q-90 106 -90 269q0 190 118 298q101 92 256 92q179 0 283 -120q91 -107 91 -270q0 -189 -118 -297q-101 -93 -256 -93zM412 47q149 0 213 116q36 66 36 159q0 167 -107 237q-59 38 -142 38q-152 0 -215 -119q-34 -65 -34 -156q0 -166 106 -236 q60 -39 143 -39zM427 135q-121 0 -160 100q-15 39 -15 90q0 121 84 167q40 22 92 22q60 0 96 -17l-13 -90q-36 18 -73 18q-82 -2 -83 -100q0 -79 57 -96q14 -4 28 -4q49 1 84 23l-9 -92q-32 -21 -88 -21z" glyph-name="copyright" horiz-adv-x="824" unicode="©"/>
<glyph d="M133 287q-80 0 -98 67q-5 17 -5 36q0 87 119 115h2l63 14v5q-2 46 -57 47q-60 -1 -107 -37l-10 81q51 38 128 38q108 0 136 -79q9 -25 9 -53q0 -11 -1 -56q-2 -65 -2 -86q0 -44 17 -81l-92 -9q-8 15 -13 43q-30 -44 -89 -45zM161 361q39 0 48 41q1 7 1 13l2 33l-37 -5 q-51 -10 -53 -44q0 -31 29 -37q5 -1 10 -1z" glyph-name="ordfeminine" horiz-adv-x="365" unicode="ª"/>
<glyph d="M120 61l-105 185v2l111 186h121l-106 -184l106 -189h-127zM327 61l-105 185v2l111 186h121l-106 -184l106 -189h-127z" glyph-name="guillemotleft" horiz-adv-x="465" unicode="«"/>
<glyph d="M349 70v227h-306v117h442v-344h-136z" glyph-name="logicalnot" unicode="¬"/>
<glyph d="M50 201v110l234 11v-110z" glyph-name="uni00AD" horiz-adv-x="334" unicode="­"/>
<glyph d="M412 -68q-180 0 -284 121q-90 106 -90 269q0 190 118 298q101 92 256 92q179 0 283 -120q91 -107 91 -270q0 -189 -118 -297q-101 -93 -256 -93zM412 47q149 0 213 116q36 66 36 159q0 167 -107 237q-59 38 -142 38q-152 0 -215 -119q-34 -65 -34 -156q0 -166 106 -236 q60 -39 143 -39zM371 273v-129h-96v362h134q107 0 142 -66q13 -24 13 -53q-2 -72 -65 -92q12 -10 30 -48l45 -103h-100l-36 85q-16 37 -32 42q-6 2 -11 2h-24zM371 347h31q58 1 59 39q-2 38 -59 39h-31v-78z" glyph-name="registered" horiz-adv-x="824" unicode="®"/>
<glyph d="M119 594v90h262v-90h-262z" glyph-name="macron" horiz-adv-x="500" unicode="¯"/>
<glyph d="M192 291q-95 0 -138 78q-25 45 -25 105q0 97 66 149q42 33 97 33q98 0 141 -80q23 -44 23 -102q0 -98 -67 -150q-42 -33 -97 -33zM192 379q52 2 53 95q-1 93 -53 94q-51 -2 -52 -94q1 -94 52 -95z" glyph-name="degree" horiz-adv-x="385" unicode="°"/>
<glyph d="M70 384v107h138v155h123v-155h139v-107h-139v-169h-123v169h-138zM79 0v107h380v-107h-380z" glyph-name="plusminus" unicode="±"/>
<glyph d="M25 290l-4 44q100 87 122 134q10 23 10 47q-7 48 -54 52q-35 -1 -64 -21l-10 84q37 23 98 23q90 0 121 -63q12 -25 12 -55q0 -70 -61 -131q-15 -15 -34 -31h124l-8 -83h-252z" glyph-name="twosuperior" horiz-adv-x="303" unicode="²"/>
<glyph d="M122 282q-49 0 -86 22l-6 78q43 -23 88 -23q51 2 52 40q0 30 -35 36q-7 1 -14 1q-20 0 -38 -4l-11 41l69 90h-110l7 83h216l3 -43l-87 -110q74 -8 90 -68q3 -13 3 -27q0 -81 -79 -107q-28 -9 -62 -9z" glyph-name="threesuperior" horiz-adv-x="290" unicode="³"/>
<glyph d="M188 567l47 81q24 38 36 77l125 -4q-14 -43 -56 -99l-40 -55h-112z" glyph-name="acute" horiz-adv-x="500" unicode="´"/>
<glyph d="M-15 -234l-9 115q60 16 76 52q11 26 11 76v486h136v-295q1 -86 61 -87q68 0 86 115q6 37 6 82v185h136v-341q0 -79 14 -148l-128 -14q-14 46 -14 89q-39 -82 -121 -92q-23 -1 -40 1q0 -16 -1 -22q-6 -128 -101 -174q-45 -21 -112 -28z" glyph-name="mu" horiz-adv-x="553" unicode="µ"/>
<glyph d="M221 -234l-9 114q61 16 76 52q11 25 11 76v76h-22q-138 0 -197 95q-32 54 -32 127q0 174 137 227q51 20 118 20h309v-553h-117v452h-60v-461q0 -139 -89 -190q-48 -26 -125 -35z" glyph-name="paragraph" horiz-adv-x="649" unicode="¶"/>
<glyph d="M43 233v132h131v-132h-131z" glyph-name="periodcentered" horiz-adv-x="217" unicode="·"/>
<glyph d="M238 -233q-44 0 -76 15l-5 77q40 -18 73 -18q36 2 37 29q0 30 -49 40q-12 2 -24 3l29 101l89 -11l-20 -46q66 -25 67 -88q0 -68 -64 -92q-26 -10 -57 -10z" glyph-name="cedilla" horiz-adv-x="500" unicode="¸"/>
<glyph d="M207 290h-94v254l-74 -19l-6 77l115 46h59v-358z" glyph-name="onesuperior" horiz-adv-x="278" unicode="¹"/>
<glyph d="M196 287q-98 0 -141 81q-23 44 -23 102q0 111 75 159q39 24 89 24q98 0 140 -81q23 -44 23 -102q0 -113 -75 -159q-38 -24 -88 -24zM196 373q61 2 62 97q-5 93 -62 97q-61 -2 -62 -97q1 -96 62 -97z" glyph-name="ordmasculine" horiz-adv-x="392" unicode="º"/>
<glyph d="M138 434l105 -185v-2l-111 -186h-121l106 184l-106 189h127zM345 434l105 -185v-2l-111 -186h-121l106 184l-106 189h127z" glyph-name="guillemotright" horiz-adv-x="465" unicode="»"/>
<glyph d="M207 290h-94v254l-74 -19l-6 77l115 46h59v-358zM201 0h-111l368 646h112zM529 0v64h-156l-4 49l143 242l102 3v-220h42l-7 -74h-35v-64h-85zM464 138h65v116z" glyph-name="onequarter" horiz-adv-x="685" unicode="¼"/>
<glyph d="M207 290h-94v254l-74 -19l-6 77l115 46h59v-358zM201 0h-111l368 646h112zM430 0l-4 44q100 87 122 134q10 23 10 47q-7 48 -54 52q-35 -1 -64 -21l-10 84q37 23 98 23q90 0 121 -63q12 -25 12 -55q0 -70 -61 -131q-15 -15 -34 -31h124l-8 -83h-252z" glyph-name="onehalf" horiz-adv-x="707" unicode="½"/>
<glyph d="M122 282q-49 0 -86 22l-6 78q43 -23 88 -23q51 2 52 40q0 30 -35 36q-7 1 -14 1q-20 0 -38 -4l-11 41l69 90h-110l7 83h216l3 -43l-87 -110q74 -8 90 -68q3 -13 3 -27q0 -81 -79 -107q-28 -9 -62 -9zM248 0h-111l368 646h112zM569 0v64h-156l-4 49l143 242l102 3v-220h42 l-7 -74h-35v-64h-85zM504 138h65v116z" glyph-name="threequarters" horiz-adv-x="725" unicode="¾"/>
<glyph d="M322 494v-138h-150v138h150zM308 287l9 -142q-103 -42 -120 -89q-5 -14 -5 -29q2 -69 92 -70q57 0 107 28l-10 -123q-68 -26 -136 -26q-120 0 -170 78q-26 41 -26 96q0 121 112 176q11 5 23 10l7 91h117z" glyph-name="questiondown" horiz-adv-x="423" unicode="¿"/>
<glyph d="M237 691l-150 124h149l127 -124h-126zM10 0l220 644l144 7l224 -651h-144l-40 125h-227l-40 -125h-137zM224 245h152l-76 237z" glyph-name="Agrave" horiz-adv-x="609" unicode="À"/>
<glyph d="M234 691l127 124h149l-149 -124h-127zM10 0l220 644l144 7l224 -651h-144l-40 125h-227l-40 -125h-137zM224 245h152l-76 237z" glyph-name="Aacute" horiz-adv-x="609" unicode="Á"/>
<glyph d="M143 691l91 129l125 1l92 -130h-110l-46 58l-46 -58h-106zM10 0l220 644l144 7l224 -651h-144l-40 125h-227l-40 -125h-137zM224 245h152l-76 237z" glyph-name="Acircumflex" horiz-adv-x="609" unicode="Â"/>
<glyph d="M132 692q3 129 91 130q28 0 73 -21q23 -11 37 -11q24 2 26 42l81 -6q-1 -110 -67 -127q-14 -3 -30 -3q-25 0 -70 23q-21 11 -33 11q-23 -2 -25 -38h-83zM10 0l220 644l144 7l224 -651h-144l-40 125h-227l-40 -125h-137zM224 245h152l-76 237z" glyph-name="Atilde" horiz-adv-x="609" unicode="Ã"/>
<glyph d="M135 697v113h134v-113h-134zM325 697v113h134v-113h-134zM10 0l220 644l144 7l224 -651h-144l-40 125h-227l-40 -125h-137zM224 245h152l-76 237z" glyph-name="Adieresis" horiz-adv-x="609" unicode="Ä"/>
<glyph d="M297 678q-78 0 -107 55q-12 23 -12 50q0 58 53 89q30 17 66 17q84 0 109 -62q8 -20 8 -44q0 -59 -53 -89q-29 -16 -64 -16zM297 742q32 0 40 29q1 6 1 12q0 32 -29 40q-6 1 -12 1q-32 0 -39 -29q-2 -6 -2 -12q0 -31 28 -39q7 -2 13 -2zM10 0l220 644l144 7l224 -651h-144 l-40 125h-227l-40 -125h-137zM224 245h152l-76 237z" glyph-name="Aring" horiz-adv-x="609" unicode="Å"/>
<glyph d="M-21 0l290 646h504v-132h-284v-118h258v-124h-258v-140h292l-12 -132h-421v128h-168l-57 -128h-144zM229 247h119v269z" glyph-name="AE" horiz-adv-x="824" unicode="Æ"/>
<glyph d="M292 -230q-45 0 -83 16l-5 74q40 -18 73 -18q36 2 37 28q0 36 -59 43q-7 1 -14 1l22 78q-170 27 -210 213q-12 54 -12 118q0 197 117 284q71 52 172 52q82 0 139 -28l-18 -136q-53 27 -114 27q-148 -2 -149 -199q0 -169 113 -195q19 -4 40 -4q65 1 125 38l-12 -146 q-48 -24 -114 -29l-11 -32q73 -19 74 -88q0 -65 -60 -88q-23 -9 -51 -9z" glyph-name="Ccedilla" horiz-adv-x="506" unicode="Ç"/>
<glyph d="M241 691l-150 124h149l127 -124h-126zM75 0v646h425v-132h-284v-118h258v-124h-258v-140h292l-12 -132h-421z" glyph-name="Egrave" horiz-adv-x="551" unicode="È"/>
<glyph d="M231 691l127 124h149l-149 -124h-127zM75 0v646h425v-132h-284v-118h258v-124h-258v-140h292l-12 -132h-421z" glyph-name="Eacute" horiz-adv-x="551" unicode="É"/>
<glyph d="M145 691l91 129l125 1l92 -130h-110l-46 58l-46 -58h-106zM75 0v646h425v-132h-284v-118h258v-124h-258v-140h292l-12 -132h-421z" glyph-name="Ecircumflex" horiz-adv-x="551" unicode="Ê"/>
<glyph d="M137 697v113h134v-113h-134zM327 697v113h134v-113h-134zM75 0v646h425v-132h-284v-118h258v-124h-258v-140h292l-12 -132h-421z" glyph-name="Edieresis" horiz-adv-x="551" unicode="Ë"/>
<glyph d="M85 691l-150 124h149l127 -124h-126zM75 0v646h143v-646h-143z" glyph-name="Igrave" horiz-adv-x="293" unicode="Ì"/>
<glyph d="M82 691l127 124h149l-149 -124h-127zM75 0v646h143v-646h-143z" glyph-name="Iacute" horiz-adv-x="293" unicode="Í"/>
<glyph d="M-7 691l91 129l125 1l92 -130h-110l-46 58l-46 -58h-106zM75 0v646h143v-646h-143z" glyph-name="Icircumflex" horiz-adv-x="293" unicode="Î"/>
<glyph d="M-15 697v113h134v-113h-134zM175 697v113h134v-113h-134zM75 0v646h143v-646h-143z" glyph-name="Idieresis" horiz-adv-x="293" unicode="Ï"/>
<glyph d="M75 0v273h-49v105h49v268h156q187 0 280 -116q65 -83 65 -207q0 -195 -142 -276q-83 -47 -201 -47h-158zM218 134h33q166 0 176 168q1 11 1 21q0 121 -85 168q-40 21 -92 21h-33v-134h99v-105h-99v-139z" glyph-name="Eth" horiz-adv-x="615" unicode="Ð"/>
<glyph d="M188 692q3 129 91 130q28 0 73 -21q23 -11 37 -11q24 2 26 42l81 -6q-1 -110 -67 -127q-14 -3 -30 -3q-25 0 -70 23q-21 11 -33 11q-23 -2 -25 -38h-83zM75 0v646h129l242 -386v386h128v-643l-118 -7l-253 402v-398h-128z" glyph-name="Ntilde" horiz-adv-x="649" unicode="Ñ"/>
<glyph d="M257 691l-150 124h149l127 -124h-126zM317 -13q-156 0 -228 126q-48 84 -48 210q0 186 106 276q70 60 170 60q154 0 227 -125q48 -85 48 -211q0 -186 -105 -276q-71 -60 -170 -60zM317 124q113 0 126 157q2 20 2 42q0 181 -107 197q-11 2 -21 2q-127 -2 -128 -199 q10 -191 128 -199z" glyph-name="Ograve" horiz-adv-x="633" unicode="Ò"/>
<glyph d="M247 691l127 124h149l-149 -124h-127zM317 -13q-156 0 -228 126q-48 84 -48 210q0 186 106 276q70 60 170 60q154 0 227 -125q48 -85 48 -211q0 -186 -105 -276q-71 -60 -170 -60zM317 124q113 0 126 157q2 20 2 42q0 181 -107 197q-11 2 -21 2q-127 -2 -128 -199 q10 -191 128 -199z" glyph-name="Oacute" horiz-adv-x="633" unicode="Ó"/>
<glyph d="M161 691l91 129l125 1l92 -130h-110l-46 58l-46 -58h-106zM317 -13q-156 0 -228 126q-48 84 -48 210q0 186 106 276q70 60 170 60q154 0 227 -125q48 -85 48 -211q0 -186 -105 -276q-71 -60 -170 -60zM317 124q113 0 126 157q2 20 2 42q0 181 -107 197q-11 2 -21 2 q-127 -2 -128 -199q10 -191 128 -199z" glyph-name="Ocircumflex" horiz-adv-x="633" unicode="Ô"/>
<glyph d="M154 692q3 129 91 130q28 0 73 -21q23 -11 37 -11q24 2 26 42l81 -6q-1 -110 -67 -127q-14 -3 -30 -3q-25 0 -70 23q-21 11 -33 11q-23 -2 -25 -38h-83zM317 -13q-156 0 -228 126q-48 84 -48 210q0 186 106 276q70 60 170 60q154 0 227 -125q48 -85 48 -211 q0 -186 -105 -276q-71 -60 -170 -60zM317 124q113 0 126 157q2 20 2 42q0 181 -107 197q-11 2 -21 2q-127 -2 -128 -199q10 -191 128 -199z" glyph-name="Otilde" horiz-adv-x="633" unicode="Õ"/>
<glyph d="M153 697v113h134v-113h-134zM343 697v113h134v-113h-134zM317 -13q-156 0 -228 126q-48 84 -48 210q0 186 106 276q70 60 170 60q154 0 227 -125q48 -85 48 -211q0 -186 -105 -276q-71 -60 -170 -60zM317 124q113 0 126 157q2 20 2 42q0 181 -107 197q-11 2 -21 2 q-127 -2 -128 -199q10 -191 128 -199z" glyph-name="Odieresis" horiz-adv-x="633" unicode="Ö"/>
<glyph d="M46 188l143 156l-141 154l90 79l132 -144l130 142l88 -75l-139 -153l146 -158l-89 -80l-138 149l-136 -148z" glyph-name="multiply" unicode="×"/>
<glyph d="M13 -50l89 142q-61 88 -61 231q0 186 106 276q70 60 170 60q70 0 124 -27l40 65h128l-84 -135q67 -88 67 -239q0 -186 -105 -276q-71 -60 -170 -60q-75 0 -134 32l-43 -69h-127zM197 243l168 268q-23 11 -48 11q-127 -2 -128 -199q0 -44 8 -80zM317 124q113 0 126 157 q2 20 2 42q0 55 -12 93l-174 -276q24 -16 58 -16z" glyph-name="Oslash" horiz-adv-x="633" unicode="Ø"/>
<glyph d="M258 691l-150 124h149l127 -124h-126zM312 -13q-176 0 -230 143q-21 55 -21 128v388h144v-367q1 -153 109 -154q103 0 108 139v16v366h143v-386q0 -176 -119 -242q-57 -31 -134 -31z" glyph-name="Ugrave" horiz-adv-x="625" unicode="Ù"/>
<glyph d="M248 691l127 124h149l-149 -124h-127zM312 -13q-176 0 -230 143q-21 55 -21 128v388h144v-367q1 -153 109 -154q103 0 108 139v16v366h143v-386q0 -176 -119 -242q-57 -31 -134 -31z" glyph-name="Uacute" horiz-adv-x="625" unicode="Ú"/>
<glyph d="M162 691l91 129l125 1l92 -130h-110l-46 58l-46 -58h-106zM312 -13q-176 0 -230 143q-21 55 -21 128v388h144v-367q1 -153 109 -154q103 0 108 139v16v366h143v-386q0 -176 -119 -242q-57 -31 -134 -31z" glyph-name="Ucircumflex" horiz-adv-x="625" unicode="Û"/>
<glyph d="M154 697v113h134v-113h-134zM344 697v113h134v-113h-134zM312 -13q-176 0 -230 143q-21 55 -21 128v388h144v-367q1 -153 109 -154q103 0 108 139v16v366h143v-386q0 -176 -119 -242q-57 -31 -134 -31z" glyph-name="Udieresis" horiz-adv-x="625" unicode="Ü"/>
<glyph d="M207 691l127 124h149l-149 -124h-127zM198 0v271l-205 375h151l129 -241l128 241h144l-204 -376v-270h-143z" glyph-name="Yacute" horiz-adv-x="542" unicode="Ý"/>
<glyph d="M75 0v646h143v-98h61q168 0 230 -105q29 -50 29 -117q0 -139 -113 -194q-59 -28 -139 -28h-68v-104h-143zM218 233h60q111 2 112 92q-2 92 -112 93h-60v-185z" glyph-name="Thorn" horiz-adv-x="560" unicode="Þ"/>
<glyph d="M418 -12q-75 0 -136 31l-7 120q75 -41 144 -41q66 1 67 43q0 26 -33 40q-9 4 -19 7l-39 13q-96 35 -112 103q-4 17 -4 36q0 58 48 104q5 4 14 13q40 36 47 61q4 13 4 26q0 47 -53 61q-16 4 -35 4q-72 0 -84 -61q-3 -17 -3 -37v-511h-136v385h-49l-5 89l37 10q19 10 20 34 v8q0 111 90 164q56 32 133 32q141 0 197 -80q28 -40 28 -93q0 -72 -60 -119q-6 -5 -19 -15q-37 -26 -43 -44q-3 -7 -3 -14q0 -26 29 -41q10 -4 23 -9l43 -17q93 -30 111 -96q6 -21 6 -46q0 -105 -98 -143q-44 -17 -103 -17z" glyph-name="germandbls" horiz-adv-x="639" unicode="ß"/>
<glyph d="M176 567l-47 63q-37 54 -49 91l125 4q10 -35 36 -77l47 -81h-112zM180 -13q-101 0 -135 78q-12 30 -12 67q0 113 143 155l30 8l91 20v9q-2 63 -75 64q-90 0 -161 -43l-13 117q78 45 179 45q161 0 197 -119q9 -31 9 -68q0 -6 -1 -29q-1 -43 -1 -66v-109q0 -61 23 -113 l-126 -13q-12 24 -18 63q-45 -64 -130 -66zM217 89q50 0 70 49q8 20 8 44v36l-58 -10q-67 -11 -75 -48q-2 -8 -2 -16q0 -45 41 -53q8 -2 16 -2z" glyph-name="agrave" horiz-adv-x="490" unicode="à"/>
<glyph d="M164 567l47 81q24 38 36 77l125 -4q-14 -43 -56 -99l-40 -55h-112zM180 -13q-101 0 -135 78q-12 30 -12 67q0 113 143 155l30 8l91 20v9q-2 63 -75 64q-90 0 -161 -43l-13 117q78 45 179 45q161 0 197 -119q9 -31 9 -68q0 -6 -1 -29q-1 -43 -1 -66v-109q0 -61 23 -113 l-126 -13q-12 24 -18 63q-45 -64 -130 -66zM217 89q50 0 70 49q8 20 8 44v36l-58 -10q-67 -11 -75 -48q-2 -8 -2 -16q0 -45 41 -53q8 -2 16 -2z" glyph-name="aacute" horiz-adv-x="490" unicode="á"/>
<glyph d="M73 565l91 148l131 4l85 -152h-115l-39 70l-39 -70h-114zM180 -13q-101 0 -135 78q-12 30 -12 67q0 113 143 155l30 8l91 20v9q-2 63 -75 64q-90 0 -161 -43l-13 117q78 45 179 45q161 0 197 -119q9 -31 9 -68q0 -6 -1 -29q-1 -43 -1 -66v-109q0 -61 23 -113l-126 -13 q-12 24 -18 63q-45 -64 -130 -66zM217 89q50 0 70 49q8 20 8 44v36l-58 -10q-67 -11 -75 -48q-2 -8 -2 -16q0 -45 41 -53q8 -2 16 -2z" glyph-name="acircumflex" horiz-adv-x="490" unicode="â"/>
<glyph d="M88 573q1 128 81 129q23 0 60 -18q18 -8 30 -8q20 2 20 39l94 -6q0 -112 -67 -129q-11 -3 -22 -3q-25 0 -62 20q-16 8 -25 8q-16 0 -19 -26v-6h-90zM180 -13q-101 0 -135 78q-12 30 -12 67q0 113 143 155l30 8l91 20v9q-2 63 -75 64q-90 0 -161 -43l-13 117q78 45 179 45 q161 0 197 -119q9 -31 9 -68q0 -6 -1 -29q-1 -43 -1 -66v-109q0 -61 23 -113l-126 -13q-12 24 -18 63q-45 -64 -130 -66zM217 89q50 0 70 49q8 20 8 44v36l-58 -10q-67 -11 -75 -48q-2 -8 -2 -16q0 -45 41 -53q8 -2 16 -2z" glyph-name="atilde" horiz-adv-x="490" unicode="ã"/>
<glyph d="M69 581v120h130v-120h-130zM253 581v120h130v-120h-130zM180 -13q-101 0 -135 78q-12 30 -12 67q0 113 143 155l30 8l91 20v9q-2 63 -75 64q-90 0 -161 -43l-13 117q78 45 179 45q161 0 197 -119q9 -31 9 -68q0 -6 -1 -29q-1 -43 -1 -66v-109q0 -61 23 -113l-126 -13 q-12 24 -18 63q-45 -64 -130 -66zM217 89q50 0 70 49q8 20 8 44v36l-58 -10q-67 -11 -75 -48q-2 -8 -2 -16q0 -45 41 -53q8 -2 16 -2z" glyph-name="adieresis" horiz-adv-x="490" unicode="ä"/>
<glyph d="M237 538q-101 0 -118 82q-3 16 -3 32q0 73 62 101q27 12 59 12q112 0 119 -99q1 -7 1 -14q0 -75 -62 -103q-26 -11 -58 -11zM237 603q35 0 42 36q1 7 1 13q0 40 -33 46q-5 1 -10 1q-35 0 -42 -35q-1 -6 -1 -12q0 -40 32 -48q6 -1 11 -1zM180 -13q-101 0 -135 78 q-12 30 -12 67q0 113 143 155l30 8l91 20v9q-2 63 -75 64q-90 0 -161 -43l-13 117q78 45 179 45q161 0 197 -119q9 -31 9 -68q0 -6 -1 -29q-1 -43 -1 -66v-109q0 -61 23 -113l-126 -13q-12 24 -18 63q-45 -64 -130 -66zM217 89q50 0 70 49q8 20 8 44v36l-58 -10 q-67 -11 -75 -48q-2 -8 -2 -16q0 -45 41 -53q8 -2 16 -2z" glyph-name="aring" horiz-adv-x="490" unicode="å"/>
<glyph d="M180 -13q-101 0 -135 78q-12 30 -12 67q0 113 143 155l30 8l91 20v9q-2 63 -75 64q-90 0 -161 -43l-13 117q78 45 179 45q103 -1 150 -57q53 57 143 57q157 0 191 -162q9 -43 9 -93q0 -26 -1 -37l-288 -8q7 -91 105 -98q9 -1 17 -1q93 1 163 41l-9 -121q-65 -41 -165 -41 q-137 1 -192 88q-53 -82 -151 -87q-10 -1 -19 -1zM433 304h162q-6 90 -79 91q-60 0 -78 -62q-4 -14 -5 -29zM217 89q50 0 70 49q8 20 8 44v36l-58 -10q-67 -11 -75 -48q-2 -8 -2 -16q0 -45 41 -53q8 -2 16 -2z" glyph-name="ae" horiz-adv-x="759" unicode="æ"/>
<glyph d="M225 -233q-44 0 -75 15l-6 77q41 -18 74 -18q36 2 37 29q0 30 -50 40q-12 2 -24 3l24 81q-130 30 -161 168q-9 40 -9 85q0 166 109 230q53 30 125 30q70 0 116 -19l-12 -125q-39 20 -81 20q-118 -2 -119 -136q0 -107 81 -130q20 -6 42 -6q49 1 92 30l-8 -130 q-44 -21 -87 -23l-13 -31q66 -25 67 -88q0 -68 -65 -92q-26 -10 -57 -10z" glyph-name="ccedilla" horiz-adv-x="418" unicode="ç"/>
<glyph d="M200 567l-47 63q-37 54 -49 91l125 4q10 -35 36 -77l47 -81h-112zM282 -13q-170 0 -225 134q-22 55 -22 126q0 157 97 224q54 36 128 36q157 0 191 -162q9 -43 9 -93q0 -26 -1 -37l-288 -8q7 -91 105 -98q9 -1 17 -1q93 1 163 41l-9 -121q-65 -41 -165 -41zM173 304h162 q-6 90 -79 91q-60 0 -78 -62q-4 -14 -5 -29z" glyph-name="egrave" horiz-adv-x="499" unicode="è"/>
<glyph d="M188 567l47 81q24 38 36 77l125 -4q-14 -43 -56 -99l-40 -55h-112zM282 -13q-170 0 -225 134q-22 55 -22 126q0 157 97 224q54 36 128 36q157 0 191 -162q9 -43 9 -93q0 -26 -1 -37l-288 -8q7 -91 105 -98q9 -1 17 -1q93 1 163 41l-9 -121q-65 -41 -165 -41zM173 304h162 q-6 90 -79 91q-60 0 -78 -62q-4 -14 -5 -29z" glyph-name="eacute" horiz-adv-x="499" unicode="é"/>
<glyph d="M97 565l91 148l131 4l85 -152h-115l-39 70l-39 -70h-114zM282 -13q-170 0 -225 134q-22 55 -22 126q0 157 97 224q54 36 128 36q157 0 191 -162q9 -43 9 -93q0 -26 -1 -37l-288 -8q7 -91 105 -98q9 -1 17 -1q93 1 163 41l-9 -121q-65 -41 -165 -41zM173 304h162 q-6 90 -79 91q-60 0 -78 -62q-4 -14 -5 -29z" glyph-name="ecircumflex" horiz-adv-x="499" unicode="ê"/>
<glyph d="M93 581v120h130v-120h-130zM277 581v120h130v-120h-130zM282 -13q-170 0 -225 134q-22 55 -22 126q0 157 97 224q54 36 128 36q157 0 191 -162q9 -43 9 -93q0 -26 -1 -37l-288 -8q7 -91 105 -98q9 -1 17 -1q93 1 163 41l-9 -121q-65 -41 -165 -41zM173 304h162 q-6 90 -79 91q-60 0 -78 -62q-4 -14 -5 -29z" glyph-name="edieresis" horiz-adv-x="499" unicode="ë"/>
<glyph d="M82 567l-47 63q-37 54 -49 91l125 4q10 -35 36 -77l47 -81h-112zM64 0v495h136v-495h-136z" glyph-name="igrave" horiz-adv-x="264" unicode="ì"/>
<glyph d="M70 567l47 81q24 38 36 77l125 -4q-14 -43 -56 -99l-40 -55h-112zM64 0v495h136v-495h-136z" glyph-name="iacute" horiz-adv-x="264" unicode="í"/>
<glyph d="M-21 565l91 148l131 4l85 -152h-115l-39 70l-39 -70h-114zM64 0v495h136v-495h-136z" glyph-name="icircumflex" horiz-adv-x="264" unicode="î"/>
<glyph d="M-25 581v120h130v-120h-130zM159 581v120h130v-120h-130zM64 0v495h136v-495h-136z" glyph-name="idieresis" horiz-adv-x="264" unicode="ï"/>
<glyph d="M265 -13q-128 0 -190 100q-40 66 -40 160q0 155 97 222q54 37 129 37q22 0 38 -9q-13 33 -42 74l-113 -30v84l58 16q-39 44 -61 64l136 9q33 -31 44 -43l111 29v-84l-52 -14q115 -151 115 -355q0 -148 -92 -217q-58 -43 -138 -43zM265 104q92 2 93 143q0 127 -74 142 q-10 2 -19 2q-91 -2 -92 -144q0 -133 81 -142q6 -1 11 -1z" glyph-name="eth" horiz-adv-x="530" unicode="ð"/>
<glyph d="M142 573q1 128 81 129q23 0 60 -18q18 -8 30 -8q20 2 20 39l94 -6q0 -112 -67 -129q-11 -3 -22 -3q-25 0 -62 20q-16 8 -25 8q-16 0 -19 -26v-6h-90zM65 0v329q0 98 -7 163l131 6q5 -30 5 -83v-7q25 79 104 95q18 4 36 4q123 0 152 -121q7 -32 7 -70v-316h-136v286 q-4 94 -66 97q-67 0 -85 -99q-5 -30 -5 -67v-217h-136z" glyph-name="ntilde" horiz-adv-x="552" unicode="ñ"/>
<glyph d="M212 567l-47 63q-37 54 -49 91l125 4q10 -35 36 -77l47 -81h-112zM263 -13q-128 0 -189 101q-39 66 -39 159q0 149 93 218q56 42 135 42q130 0 190 -102q39 -66 39 -158q0 -149 -93 -218q-57 -42 -136 -42zM263 112q85 0 90 122v13q0 121 -73 134q-8 2 -17 2 q-78 0 -89 -105q-1 -15 -1 -31q0 -116 69 -133q11 -2 21 -2z" glyph-name="ograve" horiz-adv-x="526" unicode="ò"/>
<glyph d="M200 567l47 81q24 38 36 77l125 -4q-14 -43 -56 -99l-40 -55h-112zM263 -13q-128 0 -189 101q-39 66 -39 159q0 149 93 218q56 42 135 42q130 0 190 -102q39 -66 39 -158q0 -149 -93 -218q-57 -42 -136 -42zM263 112q85 0 90 122v13q0 121 -73 134q-8 2 -17 2 q-78 0 -89 -105q-1 -15 -1 -31q0 -116 69 -133q11 -2 21 -2z" glyph-name="oacute" horiz-adv-x="526" unicode="ó"/>
<glyph d="M109 565l91 148l131 4l85 -152h-115l-39 70l-39 -70h-114zM263 -13q-128 0 -189 101q-39 66 -39 159q0 149 93 218q56 42 135 42q130 0 190 -102q39 -66 39 -158q0 -149 -93 -218q-57 -42 -136 -42zM263 112q85 0 90 122v13q0 121 -73 134q-8 2 -17 2q-78 0 -89 -105 q-1 -15 -1 -31q0 -116 69 -133q11 -2 21 -2z" glyph-name="ocircumflex" horiz-adv-x="526" unicode="ô"/>
<glyph d="M124 573q1 128 81 129q23 0 60 -18q18 -8 30 -8q20 2 20 39l94 -6q0 -112 -67 -129q-11 -3 -22 -3q-25 0 -62 20q-16 8 -25 8q-16 0 -19 -26v-6h-90zM263 -13q-128 0 -189 101q-39 66 -39 159q0 149 93 218q56 42 135 42q130 0 190 -102q39 -66 39 -158q0 -149 -93 -218 q-57 -42 -136 -42zM263 112q85 0 90 122v13q0 121 -73 134q-8 2 -17 2q-78 0 -89 -105q-1 -15 -1 -31q0 -116 69 -133q11 -2 21 -2z" glyph-name="otilde" horiz-adv-x="526" unicode="õ"/>
<glyph d="M105 581v120h130v-120h-130zM289 581v120h130v-120h-130zM263 -13q-128 0 -189 101q-39 66 -39 159q0 149 93 218q56 42 135 42q130 0 190 -102q39 -66 39 -158q0 -149 -93 -218q-57 -42 -136 -42zM263 112q85 0 90 122v13q0 121 -73 134q-8 2 -17 2q-78 0 -89 -105 q-1 -15 -1 -31q0 -116 69 -133q11 -2 21 -2z" glyph-name="odieresis" horiz-adv-x="526" unicode="ö"/>
<glyph d="M198 467v137h143v-137h-143zM64 281v116h411v-116h-411zM198 74v137h143v-137h-143z" glyph-name="divide" unicode="÷"/>
<glyph d="M32 -50l66 107q-63 70 -63 190q0 149 93 218q56 42 135 42q56 0 97 -19l34 57h97l-64 -104q65 -72 65 -194q0 -149 -93 -218q-57 -42 -136 -42q-56 0 -101 21l-35 -58h-95zM180 192l113 186q-16 5 -30 5q-78 0 -89 -105q-1 -15 -1 -31q0 -33 7 -55zM263 112q85 0 90 122 v13q0 37 -7 61l-116 -189q15 -7 33 -7z" glyph-name="oslash" horiz-adv-x="526" unicode="ø"/>
<glyph d="M222 567l-47 63q-37 54 -49 91l125 4q10 -35 36 -77l47 -81h-112zM212 -13q-107 0 -141 96q-13 38 -13 86v326h136v-295q1 -86 61 -87q68 0 86 115q6 37 6 82v185h136v-341q0 -79 14 -148l-128 -14q-14 46 -14 89q-44 -93 -143 -94z" glyph-name="ugrave" horiz-adv-x="549" unicode="ù"/>
<glyph d="M209 567l47 81q24 38 36 77l125 -4q-14 -43 -56 -99l-40 -55h-112zM212 -13q-107 0 -141 96q-13 38 -13 86v326h136v-295q1 -86 61 -87q68 0 86 115q6 37 6 82v185h136v-341q0 -79 14 -148l-128 -14q-14 46 -14 89q-44 -93 -143 -94z" glyph-name="uacute" horiz-adv-x="549" unicode="ú"/>
<glyph d="M118 565l91 148l131 4l85 -152h-115l-39 70l-39 -70h-114zM212 -13q-107 0 -141 96q-13 38 -13 86v326h136v-295q1 -86 61 -87q68 0 86 115q6 37 6 82v185h136v-341q0 -79 14 -148l-128 -14q-14 46 -14 89q-44 -93 -143 -94z" glyph-name="ucircumflex" horiz-adv-x="549" unicode="û"/>
<glyph d="M113 581v120h130v-120h-130zM297 581v120h130v-120h-130zM212 -13q-107 0 -141 96q-13 38 -13 86v326h136v-295q1 -86 61 -87q68 0 86 115q6 37 6 82v185h136v-341q0 -79 14 -148l-128 -14q-14 46 -14 89q-44 -93 -143 -94z" glyph-name="udieresis" horiz-adv-x="549" unicode="ü"/>
<glyph d="M185 567l47 81q24 38 36 77l125 -4q-14 -43 -56 -99l-40 -55h-112zM50 -230l-9 114q92 6 125 45q14 18 24 46l8 25l-196 495h140l120 -317l87 317h135l-157 -515q-41 -135 -134 -179q-57 -27 -143 -31z" glyph-name="yacute" horiz-adv-x="499" unicode="ý"/>
<glyph d="M64 -220v772q0 89 -7 157l136 7q5 -35 5 -109v-169q29 61 99 68q8 1 15 1q126 0 171 -119q21 -56 21 -131q0 -222 -172 -259q-33 -7 -71 -7q-36 0 -61 15v-226h-136zM267 106q96 2 97 138q-4 140 -87 143q-67 0 -77 -91q-2 -15 -2 -31v-133q31 -26 69 -26z" glyph-name="thorn" unicode="þ"/>
</font>
</defs>
</svg>
