<?xml version="1.0" encoding="UTF-8"?>
<!DOCTYPE svg  PUBLIC '-//W3C//DTD SVG 1.1//EN'  'http://www.w3.org/Graphics/SVG/1.1/DTD/svg11.dtd'>
<svg version="1.1" xmlns="http://www.w3.org/2000/svg">
<defs>
<font id="FolhaII-Bold" horiz-adv-x="490">
<font-face font-family="FolhaII-Bold" font-weight="450" ascent="770" bbox="-51 -205 795 906" cap-height="691" descent="-230" panose-1="2 10 7 3 7 5 2 2 2 4" underline-position="-171" underline-thickness="58" unicode-range="U+0020-00FE" units-per-em="1000" x-height="463"/>
<missing-glyph/>
<glyph glyph-name="space" horiz-adv-x="199" unicode=" "/>
<glyph d="M205 650q0 -34 -4 -82.5t-10 -107t-12.5 -125t-12.5 -135.5h-70q-6 69 -13 135.5t-13 125t-10 107t-4 82.5q0 42 20 64t55 22q34 0 54 -22t20 -64zM208 69q0 -37 -22.5 -59.5t-55.5 -22.5t-55 22.5t-22 57.5q0 36 22.5 59t56.5 23q32 0 54 -22.5t22 -57.5z" glyph-name="exclam" horiz-adv-x="242" unicode="!"/>
<glyph d="M338 748l-21 -282h-72l-20 282h113zM159 748l-20 -282h-72l-20 282h112z" glyph-name="quotedbl" horiz-adv-x="384" unicode='"'/>
<glyph d="M41 487h100l26 204h69l-27 -204h105l27 204h68l-26 -204h88v-62h-96l-20 -156h93v-62h-101l-26 -207h-69l27 207h-106l-26 -207h-68l26 207h-87v62h95l20 156h-92v62zM182 269h105l19 156h-104z" glyph-name="numbersign" unicode="#"/>
<glyph d="M459 169q0 -76 -55.5 -121t-167.5 -49l-12 -140h-52l12 140q-35 1 -72 5.5t-72 11.5v184h46q6 -16 12 -36q5 -17 11.5 -40.5t12.5 -52.5q13 -7 30.5 -12.5t36.5 -7.5l18 231q-33 19 -64 39t-55 45t-38.5 56t-14.5 71q0 71 51.5 115.5t153.5 49.5l10 124h53l-12 -123 q32 -1 65 -5t63 -11v-158h-45q-7 12 -13 30q-5 14 -11.5 35t-11.5 47q-11 4 -24 7t-27 4l-17 -217q33 -19 66.5 -39.5t60.5 -46.5t44.5 -59t17.5 -77zM235 608q-42 -5 -64 -27t-22 -57q0 -33 20.5 -57.5t50.5 -46.5zM342 139q0 19 -7 34.5t-18.5 29.5t-27 26t-32.5 24 l-16 -203q101 6 101 89z" glyph-name="dollar" unicode="$"/>
<glyph d="M183 674q71 0 104 -34.5t33 -114.5q0 -84 -36 -126.5t-116 -42.5q-71 0 -103.5 34.5t-32.5 114.5q0 85 35.5 127t115.5 42zM586 693l-446 -722h-65l448 722h63zM495 305q71 0 103.5 -34t32.5 -115q0 -83 -36 -125.5t-115 -42.5q-72 0 -104.5 34t-32.5 115q0 84 36 126 t116 42zM176 638q-27 0 -39.5 -28.5t-12.5 -92.5q0 -68 12.5 -96.5t39.5 -28.5t39.5 28.5t12.5 92.5q0 68 -12.5 96.5t-39.5 28.5zM487 270q-26 0 -38.5 -28.5t-12.5 -92.5q0 -68 12 -97t39 -29q28 0 40 28.5t12 93.5q0 68 -12.5 96.5t-39.5 28.5z" glyph-name="percent" horiz-adv-x="664" unicode="%"/>
<glyph d="M692 118q-16 -37 -36.5 -71t-44.5 -60h-39q-27 20 -52.5 39t-49.5 37q-44 -36 -100 -55t-122 -19q-101 0 -153.5 42t-52.5 126q0 35 10 63.5t27 52t41 43.5t51 40q-45 63 -63.5 112.5t-18.5 92.5q0 79 53 121.5t144 42.5q81 0 128.5 -31.5t47.5 -94.5q0 -38 -13 -66 t-34.5 -51t-49.5 -43t-58 -41q33 -41 80.5 -88t110.5 -101q14 34 18.5 74t-1.5 87q-11 4 -19.5 8.5t-15.5 8.5q-8 4 -14 8v37h198v-37q-6 -4 -14 -8q-7 -4 -16.5 -8t-20.5 -8q-9 -120 -58 -209q16 -13 33 -26t35 -27l39 32zM337 585q0 49 -16 70t-45 21t-46 -21.5t-17 -61.5 q0 -32 13 -69t44 -81q30 30 48.5 63.5t18.5 78.5zM425 99q-68 59 -119.5 109t-89.5 95q-20 -23 -29.5 -50t-9.5 -61q0 -68 32 -103.5t90 -35.5q35 0 67.5 11.5t58.5 34.5z" glyph-name="ampersand" horiz-adv-x="716" unicode="&amp;"/>
<glyph d="M159 748l-20 -282h-72l-20 282h112z" glyph-name="quotesingle" horiz-adv-x="205" unicode="'"/>
<glyph d="M239 -202q-90 107 -137 234.5t-47 275.5q0 149 47 277t138 237l37 -23q-56 -105 -85 -231t-29 -256q0 -132 30 -259.5t84 -232.5z" glyph-name="parenleft" horiz-adv-x="314" unicode="("/>
<glyph d="M74 822q90 -108 137 -235.5t47 -275.5q0 -149 -47 -277.5t-137 -235.5l-38 22q57 105 86 231.5t29 256.5q0 65 -8 130.5t-22.5 128.5t-36 121.5t-48.5 109.5z" glyph-name="parenright" horiz-adv-x="314" unicode=")"/>
<glyph d="M193 524q-10 -26 -20 -51t-20 -54l-49 -18l-41 28l7 50q48 33 93 66q-28 2 -55.5 3t-56.5 2l-31 39l18 47l50 8q21 -17 41 -33t42 -32q-7 28 -14.5 54t-17.5 53l27 46h55l26 -46q-9 -27 -16.5 -53t-15.5 -54q22 16 42.5 32t41.5 33l50 -8l17 -47l-31 -39q-29 -1 -56 -2 t-55 -3q23 -17 46 -33t46 -33l7 -50l-41 -28l-48 18q-10 29 -20 54t-21 51z" glyph-name="asterisk" horiz-adv-x="387" unicode="*"/>
<glyph d="M465 273h-186v-209h-68v209h-186v57h186v205h68v-205h186v-57z" glyph-name="plus" unicode="+"/>
<glyph d="M203 30q0 -141 -167 -202l-17 36q47 26 67 51t20 51q0 20 -10 31.5t-22 22.5t-22 25t-10 38q0 29 19 48.5t51 19.5q40 0 65.5 -32.5t25.5 -88.5z" glyph-name="comma" horiz-adv-x="239" unicode=","/>
<glyph d="M233 255h-207v59h207v-59z" glyph-name="hyphen" horiz-adv-x="259" unicode="-"/>
<glyph d="M233 255h-207v59h207v-59z" glyph-name="hyphen" horiz-adv-x="259" unicode="­"/>
<glyph d="M189 70q0 -37 -22.5 -60t-57.5 -23q-34 0 -55 23t-21 58q0 36 22 59.5t56 23.5t56 -23t22 -58z" glyph-name="period" horiz-adv-x="221" unicode="."/>
<glyph d="M407 828l-312 -991h-82l312 991h82z" glyph-name="slash" horiz-adv-x="428" unicode="/"/>
<glyph d="M293 670q121 0 175.5 -77.5t54.5 -240.5q0 -182 -59.5 -273.5t-195.5 -91.5q-122 0 -176.5 77.5t-54.5 240.5q0 91 14.5 159.5t45.5 114.5t79.5 68.5t116.5 22.5zM280 614q-29 0 -49 -15t-33 -48t-19 -86.5t-6 -129.5q0 -80 6 -135.5t19 -90.5t33 -51t48 -16 q29 0 49.5 15t33.5 49t19 87t6 130q0 79 -6 134.5t-18.5 90t-33 50.5t-49.5 16z" glyph-name="zero" horiz-adv-x="561" unicode="0"/>
<glyph d="M344 0h-314v36q11 5 27 10q13 5 31.5 9.5t41.5 9.5v494l-114 -30v54q51 21 94.5 42.5t85.5 44.5h69q-1 -29 -1.5 -57.5t-0.5 -58.5v-489q18 -5 32.5 -9.5t25.5 -9.5q12 -5 23 -10v-36z" glyph-name="one" horiz-adv-x="358" unicode="1"/>
<glyph d="M433 0h-418v67q88 97 141.5 163.5t81.5 115.5t37 88t9 83q0 56 -18.5 77t-52.5 21q-28 0 -47 -13l-35 -119q-19 -7 -42 -7q-59 0 -59 57q0 32 14.5 57.5t41 43t63 27t81.5 9.5q46 0 81.5 -8.5t60 -27.5t37 -50t12.5 -75q0 -49 -14 -90t-48 -86.5t-90 -101.5t-140 -134 h222q5 24 10.5 44t10.5 34q6 17 12 30h49v-205z" glyph-name="two" horiz-adv-x="466" unicode="2"/>
<glyph d="M445 197q0 -54 -17.5 -93.5t-50 -65.5t-78.5 -38.5t-103 -12.5q-88 0 -133 30t-45 86q0 29 16 44.5t45 15.5q19 0 32 -5l50 -108q9 -3 21 -5.5t26 -2.5q45 0 72 33.5t27 105.5q0 71 -32 103.5t-107 32.5h-23v54h20q62 0 93 31.5t31 99.5q0 66 -19 89.5t-61 23.5 q-16 0 -27.5 -3t-21.5 -8l-36 -109q-14 -7 -38 -7q-27 0 -43 14t-16 43q0 57 53 91t147 34q97 0 147.5 -33.5t50.5 -111.5q0 -63 -34 -104t-85 -58q67 -5 103 -46t36 -120z" glyph-name="three" horiz-adv-x="472" unicode="3"/>
<glyph d="M505 172h-108v-109q14 -5 26.5 -9.5t20.5 -8.5q10 -4 18 -9v-36h-255v36q7 5 17 9q8 4 19.5 8.5t25.5 9.5v109h-256v67l241 421h143v-400h47q3 13 7 23t7 18q4 9 7 15h40v-144zM269 260v301l-168 -301h168z" glyph-name="four" horiz-adv-x="521" unicode="4"/>
<glyph d="M414 216q0 -55 -17.5 -97.5t-49.5 -72t-76 -44.5t-96 -15q-79 0 -116.5 29.5t-37.5 76.5q0 32 16.5 47t46.5 15q16 0 25 -3l50 -106q6 -2 15 -3t17 -1q48 0 72 33.5t24 108.5q0 38 -10 65.5t-34.5 44t-65 22t-101.5 -1.5l-30 22l37 322h254l22 25h38l-20 -123h-240 l-16 -149q153 12 223 -38.5t70 -156.5z" glyph-name="five" horiz-adv-x="446" unicode="5"/>
<glyph d="M477 215q0 -114 -62 -171t-168 -57q-53 0 -92.5 15.5t-66 50t-39.5 89t-13 132.5q0 199 73 297t231 98q29 0 59.5 -4t60.5 -10l-5 -52q-21 4 -41.5 6.5t-36.5 2.5q-57 0 -96 -19.5t-63 -55t-34.5 -86t-11.5 -111.5q26 24 61 40.5t81 16.5q78 0 120.5 -44t42.5 -138z M341 186q0 130 -78 130q-50 0 -91 -44q0 -64 5.5 -108t17 -71t29 -39t41.5 -12q40 0 58 39t18 105z" glyph-name="six" horiz-adv-x="505" unicode="6"/>
<glyph d="M424 591q-55 -101 -89 -176t-52.5 -135t-25 -110t-6.5 -100q0 -39 -19 -61t-56 -22q-35 0 -54 20t-19 56q0 44 15.5 91.5t45 106t72.5 131.5t98 168h-235q-5 -23 -9.5 -41.5t-9.5 -32.5q-5 -16 -10 -28h-49v200h403v-67z" glyph-name="seven" horiz-adv-x="433" unicode="7"/>
<glyph d="M473 170q0 -46 -17.5 -80.5t-49 -57t-75 -34t-96.5 -11.5q-207 0 -207 155q0 66 35.5 108t101.5 78q-59 40 -87.5 82t-28.5 100q0 75 55.5 117.5t152.5 42.5q96 0 145 -34.5t49 -101.5q0 -57 -33.5 -96.5t-90.5 -73.5q74 -42 110 -86t36 -108zM322 526q0 91 -73 91 q-38 0 -55.5 -23.5t-17.5 -58.5q0 -42 22.5 -72t70.5 -62q26 26 39.5 56.5t13.5 68.5zM342 140q0 46 -27.5 80t-89.5 72q-32 -31 -48 -63.5t-16 -75.5q0 -54 23 -83t67 -29q43 0 67 25.5t24 73.5z" glyph-name="eight" horiz-adv-x="503" unicode="8"/>
<glyph d="M469 383q0 -200 -73.5 -297.5t-227.5 -97.5q-32 0 -64 3.5t-63 11.5l4 52q22 -5 44.5 -7.5t40.5 -2.5q57 0 95 19.5t62 55t34.5 85.5t11.5 112q-26 -24 -61 -40.5t-81 -16.5q-78 0 -120.5 44.5t-42.5 138.5q0 113 61 170t169 57q53 0 92.5 -15.5t66 -49.5t39.5 -89 t13 -133zM333 385q0 64 -5.5 108t-17 71t-28.5 39t-41 12q-41 0 -59 -39t-18 -104q0 -131 78 -131q26 0 48.5 12t42.5 32z" glyph-name="nine" horiz-adv-x="505" unicode="9"/>
<glyph d="M208 395q0 -35 -22 -58t-56 -23q-33 0 -54 22.5t-21 56.5q0 36 21.5 58.5t55.5 22.5t55 -22t21 -57zM208 68q0 -35 -22 -58t-56 -23q-33 0 -54 22t-21 57t21.5 58t55.5 23t55 -22.5t21 -56.5z" glyph-name="colon" horiz-adv-x="263" unicode=":"/>
<glyph d="M452 45l-424 236v38l424 236v-67l-342 -188l342 -187v-68z" glyph-name="less" unicode="&lt;"/>
<glyph d="M465 364h-440v57h440v-57zM465 182h-440v57h440v-57z" glyph-name="equal" unicode="="/>
<glyph d="M461 281l-423 -236v68l342 187l-342 188v67l423 -236v-38z" glyph-name="greater" unicode="&gt;"/>
<glyph d="M390 602q0 -38 -12.5 -69t-31.5 -57.5t-41 -49.5t-41 -46.5t-31.5 -48t-12.5 -52.5v-79h-70q-13 28 -21 56t-8 58t10 55t24.5 46.5t32 41.5t32 40.5t24.5 43.5t10 51q0 88 -62 88q-11 0 -19 -2t-15 -5l-35 -111q-5 -1 -9 -2q-5 -1 -10 -1h-12q-62 0 -62 62q0 31 17 53 t43.5 36t59.5 20t65 6q175 0 175 -134zM262 69q0 -37 -23 -59.5t-56 -22.5q-32 0 -54 22.5t-22 57.5q0 36 22.5 59t55.5 23t55 -22.5t22 -57.5z" glyph-name="question" horiz-adv-x="419" unicode="?"/>
<glyph d="M795 434q0 -69 -19 -128t-52 -101.5t-76.5 -66.5t-90.5 -24q-50 0 -73.5 29t-20.5 80q-24 -51 -61 -80.5t-80 -29.5q-51 0 -74 32t-23 95q0 28 3.5 61t13 66t25.5 64.5t42 55.5t62 38.5t85 14.5q20 0 42 -2t42 -6l42 9l26 -17q-8 -24 -15.5 -65.5t-13 -85.5t-9 -82.5 t-3.5 -55.5q0 -32 7.5 -46t24.5 -14q46 0 76 64t30 177q0 58 -17.5 107t-49.5 85t-76.5 56t-97.5 20q-74 0 -134.5 -34.5t-103 -93t-65.5 -135.5t-23 -162q0 -68 15.5 -122t47 -92t78.5 -58.5t111 -20.5q98 0 172 39l15 -33q-46 -29 -101.5 -44.5t-117.5 -15.5 q-152 0 -233.5 79.5t-81.5 242.5q0 106 35 197.5t95 159t140 106t170 38.5q69 0 126 -20.5t98.5 -59.5t64.5 -95t23 -126zM485 486q-18 8 -41 8q-31 0 -51.5 -28.5t-33 -67.5t-17.5 -80t-5 -65q0 -41 7.5 -57.5t21.5 -16.5q15 0 31 18t30.5 48.5t26.5 71t19 86.5z" glyph-name="at" horiz-adv-x="833" unicode="@"/>
<glyph d="M580 0h-252v36q7 6 17 11q8 5 19 10t25 10l-28 111h-193q-4 -27 -7.5 -56t-6.5 -55q26 -11 43 -20q10 -5 17 -10v-37h-209v37q5 5 12 10q6 5 14 10t19 10q40 160 83 316t96 308h133l173 -624q10 -5 18.5 -10t14.5 -10q7 -5 12 -10v-37zM345 234l-92 352q-11 -41 -22 -87 t-21 -92t-18.5 -90.5t-14.5 -82.5h168z" glyph-name="A" horiz-adv-x="585" unicode="A"/>
<glyph d="M540 212q0 -43 -14.5 -81.5t-46.5 -67.5t-84.5 -46t-127.5 -17h-240v37q7 5 18 10q9 5 21.5 10t27.5 10v557q-15 5 -27.5 10t-20.5 10q-11 5 -18 11v36h270q57 0 97 -11.5t64.5 -32t35.5 -49.5t11 -64q0 -61 -33.5 -103t-94.5 -54q81 -5 121.5 -48t40.5 -117zM367 514 q0 65 -24.5 92.5t-70.5 27.5h-41v-244h47q47 0 68 34.5t21 89.5zM396 199q0 67 -30.5 102t-99.5 35h-35v-218q0 -20 2.5 -31.5t9 -18.5t18.5 -9t31 -2q55 0 79.5 37t24.5 105z" glyph-name="B" horiz-adv-x="563" unicode="B"/>
<glyph d="M474 27q-42 -20 -90 -30t-97 -10q-70 0 -118.5 19.5t-78.5 61t-43.5 106.5t-13.5 156t16 160.5t51 117t89.5 71.5t131.5 24q38 0 75.5 -5.5t72.5 -16.5l-13 -177h-48q-7 16 -13 35q-5 17 -12 40.5t-12 52.5q-27 15 -63 15q-71 0 -102 -75.5t-31 -212.5q0 -85 7 -144.5 t23 -97t42.5 -55t65.5 -17.5q17 0 32.5 2.5t26.5 7.5q8 34 17 61.5t17 47.5q10 23 19 41h49v-178z" glyph-name="C" horiz-adv-x="504" unicode="C"/>
<glyph d="M588 366q0 -90 -18 -158.5t-57.5 -114.5t-102.5 -69.5t-153 -23.5h-230v37q7 5 18 10q9 5 21.5 10t27.5 10v557q-15 5 -27.5 10t-20.5 10q-11 5 -18 11v36h274q73 0 127 -17.5t89 -56.5t52.5 -101t17.5 -150zM446 343q0 148 -35 219.5t-124 71.5q-17 0 -31.5 -0.5 t-24.5 -1.5v-572q10 -2 22 -2.5t23 -0.5q47 0 79.5 17t52.5 52t29 89t9 128z" glyph-name="D" horiz-adv-x="621" unicode="D"/>
<glyph d="M472 0h-445v37q7 5 18 10q9 5 21.5 10t27.5 10v557q-15 5 -27.5 10t-20.5 10q-11 5 -18 11v36h430l8 -166h-49q-9 13 -18 30q-8 14 -16 34t-16 45h-136v-243h78q12 33 25 54q6 11 13 20h44v-210h-44q-7 10 -13 22q-5 11 -12 25.5t-12 33.5h-79v-279h140q8 29 16.5 52.5 t16.5 40.5q9 20 18 36h50v-186z" glyph-name="E" horiz-adv-x="506" unicode="E"/>
<glyph d="M448 691l8 -172h-49q-9 14 -18 32q-8 15 -16.5 36t-16.5 47h-125v-255h78q12 34 25 57q7 12 14 21h43v-216h-43q-6 10 -13 23q-6 11 -13 26t-12 34h-79v-256q31 -10 53 -20q11 -5 21 -11v-37h-278v37q7 5 18 10q9 5 21.5 10t27.5 10v557q-15 5 -27.5 10t-20.5 10 q-11 5 -18 11v36h420z" glyph-name="F" horiz-adv-x="462" unicode="F"/>
<glyph d="M550 319q-6 -5 -13 -10q-6 -5 -14 -9.5t-18 -8.5v-263q-52 -20 -103 -30.5t-105 -10.5q-74 0 -124.5 20t-81.5 62t-44.5 106.5t-13.5 153.5q0 93 17 163.5t53 117.5t92.5 70.5t136.5 23.5q40 0 83 -5.5t81 -16.5l-16 -173h-48q-7 16 -13 35q-6 17 -12.5 39.5t-11.5 51.5 q-16 6 -35.5 9.5t-37.5 3.5q-78 0 -112 -75t-34 -224q0 -82 7.5 -140t24.5 -94.5t43 -53.5t64 -17q14 0 28 2.5t26 5.5v238q-13 5 -23 9.5t-18 9.5q-9 5 -16 10v37h238v-37z" glyph-name="G" horiz-adv-x="569" unicode="G"/>
<glyph d="M650 0h-260v37q7 5 16 10q8 5 18 9.5t23 9.5v267h-216v-267q13 -5 23 -9.5t18 -9.5q9 -5 15 -10v-37h-260v37q7 5 18 10q9 5 21.5 10t27.5 10v557q-15 5 -27.5 10t-20.5 10q-11 5 -18 11v36h259v-36q-6 -5 -15 -10q-8 -5 -18 -9.5t-23 -9.5v-234h216v234q-13 5 -23 9.5 t-18 9.5q-9 5 -15 10v36h258v-36q-8 -6 -18 -11q-8 -5 -20.5 -10t-26.5 -10v-557q14 -5 26.5 -10t21.5 -10q11 -5 18 -10v-37z" glyph-name="H" horiz-adv-x="678" unicode="H"/>
<glyph d="M27 0v37q7 5 18 10q9 5 21.5 10t27.5 10v557q-15 5 -27 10t-21 10q-11 5 -18 11v36h268v-36q-8 -6 -18 -11q-8 -5 -20.5 -10t-26.5 -10v-557q14 -5 26.5 -10t20.5 -10q10 -5 18 -10v-37h-269z" glyph-name="I" horiz-adv-x="325" unicode="I"/>
<glyph d="M281 655q-7 -6 -16 -11q-8 -5 -19 -10t-25 -10v-490q0 -65 -12 -113t-37 -83t-64 -59t-94 -40l-18 39q25 16 42.5 32.5t27.5 41.5t14.5 62.5t4.5 94.5v515q-15 5 -27 10t-20 10q-10 5 -17 11v36h260v-36z" glyph-name="J" horiz-adv-x="302" unicode="J"/>
<glyph d="M594 0h-176l-187 335v-268q14 -5 25 -10t19 -10q10 -5 17 -10v-37h-265v37q7 5 18 10q9 5 21.5 10t27.5 10v557q-15 5 -27 10t-21 10q-11 5 -18 11v36h259v-36q-6 -6 -15 -11q-8 -5 -18 -10t-23 -10v-246q50 62 94 125.5t79 124.5q-16 7 -28 17q-6 4 -10 10v36h202v-36 q-7 -5 -16 -10q-8 -5 -18 -10t-23 -9q-40 -52 -82.5 -104t-87.5 -102l205 -356q11 -5 20 -9.5t15 -8.5q7 -4 13 -9v-37z" glyph-name="K" horiz-adv-x="594" unicode="K"/>
<glyph d="M466 0h-439v37q7 5 18 10q9 5 21.5 10t27.5 10v557q-15 5 -27 10t-21 10q-11 5 -18 11v36h274v-36q-9 -6 -20 -11q-10 -5 -22.5 -10t-28.5 -10v-566h133q8 39 17 70.5t17 54.5q9 26 18 47h50v-230z" glyph-name="L" horiz-adv-x="482" unicode="L"/>
<glyph d="M538 0v37q8 5 18 10q8 5 20 10t26 10l-32 336l-14 157l-134 -560h-98l-102 413l-36 148l-28 -494q14 -5 25.5 -10t19.5 -10q10 -5 17 -10v-37h-207v37q6 5 14 10q7 5 15.5 10t19.5 10l64 558q-14 5 -26 9.5t-20 9.5q-10 5 -18 11v36h227l88 -346l30 -129l30 128l84 347 h225v-36q-7 -6 -17 -11q-8 -5 -20 -9.5t-26 -9.5l58 -558q11 -5 21 -10t17 -10q8 -5 14 -10v-37h-255z" glyph-name="M" horiz-adv-x="807" unicode="M"/>
<glyph d="M599 655q-7 -6 -16 -11q-8 -5 -18.5 -10t-24.5 -10l-9 -627h-120l-225 477l-23 71l20 -478q16 -5 29.5 -10t22.5 -10q11 -5 19 -10v-37h-229v37q7 5 18 10q8 5 20.5 10t27.5 10l8 557q-16 5 -28.5 10t-21.5 10q-11 5 -19 11v36h214l199 -419l27 -80l-17 432 q-15 5 -27.5 10t-20.5 10q-10 5 -17 11v36h211v-36z" glyph-name="N" horiz-adv-x="612" unicode="N"/>
<glyph d="M320 703q73 0 123 -18.5t81.5 -59.5t45.5 -106.5t14 -158.5q0 -87 -14 -156t-47.5 -117.5t-88.5 -74t-137 -25.5q-73 0 -123.5 18.5t-81.5 59.5t-45 106.5t-14 159.5q0 87 14 156t47.5 117t88.5 73.5t137 25.5zM309 647q-71 0 -103 -72t-32 -228q0 -84 8.5 -141.5 t25 -93.5t42 -52t58.5 -16q71 0 102.5 71.5t31.5 227.5q0 84 -8.5 142t-25 94t-41.5 52t-58 16z" glyph-name="O" horiz-adv-x="617" unicode="O"/>
<glyph d="M520 494q0 -50 -13 -92t-42.5 -72.5t-77 -47.5t-116.5 -17h-40v-198q16 -5 29.5 -10t22.5 -10q11 -5 19 -10v-37h-275v37q7 5 18 10q9 5 21.5 10t27.5 10v557q-15 5 -27.5 10t-20.5 10q-11 5 -18 11v36h276q114 0 165 -50t51 -147zM379 479q0 75 -24.5 115t-83.5 40h-40 v-309q20 -4 51 -4q45 0 71 37.5t26 120.5z" glyph-name="P" horiz-adv-x="528" unicode="P"/>
<glyph d="M320 703q73 0 123 -18.5t81.5 -59.5t45.5 -106.5t14 -158.5q0 -81 -12.5 -146t-41 -113t-74.5 -76.5t-114 -35.5l-25 -50q43 15 78.5 15.5t66.5 -6.5t58 -17t53 -17t52 -7t54 15l23 -38q-39 -36 -77.5 -47.5t-75.5 -9t-73 14t-71 23t-69 17.5t-67 -3l-24 37l36 71 q-68 2 -115.5 21.5t-77 61t-42.5 106t-13 155.5q0 87 14 156t47.5 117t88.5 73.5t137 25.5zM309 647q-71 0 -103 -72t-32 -228q0 -84 8.5 -141.5t25 -93.5t42 -52t58.5 -16q71 0 102.5 71.5t31.5 227.5q0 84 -8.5 142t-25 94t-41.5 52t-58 16z" glyph-name="Q" horiz-adv-x="617" unicode="Q"/>
<glyph d="M575 3q-21 -7 -44.5 -11t-45.5 -4q-24 0 -41 5.5t-29.5 17.5t-21.5 31.5t-15 48.5l-23 119q-14 61 -32.5 86t-57.5 25h-34v-254q29 -11 45 -20q10 -5 17 -10v-37h-266v37q7 5 18 10q9 5 21.5 10t27.5 10v557q-15 5 -27.5 10t-20.5 10q-11 5 -18 11v36h270q103 0 156 -40 t53 -125q0 -138 -134 -171q51 -7 79 -38.5t41 -96.5l24 -118q3 -14 6.5 -25.5t8.5 -18.5l43 -18v-37zM366 512q0 63 -22 92.5t-73 29.5h-40v-258h34q55 0 78 38t23 98z" glyph-name="R" horiz-adv-x="578" unicode="R"/>
<glyph d="M439 173q0 -47 -17 -81.5t-48 -58t-75 -35t-99 -11.5q-40 0 -83.5 5t-83.5 13v196h47q7 -17 14 -38q6 -18 12.5 -43.5t12.5 -56.5q17 -9 42 -14t51 -5q48 0 71.5 24.5t23.5 63.5q0 36 -20.5 65.5t-51.5 57.5t-67.5 56t-67.5 60t-51.5 70t-20.5 87q0 87 60.5 131.5 t164.5 44.5q35 0 73 -4.5t73 -12.5v-171h-46q-7 15 -14 33q-6 16 -13 38t-12 50q-28 13 -71 13q-44 0 -64.5 -23t-20.5 -59q0 -35 21 -64.5t52 -57.5t67.5 -56t67.5 -60t52 -70.5t21 -86.5z" glyph-name="S" horiz-adv-x="461" unicode="S"/>
<glyph d="M479 495q-7 17 -15 38q-7 18 -14.5 43.5t-14.5 56.5h-96v-565q19 -5 34 -10t26 -10q12 -5 23 -11v-37h-303v37q10 6 23 11q11 5 26.5 10t34.5 10v565h-96q-7 -31 -14.5 -56.5t-14.5 -43.5q-8 -21 -16 -38h-49v196l49 12l45 -12h328l44 12l50 -12v-196h-50z" glyph-name="T" horiz-adv-x="542" unicode="T"/>
<glyph d="M614 655q-8 -6 -17 -11q-8 -5 -18.5 -10t-24.5 -10l-8 -367q-2 -63 -16 -113t-42.5 -85t-72.5 -53.5t-104 -18.5q-121 0 -176.5 53.5t-55.5 168.5v415q-14 5 -25.5 10t-19.5 10q-10 5 -17 11v36h261v-36q-7 -6 -17 -11q-8 -5 -20 -10t-26 -10v-391q0 -94 27.5 -140 t94.5 -46q70 0 99 49t26 160l-8 368q-14 5 -25 10t-19 10q-10 5 -16 11v36h220v-36z" glyph-name="U" horiz-adv-x="628" unicode="U"/>
<glyph d="M570 655q-5 -6 -12 -11q-6 -5 -14 -10t-18 -10q-40 -161 -81.5 -316t-95.5 -308h-131l-172 624q-10 5 -18 10t-13 10q-7 5 -12 11v36h250v-36q-7 -6 -17 -11q-8 -5 -19 -10t-25 -10l133 -514q16 60 31 125t27.5 131t22.5 131.5t16 126.5q-13 5 -23 10t-18 10q-9 5 -16 11 v36h205v-36z" glyph-name="V" horiz-adv-x="573" unicode="V"/>
<glyph d="M793 655q-6 -6 -13 -11q-6 -5 -14.5 -10t-19.5 -10q-25 -162 -57.5 -314.5t-70.5 -309.5h-133l-75 367l-16 84l-77 -451h-138l-126 624q-11 5 -19.5 10t-14.5 10q-7 5 -12 11v36h248v-36q-7 -6 -16 -11q-15 -9 -43 -19l66 -362l21 -119l90 547h105l86 -419l25 -128 q22 116 37 240t23 240q-13 5 -23.5 10t-18.5 10q-9 5 -16 11v36h202v-36z" glyph-name="W" horiz-adv-x="800" unicode="W"/>
<glyph d="M330 0v37q6 5 14 10q7 5 16 9.5t21 9.5l-104 212l-99 -212q12 -5 22 -9.5t18 -9.5q9 -5 15 -10v-37h-221v37l15 10q7 5 16.5 10t22.5 10l169 270l-157 288q-11 5 -20 9.5t-16 9.5q-8 5 -14 11v36h265v-36q-6 -5 -14 -10q-7 -5 -17 -9.5t-21 -8.5l94 -192l90 192 q-10 4 -18 8.5t-14 9.5q-7 5 -12 10v36h202v-36q-6 -6 -15 -11q-8 -5 -18 -10t-22 -10l-153 -246l172 -311q12 -5 21.5 -10t16.5 -10l15 -10v-37h-270z" glyph-name="X" horiz-adv-x="611" unicode="X"/>
<glyph d="M548 655q-5 -6 -12 -11q-6 -5 -14 -10t-18 -10l-161 -359v-197q18 -5 32.5 -10.5t25.5 -10.5q12 -5 22 -11v-36h-297v36q10 6 22 11q11 5 25.5 10.5t32.5 10.5v197l-162 359q-10 5 -17.5 10t-12.5 10q-6 5 -12 11v36h244v-36q-5 -6 -12 -11q-13 -10 -33 -19l114 -267 q29 66 50.5 133t38.5 134q-11 5 -18.5 9.5t-13.5 9.5q-7 5 -12 11v36h188v-36z" glyph-name="Y" horiz-adv-x="550" unicode="Y"/>
<glyph d="M446 209q-1 -25 -1 -58v-151h-417v57l259 578h-144q-8 -32 -16.5 -57t-16.5 -43q-9 -21 -18 -38h-48q2 23 4 53q2 26 3.5 61.5t3.5 79.5h384v-56l-258 -578h161q8 35 18 62.5t18 47.5q10 23 19 42h49z" glyph-name="Z" horiz-adv-x="480" unicode="Z"/>
<glyph d="M278 -193h-197v1005h197v-37q-12 -5 -27 -10q-13 -5 -31 -9.5t-41 -8.5v-875q23 -5 41 -9.5t31 -9.5q15 -5 27 -10v-36z" glyph-name="bracketleft" horiz-adv-x="318" unicode="["/>
<glyph d="M415 -163h-81l-314 991h83z" glyph-name="backslash" horiz-adv-x="428" unicode="\"/>
<glyph d="M236 -193h-196v36q12 5 27 10q13 5 30.5 9.5t40.5 9.5v875q-23 4 -40.5 8.5t-30.5 9.5q-15 5 -27 10v37h196v-1005z" glyph-name="bracketright" horiz-adv-x="318" unicode="]"/>
<glyph d="M461 305h-99l-119 290l-118 -290h-96l176 400h80z" glyph-name="asciicircum" unicode="^"/>
<glyph d="M490 -199h-490v57h490v-57z" glyph-name="underscore" unicode="_"/>
<glyph d="M221 533h-54l-138 134v27h115l77 -134v-27z" glyph-name="grave" horiz-adv-x="250" unicode="`"/>
<glyph d="M440 15q-16 -5 -36 -9q-17 -4 -41 -8.5t-53 -7.5l-24 12q-3 13 -5 30t-3 34q-16 -37 -52.5 -57.5t-85.5 -20.5q-63 0 -90.5 33t-27.5 92q0 34 12 62t37 48.5t64.5 32t94.5 11.5h18.5t16.5 -1q1 16 1 32v30q0 54 -13.5 75.5t-48.5 21.5q-8 0 -18 -1.5t-18 -5.5l-25 -76 q-8 -4 -19 -5.5t-22 -1.5q-61 0 -61 50q0 16 9 32.5t30 29.5t56 21t87 8q40 0 71 -6.5t52.5 -22.5t33 -42t11.5 -66q0 -45 -1 -97t-1 -93q0 -21 1.5 -42.5t4.5 -38.5l45 -17v-36zM265 216q-9 1 -19 2t-20 1q-46 0 -63.5 -24.5t-17.5 -63.5q0 -77 45 -77q32 0 53.5 32.5 t21.5 94.5v35z" glyph-name="a" horiz-adv-x="452" unicode="a"/>
<glyph d="M316 476q41 0 68 -17.5t43.5 -47.5t23.5 -70.5t7 -86.5q0 -50 -10.5 -97.5t-36.5 -85t-70 -60.5t-110 -23q-45 0 -86.5 6.5t-76.5 17.5l-14 20q2 17 3.5 37.5t1.5 46.5v531l-56 19v37q19 5 44 9q21 4 50 8.5t65 9.5l25 -13q-3 -47 -3 -145v-175q19 36 52.5 57.5 t79.5 21.5zM267 403q-16 0 -31 -11.5t-26.5 -32t-18.5 -49.5t-7 -65v-188q25 -17 59 -17q48 0 67 51t19 139q0 85 -14 129t-48 44z" glyph-name="b" horiz-adv-x="487" unicode="b"/>
<glyph d="M369 51q-68 -63 -168 -63q-50 0 -83 17t-52.5 47.5t-28 73t-8.5 92.5q0 52 10 99t33 82.5t61.5 56t95.5 20.5q27 0 52 -5.5t43.5 -16.5t29.5 -28.5t11 -42.5q0 -29 -14.5 -44.5t-42.5 -15.5q-25 0 -41 9l-22 88q-5 2 -10.5 3t-10.5 1q-19 0 -31.5 -14.5t-20.5 -40 t-11.5 -61t-3.5 -76.5q0 -40 4.5 -72.5t15 -55.5t27.5 -35.5t41 -12.5q26 0 50 9t50 26z" glyph-name="c" horiz-adv-x="384" unicode="c"/>
<glyph d="M256 475q11 0 23.5 -0.5t23.5 -2.5v175l-61 19v37q19 5 45 9q21 4 51 8.5t67 9.5l26 -14q-2 -23 -2.5 -59t-0.5 -81v-431q0 -42 3 -75l47 -18v-36q-17 -6 -38 -10q-18 -4 -43.5 -8.5t-56.5 -7.5l-25 12q-3 17 -4.5 36.5t-0.5 38.5q-19 -43 -55 -66t-84 -23q-41 0 -68 17 t-43.5 47t-23.5 70t-7 87q0 50 10.5 97.5t36.5 85t70 60.5t110 23zM243 423q-47 0 -66.5 -51t-19.5 -139q0 -85 14.5 -129t48.5 -44q16 0 31 11.5t26.5 32t18.5 49.5t7 65v188q-28 17 -60 17z" glyph-name="d" horiz-adv-x="491" unicode="d"/>
<glyph d="M404 305q0 -14 -0.5 -27.5t-1.5 -25.5l-246 -25v-5q0 -40 5.5 -71t18 -52t33 -32t51.5 -11q63 0 124 32l21 -41q-42 -30 -91 -44.5t-101 -14.5t-88 16t-58 45t-32 71t-10 93q0 50 8 97.5t30.5 84t62 59t102.5 22.5q87 0 129.5 -43.5t42.5 -127.5zM281 297q0 60 -12 94 t-44 34q-64 0 -68 -137h124v9z" glyph-name="e" horiz-adv-x="432" unicode="e"/>
<glyph d="M368 647q0 -27 -15.5 -41.5t-39.5 -14.5t-39 9l-22 74q-8 3 -16 3q-21 0 -31 -26.5t-10 -96.5v-91h94v-59h-94v-342q15 -4 27 -8.5t21 -8.5q10 -4 18 -9v-36h-243v36q6 5 14 9q7 4 16.5 8t21.5 8v343h-56v38l56 18v31q0 115 41.5 177t130.5 62q64 0 95 -23t31 -60z" glyph-name="f" horiz-adv-x="296" unicode="f"/>
<glyph d="M418 492l-48 -59q15 -16 22.5 -38t7.5 -54q0 -33 -9 -62t-31.5 -50.5t-60 -34t-95.5 -12.5q-8 0 -18 0.5t-18 1.5l-22 -37q8 -6 28.5 -13t62.5 -14l57 -8q74 -13 104.5 -42t30.5 -82q0 -39 -18.5 -74t-52 -61.5t-81.5 -42t-106 -15.5q-86 0 -125.5 25.5t-39.5 71.5 q0 15 5 31.5t17 34.5t32.5 37t51.5 40q-21 6 -36.5 15t-26.5 19v35l63 90q-43 13 -63.5 41.5t-20.5 81.5q0 33 8.5 62t31 50.5t60.5 34t97 12.5q14 0 30 -1.5t33 -3.5l107 51zM331 -55q0 26 -16.5 39.5t-61.5 19.5l-56 9q-8 2 -15.5 3t-12.5 2q-25 -24 -35 -47t-10 -44 q0 -29 19 -49t70 -20q58 0 88 25.5t30 61.5zM276 329q0 46 -12.5 71.5t-49.5 25.5q-33 0 -47.5 -25.5t-14.5 -71.5q0 -45 12 -70.5t49 -25.5q34 0 48.5 25t14.5 71z" glyph-name="g" horiz-adv-x="441" unicode="g"/>
<glyph d="M505 0h-173v288q0 54 -12 84.5t-44 30.5q-18 0 -34 -11.5t-27.5 -32t-18.5 -49.5t-7 -65v-184q12 -4 21.5 -8t16.5 -8q8 -4 14 -9v-36h-225v36q5 5 13 9q13 8 35 16v586l-57 19v37q19 5 44 9q21 4 50.5 8.5t65.5 9.5l25 -13q-2 -22 -2.5 -61t-0.5 -93v-167q18 38 53.5 59 t85.5 21q38 0 63 -12t39.5 -33t20.5 -49t6 -59v-262q22 -8 35 -16q7 -4 13 -9v-36z" glyph-name="h" horiz-adv-x="519" unicode="h"/>
<glyph d="M210 610q0 -33 -21.5 -55.5t-56.5 -22.5q-33 0 -54.5 20.5t-21.5 55.5q0 33 21 55.5t57 22.5q33 0 54.5 -20.5t21.5 -55.5zM17 0v36q7 5 15 9q7 4 16.5 8t21.5 8v331l-53 18v37q19 5 43 9q20 4 49 8.5t64 9.5l25 -13q-2 -23 -2.5 -53.5t-0.5 -59.5v-287q11 -4 20 -8 t16 -8t13 -9v-36h-227z" glyph-name="i" horiz-adv-x="260" unicode="i"/>
<glyph d="M191 462q-2 -23 -3 -52t-1 -64v-290q0 -99 -42.5 -161.5t-138.5 -99.5l-20 34q40 28 58 75t18 128v360l-49 18v37q18 5 42 9q20 4 48 8.5t63 9.5zM202 610q0 -33 -21 -55.5t-57 -22.5q-32 0 -54 20.5t-22 55.5q0 33 21.5 55.5t56.5 22.5q33 0 54.5 -20.5t21.5 -55.5z" glyph-name="j" horiz-adv-x="245" unicode="j"/>
<glyph d="M478 0h-158l-131 229v-168q10 -4 17.5 -8t13.5 -8t12 -9v-36h-216v36q5 5 13 9q13 8 35 16v586l-57 19v37q19 5 44 9q21 4 50.5 8.5t65.5 9.5l25 -13q-3 -44 -3 -139v-307q31 30 58 65.5t47 67.5q-9 3 -16 7t-12 8q-6 4 -11 8v36h205v-36q-6 -5 -15 -9q-8 -4 -18 -8 t-23 -8q-23 -26 -51.5 -55.5t-56.5 -52.5l142 -234q19 -8 29 -15q6 -4 11 -9v-36z" glyph-name="k" horiz-adv-x="480" unicode="k"/>
<glyph d="M238 0h-222v36q5 5 13 9q13 8 35 16v586l-57 19v37q19 5 44 9q21 4 50.5 8.5t65.5 9.5l25 -13q-3 -48 -3 -137v-519q11 -4 20 -8t16 -8t13 -9v-36z" glyph-name="l" horiz-adv-x="253" unicode="l"/>
<glyph d="M772 0h-173v288q0 54 -11.5 84.5t-43.5 30.5q-18 0 -33.5 -11.5t-27 -32t-18.5 -49.5t-7 -65v-184q11 -4 20.5 -8t16.5 -8q8 -4 14 -9v-36h-174v288q0 54 -11 84.5t-43 30.5q-18 0 -33.5 -11.5t-27.5 -32t-18.5 -49.5t-6.5 -65v-184q23 -8 38 -16q8 -4 14 -9v-36h-230v36 q7 5 15 9q7 4 16.5 8t21.5 8v331l-53 19v36q17 5 40 9q19 4 46 8.5t59 9.5l25 -13l-1 -77q18 43 55 67.5t91 24.5q48 0 78.5 -22t40.5 -68q18 42 54.5 66t90.5 24q37 0 62 -12t39.5 -33t20.5 -49t6 -59v-262q22 -8 35 -16q7 -4 13 -9v-36z" glyph-name="m" horiz-adv-x="787" unicode="m"/>
<glyph d="M510 0h-172v288q0 54 -12 84.5t-44 30.5q-18 0 -34 -11.5t-27.5 -32t-18.5 -49.5t-7 -65v-184q23 -8 38 -16q8 -4 14 -9v-36h-230v36q7 5 15 9q7 4 16.5 8t21.5 8v331l-53 19v36q17 5 40 9q19 4 46 8.5t59 9.5l25 -13l-1 -77q18 43 55.5 67.5t92.5 24.5q37 0 62 -12 t40 -33t21 -49t6 -59v-262q20 -7 34 -16q7 -4 13 -9v-36z" glyph-name="n" horiz-adv-x="524" unicode="n"/>
<glyph d="M255 476q61 0 100.5 -16t62 -46.5t31 -73.5t8.5 -97v-1q0 -46 -9.5 -91.5t-34.5 -81.5t-69 -58.5t-114 -22.5q-61 0 -100 16t-61.5 46t-31 73t-8.5 97v1q0 46 9 91.5t34 82t69 59t114 22.5zM243 423q-24 0 -40.5 -13t-26.5 -37t-14.5 -58t-4.5 -75v-1q0 -100 18.5 -149.5 t66.5 -49.5q24 0 40.5 13t26.5 37t14.5 58t4.5 75v1q0 100 -18.5 149.5t-66.5 49.5z" glyph-name="o" horiz-adv-x="486" unicode="o"/>
<glyph d="M270 403q-32 0 -57 -43t-25 -115v-187q24 -18 59 -18q47 0 66.5 51t19.5 139q0 85 -14 129t-49 44zM63 392l-48 19v36q17 5 39 9q19 4 44.5 8.5t57.5 9.5l24 -13v-77q18 44 54.5 68t85.5 24q40 0 67.5 -17.5t43.5 -47.5t23 -70.5t7 -86.5q0 -50 -10.5 -97.5t-36 -84.5 t-68.5 -60t-108 -23q-28 0 -50 3v-117l59 -20v-35q-19 -4 -44 -8q-21 -4 -51 -8t-66 -8l-26 14q3 42 3 109v473z" glyph-name="p" horiz-adv-x="491" unicode="p"/>
<glyph d="M483 -179q-18 -5 -43 -9q-21 -4 -50.5 -8t-64.5 -8l-25 14q2 20 2.5 44t0.5 56v156q-19 -37 -52.5 -57.5t-79.5 -20.5q-41 0 -68 17t-43.5 46.5t-23.5 70t-7 87.5q0 50 10.5 97.5t36.5 85t70 60.5t110 23q50 0 98 -9l53 8l25 -13q-2 -26 -3 -58t-1 -67v-460l55 -19v-36z M303 406q-28 17 -60 17q-47 0 -66.5 -51t-19.5 -139q0 -85 14.5 -129t48.5 -44q16 0 31 11.5t26.5 32t18.5 49.5t7 65v188z" glyph-name="q" horiz-adv-x="487" unicode="q"/>
<glyph d="M363 409q0 -28 -15.5 -45.5t-40.5 -22.5l-56 45q-28 -19 -42 -57t-14 -92v-174q14 -5 26.5 -9.5t20.5 -8.5q10 -4 17 -9v-36h-241v36q6 5 14 9q7 4 16.5 8t21.5 8v331l-52 19v36q18 5 40 9q19 4 45.5 8.5t58.5 9.5l25 -13v-84q17 49 45.5 74t63.5 25q34 0 50.5 -18 t16.5 -49z" glyph-name="r" horiz-adv-x="369" unicode="r"/>
<glyph d="M283 334q-6 10 -11 23q-5 11 -10 26t-10 35q-13 5 -26 6.5t-27 1.5q-28 0 -45.5 -12.5t-17.5 -38.5q0 -23 16.5 -40t41.5 -31.5t54 -29.5t54 -34t41.5 -45t16.5 -63q0 -65 -49 -104.5t-134 -39.5q-32 0 -68.5 6t-68.5 20l-6 134h46q6 -12 13 -27q5 -13 12 -30.5t13 -38.5 q30 -14 66 -14q67 0 67 53q0 25 -16.5 42.5t-41 32.5t-53.5 29.5t-53.5 33.5t-41 44.5t-16.5 62.5q0 33 13 59t36.5 44t56 27.5t71.5 9.5q30 0 59.5 -5t58.5 -14l3 -123h-44z" glyph-name="s" horiz-adv-x="380" unicode="s"/>
<glyph d="M306 28q-26 -20 -59 -30t-69 -10q-60 0 -86.5 31.5t-26.5 90.5v294h-54v38l61 20l71 154h47v-153h103v-59h-103v-251q0 -51 8.5 -73.5t34.5 -22.5t55 15z" glyph-name="t" horiz-adv-x="314" unicode="t"/>
<glyph d="M505 16q-17 -6 -39 -10q-19 -4 -45 -8.5t-58 -7.5l-26 12v76q-17 -43 -54 -66.5t-92 -23.5q-38 0 -63 12t-39.5 33t-20.5 48.5t-6 58.5v252l-49 18v37q18 5 42 9q20 4 47.5 8.5t62.5 9.5l25 -13q-2 -23 -2.5 -52t-0.5 -66v-168q0 -54 11.5 -84.5t43.5 -30.5q37 0 62.5 43 t25.5 114v175l-49 18v37q18 5 42 9q20 4 47.5 8.5t62.5 9.5l24 -13q-2 -23 -2 -53v-75v-262l50 -19v-36z" glyph-name="u" horiz-adv-x="519" unicode="u"/>
<glyph d="M153 0l-115 402q-8 4 -13.5 8t-10.5 8t-9 9v36h204v-36q-5 -5 -10 -9t-12 -8t-15 -8l82 -313q22 72 38.5 149t25.5 164q-15 7 -25 16q-5 4 -9 9v36h151v-36q-4 -5 -8 -9q-9 -9 -22 -16q-23 -97 -55 -202t-72 -200h-125z" glyph-name="v" horiz-adv-x="440" unicode="v"/>
<glyph d="M656 427q-4 -5 -8 -9q-9 -9 -22 -16q-18 -99 -47 -204t-62 -198h-121l-43 174l-27 105q-12 -76 -25.5 -142t-33.5 -137h-124l-105 402q-8 4 -13.5 8t-10.5 8t-9 9v36h208v-36q-6 -5 -12 -9q-12 -8 -30 -16l42 -185l26 -119q19 84 36 180.5t31 184.5h94l70 -266l21 -100 q18 72 31 148.5t21 156.5q-10 4 -17.5 8t-12.5 8q-6 4 -11 9v36h154v-36z" glyph-name="w" horiz-adv-x="663" unicode="w"/>
<glyph d="M249 0v34q4 3 9 7q5 3 10 7t13 7l-70 124l-67 -123q7 -4 12 -7.5t9 -6.5l8 -8v-34h-170v36q4 5 10 9q11 8 28 15l129 170l-117 174q-8 3 -14.5 7t-11.5 8l-10 8v36h219v-35q-4 -3 -8 -7q-7 -5 -20 -12l60 -103l60 103q-6 2 -11 5.5t-8 6.5l-7 7v35h162v-36q-5 -4 -11 -8 q-5 -4 -12.5 -8t-16.5 -7l-117 -148l133 -196q17 -8 27 -16l10 -8v-36h-228z" glyph-name="x" horiz-adv-x="482" unicode="x"/>
<glyph d="M153 0l-115 402q-8 4 -13.5 8t-10.5 8t-9 9v36h204v-36q-5 -5 -10 -9t-12 -8t-15 -8l82 -313q22 72 38.5 149.5t25.5 163.5q-15 7 -25 16q-5 4 -9 9v36h151v-36l-30 -25q-22 -96 -53.5 -201.5t-73.5 -200.5q-27 -60 -50.5 -99.5t-48 -62.5t-51 -32.5t-57.5 -9.5 q-43 0 -64 15.5t-21 42.5q0 23 14.5 38t37.5 15q20 0 41 -9.5t43 -9.5q13 0 24 5.5t21.5 18t21.5 34t25 54.5h-61z" glyph-name="y" horiz-adv-x="442" unicode="y"/>
<glyph d="M362 0h-344v41l198 374h-102q-6 -22 -13.5 -39.5t-13.5 -30.5q-8 -15 -15 -26h-42l9 144h321v-41l-195 -372h112q8 25 16.5 45.5t16.5 35.5q9 18 18 31h41z" glyph-name="z" horiz-adv-x="391" unicode="z"/>
<glyph d="M299 -196q-52 0 -88.5 6t-59.5 20.5t-33.5 40.5t-10.5 67v251q0 51 -18.5 76.5t-69.5 30.5v39q52 4 70 27.5t18 72.5v228q0 45 11 74t34.5 46t59.5 24t87 7v-39q-48 0 -70.5 -24t-22.5 -76v-226q0 -55 -23.5 -87t-78.5 -46q55 -14 78.5 -45.5t23.5 -86.5v-232 q0 -58 21.5 -83.5t71.5 -25.5v-39z" glyph-name="braceleft" horiz-adv-x="339" unicode="{"/>
<glyph d="M154 -163h-75v991h75v-991z" glyph-name="bar" horiz-adv-x="234" unicode="|"/>
<glyph d="M320 298q-53 -5 -71 -28.5t-18 -72.5v-242q0 -44 -11 -73t-34 -46.5t-59 -24.5t-87 -7v39q48 0 70.5 24t22.5 77v238q0 56 23.5 88t77.5 46q-54 14 -77.5 45.5t-23.5 86.5v218q0 58 -21.5 83.5t-71.5 25.5v39q52 0 88.5 -6t59 -20.5t33 -40.5t10.5 -67v-237 q0 -52 18.5 -77.5t70.5 -30.5v-37z" glyph-name="braceright" horiz-adv-x="339" unicode="}"/>
<glyph d="M453 597q-5 -92 -39.5 -131.5t-86.5 -39.5q-32 0 -56.5 17.5t-45.5 38t-39 38t-37 17.5q-18 0 -31 -19.5t-19 -64.5l-63 8q6 92 40.5 131.5t86.5 39.5q31 0 56 -17.5t46 -38.5t39 -38.5t37 -17.5t31.5 20t18.5 65z" glyph-name="asciitilde" unicode="~"/>
<glyph glyph-name="nonbreakingspace" horiz-adv-x="199" unicode=" "/>
<glyph d="M37 -78q0 34 4 82.5t10 107t12.5 125t12.5 135.5h70q6 -69 13 -135.5t13 -125t10 -107t4 -82.5q0 -42 -20 -64t-55 -22q-34 0 -54 22t-20 64zM34 503q0 37 22.5 59.5t55.5 22.5t55 -22.5t22 -57.5q0 -36 -22.5 -59t-56.5 -23q-32 0 -54 22.5t-22 57.5z" glyph-name="exclamdown" horiz-adv-x="242" unicode="¡"/>
<glyph d="M217 176q-44 3 -76 17.5t-52.5 42t-30.5 69t-10 99.5q0 121 49 185t157 70l10 121h52l-10 -121q59 -4 96.5 -26t37.5 -66q0 -29 -14.5 -44.5t-42.5 -15.5q-25 0 -41 11l-23 88q-4 1 -8 1t-9 1l-27 -364q3 -1 11 -1q71 3 136 36l20 -39q-35 -29 -78.5 -45.5t-93.5 -19.5 l-12 -139h-53zM170 419q0 -70 13.5 -107.5t40.5 -53.5l25 347q-42 -11 -60.5 -58t-18.5 -128z" glyph-name="cent" unicode="¢"/>
<glyph d="M469 135q0 -26 -12.5 -52t-34 -47t-51.5 -34.5t-65 -13.5q-27 0 -49.5 5.5t-43.5 12t-41 12t-40 5.5q-23 0 -40.5 -8.5t-34.5 -25.5l-36 36q53 62 75.5 112.5t22.5 109.5q0 18 -2 34.5t-4 32.5h-89v51h77q-7 32 -13.5 64t-6.5 65q0 42 15.5 75t42.5 55.5t63.5 34.5 t79.5 12q75 0 110 -26t35 -64q0 -25 -15.5 -40.5t-44.5 -15.5q-8 0 -15.5 1t-13.5 3l-36 86q-11 4 -33 4q-31 0 -48 -20.5t-17 -62.5t10 -84.5t18 -86.5h128v-51h-121q3 -17 3 -34q0 -48 -22 -93.5t-74 -90.5q31 13 59 10.5t52.5 -10.5t46 -16.5t40.5 -8.5q10 0 22 5v102 q20 14 47 14t41.5 -15.5t14.5 -41.5z" glyph-name="sterling" unicode="£"/>
<glyph d="M137 663l59 -172l-54 -33l-113 168zM461 626l-112 -168l-54 33l61 172zM257 541q55 0 90 -13t55 -37.5t27.5 -59.5t7.5 -78q0 -37 -8 -73.5t-30.5 -65t-62 -46.5t-102.5 -18q-55 0 -90 12.5t-55.5 36.5t-28 58t-7.5 78q0 37 8 74t30.5 66t62.5 47.5t103 18.5zM245 489 q-37 0 -51.5 -38t-14.5 -101q0 -76 14.5 -112.5t51.5 -36.5q38 0 52 37t14 101q0 75 -14.5 112.5t-51.5 37.5zM195 200l-61 -172l-105 37l113 168zM461 65l-107 -37l-60 172l55 33z" glyph-name="currency" unicode="¤"/>
<glyph d="M482 621q-4 -5 -10 -9q-5 -4 -12.5 -9t-15.5 -9l-133 -287v-15h135v-50h-135v-74h135v-50h-135v-56q17 -5 31 -9.5t25 -8.5t21 -9v-35h-287v35q9 5 21 9q10 4 24.5 8.5t31.5 9.5v56h-134v50h134v74h-134v50h134v15l-131 284q-9 5 -16.5 9.5t-12.5 9.5q-6 5 -10 11v37h223 v-37q-5 -5 -10 -9t-12 -8t-15 -8l91 -207q23 54 41 104.5t30 103.5q-9 4 -15.5 8t-11.5 8l-10 8v37h163v-37z" glyph-name="yen" unicode="¥"/>
<glyph d="M154 -163h-75v395h75v-395zM154 432h-75v396h75v-396z" glyph-name="brokenbar" horiz-adv-x="234" unicode="¦"/>
<glyph d="M492 211q0 -69 -29 -133.5t-74 -114.5t-100.5 -80.5t-108.5 -30.5q-43 0 -64 18.5t-21 44.5q0 25 19 41t51 13l55 -57q52 16 52 68q0 32 -18.5 62t-46 60.5t-59.5 63.5t-59.5 71.5t-46 84t-18.5 100.5q0 69 29 133.5t74 114.5t100.5 80t108.5 30q44 0 64.5 -18t20.5 -44 q0 -25 -18.5 -41t-51.5 -13l-54 57q-25 -8 -39 -25t-14 -44q0 -32 18.5 -61.5t46 -60t59.5 -63.5t59.5 -71.5t46 -84t18.5 -100.5zM398 156q0 51 -22 93t-53 79t-64.5 72.5t-56.5 74t-29 83t18 100.5q-72 -78 -72 -181q0 -51 22 -93t53 -79t64.5 -72.5t56.5 -74t28.5 -83 t-18.5 -100.5q73 76 73 181z" glyph-name="section" horiz-adv-x="517" unicode="§"/>
<glyph d="M164 610q0 -31 -19.5 -50.5t-49.5 -19.5q-29 0 -47.5 19t-18.5 49t19 50t49 20q29 0 48 -19.5t19 -48.5zM342 610q0 -31 -19 -50.5t-50 -19.5q-29 0 -47.5 19t-18.5 49t19 50t49 20q29 0 48 -19.5t19 -48.5z" glyph-name="dieresis" horiz-adv-x="371" unicode="¨"/>
<glyph d="M721 349q0 -78 -26 -145t-71.5 -116t-108.5 -77t-137 -28t-135.5 27.5t-106 75.5t-69.5 113.5t-25 142.5q0 78 26 145.5t71.5 116.5t108.5 77t137 28t135.5 -27.5t106 -75.5t69.5 -114t25 -143zM655 344q0 67 -20 124.5t-56 100.5t-86.5 67.5t-111.5 24.5t-111 -24.5 t-86 -66.5t-56 -99.5t-20 -123.5t19.5 -124t55.5 -101t86.5 -67.5t112.5 -24.5q61 0 111 24.5t86 67t56 99.5t20 123zM538 195q-31 -32 -74 -49.5t-91 -17.5q-89 0 -133 49t-44 160q0 122 50 178t150 56q65 0 101.5 -23t36.5 -62q0 -26 -13.5 -40t-40.5 -14q-24 0 -41 11 l-21 78q-5 2 -12 3t-14 1q-35 0 -54.5 -40t-19.5 -133q0 -88 23 -124.5t70 -36.5q27 0 51.5 9.5t50.5 28.5z" glyph-name="copyright" horiz-adv-x="762" unicode="©"/>
<glyph d="M374 357l-28 -7q-14 -3 -32 -6.5t-41 -6.5l-21 11q-2 9 -4.5 21t-4.5 23q-14 -27 -42 -42t-63 -15q-47 0 -70.5 24.5t-23.5 70.5v8q0 51 39.5 80.5t121.5 29.5h13t13 -1v43q0 41 -11 57t-33 16q-8 0 -14.5 -1t-12.5 -3l-18 -61q-18 -5 -36 -5q-47 0 -47 41q0 30 35 49.5 t110 19.5q72 0 102.5 -26t30.5 -83q0 -29 -0.5 -63.5t-0.5 -63.5q0 -20 2 -36t5 -29l31 -12v-33zM366 221h-311v47h311v-47zM230 507q-5 1 -12 1.5t-15 0.5q-56 0 -56 -62q0 -30 8 -42.5t23 -12.5q23 0 37.5 25.5t14.5 62.5v27z" glyph-name="ordfeminine" horiz-adv-x="415" unicode="ª"/>
<glyph d="M33 252l183 230l42 -23l-99 -206l99 -208l-42 -23zM226 252l163 208l42 -23l-84 -184l84 -187l-42 -22z" glyph-name="guillemotleft" horiz-adv-x="470" unicode="«"/>
<glyph d="M449 78h-72v195h-352v57h424v-252z" glyph-name="logicalnot" unicode="¬"/>
<glyph d="M556 450q0 -54 -18 -103t-52 -86.5t-82 -60t-108 -22.5q-57 0 -104 20t-80.5 55.5t-51.5 84t-18 105.5q0 54 18 103t51.5 86.5t82 60t108.5 22.5q57 0 104 -20t80.5 -55.5t51.5 -84t18 -105.5zM498 447q0 40 -13 80t-38 71.5t-62 51t-86 19.5q-48 0 -85 -18.5t-62 -49.5 t-38 -71.5t-13 -83.5q0 -41 12.5 -80.5t37.5 -71t62 -51t86 -19.5q48 0 85 18.5t62.5 49.5t38.5 71.5t13 83.5zM440 323q-26 -13 -55 -13q-20 0 -32.5 10t-20.5 38l-12 38q-8 20 -14.5 27t-17.5 7h-12v-81q6 -2 11.5 -3t9.5 -3t8 -3v-27h-132v27q5 1 9 3t9 2.5t12 2.5v199 q-6 1 -11 2.5t-9 3.5t-8 3v27h131q57 0 81 -17t24 -52q0 -24 -14.5 -40.5t-47.5 -24.5q20 -4 30 -15t15 -28l12 -32q2 -11 4.5 -16t4.5 -7l25 -8v-20zM335 508q0 25 -10 35t-30 10h-19v-92h16q43 0 43 47z" glyph-name="registered" horiz-adv-x="595" unicode="®"/>
<glyph d="M322 621q0 -32 -10.5 -57.5t-30 -44.5t-46.5 -29t-60 -10q-66 0 -105 37.5t-39 101.5q0 31 10.5 57.5t30 45t46.5 29t59 10.5q67 0 106 -38t39 -102zM245 619q0 39 -19 61.5t-50 22.5t-49.5 -22t-18.5 -61q0 -38 18.5 -60.5t49.5 -22.5t50 22t19 60z" glyph-name="degree" horiz-adv-x="354" unicode="°"/>
<glyph d="M461 344h-182v-201h-68v201h-182v57h182v196h68v-196h182v-57zM461 0h-432v57h432v-57z" glyph-name="plusminus" unicode="±"/>
<glyph d="M214 497q2 12 5.5 21.5t6.5 17.5q4 8 6 15h30v-112h-238v39q46 42 73.5 71.5t42.5 52.5t20 42t5 40q0 24 -9.5 34.5t-24.5 10.5q-6 0 -12.5 -1t-11.5 -3l-19 -63q-23 -11 -43.5 -4t-20.5 32q0 34 31 54.5t85 20.5q58 0 85 -20.5t27 -58.5q0 -21 -6 -39.5t-22.5 -40 t-46 -48t-76.5 -61.5h113z" glyph-name="twosuperior" horiz-adv-x="292" unicode="²"/>
<glyph d="M22 496q0 21 17.5 30t38.5 0l22 -55q5 -2 12.5 -3t15.5 -1q23 0 36.5 15t13.5 47t-16.5 44.5t-54.5 12.5h-20v35h17q33 0 48.5 13.5t15.5 44.5q0 29 -9 40t-28 11q-15 0 -25 -3l-18 -50q-9 -5 -19.5 -6.5t-19.5 1t-15.5 10t-6.5 19.5q0 28 30 46t83 18q59 0 85.5 -18.5 t26.5 -53.5q0 -26 -18.5 -46t-53.5 -29q42 -5 62 -24.5t20 -57.5q0 -48 -35 -75t-101 -27q-54 0 -79 17t-25 45z" glyph-name="threesuperior" horiz-adv-x="289" unicode="³"/>
<glyph d="M221 667l-139 -134h-53v27l77 134h115v-27z" glyph-name="acute" horiz-adv-x="250" unicode="´"/>
<glyph d="M530 655q-7 -5 -17 -10q-8 -5 -19.5 -10t-25.5 -9v-665l29 -57q9 -23 9 -41q0 -32 -21 -50t-54 -18t-53 19t-20 56q1 34 8 97t14.5 157.5t13 221.5t5.5 289h-57q0 -109 -4.5 -213t-12.5 -206t-20.5 -204t-30.5 -207h-72q21 118 37 235t25 236q-61 -2 -105 6t-72.5 30 t-42 59t-13.5 92q0 107 63 167.5t191 60.5h245v-36zM265 635q-104 0 -104 -160q0 -74 23 -108.5t83 -37.5q4 75 6 151.5t2 154.5h-10z" glyph-name="paragraph" horiz-adv-x="559" unicode="¶"/>
<glyph d="M224 -108q0 -39 -46 -64t-146 -33l-4 36q51 8 68 20.5t17 28.5q0 25 -40 38l47 82h61l-23 -41q66 -23 66 -67z" glyph-name="cedilla" horiz-adv-x="252" unicode="¸"/>
<glyph d="M241 439h-204v30q7 3 17 6l20 5t27 6v208l-36 -8t-34 -7v36q32 12 56.5 22.5t48.5 24.5h53q-1 -17 -1.5 -34t-0.5 -34v-208q24 -6 39 -11l15 -5v-31z" glyph-name="onesuperior" horiz-adv-x="271" unicode="¹"/>
<glyph d="M222 703q48 0 79 -11.5t48.5 -34t24 -55t6.5 -73.5q0 -38 -8 -72.5t-27.5 -61t-54 -42.5t-86.5 -16q-48 0 -79 11.5t-48.5 34t-24.5 55t-7 73.5q0 38 8 72.5t28 61t54 42.5t87 16zM367 221h-308v47h308v-47zM214 661q-32 0 -45.5 -33.5t-13.5 -100.5q0 -76 11.5 -111.5 t45.5 -35.5q33 0 46.5 33t13.5 101q0 77 -13 112t-45 35z" glyph-name="ordmasculine" horiz-adv-x="426" unicode="º"/>
<glyph d="M436 253l-182 -231l-42 23l98 207l-98 207l42 23zM244 253l-163 -209l-42 23l83 185l-83 185l42 23z" glyph-name="guillemotright" horiz-adv-x="470" unicode="»"/>
<glyph d="M241 371h-204v30q7 3 17 6l20 5t27 6v208l-36 -8t-34 -7v36q32 12 56.5 22.5t48.5 24.5h53q-1 -17 -1.5 -34t-0.5 -34v-208q24 -6 39 -11l15 -5v-31zM601 720l-459 -749h-64l459 749h64zM618 75h-58v-36q8 -2 15.5 -4t12.5 -4q6 -2 11 -4v-28h-158v28l12 4q5 2 12.5 4 t17.5 4v36h-132v42l124 204h85v-193h58v-53zM483 128v140l-79 -140h79z" glyph-name="onequarter" horiz-adv-x="664" unicode="¼"/>
<glyph d="M241 371h-204v30q7 3 17 6l20 5t27 6v208l-36 -8t-34 -7v36q32 12 56.5 22.5t48.5 24.5h53q-1 -17 -1.5 -34t-0.5 -34v-208q24 -6 39 -11l15 -5v-31zM601 720l-459 -749h-64l459 749h64zM580 57q2 12 5.5 21.5t6.5 17.5q4 8 6 15h30v-112h-238v39q46 42 73.5 71.5 t42.5 52.5t20 42t5 40q0 24 -9.5 34.5t-24.5 10.5q-6 0 -12.5 -1t-11.5 -3l-19 -63q-23 -11 -43.5 -4t-20.5 32q0 34 31 54.5t85 20.5q58 0 85 -20.5t27 -58.5q0 -21 -6 -39.5t-22.5 -40t-46 -48t-76.5 -61.5h113z" glyph-name="onehalf" horiz-adv-x="664" unicode="½"/>
<glyph d="M22 428q0 21 17.5 30t38.5 0l22 -55q5 -2 12.5 -3t15.5 -1q23 0 36.5 15t13.5 47t-16.5 44.5t-54.5 12.5h-20v35h17q33 0 48.5 13.5t15.5 44.5q0 29 -9 40t-28 11q-15 0 -25 -3l-18 -50q-9 -5 -19.5 -6.5t-19.5 1t-15.5 10t-6.5 19.5q0 28 30 46t83 18q59 0 85.5 -18.5 t26.5 -53.5q0 -26 -18.5 -46t-53.5 -29q42 -5 62 -24.5t20 -57.5q0 -48 -35 -75t-101 -27q-54 0 -79 17t-25 45zM601 720l-459 -749h-64l459 749h64zM618 75h-58v-36q8 -2 15.5 -4t12.5 -4q6 -2 11 -4v-28h-158v28l12 4q5 2 12.5 4t17.5 4v36h-132v42l124 204h85v-193h58 v-53zM483 128v140l-79 -140h79z" glyph-name="threequarters" horiz-adv-x="664" unicode="¾"/>
<glyph d="M28 -30q0 38 12.5 68.5t31.5 57t41 50t41 46.5t31.5 47.5t12.5 53.5v79h70q13 -29 21.5 -57t8.5 -59q0 -45 -21 -78.5t-45.5 -63.5t-45.5 -61.5t-21 -73.5q0 -88 62 -88q10 0 18.5 2.5t15.5 5.5l35 110q4 0 9 1q10 2 21 2q63 0 63 -62q0 -31 -17 -53t-43.5 -35.5 t-59.5 -19.5t-66 -6q-175 0 -175 134zM157 503q0 37 22.5 59.5t55.5 22.5t54.5 -22.5t21.5 -57.5q0 -36 -22 -58.5t-56 -22.5q-32 0 -54 22t-22 57z" glyph-name="questiondown" horiz-adv-x="419" unicode="¿"/>
<glyph d="M580 0h-252v36q7 6 17 11q8 5 19 10t25 10l-28 111h-193q-4 -27 -7.5 -56t-6.5 -55q26 -11 43 -20q10 -5 17 -10v-37h-209v37q5 5 12 10q6 5 14 10t19 10q40 160 83 316t96 308h133l173 -624q10 -5 18.5 -10t14.5 -10q7 -5 12 -10v-37zM345 234l-92 352q-11 -41 -22 -87 t-21 -92t-18.5 -90.5t-14.5 -82.5h168zM335 747h-54l-148 114v27h122l80 -114v-27z" glyph-name="Agrave" horiz-adv-x="585" unicode="À"/>
<glyph d="M580 0h-252v36q7 6 17 11q8 5 19 10t25 10l-28 111h-193q-4 -27 -7.5 -56t-6.5 -55q26 -11 43 -20q10 -5 17 -10v-37h-209v37q5 5 12 10q6 5 14 10t19 10q40 160 83 316t96 308h133l173 -624q10 -5 18.5 -10t14.5 -10q7 -5 12 -10v-37zM345 234l-92 352q-11 -41 -22 -87 t-21 -92t-18.5 -90.5t-14.5 -82.5h168zM449 861l-148 -114h-53v27l80 114h121v-27z" glyph-name="Aacute" horiz-adv-x="585" unicode="Á"/>
<glyph d="M580 0h-252v36q7 6 17 11q8 5 19 10t25 10l-28 111h-193q-4 -27 -7.5 -56t-6.5 -55q26 -11 43 -20q10 -5 17 -10v-37h-209v37q5 5 12 10q6 5 14 10t19 10q40 160 83 316t96 308h133l173 -624q10 -5 18.5 -10t14.5 -10q7 -5 12 -10v-37zM345 234l-92 352q-11 -41 -22 -87 t-21 -92t-18.5 -90.5t-14.5 -82.5h168zM423 747h-55l-74 58l-75 -58h-54v27l92 115h74l92 -115v-27z" glyph-name="Acircumflex" horiz-adv-x="585" unicode="Â"/>
<glyph d="M580 0h-252v36q7 6 17 11q8 5 19 10t25 10l-28 111h-193q-4 -27 -7.5 -56t-6.5 -55q26 -11 43 -20q10 -5 17 -10v-37h-209v37q5 5 12 10q6 5 14 10t19 10q40 160 83 316t96 308h133l173 -624q10 -5 18.5 -10t14.5 -10q7 -5 12 -10v-37zM345 234l-92 352q-11 -41 -22 -87 t-21 -92t-18.5 -90.5t-14.5 -82.5h168zM451 840q-20 -50 -44.5 -71.5t-59.5 -21.5q-24 0 -42.5 8.5t-34 19t-28 19t-24.5 8.5q-11 0 -21 -8t-23 -30l-38 26q20 49 44.5 71t59.5 22q23 0 41.5 -9t34 -19.5t28 -19t24.5 -8.5q11 0 21 8.5t23 30.5z" glyph-name="Atilde" horiz-adv-x="585" unicode="Ã"/>
<glyph d="M580 0h-252v36q7 6 17 11q8 5 19 10t25 10l-28 111h-193q-4 -27 -7.5 -56t-6.5 -55q26 -11 43 -20q10 -5 17 -10v-37h-209v37q5 5 12 10q6 5 14 10t19 10q40 160 83 316t96 308h133l173 -624q10 -5 18.5 -10t14.5 -10q7 -5 12 -10v-37zM345 234l-92 352q-11 -41 -22 -87 t-21 -92t-18.5 -90.5t-14.5 -82.5h168zM266 814q0 -31 -19.5 -51t-49.5 -20q-29 0 -47.5 19.5t-18.5 49.5t19 49.5t49 19.5q29 0 48 -19t19 -48zM456 814q0 -31 -19.5 -51t-49.5 -20q-29 0 -48 19.5t-19 49.5t19.5 49.5t49.5 19.5q29 0 48 -19t19 -48z" glyph-name="Adieresis" horiz-adv-x="585" unicode="Ä"/>
<glyph d="M580 0h-252v36q7 6 17 11q8 5 19 10t25 10l-28 111h-193q-4 -27 -7.5 -56t-6.5 -55q26 -11 43 -20q10 -5 17 -10v-37h-209v37q5 5 12 10q6 5 14 10t19 10q40 160 83 316t96 308h133l173 -624q10 -5 18.5 -10t14.5 -10q7 -5 12 -10v-37zM345 234l-92 352q-11 -41 -22 -87 t-21 -92t-18.5 -90.5t-14.5 -82.5h168zM414 822q0 -48 -31.5 -71t-91.5 -23q-118 0 -118 85q0 47 31.5 70t91.5 23q59 0 88.5 -20t29.5 -64zM327 817q0 52 -34 52q-18 0 -25.5 -13t-7.5 -39q0 -25 7.5 -38.5t26.5 -13.5q33 0 33 52z" glyph-name="Aring" horiz-adv-x="585" unicode="Å"/>
<glyph d="M710 0h-442v37q7 5 18 10q8 5 20.5 10t26.5 10v111h-178q-9 -29 -18 -57t-17 -54q23 -11 37 -20q8 -5 14 -10v-37h-203v37q6 5 14 10q7 5 15.5 10t19.5 10q60 144 122 285.5t126 271.5q-15 5 -27.5 10t-21.5 10q-11 5 -18 11v36h499l9 -166h-50q-9 13 -18 30 q-8 14 -16.5 34t-16.5 45h-136v-244h79q6 17 12.5 31t12.5 24q6 11 13 20h43v-210h-43q-7 10 -13 22q-6 11 -12.5 25.5t-12.5 32.5h-79v-278h141q8 29 16.5 52.5t16.5 40.5q9 20 18 36h49v-186zM333 234v390h-3q-46 -100 -84.5 -196.5t-70.5 -193.5h158z" glyph-name="AE" horiz-adv-x="745" unicode="Æ"/>
<glyph d="M357 -108q0 -39 -46 -64t-146 -33l-5 36q51 8 68.5 20.5t17.5 28.5q0 25 -41 38l41 71q-58 5 -98.5 27.5t-66 64t-37 103.5t-11.5 146q0 91 16 160.5t51 117t89.5 71.5t131.5 24q38 0 75.5 -5.5t72.5 -16.5l-13 -177h-48q-7 16 -13 35q-5 17 -12 40.5t-12 52.5 q-27 15 -63 15q-71 0 -102 -75.5t-31 -212.5q0 -85 7 -144.5t23 -97t42.5 -55t65.5 -17.5q17 0 32.5 2.5t26.5 7.5q8 34 17 61.5t17 47.5q10 23 19 41h49v-178q-38 -18 -81.5 -27.5t-86.5 -11.5l-16 -29q67 -23 67 -67z" glyph-name="Ccedilla" horiz-adv-x="504" unicode="Ç"/>
<glyph d="M472 0h-445v37q7 5 18 10q9 5 21.5 10t27.5 10v557q-15 5 -27.5 10t-20.5 10q-11 5 -18 11v36h430l8 -166h-49q-9 13 -18 30q-8 14 -16 34t-16 45h-136v-243h78q12 33 25 54q6 11 13 20h44v-210h-44q-7 10 -13 22q-5 11 -12 25.5t-12 33.5h-79v-279h140q8 29 16.5 52.5 t16.5 40.5q9 20 18 36h50v-186zM303 747h-54l-148 114v27h122l80 -114v-27z" glyph-name="Egrave" horiz-adv-x="506" unicode="È"/>
<glyph d="M472 0h-445v37q7 5 18 10q9 5 21.5 10t27.5 10v557q-15 5 -27.5 10t-20.5 10q-11 5 -18 11v36h430l8 -166h-49q-9 13 -18 30q-8 14 -16 34t-16 45h-136v-243h78q12 33 25 54q6 11 13 20h44v-210h-44q-7 10 -13 22q-5 11 -12 25.5t-12 33.5h-79v-279h140q8 29 16.5 52.5 t16.5 40.5q9 20 18 36h50v-186zM416 861l-148 -114h-53v27l80 114h121v-27z" glyph-name="Eacute" horiz-adv-x="506" unicode="É"/>
<glyph d="M472 0h-445v37q7 5 18 10q9 5 21.5 10t27.5 10v557q-15 5 -27.5 10t-20.5 10q-11 5 -18 11v36h430l8 -166h-49q-9 13 -18 30q-8 14 -16 34t-16 45h-136v-243h78q12 33 25 54q6 11 13 20h44v-210h-44q-7 10 -13 22q-5 11 -12 25.5t-12 33.5h-79v-279h140q8 29 16.5 52.5 t16.5 40.5q9 20 18 36h50v-186zM391 747h-55l-74 58l-75 -58h-54v27l92 115h74l92 -115v-27z" glyph-name="Ecircumflex" horiz-adv-x="506" unicode="Ê"/>
<glyph d="M472 0h-445v37q7 5 18 10q9 5 21.5 10t27.5 10v557q-15 5 -27.5 10t-20.5 10q-11 5 -18 11v36h430l8 -166h-49q-9 13 -18 30q-8 14 -16 34t-16 45h-136v-243h78q12 33 25 54q6 11 13 20h44v-210h-44q-7 10 -13 22q-5 11 -12 25.5t-12 33.5h-79v-279h140q8 29 16.5 52.5 t16.5 40.5q9 20 18 36h50v-186zM232 814q0 -31 -19.5 -51t-49.5 -20q-29 0 -47.5 19.5t-18.5 49.5t19 49.5t49 19.5q29 0 48 -19t19 -48zM422 814q0 -31 -19.5 -51t-49.5 -20q-29 0 -48 19.5t-19 49.5t19.5 49.5t49.5 19.5q29 0 48 -19t19 -48z" glyph-name="Edieresis" horiz-adv-x="506" unicode="Ë"/>
<glyph d="M27 0v37q7 5 18 10q9 5 21.5 10t27.5 10v557q-15 5 -27 10t-21 10q-11 5 -18 11v36h268v-36q-8 -6 -18 -11q-8 -5 -20.5 -10t-26.5 -10v-557q14 -5 26.5 -10t20.5 -10q10 -5 18 -10v-37h-269zM208 747h-54l-148 114v27h122l80 -114v-27z" glyph-name="Igrave" horiz-adv-x="325" unicode="Ì"/>
<glyph d="M27 0v37q7 5 18 10q9 5 21.5 10t27.5 10v557q-15 5 -27 10t-21 10q-11 5 -18 11v36h268v-36q-8 -6 -18 -11q-8 -5 -20.5 -10t-26.5 -10v-557q14 -5 26.5 -10t20.5 -10q10 -5 18 -10v-37h-269zM317 861l-148 -114h-53v27l80 114h121v-27z" glyph-name="Iacute" horiz-adv-x="325" unicode="Í"/>
<glyph d="M27 0v37q7 5 18 10q9 5 21.5 10t27.5 10v557q-15 5 -27 10t-21 10q-11 5 -18 11v36h268v-36q-8 -6 -18 -11q-8 -5 -20.5 -10t-26.5 -10v-557q14 -5 26.5 -10t20.5 -10q10 -5 18 -10v-37h-269zM291 747h-55l-74 58l-75 -58h-54v27l92 115h74l92 -115v-27z" glyph-name="Icircumflex" horiz-adv-x="325" unicode="Î"/>
<glyph d="M27 0v37q7 5 18 10q9 5 21.5 10t27.5 10v557q-15 5 -27 10t-21 10q-11 5 -18 11v36h268v-36q-8 -6 -18 -11q-8 -5 -20.5 -10t-26.5 -10v-557q14 -5 26.5 -10t20.5 -10q10 -5 18 -10v-37h-269zM134 814q0 -31 -19.5 -51t-49.5 -20q-29 0 -47.5 19.5t-18.5 49.5t19 49.5 t49 19.5q29 0 48 -19t19 -48zM324 814q0 -31 -19.5 -51t-49.5 -20q-29 0 -48 19.5t-19 49.5t19.5 49.5t49.5 19.5q29 0 48 -19t19 -48z" glyph-name="Idieresis" horiz-adv-x="325" unicode="Ï"/>
<glyph d="M594 366q0 -90 -18 -158.5t-57.5 -114.5t-102.5 -69.5t-153 -23.5h-230v37q7 5 18 10q9 5 21.5 10t27.5 10v269h-71v55h71v233q-15 5 -27 10t-20 10q-10 5 -18 11v36h274q73 0 126.5 -17.5t88.5 -56.5t52.5 -101t17.5 -150zM452 343q0 148 -34.5 219.5t-124.5 71.5 q-16 0 -30.5 -0.5t-25.5 -1.5v-241h92v-55h-92v-276q10 -2 22.5 -2.5t23.5 -0.5q47 0 79 17t52 52t29 89t9 128z" glyph-name="Eth" horiz-adv-x="627" unicode="Ð"/>
<glyph d="M599 655q-7 -6 -16 -11q-8 -5 -18.5 -10t-24.5 -10l-9 -627h-120l-225 477l-23 71l20 -478q16 -5 29.5 -10t22.5 -10q11 -5 19 -10v-37h-229v37q7 5 18 10q8 5 20.5 10t27.5 10l8 557q-16 5 -28.5 10t-21.5 10q-11 5 -19 11v36h214l199 -419l27 -80l-17 432 q-15 5 -27.5 10t-20.5 10q-10 5 -17 11v36h211v-36zM472 840q-20 -50 -44.5 -71.5t-59.5 -21.5q-24 0 -42.5 8.5t-34 19t-28 19t-24.5 8.5q-11 0 -21 -8t-23 -30l-38 26q20 49 44.5 71t59.5 22q23 0 41.5 -9t34 -19.5t28 -19t24.5 -8.5q11 0 21 8.5t23 30.5z" glyph-name="Ntilde" horiz-adv-x="612" unicode="Ñ"/>
<glyph d="M320 703q73 0 123 -18.5t81.5 -59.5t45.5 -106.5t14 -158.5q0 -87 -14 -156t-47.5 -117.5t-88.5 -74t-137 -25.5q-73 0 -123.5 18.5t-81.5 59.5t-45 106.5t-14 159.5q0 87 14 156t47.5 117t88.5 73.5t137 25.5zM309 647q-71 0 -103 -72t-32 -228q0 -84 8.5 -141.5 t25 -93.5t42 -52t58.5 -16q71 0 102.5 71.5t31.5 227.5q0 84 -8.5 142t-25 94t-41.5 52t-58 16zM350 747h-54l-148 114v27h122l80 -114v-27z" glyph-name="Ograve" horiz-adv-x="617" unicode="Ò"/>
<glyph d="M320 703q73 0 123 -18.5t81.5 -59.5t45.5 -106.5t14 -158.5q0 -87 -14 -156t-47.5 -117.5t-88.5 -74t-137 -25.5q-73 0 -123.5 18.5t-81.5 59.5t-45 106.5t-14 159.5q0 87 14 156t47.5 117t88.5 73.5t137 25.5zM309 647q-71 0 -103 -72t-32 -228q0 -84 8.5 -141.5 t25 -93.5t42 -52t58.5 -16q71 0 102.5 71.5t31.5 227.5q0 84 -8.5 142t-25 94t-41.5 52t-58 16zM469 861l-148 -114h-53v27l80 114h121v-27z" glyph-name="Oacute" horiz-adv-x="617" unicode="Ó"/>
<glyph d="M320 703q73 0 123 -18.5t81.5 -59.5t45.5 -106.5t14 -158.5q0 -87 -14 -156t-47.5 -117.5t-88.5 -74t-137 -25.5q-73 0 -123.5 18.5t-81.5 59.5t-45 106.5t-14 159.5q0 87 14 156t47.5 117t88.5 73.5t137 25.5zM309 647q-71 0 -103 -72t-32 -228q0 -84 8.5 -141.5 t25 -93.5t42 -52t58.5 -16q71 0 102.5 71.5t31.5 227.5q0 84 -8.5 142t-25 94t-41.5 52t-58 16zM437 747h-55l-74 58l-75 -58h-54v27l92 115h74l92 -115v-27z" glyph-name="Ocircumflex" horiz-adv-x="617" unicode="Ô"/>
<glyph d="M320 703q73 0 123 -18.5t81.5 -59.5t45.5 -106.5t14 -158.5q0 -87 -14 -156t-47.5 -117.5t-88.5 -74t-137 -25.5q-73 0 -123.5 18.5t-81.5 59.5t-45 106.5t-14 159.5q0 87 14 156t47.5 117t88.5 73.5t137 25.5zM309 647q-71 0 -103 -72t-32 -228q0 -84 8.5 -141.5 t25 -93.5t42 -52t58.5 -16q71 0 102.5 71.5t31.5 227.5q0 84 -8.5 142t-25 94t-41.5 52t-58 16zM466 840q-20 -50 -44.5 -71.5t-59.5 -21.5q-24 0 -42.5 8.5t-34 19t-28 19t-24.5 8.5q-11 0 -21 -8t-23 -30l-38 26q20 49 44.5 71t59.5 22q23 0 41.5 -9t34 -19.5t28 -19 t24.5 -8.5q11 0 21 8.5t23 30.5z" glyph-name="Otilde" horiz-adv-x="617" unicode="Õ"/>
<glyph d="M320 703q73 0 123 -18.5t81.5 -59.5t45.5 -106.5t14 -158.5q0 -87 -14 -156t-47.5 -117.5t-88.5 -74t-137 -25.5q-73 0 -123.5 18.5t-81.5 59.5t-45 106.5t-14 159.5q0 87 14 156t47.5 117t88.5 73.5t137 25.5zM309 647q-71 0 -103 -72t-32 -228q0 -84 8.5 -141.5 t25 -93.5t42 -52t58.5 -16q71 0 102.5 71.5t31.5 227.5q0 84 -8.5 142t-25 94t-41.5 52t-58 16zM281 814q0 -31 -19.5 -51t-49.5 -20q-29 0 -47.5 19.5t-18.5 49.5t19 49.5t49 19.5q29 0 48 -19t19 -48zM471 814q0 -31 -19.5 -51t-49.5 -20q-29 0 -48 19.5t-19 49.5 t19.5 49.5t49.5 19.5q29 0 48 -19t19 -48z" glyph-name="Odieresis" horiz-adv-x="617" unicode="Ö"/>
<glyph d="M288 300l160 -163l-44 -42l-159 161l-160 -161l-42 41l160 163l-160 164l43 42l160 -162l159 162l43 -41z" glyph-name="multiply" unicode="×"/>
<glyph d="M187 0q-42 12 -71.5 37t-48 65.5t-26.5 97t-8 131.5q0 86 14 155t47 117t87.5 74t135.5 26q32 0 55 -4l31 107l56 -13l-30 -103q42 -12 71.5 -37t48 -65.5t27 -96.5t8.5 -131q0 -86 -14 -155t-47.5 -117.5t-88 -74.5t-135.5 -26q-32 0 -55 4l-30 -107l-56 12zM449 343 q0 91 -11.5 152.5t-32.5 104.5h-1l-143 -549q21 -9 47 -9q74 0 107.5 72t33.5 229zM167 347q0 -90 11.5 -151.5t32.5 -104.5h1l143 548q-10 5 -21.5 7t-24.5 2q-75 0 -108.5 -71.5t-33.5 -229.5z" glyph-name="Oslash" horiz-adv-x="617" unicode="Ø"/>
<glyph d="M614 655q-8 -6 -17 -11q-8 -5 -18.5 -10t-24.5 -10l-8 -367q-2 -63 -16 -113t-42.5 -85t-72.5 -53.5t-104 -18.5q-121 0 -176.5 53.5t-55.5 168.5v415q-14 5 -25.5 10t-19.5 10q-10 5 -17 11v36h261v-36q-7 -6 -17 -11q-8 -5 -20 -10t-26 -10v-391q0 -94 27.5 -140 t94.5 -46q70 0 99 49t26 160l-8 368q-14 5 -25 10t-19 10q-10 5 -16 11v36h220v-36zM360 747h-54l-148 114v27h122l80 -114v-27z" glyph-name="Ugrave" horiz-adv-x="628" unicode="Ù"/>
<glyph d="M614 655q-8 -6 -17 -11q-8 -5 -18.5 -10t-24.5 -10l-8 -367q-2 -63 -16 -113t-42.5 -85t-72.5 -53.5t-104 -18.5q-121 0 -176.5 53.5t-55.5 168.5v415q-14 5 -25.5 10t-19.5 10q-10 5 -17 11v36h261v-36q-7 -6 -17 -11q-8 -5 -20 -10t-26 -10v-391q0 -94 27.5 -140 t94.5 -46q70 0 99 49t26 160l-8 368q-14 5 -25 10t-19 10q-10 5 -16 11v36h220v-36zM486 861l-148 -114h-53v27l80 114h121v-27z" glyph-name="Uacute" horiz-adv-x="628" unicode="Ú"/>
<glyph d="M614 655q-8 -6 -17 -11q-8 -5 -18.5 -10t-24.5 -10l-8 -367q-2 -63 -16 -113t-42.5 -85t-72.5 -53.5t-104 -18.5q-121 0 -176.5 53.5t-55.5 168.5v415q-14 5 -25.5 10t-19.5 10q-10 5 -17 11v36h261v-36q-7 -6 -17 -11q-8 -5 -20 -10t-26 -10v-391q0 -94 27.5 -140 t94.5 -46q70 0 99 49t26 160l-8 368q-14 5 -25 10t-19 10q-10 5 -16 11v36h220v-36zM460 747h-55l-74 58l-75 -58h-54v27l92 115h74l92 -115v-27z" glyph-name="Ucircumflex" horiz-adv-x="628" unicode="Û"/>
<glyph d="M614 655q-8 -6 -17 -11q-8 -5 -18.5 -10t-24.5 -10l-8 -367q-2 -63 -16 -113t-42.5 -85t-72.5 -53.5t-104 -18.5q-121 0 -176.5 53.5t-55.5 168.5v415q-14 5 -25.5 10t-19.5 10q-10 5 -17 11v36h261v-36q-7 -6 -17 -11q-8 -5 -20 -10t-26 -10v-391q0 -94 27.5 -140 t94.5 -46q70 0 99 49t26 160l-8 368q-14 5 -25 10t-19 10q-10 5 -16 11v36h220v-36zM301 814q0 -31 -19.5 -51t-49.5 -20q-29 0 -47.5 19.5t-18.5 49.5t19 49.5t49 19.5q29 0 48 -19t19 -48zM491 814q0 -31 -19.5 -51t-49.5 -20q-29 0 -48 19.5t-19 49.5t19.5 49.5 t49.5 19.5q29 0 48 -19t19 -48z" glyph-name="Udieresis" horiz-adv-x="628" unicode="Ü"/>
<glyph d="M548 655q-5 -6 -12 -11q-6 -5 -14 -10t-18 -10l-161 -359v-197q18 -5 32.5 -10.5t25.5 -10.5q12 -5 22 -11v-36h-297v36q10 6 22 11q11 5 25.5 10.5t32.5 10.5v197l-162 359q-10 5 -17.5 10t-12.5 10q-6 5 -12 11v36h244v-36q-5 -6 -12 -11q-13 -10 -33 -19l114 -267 q29 66 50.5 133t38.5 134q-11 5 -18.5 9.5t-13.5 9.5q-7 5 -12 11v36h188v-36zM450 861l-148 -114h-53v27l80 114h121v-27z" glyph-name="Yacute" horiz-adv-x="550" unicode="Ý"/>
<glyph d="M520 363q0 -49 -13 -91t-42 -72.5t-76.5 -47.5t-117.5 -17h-19.5t-20.5 1v-69q16 -5 29.5 -10t22.5 -10q11 -5 19 -11v-36h-275v37q7 5 18 10q9 5 21.5 10t27.5 10v557q-15 5 -27.5 10t-20.5 10q-11 5 -18 11v36h268v-36q-8 -6 -18 -11q-9 -5 -21 -9.5t-26 -9.5v-67h73 q59 0 100 -13t67 -37.5t37.5 -61t11.5 -83.5zM379 349q0 76 -25 114t-83 38h-40v-305q20 -4 51 -4q46 0 71.5 37t25.5 120z" glyph-name="Thorn" horiz-adv-x="528" unicode="Þ"/>
<glyph d="M548 143q0 -68 -45.5 -111.5t-131.5 -43.5q-65 0 -97 21t-32 58q0 26 15 41t44 15q15 0 29 -3l19 -77q5 -2 13.5 -3.5t16.5 -1.5q61 0 61 63q0 27 -14 48t-35 39.5t-46 36t-46 38.5t-35 46.5t-14 60.5q0 37 16 63t35.5 50t35.5 50t16 63q0 40 -19.5 60.5t-55.5 20.5 q-42 0 -62.5 -29.5t-20.5 -100.5v-547h-177v36q6 5 14 9q7 4 16.5 8t21.5 8v343h-56v38q7 2 16 6q8 3 17.5 6.5t22.5 6.5v33q0 116 53 176t172 60q40 0 73.5 -7t58 -21t38.5 -36t14 -52q0 -35 -20 -58.5t-44 -44.5t-44 -43t-20 -54q0 -23 15 -42.5t36.5 -38t47 -37.5 t47.5 -41t36.5 -49.5t14.5 -62.5z" glyph-name="germandbls" horiz-adv-x="564" unicode="ß"/>
<glyph d="M440 15q-16 -5 -36 -9q-17 -4 -41 -8.5t-53 -7.5l-24 12q-3 13 -5 30t-3 34q-16 -37 -52.5 -57.5t-85.5 -20.5q-63 0 -90.5 33t-27.5 92q0 34 12 62t37 48.5t64.5 32t94.5 11.5h18.5t16.5 -1q1 16 1 32v30q0 54 -13.5 75.5t-48.5 21.5q-8 0 -18 -1.5t-18 -5.5l-25 -76 q-8 -4 -19 -5.5t-22 -1.5q-61 0 -61 50q0 16 9 32.5t30 29.5t56 21t87 8q40 0 71 -6.5t52.5 -22.5t33 -42t11.5 -66q0 -45 -1 -97t-1 -93q0 -21 1.5 -42.5t4.5 -38.5l45 -17v-36zM265 216q-9 1 -19 2t-20 1q-46 0 -63.5 -24.5t-17.5 -63.5q0 -77 45 -77q32 0 53.5 32.5 t21.5 94.5v35zM262 533h-54l-138 134v27h115l77 -134v-27z" glyph-name="agrave" horiz-adv-x="452" unicode="à"/>
<glyph d="M440 15q-16 -5 -36 -9q-17 -4 -41 -8.5t-53 -7.5l-24 12q-3 13 -5 30t-3 34q-16 -37 -52.5 -57.5t-85.5 -20.5q-63 0 -90.5 33t-27.5 92q0 34 12 62t37 48.5t64.5 32t94.5 11.5h18.5t16.5 -1q1 16 1 32v30q0 54 -13.5 75.5t-48.5 21.5q-8 0 -18 -1.5t-18 -5.5l-25 -76 q-8 -4 -19 -5.5t-22 -1.5q-61 0 -61 50q0 16 9 32.5t30 29.5t56 21t87 8q40 0 71 -6.5t52.5 -22.5t33 -42t11.5 -66q0 -45 -1 -97t-1 -93q0 -21 1.5 -42.5t4.5 -38.5l45 -17v-36zM265 216q-9 1 -19 2t-20 1q-46 0 -63.5 -24.5t-17.5 -63.5q0 -77 45 -77q32 0 53.5 32.5 t21.5 94.5v35zM367 667l-139 -134h-53v27l77 134h115v-27z" glyph-name="aacute" horiz-adv-x="452" unicode="á"/>
<glyph d="M440 15q-16 -5 -36 -9q-17 -4 -41 -8.5t-53 -7.5l-24 12q-3 13 -5 30t-3 34q-16 -37 -52.5 -57.5t-85.5 -20.5q-63 0 -90.5 33t-27.5 92q0 34 12 62t37 48.5t64.5 32t94.5 11.5h18.5t16.5 -1q1 16 1 32v30q0 54 -13.5 75.5t-48.5 21.5q-8 0 -18 -1.5t-18 -5.5l-25 -76 q-8 -4 -19 -5.5t-22 -1.5q-61 0 -61 50q0 16 9 32.5t30 29.5t56 21t87 8q40 0 71 -6.5t52.5 -22.5t33 -42t11.5 -66q0 -45 -1 -97t-1 -93q0 -21 1.5 -42.5t4.5 -38.5l45 -17v-36zM265 216q-9 1 -19 2t-20 1q-46 0 -63.5 -24.5t-17.5 -63.5q0 -77 45 -77q32 0 53.5 32.5 t21.5 94.5v35zM350 533h-54l-72 73l-74 -73h-53v27l91 136h71l91 -136v-27z" glyph-name="acircumflex" horiz-adv-x="452" unicode="â"/>
<glyph d="M440 15q-16 -5 -36 -9q-17 -4 -41 -8.5t-53 -7.5l-24 12q-3 13 -5 30t-3 34q-16 -37 -52.5 -57.5t-85.5 -20.5q-63 0 -90.5 33t-27.5 92q0 34 12 62t37 48.5t64.5 32t94.5 11.5h18.5t16.5 -1q1 16 1 32v30q0 54 -13.5 75.5t-48.5 21.5q-8 0 -18 -1.5t-18 -5.5l-25 -76 q-8 -4 -19 -5.5t-22 -1.5q-61 0 -61 50q0 16 9 32.5t30 29.5t56 21t87 8q40 0 71 -6.5t52.5 -22.5t33 -42t11.5 -66q0 -45 -1 -97t-1 -93q0 -21 1.5 -42.5t4.5 -38.5l45 -17v-36zM265 216q-9 1 -19 2t-20 1q-46 0 -63.5 -24.5t-17.5 -63.5q0 -77 45 -77q32 0 53.5 32.5 t21.5 94.5v35zM380 634q-20 -51 -44 -74t-59 -23q-23 0 -41.5 9t-33.5 20.5t-27 20.5t-24 9q-11 0 -20.5 -8.5t-23.5 -31.5l-38 27q20 51 44 74t59 23q23 0 41.5 -9t33.5 -20.5t27 -20.5t24 -9q11 0 21 9t22 32z" glyph-name="atilde" horiz-adv-x="452" unicode="ã"/>
<glyph d="M440 15q-16 -5 -36 -9q-17 -4 -41 -8.5t-53 -7.5l-24 12q-3 13 -5 30t-3 34q-16 -37 -52.5 -57.5t-85.5 -20.5q-63 0 -90.5 33t-27.5 92q0 34 12 62t37 48.5t64.5 32t94.5 11.5h18.5t16.5 -1q1 16 1 32v30q0 54 -13.5 75.5t-48.5 21.5q-8 0 -18 -1.5t-18 -5.5l-25 -76 q-8 -4 -19 -5.5t-22 -1.5q-61 0 -61 50q0 16 9 32.5t30 29.5t56 21t87 8q40 0 71 -6.5t52.5 -22.5t33 -42t11.5 -66q0 -45 -1 -97t-1 -93q0 -21 1.5 -42.5t4.5 -38.5l45 -17v-36zM265 216q-9 1 -19 2t-20 1q-46 0 -63.5 -24.5t-17.5 -63.5q0 -77 45 -77q32 0 53.5 32.5 t21.5 94.5v35zM203 610q0 -31 -19.5 -50.5t-49.5 -19.5q-29 0 -47.5 19t-18.5 49t19 50t49 20q29 0 48 -19.5t19 -48.5zM381 610q0 -31 -19 -50.5t-50 -19.5q-29 0 -47.5 19t-18.5 49t19 50t49 20q29 0 48 -19.5t19 -48.5z" glyph-name="adieresis" horiz-adv-x="452" unicode="ä"/>
<glyph d="M440 15q-16 -5 -36 -9q-17 -4 -41 -8.5t-53 -7.5l-24 12q-3 13 -5 30t-3 34q-16 -37 -52.5 -57.5t-85.5 -20.5q-63 0 -90.5 33t-27.5 92q0 34 12 62t37 48.5t64.5 32t94.5 11.5h18.5t16.5 -1q1 16 1 32v30q0 54 -13.5 75.5t-48.5 21.5q-8 0 -18 -1.5t-18 -5.5l-25 -76 q-8 -4 -19 -5.5t-22 -1.5q-61 0 -61 50q0 16 9 32.5t30 29.5t56 21t87 8q40 0 71 -6.5t52.5 -22.5t33 -42t11.5 -66q0 -45 -1 -97t-1 -93q0 -21 1.5 -42.5t4.5 -38.5l45 -17v-36zM265 216q-9 1 -19 2t-20 1q-46 0 -63.5 -24.5t-17.5 -63.5q0 -77 45 -77q32 0 53.5 32.5 t21.5 94.5v35zM343 620q0 -97 -124 -97q-118 0 -118 88q0 48 31.5 72.5t91.5 24.5q119 0 119 -88zM256 615q0 55 -35 55q-18 0 -25.5 -13.5t-7.5 -40.5t7.5 -41t26.5 -14q34 0 34 54z" glyph-name="aring" horiz-adv-x="452" unicode="å"/>
<glyph d="M265 216q-9 1 -19 2t-20 1q-46 0 -63.5 -24.5t-17.5 -63.5q0 -77 45 -77q32 0 53.5 32.5t21.5 94.5v35zM637 305q0 -14 -0.5 -27.5t-1.5 -25.5l-246 -25v-5q0 -40 5.5 -71t18 -52t33 -32t51.5 -11q61 0 125 32l20 -41q-42 -30 -91 -44.5t-101 -14.5q-60 0 -100 20.5 t-59 64.5q-25 -44 -64 -64.5t-87 -20.5q-63 0 -90.5 33t-27.5 92q0 34 12 62t37 48.5t64.5 32t94.5 11.5h18.5t16.5 -1q1 16 1 32v30q0 54 -13.5 75.5t-48.5 21.5q-8 0 -18 -1.5t-18 -5.5l-25 -76q-8 -4 -19 -5.5t-22 -1.5q-61 0 -61 50q0 16 9 32.5t30 29.5t56 21t87 8 q42 0 73.5 -8.5t50.5 -28.5q20 18 50 27.5t68 9.5q87 0 129.5 -43.5t42.5 -127.5zM515 297q0 60 -12.5 94t-44.5 34q-31 0 -48.5 -33.5t-19.5 -103.5h125v9z" glyph-name="ae" horiz-adv-x="665" unicode="æ"/>
<glyph d="M284 -108q0 -39 -46 -64t-146 -33l-4 36q51 8 68 20.5t17 28.5q0 25 -41 38l41 71q-41 4 -69 23t-44.5 49t-23.5 70t-7 87q0 52 10 99t33 82.5t61.5 56t95.5 20.5q27 0 52 -5.5t43.5 -16.5t29.5 -28.5t11 -42.5q0 -29 -14.5 -44.5t-42.5 -15.5q-25 0 -41 9l-22 88 q-5 2 -10.5 3t-10.5 1q-19 0 -31.5 -14.5t-20.5 -40t-11.5 -61t-3.5 -76.5q0 -40 4.5 -72.5t15 -55.5t27.5 -35.5t41 -12.5q26 0 50 9t50 26l24 -40q-55 -52 -134 -61l-17 -31q66 -23 66 -67z" glyph-name="ccedilla" horiz-adv-x="384" unicode="ç"/>
<glyph d="M404 305q0 -14 -0.5 -27.5t-1.5 -25.5l-246 -25v-5q0 -40 5.5 -71t18 -52t33 -32t51.5 -11q63 0 124 32l21 -41q-42 -30 -91 -44.5t-101 -14.5t-88 16t-58 45t-32 71t-10 93q0 50 8 97.5t30.5 84t62 59t102.5 22.5q87 0 129.5 -43.5t42.5 -127.5zM281 297q0 60 -12 94 t-44 34q-64 0 -68 -137h124v9zM263 533h-54l-138 134v27h115l77 -134v-27z" glyph-name="egrave" horiz-adv-x="432" unicode="è"/>
<glyph d="M404 305q0 -14 -0.5 -27.5t-1.5 -25.5l-246 -25v-5q0 -40 5.5 -71t18 -52t33 -32t51.5 -11q63 0 124 32l21 -41q-42 -30 -91 -44.5t-101 -14.5t-88 16t-58 45t-32 71t-10 93q0 50 8 97.5t30.5 84t62 59t102.5 22.5q87 0 129.5 -43.5t42.5 -127.5zM281 297q0 60 -12 94 t-44 34q-64 0 -68 -137h124v9zM367 667l-139 -134h-53v27l77 134h115v-27z" glyph-name="eacute" horiz-adv-x="432" unicode="é"/>
<glyph d="M404 305q0 -14 -0.5 -27.5t-1.5 -25.5l-246 -25v-5q0 -40 5.5 -71t18 -52t33 -32t51.5 -11q63 0 124 32l21 -41q-42 -30 -91 -44.5t-101 -14.5t-88 16t-58 45t-32 71t-10 93q0 50 8 97.5t30.5 84t62 59t102.5 22.5q87 0 129.5 -43.5t42.5 -127.5zM281 297q0 60 -12 94 t-44 34q-64 0 -68 -137h124v9zM350 533h-54l-72 73l-74 -73h-53v27l91 136h71l91 -136v-27z" glyph-name="ecircumflex" horiz-adv-x="432" unicode="ê"/>
<glyph d="M404 305q0 -14 -0.5 -27.5t-1.5 -25.5l-246 -25v-5q0 -40 5.5 -71t18 -52t33 -32t51.5 -11q63 0 124 32l21 -41q-42 -30 -91 -44.5t-101 -14.5t-88 16t-58 45t-32 71t-10 93q0 50 8 97.5t30.5 84t62 59t102.5 22.5q87 0 129.5 -43.5t42.5 -127.5zM281 297q0 60 -12 94 t-44 34q-64 0 -68 -137h124v9zM203 610q0 -31 -19.5 -50.5t-49.5 -19.5q-29 0 -47.5 19t-18.5 49t19 50t49 20q29 0 48 -19.5t19 -48.5zM381 610q0 -31 -19 -50.5t-50 -19.5q-29 0 -47.5 19t-18.5 49t19 50t49 20q29 0 48 -19.5t19 -48.5z" glyph-name="edieresis" horiz-adv-x="432" unicode="ë"/>
<glyph d="M17 0v36q7 5 15 9q7 4 16.5 8t21.5 8v331l-53 18v37q19 5 43 9q20 4 49 8.5t64 9.5l25 -13q-2 -23 -2.5 -53.5t-0.5 -59.5v-287q11 -4 20 -8t16 -8t13 -9v-36h-227zM188 533h-54l-138 134v27h115l77 -134v-27z" glyph-name="igrave" horiz-adv-x="260" unicode="ì"/>
<glyph d="M17 0v36q7 5 15 9q7 4 16.5 8t21.5 8v331l-53 18v37q19 5 43 9q20 4 49 8.5t64 9.5l25 -13q-2 -23 -2.5 -53.5t-0.5 -59.5v-287q11 -4 20 -8t16 -8t13 -9v-36h-227zM264 667l-139 -134h-53v27l77 134h115v-27z" glyph-name="iacute" horiz-adv-x="260" unicode="í"/>
<glyph d="M17 0v36q7 5 15 9q7 4 16.5 8t21.5 8v331l-53 18v37q19 5 43 9q20 4 49 8.5t64 9.5l25 -13q-2 -23 -2.5 -53.5t-0.5 -59.5v-287q11 -4 20 -8t16 -8t13 -9v-36h-227zM256 533h-54l-72 73l-74 -73h-53v27l91 136h71l91 -136v-27z" glyph-name="icircumflex" horiz-adv-x="260" unicode="î"/>
<glyph d="M17 0v36q7 5 15 9q7 4 16.5 8t21.5 8v331l-53 18v37q19 5 43 9q20 4 49 8.5t64 9.5l25 -13q-2 -23 -2.5 -53.5t-0.5 -59.5v-287q11 -4 20 -8t16 -8t13 -9v-36h-227zM109 610q0 -31 -19.5 -50.5t-49.5 -19.5q-29 0 -47.5 19t-18.5 49t19 50t49 20q29 0 48 -19.5t19 -48.5z M287 610q0 -31 -19 -50.5t-50 -19.5q-29 0 -47.5 19t-18.5 49t19 50t49 20q29 0 48 -19.5t19 -48.5z" glyph-name="idieresis" horiz-adv-x="260" unicode="ï"/>
<glyph d="M102 563l106 40q-11 18 -24 33t-26 27l-56 14v36q18 5 42 9q20 4 47.5 8t62.5 8q23 -20 43 -44t39 -50l103 37l17 -51l-91 -34q44 -77 68 -163.5t24 -179.5q0 -63 -12.5 -112t-40 -83t-70.5 -52t-104 -18q-60 0 -99 15.5t-61.5 45t-31.5 72t-9 97.5q0 51 10.5 96t34.5 79 t64.5 54t100.5 20q11 1 22 0t22 -3q-8 23 -18.5 46.5t-23.5 45.5l-123 -44zM328 237q0 44 -7 86.5t-20 83.5q-28 11 -56 11q-46 0 -67 -44t-21 -138q0 -100 19.5 -148t65.5 -48q42 0 64 44.5t22 152.5z" glyph-name="eth" unicode="ð"/>
<glyph d="M510 0h-172v288q0 54 -12 84.5t-44 30.5q-18 0 -34 -11.5t-27.5 -32t-18.5 -49.5t-7 -65v-184q23 -8 38 -16q8 -4 14 -9v-36h-230v36q7 5 15 9q7 4 16.5 8t21.5 8v331l-53 19v36q17 5 40 9q19 4 46 8.5t59 9.5l25 -13l-1 -77q18 43 55.5 67.5t92.5 24.5q37 0 62 -12 t40 -33t21 -49t6 -59v-262q20 -7 34 -16q7 -4 13 -9v-36zM420 634q-20 -51 -44 -74t-59 -23q-23 0 -41.5 9t-33.5 20.5t-27 20.5t-24 9q-11 0 -20.5 -8.5t-23.5 -31.5l-38 27q20 51 44 74t59 23q23 0 41.5 -9t33.5 -20.5t27 -20.5t24 -9q11 0 21 9t22 32z" glyph-name="ntilde" horiz-adv-x="524" unicode="ñ"/>
<glyph d="M255 476q61 0 100.5 -16t62 -46.5t31 -73.5t8.5 -97v-1q0 -46 -9.5 -91.5t-34.5 -81.5t-69 -58.5t-114 -22.5q-61 0 -100 16t-61.5 46t-31 73t-8.5 97v1q0 46 9 91.5t34 82t69 59t114 22.5zM243 423q-24 0 -40.5 -13t-26.5 -37t-14.5 -58t-4.5 -75v-1q0 -100 18.5 -149.5 t66.5 -49.5q24 0 40.5 13t26.5 37t14.5 58t4.5 75v1q0 100 -18.5 149.5t-66.5 49.5zM286 533h-54l-138 134v27h115l77 -134v-27z" glyph-name="ograve" horiz-adv-x="486" unicode="ò"/>
<glyph d="M255 476q61 0 100.5 -16t62 -46.5t31 -73.5t8.5 -97v-1q0 -46 -9.5 -91.5t-34.5 -81.5t-69 -58.5t-114 -22.5q-61 0 -100 16t-61.5 46t-31 73t-8.5 97v1q0 46 9 91.5t34 82t69 59t114 22.5zM243 423q-24 0 -40.5 -13t-26.5 -37t-14.5 -58t-4.5 -75v-1q0 -100 18.5 -149.5 t66.5 -49.5q24 0 40.5 13t26.5 37t14.5 58t4.5 75v1q0 100 -18.5 149.5t-66.5 49.5zM392 667l-139 -134h-53v27l77 134h115v-27z" glyph-name="oacute" horiz-adv-x="486" unicode="ó"/>
<glyph d="M255 476q61 0 100.5 -16t62 -46.5t31 -73.5t8.5 -97v-1q0 -46 -9.5 -91.5t-34.5 -81.5t-69 -58.5t-114 -22.5q-61 0 -100 16t-61.5 46t-31 73t-8.5 97v1q0 46 9 91.5t34 82t69 59t114 22.5zM243 423q-24 0 -40.5 -13t-26.5 -37t-14.5 -58t-4.5 -75v-1q0 -100 18.5 -149.5 t66.5 -49.5q24 0 40.5 13t26.5 37t14.5 58t4.5 75v1q0 100 -18.5 149.5t-66.5 49.5zM369 533h-54l-72 73l-74 -73h-53v27l91 136h71l91 -136v-27z" glyph-name="ocircumflex" horiz-adv-x="486" unicode="ô"/>
<glyph d="M255 476q61 0 100.5 -16t62 -46.5t31 -73.5t8.5 -97v-1q0 -46 -9.5 -91.5t-34.5 -81.5t-69 -58.5t-114 -22.5q-61 0 -100 16t-61.5 46t-31 73t-8.5 97v1q0 46 9 91.5t34 82t69 59t114 22.5zM243 423q-24 0 -40.5 -13t-26.5 -37t-14.5 -58t-4.5 -75v-1q0 -100 18.5 -149.5 t66.5 -49.5q24 0 40.5 13t26.5 37t14.5 58t4.5 75v1q0 100 -18.5 149.5t-66.5 49.5zM398 634q-20 -51 -44 -74t-59 -23q-23 0 -41.5 9t-33.5 20.5t-27 20.5t-24 9q-11 0 -20.5 -8.5t-23.5 -31.5l-38 27q20 51 44 74t59 23q23 0 41.5 -9t33.5 -20.5t27 -20.5t24 -9q11 0 21 9 t22 32z" glyph-name="otilde" horiz-adv-x="486" unicode="õ"/>
<glyph d="M255 476q61 0 100.5 -16t62 -46.5t31 -73.5t8.5 -97v-1q0 -46 -9.5 -91.5t-34.5 -81.5t-69 -58.5t-114 -22.5q-61 0 -100 16t-61.5 46t-31 73t-8.5 97v1q0 46 9 91.5t34 82t69 59t114 22.5zM243 423q-24 0 -40.5 -13t-26.5 -37t-14.5 -58t-4.5 -75v-1q0 -100 18.5 -149.5 t66.5 -49.5q24 0 40.5 13t26.5 37t14.5 58t4.5 75v1q0 100 -18.5 149.5t-66.5 49.5zM222 610q0 -31 -19.5 -50.5t-49.5 -19.5q-29 0 -47.5 19t-18.5 49t19 50t49 20q29 0 48 -19.5t19 -48.5zM400 610q0 -31 -19 -50.5t-50 -19.5q-29 0 -47.5 19t-18.5 49t19 50t49 20 q29 0 48 -19.5t19 -48.5z" glyph-name="odieresis" horiz-adv-x="486" unicode="ö"/>
<glyph d="M316 492q0 -35 -20 -55.5t-52 -20.5q-31 0 -51 20.5t-20 53.5q0 34 20.5 55t52.5 21q31 0 50.5 -20.5t19.5 -53.5zM461 273h-432v57h432v-57zM316 113q0 -34 -20 -55t-52 -21q-31 0 -51 20.5t-20 53.5q0 34 20.5 54.5t52.5 20.5q31 0 50.5 -20t19.5 -53z" glyph-name="divide" unicode="÷"/>
<glyph d="M146 240q0 -49 6 -88.5t20 -69.5h1l92 341q-9 4 -24 4q-53 -1 -74 -51.5t-21 -135.5zM245 36q52 0 73 51t21 137q0 48 -5.5 87.5t-19.5 69.5h-1l-93 -341q9 -4 25 -4zM115 -120l33 116q-36 10 -59 30t-36.5 48.5t-18.5 65.5t-5 81q0 53 11 99.5t37 81t69 54.5t107 20 q8 0 14 -0.5t13 -0.5l36 120l55 -12l-34 -116q36 -10 59 -30t36.5 -48.5t19 -65.5t5.5 -81q0 -51 -10.5 -97.5t-36 -81t-69 -55t-108.5 -20.5h-28l-35 -120z" glyph-name="oslash" horiz-adv-x="486" unicode="ø"/>
<glyph d="M505 16q-17 -6 -39 -10q-19 -4 -45 -8.5t-58 -7.5l-26 12v76q-17 -43 -54 -66.5t-92 -23.5q-38 0 -63 12t-39.5 33t-20.5 48.5t-6 58.5v252l-49 18v37q18 5 42 9q20 4 47.5 8.5t62.5 9.5l25 -13q-2 -23 -2.5 -52t-0.5 -66v-168q0 -54 11.5 -84.5t43.5 -30.5q37 0 62.5 43 t25.5 114v175l-49 18v37q18 5 42 9q20 4 47.5 8.5t62.5 9.5l24 -13q-2 -23 -2 -53v-75v-262l50 -19v-36zM295 533h-54l-138 134v27h115l77 -134v-27z" glyph-name="ugrave" horiz-adv-x="519" unicode="ù"/>
<glyph d="M505 16q-17 -6 -39 -10q-19 -4 -45 -8.5t-58 -7.5l-26 12v76q-17 -43 -54 -66.5t-92 -23.5q-38 0 -63 12t-39.5 33t-20.5 48.5t-6 58.5v252l-49 18v37q18 5 42 9q20 4 47.5 8.5t62.5 9.5l25 -13q-2 -23 -2.5 -52t-0.5 -66v-168q0 -54 11.5 -84.5t43.5 -30.5q37 0 62.5 43 t25.5 114v175l-49 18v37q18 5 42 9q20 4 47.5 8.5t62.5 9.5l24 -13q-2 -23 -2 -53v-75v-262l50 -19v-36zM408 667l-139 -134h-53v27l77 134h115v-27z" glyph-name="uacute" horiz-adv-x="519" unicode="ú"/>
<glyph d="M505 16q-17 -6 -39 -10q-19 -4 -45 -8.5t-58 -7.5l-26 12v76q-17 -43 -54 -66.5t-92 -23.5q-38 0 -63 12t-39.5 33t-20.5 48.5t-6 58.5v252l-49 18v37q18 5 42 9q20 4 47.5 8.5t62.5 9.5l25 -13q-2 -23 -2.5 -52t-0.5 -66v-168q0 -54 11.5 -84.5t43.5 -30.5q37 0 62.5 43 t25.5 114v175l-49 18v37q18 5 42 9q20 4 47.5 8.5t62.5 9.5l24 -13q-2 -23 -2 -53v-75v-262l50 -19v-36zM385 533h-54l-72 73l-74 -73h-53v27l91 136h71l91 -136v-27z" glyph-name="ucircumflex" horiz-adv-x="519" unicode="û"/>
<glyph d="M505 16q-17 -6 -39 -10q-19 -4 -45 -8.5t-58 -7.5l-26 12v76q-17 -43 -54 -66.5t-92 -23.5q-38 0 -63 12t-39.5 33t-20.5 48.5t-6 58.5v252l-49 18v37q18 5 42 9q20 4 47.5 8.5t62.5 9.5l25 -13q-2 -23 -2.5 -52t-0.5 -66v-168q0 -54 11.5 -84.5t43.5 -30.5q37 0 62.5 43 t25.5 114v175l-49 18v37q18 5 42 9q20 4 47.5 8.5t62.5 9.5l24 -13q-2 -23 -2 -53v-75v-262l50 -19v-36zM237 610q0 -31 -19.5 -50.5t-49.5 -19.5q-29 0 -47.5 19t-18.5 49t19 50t49 20q29 0 48 -19.5t19 -48.5zM415 610q0 -31 -19 -50.5t-50 -19.5q-29 0 -47.5 19t-18.5 49 t19 50t49 20q29 0 48 -19.5t19 -48.5z" glyph-name="udieresis" horiz-adv-x="519" unicode="ü"/>
<glyph d="M435 427q-4 -5 -8 -9q-9 -9 -22 -16q-32 -139 -71 -253.5t-87 -192.5q-51 -90 -105.5 -125.5t-109.5 -35.5q-38 0 -60.5 16t-22.5 46q0 23 16.5 38t47.5 15q5 0 9 -0.5t9 -1.5l45 -46q27 9 53 36t49 72l-142 432q-8 4 -13 8l-10 8t-9 9v36h204v-36q-5 -5 -10 -9t-12 -8 t-15 -8l91 -292q21 66 34.5 138.5t21.5 153.5q-8 4 -14 8t-11 8t-10 9v36h152v-36zM391 667l-139 -134h-53v27l77 134h115v-27z" glyph-name="yacute" horiz-adv-x="442" unicode="ý"/>
<glyph d="M329 230q0 85 -14 129t-48 44q-16 0 -31 -11.5t-26.5 -32t-18.5 -49.5t-7 -65v-187q25 -18 59 -18q48 0 67 51t19 139zM458 254q0 -50 -10.5 -97.5t-36 -84.5t-69 -60t-108.5 -23q-13 0 -26 0.5t-24 2.5v-125q27 -10 42 -17q9 -4 16 -9v-36h-234v36q6 5 14 9q7 4 16 8 t21 9v780l-56 19v37q19 5 44 9q21 4 50 8.5t65 9.5l25 -13q-3 -47 -3 -145v-175q19 36 52.5 57.5t79.5 21.5q41 0 68 -17.5t43.5 -47.5t23.5 -70.5t7 -86.5z" glyph-name="thorn" horiz-adv-x="487" unicode="þ"/>
</font>
</defs>
</svg>
