<?xml version="1.0" encoding="UTF-8"?>
<!DOCTYPE svg  PUBLIC '-//W3C//DTD SVG 1.1//EN'  'http://www.w3.org/Graphics/SVG/1.1/DTD/svg11.dtd'>
<svg version="1.1" xmlns="http://www.w3.org/2000/svg">
<defs>
<font id="FolhaTexto-LightItalic" horiz-adv-x="515">
<font-face font-family="Folha Texto Light" font-style="italic" font-weight="350" ascent="750" bbox="-61 -253 901 876" cap-height="646" descent="-250" panose-1="0 0 4 0 0 0 0 0 0 0" slope="-5" underline-position="-144" underline-thickness="46" unicode-range="U+0020-00FE" units-per-em="1000" x-height="474"/>
<missing-glyph/>
<glyph glyph-name="space" horiz-adv-x="208" unicode=" "/>
<glyph d="M144 176l-7 413q-1 30 -1 42q0 17 19 20q11 2 29 2q64 -2 65 -48q0 -15 -9 -59l-73 -370h-23zM139 -8q-34 0 -45 32q-3 10 -3 20q0 43 34 60q12 6 24 6q34 0 45 -32q3 -10 3 -20q0 -43 -34 -60q-12 -6 -24 -6z" glyph-name="exclam" horiz-adv-x="282" unicode="!"/>
<glyph d="M116 426l-1 220h83l-39 -220h-43zM245 426l-1 220h83l-39 -220h-43z" glyph-name="quotedbl" horiz-adv-x="328" unicode='"'/>
<glyph d="M98 0l28 174h-52l12 81h53l23 138h-52l12 81h53l28 172h46l-28 -172h129l28 172h46l-28 -172h61l-13 -81h-62l-22 -138h61l-13 -81h-61l-29 -174h-45l28 174h-129l-29 -174h-45zM185 255h129l23 138h-130z" glyph-name="numbersign" horiz-adv-x="475" unicode="#"/>
<glyph d="M175 -116l16 104q-43 3 -73 14q-44 15 -52 37q-3 7 -4 15q-2 16 -2 35v111l25 4q31 -151 113 -174l40 257q-106 54 -133 120q-13 32 -13 72q0 91 72 144q52 37 121 37h12l14 90h37l-14 -92q50 -7 88 -24q27 -14 27 -47q0 -20 -3 -41l-9 -80h-23q-14 125 -87 149l-38 -238 l27 -13q112 -57 131 -140q4 -20 4 -43q0 -111 -88 -164q-53 -31 -124 -31h-11l-16 -102h-37zM170 511q0 -59 61 -101q11 -8 24 -15l36 227h-10q-79 0 -103 -63q-8 -22 -8 -48zM367 144q-1 78 -94 126l-39 -246h5q109 0 125 90q3 15 3 30z" glyph-name="dollar" horiz-adv-x="475" unicode="$"/>
<glyph d="M179 283q-75 0 -98 81q-9 30 -9 67q0 123 60 186q36 36 80 36q75 0 98 -81q9 -30 9 -67q0 -123 -60 -186q-36 -36 -80 -36zM194 0h-52l370 646h52zM184 309q43 0 58 110q6 44 6 97q0 94 -24 107q-8 4 -17 4q-43 0 -58 -110q-6 -44 -6 -97q0 -94 24 -107q8 -4 17 -4z M495 -5q-75 0 -98 81q-9 30 -9 67q0 123 60 186q36 36 80 36q75 0 98 -81q9 -30 9 -67q0 -123 -60 -186q-36 -36 -80 -36zM500 21q43 0 58 110q6 44 6 97q0 94 -24 107q-8 4 -17 4q-43 0 -58 -110q-6 -44 -6 -97q0 -94 24 -107q8 -4 17 -4z" glyph-name="percent" horiz-adv-x="650" unicode="%"/>
<glyph d="M702 272q-43 0 -77 18q-31 -158 -141 -241q-84 -63 -196 -63q-136 0 -192 97q-29 51 -29 120q0 136 74 224q53 63 115 64q75 -2 76 -79v-13q72 77 96 148l-30 80q-3 9 -3 11q0 12 22 19q9 3 16 3q51 -2 52 -59q-1 -79 -79 -168q-103 -118 -236 -209q-10 -7 -18 -12 q19 -128 96 -172q31 -17 69 -17q157 0 224 202q14 43 26 100q-52 34 -84 35q-23 -1 -41 -12l29 -75q4 -14 4 -11q0 -10 -22 -14q-5 -1 -9 -1q-48 2 -49 51q0 54 49 85q31 19 71 19q50 -1 91 -28l23 -15q52 -33 79 -46l24 65q10 13 16 14q22 0 33 -24q4 -9 4 -19 q0 -61 -63 -75q-11 -2 -20 -2zM145 292q0 -8 2 -27q20 8 44 21q71 45 77 97q-2 48 -40 49q-41 0 -66 -53q-17 -37 -17 -87z" glyph-name="ampersand" horiz-adv-x="769" unicode="&amp;"/>
<glyph d="M116 426l-1 220h83l-39 -220h-43z" glyph-name="quotesingle" horiz-adv-x="199" unicode="'"/>
<glyph d="M266 -236q-153 114 -181 330q-6 43 -6 87q0 268 180 464q40 44 87 82l9 -20q-103 -114 -157 -312q-34 -125 -34 -240q0 -210 93 -342q10 -14 20 -26z" glyph-name="parenleft" horiz-adv-x="300" unicode="("/>
<glyph d="M77 730q153 -114 181 -330q6 -43 6 -87q0 -268 -180 -464q-40 -44 -87 -82l-9 20q103 114 157 312q34 125 34 240q0 210 -93 342q-10 14 -20 26z" glyph-name="parenright" horiz-adv-x="299" unicode=")"/>
<glyph d="M295 390q-7 0 -12 16v1l-40 140l-40 -93q-22 -56 -50 -57q-29 0 -43 32q-4 9 -4 15q2 9 12 18l110 97l-87 5q-50 4 -57 29q-3 8 -3 19q0 29 23 48q7 5 11 6q4 -1 13 -7l107 -79l-14 96q-4 28 -4 38q2 46 48 47q24 0 35 -13q2 -2 2 -4q0 -5 -4 -20l-44 -143l79 54 q30 22 50 22q25 0 31 -38q1 -8 1 -15q0 -26 -11 -29q-4 -1 -11 -2l-134 -12l63 -63q28 -36 30 -57q0 -24 -33 -43q-14 -8 -24 -8z" glyph-name="asterisk" horiz-adv-x="380" unicode="*"/>
<glyph d="M221 110l18 203h-151l5 52h150l16 181h54l-16 -181h149l-4 -52h-150l-17 -203h-54z" glyph-name="plus" horiz-adv-x="475" unicode="+"/>
<glyph d="M34 -150l-6 17q51 51 69 117l-26 76q-4 11 -4 14q0 20 25 33q13 6 26 6q43 0 51 -44q1 -8 1 -16q0 -89 -73 -158q-28 -26 -63 -45z" glyph-name="comma" horiz-adv-x="229" unicode=","/>
<glyph d="M69 236l4 44l177 10l-4 -44z" glyph-name="hyphen" horiz-adv-x="272" unicode="-"/>
<glyph d="M114 -10q-36 0 -46 36q-3 10 -3 20q0 47 35 64q12 6 24 6q36 0 46 -36q3 -10 3 -20q0 -47 -35 -64q-12 -6 -24 -6z" glyph-name="period" horiz-adv-x="229" unicode="."/>
<glyph d="M-15 -250l408 1000h44l-408 -1000h-44z" glyph-name="slash" horiz-adv-x="378" unicode="/"/>
<glyph d="M264 -12q-109 0 -157 110q-29 67 -29 163q0 199 84 314q62 82 141 83q107 0 156 -107q31 -68 31 -166q0 -198 -84 -313q-62 -83 -142 -84zM266 26q77 0 109 159q18 90 18 218q0 148 -51 199q-19 18 -40 18q-77 0 -109 -159q-18 -90 -18 -218q0 -148 51 -199 q19 -18 40 -18z" glyph-name="zero" horiz-adv-x="511" unicode="0"/>
<glyph d="M42 0l2 25l46 8q50 9 63 28q9 16 12 54l40 452l-125 -22l-3 25l122 64q32 16 84 16h28q-15 -81 -25 -194l-27 -317q-4 -39 -4 -51q0 -35 25 -46q14 -5 38 -9l44 -8l-2 -25h-318z" glyph-name="one" horiz-adv-x="387" unicode="1"/>
<glyph d="M394 -7q-6 0 -37 2q-90 5 -137 5h-191l-1 23q191 150 254 248q58 92 58 215q0 94 -59 124q-20 10 -44 10q-35 -1 -65 -16l-24 -117q-3 -16 -14 -18q-7 -1 -26 -1q-41 2 -42 45q0 52 62 99q64 48 141 48q97 0 145 -76q29 -47 29 -109q0 -210 -290 -390q-6 -4 -11 -7h157 q68 0 94 24q15 14 30 41l13 24l23 -3l-25 -134q-5 -29 -19 -34q-8 -3 -21 -3z" glyph-name="two" horiz-adv-x="496" unicode="2"/>
<glyph d="M214 -12q-95 0 -144 57q-26 32 -26 71q0 44 39 50q5 1 10 1q26 0 31 -12q1 -4 2 -10l18 -100q34 -24 75 -24q67 0 97 72q15 38 15 86q0 116 -104 147q-14 4 -28 6l3 23q129 12 142 127q1 12 1 24q0 72 -45 103q-21 15 -46 15q-34 -1 -64 -17l-21 -106q-4 -17 -13 -20 q-7 -1 -21 -1q-39 0 -48 33q-1 6 -1 12q0 53 63 97q55 38 115 38q119 0 160 -79q17 -33 17 -75q0 -85 -74 -131q-40 -24 -91 -29q147 -30 154 -150v-12q0 -101 -77 -156q-57 -40 -139 -40z" glyph-name="three" horiz-adv-x="474" unicode="3"/>
<glyph d="M176 0l2 28l105 10l13 146h-241l-1 21l269 409q17 27 47 31q6 1 12 1l51 4q-16 -82 -25 -183l-19 -221h82l-15 -62h-72l-7 -76q-3 -33 -3 -39q0 -24 19 -30q4 -1 7 -2l59 -13l-2 -24h-281zM131 246h170l28 302z" glyph-name="four" horiz-adv-x="514" unicode="4"/>
<glyph d="M214 -14q-94 0 -143 58q-27 32 -27 72q0 44 39 50q5 1 10 1q26 0 31 -12q1 -4 2 -10l18 -99q33 -23 74 -23q60 0 90 60q16 34 16 76q0 109 -115 154q-42 17 -96 22l45 311h200q37 0 51 14q6 6 13 16l7 10l20 -3l-22 -95q-7 -27 -25 -30q-6 -1 -13 -1h-199l-25 -163 q147 -5 215 -87q42 -50 42 -118q0 -123 -92 -175q-50 -28 -116 -28z" glyph-name="five" horiz-adv-x="462" unicode="5"/>
<glyph d="M263 -12q-109 0 -159 90q-30 53 -30 127q0 169 116 299q110 121 275 155l2 -21q-219 -84 -273 -285q51 37 120 37q98 0 143 -74q26 -43 26 -98q0 -116 -81 -182q-59 -48 -139 -48zM275 24q57 0 89 66q20 42 20 93q0 115 -81 145q-23 8 -49 8q-39 0 -67 -12 q-12 -58 -12 -120q0 -148 72 -175q13 -5 28 -5z" glyph-name="six" horiz-adv-x="517" unicode="6"/>
<glyph d="M121 -4q-42 0 -40 12q1 7 37 51q106 139 167 258l124 244h-186q-57 0 -83 -41q-3 -6 -6 -11l-22 -38h-24l25 145q8 29 35 30h341v-20l-226 -453q-5 -10 -53 -130q-2 -4 -3 -7q-12 -30 -42 -36q-17 -4 -44 -4z" glyph-name="seven" horiz-adv-x="456" unicode="7"/>
<glyph d="M249 -12q-124 0 -166 83q-16 33 -16 74q0 73 73 132q33 28 74 44l-3 2q-95 58 -98 156q0 93 75 144q53 35 123 35q108 0 151 -74q21 -36 21 -82q-2 -113 -124 -162l16 -9q93 -55 94 -154q0 -98 -82 -151q-58 -38 -138 -38zM334 355q65 52 65 147q0 70 -49 103 q-24 16 -51 16q-71 0 -92 -63q-7 -21 -7 -45q1 -82 94 -135zM257 26q100 0 116 96q3 16 3 34q0 73 -85 123q-5 3 -9 5l-45 25q-75 -56 -84 -130q-2 -15 -2 -31q0 -63 45 -100q28 -22 61 -22z" glyph-name="eight" horiz-adv-x="510" unicode="8"/>
<glyph d="M306 659q109 0 159 -90q30 -53 30 -127q0 -169 -116 -299q-110 -121 -275 -155l-2 21q219 84 273 285q-51 -37 -120 -37q-98 0 -143 74q-26 43 -26 98q0 116 81 182q59 48 139 48zM294 623q-57 0 -89 -66q-20 -42 -20 -93q0 -115 81 -145q23 -8 49 -8q39 0 67 12 q12 58 12 120q0 148 -72 175q-13 5 -28 5z" glyph-name="nine" horiz-adv-x="517" unicode="9"/>
<glyph d="M143 310q-36 0 -46 36q-3 10 -3 20q0 47 35 64q12 6 24 6q36 0 46 -36q3 -10 3 -20q0 -47 -35 -64q-12 -6 -24 -6zM114 -10q-36 0 -46 36q-3 10 -3 20q0 47 35 64q12 6 24 6q36 0 46 -36q3 -10 3 -20q0 -47 -35 -64q-12 -6 -24 -6z" glyph-name="colon" horiz-adv-x="229" unicode=":"/>
<glyph d="M143 310q-36 0 -46 36q-3 10 -3 20q0 47 35 64q12 6 24 6q36 0 46 -36q3 -10 3 -20q0 -47 -35 -64q-12 -6 -24 -6zM34 -150l-6 17q51 51 69 117l-26 76q-4 11 -4 14q0 20 25 33q13 6 26 6q43 0 51 -44q1 -8 1 -16q0 -89 -73 -158q-28 -26 -63 -45z" glyph-name="semicolon" horiz-adv-x="229" unicode=";"/>
<glyph d="M405 75l-322 223l5 53l361 222l-3 -57l-311 -192l277 -194z" glyph-name="less" horiz-adv-x="475" unicode="&lt;"/>
<glyph d="M106 413l4 52h337l-5 -52h-336zM88 213l4 52h337l-5 -52h-336z" glyph-name="equal" horiz-adv-x="475" unicode="="/>
<glyph d="M66 75l4 59l310 191l-276 193l5 55l322 -223l-5 -53z" glyph-name="greater" horiz-adv-x="475" unicode="&gt;"/>
<glyph d="M182 174l5 61q7 92 62 139q9 8 24 19q75 55 75 126q0 89 -72 100q-9 1 -18 1q-40 -1 -71 -16l-20 -107q-4 -18 -14 -21q-7 -1 -21 -1q-39 0 -46 31q-1 5 -1 10q0 57 65 103q57 39 120 39q100 0 142 -73q21 -37 21 -82q0 -118 -117 -181l-8 -4q-54 -27 -69 -47 q-15 -22 -19 -56l-4 -41h-34zM183 -8q-34 0 -45 32q-3 10 -3 20q0 43 34 60q12 6 24 6q34 0 45 -32q3 -10 3 -20q0 -43 -34 -60q-12 -6 -24 -6z" glyph-name="question" horiz-adv-x="447" unicode="?"/>
<glyph d="M368 -190q-151 0 -238 112q-73 96 -73 240q0 212 118 351q112 133 285 144q15 1 28 1q142 0 223 -100q66 -81 66 -198q0 -155 -78 -253q-66 -80 -154 -81q-45 0 -59 42q-5 13 -5 28q0 16 3 53q-60 -121 -133 -122q-83 0 -107 100q-8 35 -8 76q0 134 76 208q54 52 126 52 q77 0 138 -28q3 -1 5 -2q-10 -54 -17 -124l-13 -151q-3 -63 -3 -66q0 -24 16 -28q6 -1 13 -1q50 0 88 77q42 87 42 211q0 181 -118 239q-48 24 -110 24q-174 0 -269 -138q-80 -117 -80 -302q0 -173 103 -257q69 -55 166 -55q73 0 136 22l-3 -29q-79 -45 -164 -45zM379 76 q41 0 75 76q30 69 37 155l8 92q-36 34 -77 35q-63 0 -92 -87q-16 -50 -16 -117q0 -132 50 -151q8 -3 15 -3z" glyph-name="at" horiz-adv-x="787" unicode="@"/>
<glyph d="M-8 0l2 25l16 3q28 5 38 22q5 8 10 20l241 580h43q25 0 33 -25q1 -3 2 -5l140 -550q7 -29 34 -37q6 -2 12 -3l18 -3l-2 -27h-258l3 27l101 12l-43 175h-210l-69 -176l92 -11l-2 -27h-201zM188 254h184l-70 289z" glyph-name="A" horiz-adv-x="574" unicode="A"/>
<glyph d="M24 0l2 25l37 6q50 8 62 28q10 17 13 54l33 382q5 53 5 65q0 36 -26 46q-13 6 -36 9l-36 6l2 25h231q176 0 217 -100q10 -26 10 -57q0 -97 -97 -135q-32 -13 -71 -17q150 -16 169 -126q3 -16 3 -32q0 -117 -116 -159q-54 -20 -127 -20h-275zM307 357q133 2 134 127 q0 82 -69 112q-28 12 -63 12q-22 0 -37 -2l-21 -245q16 -4 56 -4zM299 35q106 0 134 84q9 26 9 57q0 98 -79 131q-31 12 -68 12q-38 0 -48 -1l-24 -271q38 -12 76 -12z" glyph-name="B" horiz-adv-x="567" unicode="B"/>
<glyph d="M322 -14q-157 0 -216 133q-29 67 -29 158q0 169 92 280q86 102 211 103q76 0 141 -30q28 -18 29 -46q0 -9 -4 -54l-7 -81h-24q-11 165 -134 173h-14q-90 0 -142 -104q-44 -90 -44 -226q0 -194 92 -249q31 -19 69 -19q91 0 154 153q7 17 13 35l25 -3l-24 -124 q-10 -53 -36 -69q-12 -7 -29 -12q-64 -18 -123 -18z" glyph-name="C" horiz-adv-x="559" unicode="C"/>
<glyph d="M24 0l2 25l37 6q50 8 62 28q10 17 13 54l33 386q5 51 5 61q0 36 -26 46q-13 6 -36 9l-36 6l2 25h150q224 0 322 -130q60 -80 60 -196q0 -250 -224 -305q-61 -15 -135 -15h-229zM289 38q170 0 210 168q12 48 12 107q0 188 -116 259q-54 33 -123 34l-49 -559q29 -9 66 -9z " glyph-name="D" horiz-adv-x="632" unicode="D"/>
<glyph d="M24 0l2 25l37 6q50 8 62 28q10 17 13 54l34 395q4 41 4 52q0 36 -26 46q-13 6 -36 9l-36 6l2 25h464q23 -2 24 -22q0 -5 -2 -26l-12 -136h-23l-4 33q-9 76 -51 96q-29 14 -86 14h-119l-21 -244h173l25 88h23l-18 -216h-24l-9 88h-174l-23 -273q48 -11 105 -11 q88 0 129 39q27 28 55 90l13 29l21 -5l-37 -172q-7 -24 -34 -25q-6 0 -44 2q-97 5 -134 5h-273z" glyph-name="E" horiz-adv-x="563" unicode="E"/>
<glyph d="M24 0l2 25l37 6q50 8 62 28q10 17 13 54l34 395q4 41 4 52q0 35 -25 45q-13 6 -37 10l-36 6l2 25h458q23 -2 24 -22q0 -5 -2 -26l-12 -136h-23l-4 33q-9 76 -51 96q-29 14 -86 14h-112l-22 -252h167l25 88h24l-19 -216h-24l-9 88h-168l-24 -274l122 -12l-2 -27h-318z" glyph-name="F" horiz-adv-x="534" unicode="F"/>
<glyph d="M340 -14q-143 0 -215 108q-49 75 -49 178q0 192 104 302q83 86 196 86q87 0 159 -35q26 -16 27 -43q0 -11 -2 -35l-8 -94h-24q-21 156 -143 167q-11 1 -21 1q-93 0 -143 -103q-41 -85 -41 -218q0 -188 96 -251q39 -25 88 -25q26 0 65 14l18 211l-84 10l2 29h232l-3 -29 l-14 -2q-34 -4 -43 -29q-3 -10 -5 -25l-13 -143q-2 -33 -24 -44l-10 -4q-77 -25 -145 -26z" glyph-name="G" horiz-adv-x="601" unicode="G"/>
<glyph d="M24 0l2 25l37 6q50 8 62 28q10 17 13 54l34 395q3 31 3 52q0 35 -23 45q-13 6 -38 10l-36 6l2 25h294l-2 -26l-101 -12l-21 -243h260l21 243l-99 12l2 26h295l-2 -25l-37 -6q-50 -8 -62 -28q-10 -17 -13 -54l-33 -390q-4 -44 -4 -57q0 -36 25 -46q13 -5 36 -9l36 -6 l-2 -25h-295l2 26l102 12l25 286h-261l-24 -286l98 -12l-2 -26h-294z" glyph-name="H" horiz-adv-x="697" unicode="H"/>
<glyph d="M24 0l2 25l36 6q50 9 63 28q10 17 13 54l34 400q3 36 3 47q0 35 -25 45q-13 6 -37 10l-35 6l2 25h296l-2 -25l-35 -6q-50 -9 -62 -28q-10 -17 -13 -54l-34 -400q-3 -34 -3 -47q0 -36 25 -46q13 -5 36 -9l39 -6l-2 -25h-301z" glyph-name="I" horiz-adv-x="346" unicode="I"/>
<glyph d="M-2 -157l-5 24q70 43 94 83q27 47 40 177q0 8 1 15l33 371q3 36 3 47q0 36 -26 46q-13 6 -36 9l-36 6l2 25h299l-2 -25l-37 -6q-49 -8 -62 -28q-9 -16 -13 -54l-33 -377q-13 -154 -64 -219q-47 -58 -158 -94z" glyph-name="J" horiz-adv-x="315" unicode="J"/>
<glyph d="M24 0l2 25l37 6q50 8 62 28q10 17 13 54l34 395q4 41 4 52q0 36 -26 46q-13 6 -36 9l-36 6l2 25h287l-2 -26l-93 -12l-50 -570l91 -12l-2 -26h-287zM532 0q-50 0 -73 26q-7 8 -13 17l-179 280l1 11l270 274l-96 13l2 25h220l-2 -25l-15 -4q-46 -13 -65 -31l-230 -229 l192 -292q16 -25 49 -35q8 -2 17 -4l-3 -26h-75z" glyph-name="K" horiz-adv-x="602" unicode="K"/>
<glyph d="M434 -8q-5 0 -41 2q-95 6 -134 6h-235l2 25l37 6q50 8 62 28q10 17 13 54l35 400q3 36 3 47q0 35 -25 45q-13 6 -37 10l-36 6l2 25h318l-2 -27l-124 -13l-49 -560q28 -6 59 -6q90 0 137 52q27 30 51 84l18 40l21 -5l-41 -193q-7 -25 -34 -26z" glyph-name="L" horiz-adv-x="518" unicode="L"/>
<glyph d="M25 0l2 24l40 9q43 9 53 31q5 11 7 26l57 407q8 53 8 71q0 32 -32 41l-18 4l-46 8l2 25h168q41 -1 50 -33l109 -405l193 438h210l-2 -25l-43 -7q-47 -8 -59 -34q-6 -16 -8 -47l-19 -402q-2 -33 -2 -47q0 -34 27 -44q9 -3 22 -6l39 -7l-2 -27h-283l2 26l103 13l23 519 l-212 -474h-21q-23 0 -29 13q-2 5 -4 11l-126 445l-66 -515l98 -12l-3 -26h-238z" glyph-name="M" horiz-adv-x="809" unicode="M"/>
<glyph d="M27 0l2 25l35 7q48 9 59 36q5 12 7 30l39 389q6 53 6 66q0 40 -32 52q-9 4 -20 6l-36 8l2 27h149q35 -1 47 -25l236 -480l40 465l-107 14l2 26h253l-3 -25l-39 -8q-43 -9 -53 -32q-5 -13 -7 -33l-56 -551h-27q-29 1 -40 22l-266 526l-44 -505l107 -14l-2 -26h-252z" glyph-name="N" horiz-adv-x="664" unicode="N"/>
<glyph d="M318 -14q-135 0 -199 111q-42 75 -42 184q0 176 93 285q80 93 195 94q135 0 199 -111q42 -75 42 -184q0 -176 -93 -285q-80 -93 -195 -94zM331 25q82 0 129 106q42 93 42 236q0 169 -77 229q-32 25 -73 25q-82 0 -129 -106q-42 -93 -42 -236q0 -169 77 -229 q32 -25 73 -25z" glyph-name="O" horiz-adv-x="626" unicode="O"/>
<glyph d="M24 0l2 25l37 6q50 8 62 28q10 17 13 54l34 395q4 41 4 52q0 35 -25 45q-13 6 -37 10l-36 6l2 25h232q148 0 210 -86q32 -45 32 -105q0 -163 -173 -189q-31 -4 -65 -4q-37 0 -73 13l-21 -236l122 -12l-2 -27h-318zM306 299q134 0 144 131q1 13 1 25q0 114 -87 145 q-27 9 -58 9q-21 0 -34 -3l-26 -295q25 -12 60 -12z" glyph-name="P" horiz-adv-x="542" unicode="P"/>
<glyph d="M513 -150q-71 0 -112 31q-13 10 -24 22l-40 41q-44 44 -62 54q-19 11 -36 11q-39 0 -78 -36q-9 -8 -25 -24l-16 18q39 45 76 70q-105 64 -115 215q-1 15 -1 29q0 176 92 285q79 93 192 94q142 0 205 -120q37 -73 37 -175q0 -151 -83 -258q-61 -78 -144 -98l23 -23l60 -57 q42 -40 74 -46q14 -3 32 -3l-2 -22q-20 -8 -53 -8zM280 62q41 -1 77 -33q69 23 110 129q34 89 34 209q0 180 -81 235q-29 19 -64 19q-100 0 -144 -135q-27 -85 -27 -207q0 -166 54 -222q19 5 41 5z" glyph-name="Q" horiz-adv-x="626" unicode="Q"/>
<glyph d="M24 0l2 25l37 6q50 8 62 28q10 17 13 54l34 395q4 41 4 52q0 36 -26 46q-13 6 -36 9l-36 6l2 25h226q160 0 216 -89q23 -37 23 -86q0 -112 -114 -149q-41 -13 -93 -14q73 -16 109 -76q19 -32 51 -118q10 -27 19 -46q18 -36 64 -43l-2 -25h-53q-61 0 -88 29q-10 12 -19 28 q-11 20 -43 115q-6 17 -10 27q-29 69 -56 86q-20 12 -47 12h-18l-23 -259l94 -12l-2 -26h-290zM297 333q139 0 146 129v12q0 89 -68 122q-28 13 -62 13q-23 0 -41 -2l-23 -268q27 -6 48 -6z" glyph-name="R" horiz-adv-x="567" unicode="R"/>
<glyph d="M231 -14q-77 0 -121 16q-44 15 -52 37q-3 7 -4 15q-2 16 -2 35v111l25 4q30 -152 115 -175q19 -5 39 -5q109 0 125 90q3 15 3 30q-2 78 -98 128l-24 12q-110 54 -139 119q-14 33 -14 76q0 91 72 144q52 37 121 37q81 0 137 -26q27 -14 27 -47q0 -20 -3 -41l-9 -80h-23 q-14 134 -98 152q-17 4 -35 4q-79 0 -103 -63q-8 -22 -8 -48q0 -58 60 -100q24 -16 58 -33l28 -14q112 -57 131 -140q4 -20 4 -43q0 -111 -88 -164q-53 -31 -124 -31z" glyph-name="S" horiz-adv-x="468" unicode="S"/>
<glyph d="M120 0l2 25l41 8q50 10 63 28q10 16 13 54l42 490h-25q-85 0 -120 -51q-16 -24 -27 -62l-10 -36h-23l14 164q3 25 28 26h432q23 -2 24 -22q0 -7 -3 -37l-12 -131h-24l-3 36q-7 86 -69 106q-25 7 -60 7h-31l-39 -458q-5 -50 -5 -59q0 -34 24 -44q13 -6 39 -10l54 -9 l-3 -25h-322z" glyph-name="T" horiz-adv-x="555" unicode="T"/>
<glyph d="M321 -12q-149 0 -187 132q-12 40 -12 90q0 40 4 78l20 225q3 30 3 46q0 35 -24 46q-13 5 -38 10l-26 5l2 26h292l-2 -27l-106 -11l-29 -334q-5 -49 -5 -79q0 -141 96 -163q17 -4 34 -4q98 0 135 108q16 49 23 122l31 350l-90 11l2 27h240l-2 -26l-30 -5q-49 -8 -61 -27 q-9 -16 -12 -55l-24 -278q-18 -207 -142 -252q-40 -15 -92 -15z" glyph-name="U" horiz-adv-x="635" unicode="U"/>
<glyph d="M281 -5q-31 0 -39 26l-2 6l-132 541q-8 32 -22 40q-7 3 -15 5l-16 5l3 28h244l-2 -29l-103 -11l117 -494l202 496l-95 11l3 27h202l-3 -28l-27 -7q-27 -7 -40 -35q-2 -4 -3 -8l-236 -573h-36z" glyph-name="V" horiz-adv-x="568" unicode="V"/>
<glyph d="M260 -5q-31 0 -39 27q-1 5 -2 9l-100 538q-6 32 -23 40q-6 3 -15 5l-17 4l2 28h238l-2 -29l-91 -9l90 -517l149 454l-12 63l-56 10l2 28h246l-3 -29l-91 -9l88 -502l174 502l-81 11l2 27h182l-3 -26l-17 -6q-27 -10 -38 -32q-4 -9 -9 -22l-199 -565h-50q-30 0 -38 27 q-1 5 -2 9l-76 425l-147 -461h-62z" glyph-name="W" horiz-adv-x="864" unicode="W"/>
<glyph d="M-11 0l2 24l17 4q45 10 70 44q3 3 4 5l173 242l-122 260q-12 24 -49 33l-23 5l3 29h244l-3 -29l-81 -11l96 -214l155 217l-77 10l3 27h201l-2 -24l-27 -7q-39 -11 -71 -54l-159 -211l129 -267q22 -42 64 -53l24 -6l-2 -24h-253l2 27l81 11l-111 236l-160 -237l80 -10 l-2 -27h-206z" glyph-name="X" horiz-adv-x="557" unicode="X"/>
<glyph d="M97 0l2 25l46 8q50 8 63 27q9 16 13 55l13 153l-143 314q-13 25 -33 32l-16 5l3 27h236l-2 -28l-93 -9l122 -277l166 278l-82 9l2 27h191l-2 -26l-27 -9q-31 -10 -45 -32q-2 -3 -3 -5l-182 -300l-11 -129q-4 -45 -4 -55q0 -36 24 -47q13 -6 38 -10l45 -8l-2 -25h-319z " glyph-name="Y" horiz-adv-x="516" unicode="Y"/>
<glyph d="M433 -8q-5 0 -34 2q-91 6 -141 6h-228v20l374 585h-151q-74 0 -105 -41q-18 -25 -32 -72l-11 -36h-22l14 164q3 25 28 26h402v-20l-374 -582q96 -3 128 -3q88 0 132 47q29 30 55 88l18 40l22 -5l-41 -193q-7 -25 -34 -26z" glyph-name="Z" horiz-adv-x="520" unicode="Z"/>
<glyph d="M73 -235l85 965h184l-3 -31h-101l-80 -903h104l-3 -31h-186z" glyph-name="bracketleft" horiz-adv-x="300" unicode="["/>
<glyph d="M307 -250l-233 1000h42l232 -1000h-41z" glyph-name="backslash" horiz-adv-x="378" unicode="\"/>
<glyph d="M270 730l-85 -965h-184l3 31h101l80 903h-104l3 31h186z" glyph-name="bracketright" horiz-adv-x="300" unicode="]"/>
<glyph d="M73 199l192 444l53 7l117 -451h-89l-82 333l-140 -333h-51z" glyph-name="asciicircum" horiz-adv-x="472" unicode="^"/>
<glyph d="M-12 -125l3 35h442l-3 -35h-442z" glyph-name="underscore" horiz-adv-x="440" unicode="_"/>
<glyph d="M303 550l-106 60q-35 21 -36 53q0 35 36 53q11 5 20 5q8 0 20 -19q2 -3 4 -7l74 -131z" glyph-name="grave" horiz-adv-x="440" unicode="`"/>
<glyph d="M203 -14q-90 0 -121 105q-12 43 -12 98q0 151 84 237q64 64 151 64q88 0 157 -30l8 -4q-14 -66 -20 -144l-15 -175q-4 -49 -4 -64q0 -30 25 -38q17 -4 51 -4l-2 -22q-48 -16 -81 -16q-67 8 -71 73q0 24 4 61q-71 -138 -154 -141zM236 43q46 0 85 85q36 79 45 182l9 106 q-43 40 -89 41q-72 0 -106 -96q-20 -59 -20 -141q0 -148 56 -173q10 -4 20 -4z" glyph-name="a" unicode="a"/>
<glyph d="M254 -12q-117 1 -176 49q14 75 24 182l34 363q5 52 5 67q0 28 -22 36q-6 2 -11 3l-39 9l2 20q56 18 157 19h11q-12 -73 -25 -206l-16 -164q49 97 115 120q17 6 32 6q107 0 138 -115q10 -39 10 -88q0 -166 -94 -248q-62 -53 -145 -53zM272 21q70 0 106 92q23 61 23 145 q0 145 -65 168q-11 4 -22 4q-52 0 -91 -90q-32 -76 -41 -185l-7 -80q37 -53 97 -54z" glyph-name="b" horiz-adv-x="520" unicode="b"/>
<glyph d="M249 -14q-126 0 -165 117q-15 44 -15 102q0 144 84 226q64 61 152 61q68 0 106 -49q22 -27 22 -58q0 -48 -39 -56q-6 -1 -11 -1q-19 0 -23 9q-2 5 -5 17l-21 92q-26 12 -51 12q-75 0 -106 -102q-17 -56 -17 -133q0 -150 91 -174q16 -4 33 -4q64 1 118 54l9 -13 q-31 -55 -98 -85q-35 -15 -64 -15z" glyph-name="c" horiz-adv-x="433" unicode="c"/>
<glyph d="M216 -14q-95 0 -130 99q-16 45 -16 104q0 149 85 235q65 66 154 66q46 0 87 -15l10 107q5 52 5 67q0 29 -24 37q-5 1 -9 2l-45 9l2 19q61 18 163 20h11q-15 -95 -25 -206l-34 -393q-4 -49 -4 -64q0 -31 29 -39q17 -4 47 -4l-2 -22q-45 -15 -80 -15q-72 2 -73 76 q0 12 6 59q-56 -120 -133 -139q-13 -3 -24 -3zM246 43q52 0 92 91q36 80 45 192l6 77q-37 53 -99 54q-71 0 -105 -88q-24 -61 -24 -149q0 -147 62 -173q11 -4 23 -4z" glyph-name="d" horiz-adv-x="528" unicode="d"/>
<glyph d="M254 -15q-137 0 -173 131q-11 41 -11 92q0 146 83 226q60 58 145 58q89 0 115 -57q8 -18 8 -39q0 -64 -69 -101q-28 -14 -69 -28l-124 -41q0 -171 119 -181q9 -1 17 -1q59 1 111 45l7 -16q-69 -87 -159 -88zM161 275l71 12q105 21 108 97q0 56 -40 70q-11 4 -23 4 q-80 0 -106 -113q-7 -32 -10 -70z" glyph-name="e" horiz-adv-x="427" unicode="e"/>
<glyph d="M32 -245q-50 0 -56 40q-1 4 -1 8q0 23 18 29q3 1 6 1q5 -1 15 -5l64 -29q26 46 32 127q1 16 2 36l22 470h-50l1 30l30 10q20 6 22 20q1 3 1 5l2 26q8 104 73 169q48 47 104 48q56 0 65 -39q1 -6 1 -12q0 -30 -25 -37q-4 -1 -8 -1q-6 1 -13 7l-62 48q-37 -32 -46 -96 q-3 -27 -6 -77l-3 -60l121 4l-5 -25q-3 -18 -16 -20q-4 -1 -9 -1h-93l-18 -413q-6 -147 -80 -221q-42 -41 -88 -42z" glyph-name="f" horiz-adv-x="304" unicode="f"/>
<glyph d="M204 -249q-107 0 -143 60q-13 23 -13 49q0 34 34 44q9 2 18 2q14 0 17 -7q1 -4 2 -9l16 -91q27 -14 72 -14q80 0 112 88q15 42 23 105l17 143q-52 -106 -118 -130q-15 -5 -29 -5q-94 0 -127 100q-15 45 -15 103q0 150 83 236q63 65 149 65q105 0 170 -40 q-14 -73 -29 -240l-18 -204q-15 -173 -122 -231q-44 -24 -99 -24zM236 43q56 0 95 98q30 76 39 186l7 89q-40 41 -94 41q-75 0 -106 -105q-16 -56 -16 -132q1 -176 75 -177z" glyph-name="g" horiz-adv-x="507" unicode="g"/>
<glyph d="M440 -7q-81 2 -82 79q0 22 6 63l19 141q5 35 5 77q-1 75 -56 76q-128 0 -154 -313v-2l-7 -87q-3 -26 -26 -27h-71q17 90 28 210l35 372q5 52 5 67q0 28 -22 36q-6 2 -11 3l-41 9l2 20q57 18 159 19h11q-15 -95 -25 -206l-15 -162q72 109 147 123q9 1 17 1 q109 -2 110 -130q0 -22 -8 -91l-17 -134q-5 -41 -5 -64q0 -32 31 -39q17 -4 46 -4l-2 -22q-45 -15 -79 -15z" glyph-name="h" horiz-adv-x="525" unicode="h"/>
<glyph d="M168 579q-36 0 -46 34q-2 9 -2 17q0 45 38 59q11 4 22 4q36 0 46 -34q2 -9 2 -17q0 -45 -38 -59q-11 -4 -22 -4zM176 -7q-80 2 -81 79q0 17 5 63l19 195q6 53 6 67q0 36 -26 41q-9 2 -21 2q-11 0 -18 -1l2 22q47 18 88 18q59 -2 60 -58q0 -14 -6 -83l-18 -201 q-4 -52 -4 -64q0 -31 29 -39q17 -4 47 -4l-2 -22q-45 -15 -80 -15z" glyph-name="i" horiz-adv-x="263" unicode="i"/>
<glyph d="M166 579q-36 0 -46 34q-2 9 -2 17q0 45 38 59q11 4 22 4q36 0 46 -34q2 -9 2 -17q0 -45 -38 -59q-11 -4 -22 -4zM14 -245q-63 5 -67 47q0 27 20 32q4 1 6 1q3 -1 11 -3l78 -28q23 63 29 138q2 20 4 54l24 334q1 10 2 30q3 32 3 37q0 36 -26 41q-9 2 -21 2q-11 0 -18 -1 l2 22q47 18 88 18q59 -2 60 -58q0 -4 -2 -37q-2 -31 -3 -46l-20 -284q-12 -158 -78 -245q-42 -53 -92 -54z" glyph-name="j" horiz-adv-x="258" unicode="j"/>
<glyph d="M413 -11q-47 0 -72 33q-12 18 -26 49l-77 176l-50 -29l-17 -191q-5 -26 -26 -27h-71q17 90 28 210l35 372q5 52 5 67q0 28 -22 36q-6 2 -11 3l-41 9l2 20q57 18 159 19h11q-15 -95 -25 -206l-23 -260q107 41 166 97q14 13 28 29l-16 58q-5 16 -5 19q5 15 40 17 q36 0 46 -33q2 -9 2 -17q0 -55 -79 -111q-27 -20 -65 -42l95 -194q25 -52 41 -62q11 -6 27 -6q6 0 13 1l-2 -21q-36 -16 -70 -16z" glyph-name="k" horiz-adv-x="464" unicode="k"/>
<glyph d="M167 -7q-80 2 -81 79q0 17 5 63l42 447q5 52 5 67q0 28 -22 36q-6 2 -11 3l-41 9l2 20q57 18 159 19h11q-15 -95 -25 -206l-34 -393q-4 -52 -4 -64q0 -31 29 -39q17 -4 47 -4l-2 -22q-45 -15 -80 -15z" glyph-name="l" horiz-adv-x="255" unicode="l"/>
<glyph d="M704 -7q-81 2 -82 79q0 22 6 63l19 141q5 35 5 77q0 65 -34 74q-8 2 -17 2q-125 0 -151 -313v-2l-7 -87q-3 -26 -26 -27h-71q17 90 28 210l6 66q6 55 6 72q-2 79 -49 81q-125 0 -151 -313v-2l-7 -87q-3 -26 -26 -27h-71q17 90 28 210l11 120q6 55 6 67q0 36 -26 41 q-9 2 -21 2q-11 0 -18 -1l2 22q47 18 88 18q57 -2 58 -58q0 -17 -3 -55q73 113 150 125q8 1 15 1q90 0 101 -101q1 -9 2 -19q79 119 161 120q89 0 100 -96q2 -16 2 -34q0 -22 -8 -91l-17 -134q-5 -41 -5 -64q0 -32 31 -39q17 -4 46 -4l-2 -22q-45 -15 -79 -15z" glyph-name="m" horiz-adv-x="788" unicode="m"/>
<glyph d="M444 -7q-81 2 -82 79q0 22 6 63l19 141q5 35 5 77q-3 74 -53 76q-127 0 -153 -313v-2l-7 -87q-3 -26 -26 -27h-71q17 90 28 210l11 120q6 55 6 67q0 36 -26 41q-9 2 -21 2q-11 0 -18 -1l2 22q47 18 88 18q57 -2 58 -58q0 -17 -3 -55q73 113 150 125q8 1 15 1 q105 -2 106 -130q0 -22 -8 -91l-17 -134q-5 -41 -5 -64q0 -32 31 -39q17 -4 46 -4l-2 -22q-45 -15 -79 -15z" glyph-name="n" horiz-adv-x="529" unicode="n"/>
<glyph d="M255 -14q-101 0 -152 84q-34 58 -34 139q0 137 82 219q64 64 152 64q101 0 152 -84q34 -58 34 -139q0 -137 -82 -219q-64 -64 -152 -64zM277 20q61 0 94 87q24 63 24 148q0 137 -62 185q-24 18 -52 18q-61 0 -94 -87q-24 -63 -24 -148q0 -137 62 -185q24 -18 52 -18z" glyph-name="o" unicode="o"/>
<glyph d="M-13 -235l3 25l37 7q30 6 39 26q3 8 5 18q15 70 20 133l30 356q4 47 4 67q0 35 -23 41q-10 2 -23 2q-11 0 -18 -1l2 22q47 18 88 18q57 -2 58 -61q0 -15 -3 -50q62 113 136 123q6 1 11 1q107 0 138 -115q10 -39 10 -88q0 -156 -87 -242q-61 -59 -138 -59q-54 1 -98 23 l-18 -209l103 -9l-2 -28h-274zM279 21q70 0 106 89q24 62 24 148q0 145 -65 168q-11 4 -22 4q-65 0 -104 -126q-20 -66 -27 -151l-6 -70q36 -61 94 -62z" glyph-name="p" horiz-adv-x="528" unicode="p"/>
<glyph d="M233 -235l2 25l48 8q30 4 39 25q3 8 5 18q15 70 20 133l12 129q-55 -103 -126 -116q-8 -1 -16 -1q-108 0 -138 118q-9 38 -9 85q0 151 85 237q63 64 151 64q100 0 178 -43q-16 -75 -30 -237l-36 -411l64 -8l-3 -26h-246zM243 44q61 0 103 113q27 75 35 170l6 74 q-38 55 -99 56q-77 0 -109 -101q-18 -57 -18 -136q0 -164 72 -175q6 -1 10 -1z" glyph-name="q" horiz-adv-x="518" unicode="q"/>
<glyph d="M82 0q17 90 28 210l11 120q6 55 6 67q0 36 -26 41q-9 2 -21 2q-11 0 -18 -1l2 22q47 18 88 18q57 -2 58 -58q0 -16 -6 -79q63 123 129 141q10 3 19 3q47 0 57 -38q2 -8 2 -15q0 -35 -23 -46q-6 -2 -10 -2q-6 1 -13 4l-56 28q-64 -41 -91 -120q-22 -68 -33 -198l-6 -72 q-5 -26 -26 -27h-71z" glyph-name="r" horiz-adv-x="389" unicode="r"/>
<glyph d="M190 -14q-108 0 -138 56q-9 16 -9 35q0 35 30 44q7 2 14 2q9 -2 13 -9l41 -81q34 -16 59 -16q74 0 88 61q2 12 2 24q0 51 -61 86l-10 6l-33 18q-82 45 -99 96q-6 19 -6 41q0 78 68 118q42 25 97 25q98 0 126 -50q8 -15 8 -32q0 -40 -35 -45q-4 -1 -8 -1q-9 2 -13 9 l-40 77q-23 11 -45 11q-83 -2 -84 -71q0 -54 81 -98q2 -1 3 -2l26 -14q82 -44 97 -99q5 -18 5 -39q0 -84 -73 -126q-45 -26 -104 -26z" glyph-name="s" horiz-adv-x="388" unicode="s"/>
<glyph d="M214 -14q-80 0 -103 69q-7 22 -7 47q0 37 4 77l22 253h-53l1 30l34 10q27 9 36 28l27 72l52 4l-9 -103l149 3l-5 -25q-4 -17 -13 -19q-4 -1 -13 -1h-122l-21 -240q-4 -45 -4 -66q0 -70 57 -79q10 -1 20 -1q34 1 63 18l7 -16q-65 -60 -122 -61z" glyph-name="t" horiz-adv-x="335" unicode="t"/>
<glyph d="M202 -14q-108 2 -109 137q0 24 5 62l18 145q7 52 7 67q0 36 -26 41q-9 2 -21 2q-11 0 -18 -1l2 22q47 18 88 18q59 -2 60 -58q0 -34 -7 -83l-19 -148q-5 -32 -5 -64q0 -71 42 -79q7 -1 15 -1q59 0 101 101q38 92 51 243l5 58q6 25 26 26h72q-20 -100 -27 -184l-13 -153 q-4 -52 -4 -64q0 -31 29 -39q17 -4 47 -4l-2 -22q-45 -15 -80 -15q-77 2 -78 78q0 6 3 40q-77 -124 -162 -125z" glyph-name="u" horiz-adv-x="529" unicode="u"/>
<glyph d="M230 -3l-31 3q-23 3 -29 25q0 3 -1 6q-32 189 -73 361q-8 36 -27 41q-6 2 -13 2q-10 0 -23 -2l-1 20q44 26 82 26q35 0 49 -25q7 -12 13 -33q43 -139 67 -333q97 162 127 291l-33 75q-5 10 -5 13q0 10 22 17q13 4 26 4q38 0 47 -33q2 -8 2 -16q0 -34 -15 -77 q-61 -178 -184 -365z" glyph-name="v" horiz-adv-x="434" unicode="v"/>
<glyph d="M231 -3l-32 3q-23 3 -29 25q0 3 -1 6q-32 189 -73 361q-8 35 -25 41q-6 2 -14 2q-10 0 -23 -2l-1 20q44 26 82 26q34 0 48 -25q6 -12 13 -33q41 -135 66 -333q70 111 107 223q-7 30 -19 81q-8 35 -25 41q-6 2 -14 2q-10 0 -23 -2l-1 20q44 26 82 26q33 0 45 -23 q7 -12 14 -35q45 -149 67 -335q98 169 121 293l-31 75q-4 11 -4 13q0 11 26 16q9 2 19 2q40 0 46 -37q1 -6 1 -11q0 -33 -12 -75q-44 -154 -176 -365l-32 3q-23 3 -29 25q0 3 -1 6q-14 85 -40 214q-48 -122 -132 -248z" glyph-name="w" horiz-adv-x="661" unicode="w"/>
<glyph d="M104 -10q-38 0 -44 31q-1 4 -1 8q1 25 28 70q36 57 109 141l-70 152q-17 37 -34 42q-5 1 -10 1q-10 0 -23 -2l-1 20q42 26 85 26q35 0 53 -28q7 -12 15 -30l57 -132q56 45 90 104q1 3 2 4l-15 57q-4 15 -4 19q0 13 30 16q6 1 11 1q32 0 40 -29q2 -7 2 -13q-1 -24 -25 -64 q-38 -64 -109 -126l-3 -3l93 -183q17 -35 35 -41q12 -4 32 -4l-2 -24q-42 -12 -63 -12q-55 0 -78 32q-8 12 -16 29l-71 152q-61 -62 -87 -120l13 -59q3 -15 3 -19q-7 -14 -42 -16z" glyph-name="x" horiz-adv-x="442" unicode="x"/>
<glyph d="M78 -249q-43 0 -51 38q-1 7 -1 14q0 14 6 16q4 1 9 2l79 11q38 61 83 142q-60 258 -110 417q-1 5 -2 8q-11 35 -28 41q-7 2 -15 2q-6 0 -17 -2l-2 20q46 22 78 22q41 0 57 -25q6 -12 12 -29q61 -187 87 -338q83 166 111 293l-33 71q-6 13 -6 17q0 11 25 16q7 1 12 1 q60 -2 61 -63q0 -35 -24 -98q-52 -136 -208 -442q-3 -6 -6 -11q-46 -89 -69 -108q-19 -15 -48 -15z" glyph-name="y" horiz-adv-x="441" unicode="y"/>
<glyph d="M47 4v25q36 52 143 203q81 115 114 163h-139q-36 0 -54 -32q-4 -8 -9 -19l-8 -17h-22l10 121q4 25 31 26h281v-24q-28 -41 -115 -163q-110 -155 -142 -204q49 -3 130 -3q54 0 80 39q11 17 22 43l21 -6l-13 -62q-16 -73 -53 -90q-19 -9 -49 -9q-19 0 -53 2q-21 1 -31 1z " glyph-name="z" horiz-adv-x="400" unicode="z"/>
<glyph d="M277 -233q-150 8 -154 145q0 9 15 187q2 28 2 38q0 67 -41 86q-19 8 -46 11l2 27q68 7 90 52q13 28 18 79l15 163q14 162 159 174q13 1 25 1l-3 -30q-58 -3 -79 -54q-15 -36 -21 -105l-13 -154q-13 -131 -134 -140q100 -3 109 -104q1 -9 1 -18.5t-14 -168.5 q-3 -39 -3 -57q0 -81 45 -97q13 -4 30 -5z" glyph-name="braceleft" horiz-adv-x="300" unicode="{"/>
<glyph d="M59 -249l87 999h42l-87 -999h-42z" glyph-name="bar" horiz-adv-x="202" unicode="|"/>
<glyph d="M67 730q150 -8 154 -145q0 -9 -15 -187q-2 -28 -2 -38q0 -67 41 -86q19 -8 46 -11l-2 -27q-68 -7 -90 -52q-13 -28 -18 -79l-15 -163q-14 -162 -159 -174q-13 -1 -25 -1l3 30q58 3 79 54q15 36 21 105l13 154q13 131 134 140q-100 3 -109 104q-1 9 -1 18.5t14 168.5 q3 39 3 57q0 81 -45 97q-13 4 -30 5z" glyph-name="braceright" horiz-adv-x="300" unicode="}"/>
<glyph d="M346 285q-46 0 -100 36q-53 30 -78 32q-35 0 -65 -38q-8 -11 -18 -26l-14 6q52 121 121 125q42 0 95 -34q58 -31 87 -34q44 0 70 34q11 15 25 43l14 -4q-32 -105 -84 -129q-23 -11 -53 -11z" glyph-name="asciitilde" horiz-adv-x="475" unicode="~"/>
<glyph glyph-name="uni00A0" horiz-adv-x="228" unicode=" "/>
<glyph d="M185 490q34 0 45 -32q3 -10 3 -20q0 -43 -34 -60q-12 -6 -24 -6q-34 0 -45 32q-3 10 -3 20q0 43 34 60q12 6 24 6zM180 306l7 -413q1 -30 1 -42q0 -17 -19 -20q-11 -2 -29 -2q-64 2 -65 48q0 15 9 59l73 370h23z" glyph-name="exclamdown" horiz-adv-x="282" unicode="¡"/>
<glyph d="M205 -116l29 186q-118 20 -145 145q-7 32 -7 70q0 142 90 223q59 53 141 62l28 180h37l-28 -178q73 -3 112 -53q20 -26 20 -54q0 -49 -42 -56q-7 -1 -13 -1q-20 0 -24 8q-3 6 -6 18l-24 92q-20 7 -29 9l-63 -406q15 -4 37 -4q71 1 130 54l10 -13q-34 -54 -107 -84 q-39 -16 -71 -16h-9l-29 -182h-37zM182 303q1 -118 64 -159l62 394q-78 -7 -110 -109q-16 -54 -16 -126z" glyph-name="cent" horiz-adv-x="475" unicode="¢"/>
<glyph d="M365 -32q-39 0 -145 18q-81 14 -145 14q-32 0 -58 -4l-2 29q162 53 174 241q1 14 1 28v3h-98l6 40h91q0 16 -2 49q-2 48 -2 69q0 124 79 175q44 28 104 28q97 0 138 -72q17 -30 17 -63q0 -34 -31 -43q-7 -2 -14 -2q-29 0 -33 11q-1 5 -1 11l-1 105q-29 15 -77 15 q-98 -2 -99 -141q0 -23 2 -74q3 -45 3 -68h175l-5 -40h-171q-11 -198 -167 -253q66 16 108 16q47 0 123 -15q24 -4 40 -4q82 2 102 91l17 -8q-9 -107 -53 -137q-28 -19 -76 -19z" glyph-name="sterling" horiz-adv-x="508" unicode="£"/>
<glyph d="M73 94l-31 41l66 66q-28 46 -28 103q0 76 44 136q4 4 6 7l-55 68l39 40l49 -75q42 38 98 38q48 0 82 -31l7 -7l62 75l33 -40l-67 -67q28 -43 28 -103q0 -73 -43 -134q-4 -5 -7 -9l55 -67l-39 -41l-50 76q-46 -39 -96 -39q-53 1 -91 38zM231 178q59 0 95 64q26 46 26 104 q0 82 -51 113q-20 12 -44 12q-68 0 -102 -70q-20 -42 -20 -97q0 -82 51 -113q21 -13 45 -13z" glyph-name="currency" horiz-adv-x="433" unicode="¤"/>
<glyph d="M104 0l2 25l46 8q50 8 63 27q9 16 13 55l4 51h-147l4 40h147l5 60h-147l3 40h127l-126 276q-13 25 -33 32l-16 5l3 27h236l-2 -28l-93 -9l122 -277l166 278l-82 9l2 27h191l-2 -26l-27 -9q-31 -10 -45 -32q-2 -3 -3 -5l-163 -268h135l-4 -40h-151l-5 -60h151l-4 -40h-150 l-2 -21q-4 -45 -4 -55q0 -36 24 -47q13 -6 38 -10l45 -8l-2 -25h-319z" glyph-name="yen" horiz-adv-x="520" unicode="¥"/>
<glyph d="M105 281l41 469h42l-41 -469h-42zM59 -250l41 469h42l-41 -469h-42z" glyph-name="brokenbar" horiz-adv-x="202" unicode="¦"/>
<glyph d="M200 -248q-58 0 -115 22h-1q-37 15 -45 37q-5 15 -6 50l-1 106l21 4q22 -138 106 -172q23 -9 48 -9q68 0 97 56q14 27 14 62q0 67 -82 139q-3 3 -6 5l-53 45q-75 64 -96 146q-11 46 -11 108q0 151 78 264q74 107 175 113h11q70 0 124 -27q26 -14 26 -46q0 -12 -4 -44 l-8 -75h-19q-14 118 -74 145q-23 10 -54 10q-56 0 -79 -52q-10 -23 -10 -50q0 -79 83 -145q1 -2 2 -2l55 -46q108 -89 108 -239q0 -155 -69 -271q-81 -133 -215 -134zM367 -125q58 99 58 231q0 115 -83 193q-6 6 -11 10l-47 39q-84 71 -101 148q-6 26 -6 53q0 29 6 61 q-61 -108 -61 -221q0 -115 75 -182q4 -4 8 -7l70 -59q102 -90 104 -195q0 -33 -12 -71z" glyph-name="section" horiz-adv-x="506" unicode="§"/>
<glyph d="M194 581q-36 0 -44 34q-2 8 -2 15q0 45 37 58q10 3 21 3q36 0 44 -34q2 -8 2 -15q0 -45 -37 -58q-10 -3 -21 -3zM345 581q-36 0 -44 34q-2 8 -2 15q0 45 37 58q10 3 21 3q36 0 44 -34q2 -8 2 -15q0 -45 -37 -58q-10 -3 -21 -3z" glyph-name="dieresis" horiz-adv-x="440" unicode="¨"/>
<glyph d="M360 -27q-154 0 -231 110q-53 77 -53 190q0 177 103 290q98 106 242 106q154 0 231 -110q53 -77 53 -190q0 -177 -103 -290q-98 -106 -242 -106zM364 25q135 0 214 106q67 91 67 227q0 200 -142 246q-39 13 -86 13q-135 0 -214 -106q-67 -91 -67 -227q0 -200 142 -246 q39 -13 86 -13zM382 162q-85 0 -115 75q-12 30 -12 68q0 99 63 156q42 38 95 38q44 0 72 -15q15 -9 15 -24q0 -2 -2 -20v-4l-4 -43h-12q-11 75 -65 80q-6 1 -11 1q-45 0 -66 -67q-13 -40 -13 -93q0 -104 49 -124q10 -4 20 -4q48 0 77 76q3 7 5 14l12 -1l-11 -62 q-4 -29 -20 -37q-5 -3 -12 -5q-25 -9 -65 -9z" glyph-name="copyright" horiz-adv-x="724" unicode="©"/>
<glyph d="M180 300q-77 0 -94 93q-4 23 -4 49q0 116 69 175q41 35 95 35q63 0 116 -23q-12 -61 -16 -101l-10 -115q-3 -39 -3 -44q0 -28 28 -32q11 -2 30 -2l-1 -15q-43 -15 -64 -15q-45 2 -46 51q0 5 2 41q-41 -86 -87 -96q-8 -1 -15 -1zM202 344q34 0 62 69q20 51 25 113l5 75 q-29 27 -61 28q-55 0 -77 -77q-11 -39 -11 -89q0 -106 47 -118q5 -1 10 -1z" glyph-name="ordfeminine" horiz-adv-x="376" unicode="ª"/>
<glyph d="M189 47l-133 153q-10 12 -10 29q0 9 1 17q3 21 16 34l160 153l17 -13l-110 -180l78 -180zM361 47l-133 153q-10 12 -10 29q0 9 1 17q3 21 16 34l160 153l17 -13l-110 -180l78 -180z" glyph-name="guillemotleft" horiz-adv-x="412" unicode="«"/>
<glyph d="M361 130l19 217h-314l4 53h385l-24 -270h-70z" glyph-name="logicalnot" horiz-adv-x="475" unicode="¬"/>
<glyph d="M69 236l4 44l177 10l-4 -44z" glyph-name="uni00AD" horiz-adv-x="272" unicode="­"/>
<glyph d="M360 -27q-154 0 -231 110q-53 77 -53 190q0 177 103 290q98 106 242 106q154 0 231 -110q53 -77 53 -190q0 -177 -103 -290q-98 -106 -242 -106zM364 25q135 0 214 106q67 91 67 227q0 200 -142 246q-39 13 -86 13q-135 0 -214 -106q-67 -91 -67 -227q0 -200 142 -246 q39 -13 86 -13zM245 169l1 15l18 3q23 4 27 19q2 7 3 17l17 203l2 26q0 18 -15 22q-4 1 -8 1l-18 4l1 13h120q75 0 106 -45q12 -18 12 -39q0 -63 -65 -82q-16 -4 -33 -5q37 -8 53 -38q5 -10 24 -66q2 -5 3 -8q10 -21 33 -24l-1 -16h-31q-42 0 -58 27q-1 3 -2 5q-6 12 -22 70 l-1 1v1q-12 37 -32 40q-5 1 -9 1h-14l-10 -124l42 -6l-1 -15h-142zM379 335q68 2 69 69q0 57 -54 65q-3 1 -5 1q-4 1 -19 1l-12 -133q10 -3 21 -3z" glyph-name="registered" horiz-adv-x="724" unicode="®"/>
<glyph d="M170 602l4 44h206l-4 -44h-206z" glyph-name="macron" horiz-adv-x="440" unicode="¯"/>
<glyph d="M192 316q-95 0 -124 81q-10 29 -10 63q0 100 63 155q43 37 101 37q95 0 124 -81q10 -29 10 -63q0 -100 -63 -155q-43 -37 -101 -37zM196 368q60 0 86 64q12 32 12 71q0 79 -54 94q-11 3 -22 3q-60 0 -86 -64q-12 -32 -12 -71q0 -79 54 -94q11 -3 22 -3z" glyph-name="degree" horiz-adv-x="340" unicode="°"/>
<glyph d="M231 210l18 203h-151l5 52h150l16 181h54l-16 -181h149l-4 -52h-150l-17 -203h-54zM66 0l4 52h337l-5 -52h-336z" glyph-name="plusminus" horiz-adv-x="475" unicode="±"/>
<glyph d="M276 286q-3 0 -16 1q-39 3 -66 3h-136v19q130 104 157 179q10 30 10 60q0 74 -43 81q-4 1 -8 1q-17 -1 -35 -12l-13 -60q-3 -12 -15 -14h-11q-24 2 -25 23q0 37 47 65q34 21 70 21q84 0 101 -70q4 -16 4 -33q0 -64 -49 -113q-37 -38 -120 -93h106q36 0 51 20q4 6 8 13 l6 12l13 -2l-16 -81q-9 -19 -20 -20z" glyph-name="twosuperior" horiz-adv-x="292" unicode="²"/>
<glyph d="M148 283q-62 0 -83 43q-6 14 -6 29q0 21 21 26q4 1 8 1q13 0 14 -6l2 -8l7 -53q17 -11 37 -11q58 0 66 61q1 8 1 16q0 68 -57 80l-14 2v13l89 112h-105q-21 0 -29 -19q-1 -2 -1 -3l-4 -11h-12l6 73q3 17 19 18h192l1 -13l-124 -150q72 -2 95 -56q7 -18 7 -38 q0 -84 -86 -102q-21 -4 -44 -4z" glyph-name="threesuperior" horiz-adv-x="267" unicode="³"/>
<glyph d="M230 549l-9 13l97 132q20 25 28 25q30 0 42 -27q5 -12 5 -26q-1 -32 -40 -53z" glyph-name="acute" horiz-adv-x="440" unicode="´"/>
<glyph d="M216 -14q-19 0 -37 5q-25 -154 -101 -211q-34 -25 -72 -25q-66 1 -67 45q0 28 20 34q3 1 6 1q5 -1 10 -3l77 -33q32 65 40 134q3 26 5 63l10 161l2 -1q1 4 1 14q2 11 2 15l18 145q7 52 7 67q0 36 -26 41q-9 2 -21 2q-11 0 -18 -1l2 22q47 18 88 18q59 -2 60 -58 q0 -34 -7 -83l-19 -148q-5 -32 -5 -64q0 -71 42 -79q7 -1 15 -1q59 0 101 101q38 92 51 243l5 58q6 25 26 26h72q-20 -100 -27 -184l-13 -153q-4 -52 -4 -64q0 -31 29 -39q17 -4 47 -4l-2 -22q-45 -15 -80 -15q-77 2 -78 78q0 6 3 40q-77 -124 -162 -125z" glyph-name="mu" horiz-adv-x="541" unicode="µ"/>
<glyph d="M145 -253l-4 24q66 46 87 82q27 46 39 172q1 10 2 21l6 73h-29q-137 0 -165 116q-7 29 -7 62q0 207 180 244q37 7 80 7h219l-11 -48h-37l-44 -500h-48l44 500h-68l-38 -440q-14 -157 -66 -223q-44 -55 -140 -90z" glyph-name="paragraph" horiz-adv-x="527" unicode="¶"/>
<glyph d="M105 260q-34 0 -42 33q-2 8 -2 15q0 44 33 58q10 4 21 4q34 0 42 -33q2 -8 2 -15q0 -44 -33 -58q-10 -4 -21 -4z" glyph-name="periodcentered" horiz-adv-x="165" unicode="·"/>
<glyph d="M176 -247q-56 0 -77 39q-7 14 -7 29q0 22 23 28q5 1 10 1q16 0 19 -7q0 -3 1 -6l8 -54q10 -4 19 -4q41 2 42 54q0 43 -40 62q-7 4 -15 6l54 114h44l-48 -73q70 -22 71 -90q0 -68 -59 -91q-21 -8 -45 -8z" glyph-name="cedilla" horiz-adv-x="440" unicode="¸"/>
<glyph d="M71 290l2 19l25 4q25 4 31 19q3 9 4 23l21 240l-69 -14l-1 18l70 40q17 9 43 9h28q-8 -51 -12 -104l-14 -158q-3 -27 -3 -43q0 -23 17 -28q5 -1 11 -2l26 -4l-2 -19h-177z" glyph-name="onesuperior" horiz-adv-x="259" unicode="¹"/>
<glyph d="M213 302q-76 0 -111 68q-19 38 -19 88q0 104 65 161q44 37 99 37q76 0 111 -68q19 -38 19 -88q0 -104 -65 -161q-44 -37 -99 -37zM229 326q45 0 68 68q14 42 14 96q0 104 -50 134q-14 8 -30 8q-45 0 -68 -68q-14 -42 -14 -96q0 -104 50 -134q14 -8 30 -8z" glyph-name="ordmasculine" horiz-adv-x="376" unicode="º"/>
<glyph d="M93 433l133 -153q10 -12 10 -29q0 -9 -1 -17q-3 -21 -16 -34l-160 -153l-17 13l110 180l-78 180zM265 433l133 -153q10 -12 10 -29q0 -9 -1 -17q-3 -21 -16 -34l-160 -153l-17 13l110 180l-78 180z" glyph-name="guillemotright" horiz-adv-x="411" unicode="»"/>
<glyph d="M71 290l2 19l25 4q25 4 31 19q3 9 4 23l21 240l-69 -14l-1 18l70 40q17 9 43 9h28q-8 -51 -12 -104l-14 -158q-3 -27 -3 -43q0 -23 17 -28q5 -1 11 -2l26 -4l-2 -19h-177zM171 0h-52l370 646h52zM398 0l1 17l54 5l7 77h-141l1 14l151 225q12 17 31 18l42 3 q-7 -46 -12 -102l-11 -119h47l-8 -39h-42l-2 -23q-3 -30 -3 -38q2 -15 14 -18l27 -6l-1 -14h-155zM368 138h95l15 166z" glyph-name="onequarter" horiz-adv-x="569" unicode="¼"/>
<glyph d="M64 290l2 19l25 4q25 4 31 19q3 9 4 23l21 240l-69 -14l-1 18l70 40q17 9 43 9h28q-8 -51 -12 -104l-14 -158q-3 -27 -3 -43q0 -23 17 -28q5 -1 11 -2l26 -4l-2 -19h-177zM172 0h-52l370 646h52zM594 -4q-3 0 -16 1q-39 3 -66 3h-136v19q130 104 157 179q10 30 10 60 q0 74 -43 81q-4 1 -8 1q-17 -1 -35 -12l-13 -60q-3 -12 -15 -14h-11q-24 2 -25 23q0 37 47 65q34 21 70 21q84 0 101 -70q4 -16 4 -33q0 -64 -49 -113q-37 -38 -120 -93h106q36 0 51 20q4 6 8 13l6 12l13 -2l-16 -81q-9 -19 -20 -20z" glyph-name="onehalf" horiz-adv-x="623" unicode="½"/>
<glyph d="M148 283q-62 0 -83 43q-6 14 -6 29q0 21 21 26q4 1 8 1q13 0 14 -6l2 -8l7 -53q17 -11 37 -11q58 0 66 61q1 8 1 16q0 68 -57 80l-14 2v13l89 112h-105q-21 0 -29 -19q-1 -2 -1 -3l-4 -11h-12l6 73q3 17 19 18h192l1 -13l-124 -150q72 -2 95 -56q7 -18 7 -38 q0 -84 -86 -102q-21 -4 -44 -4zM197 0h-52l370 646h52zM424 0l1 17l54 5l7 77h-141l1 14l151 225q12 17 31 18l42 3q-7 -46 -12 -102l-11 -119h47l-8 -39h-42l-2 -23q-3 -30 -3 -38q2 -15 14 -18l27 -6l-1 -14h-155zM394 138h95l15 166z" glyph-name="threequarters" horiz-adv-x="595" unicode="¾"/>
<glyph d="M307 487q34 0 45 -32q3 -10 3 -20q0 -43 -34 -60q-12 -6 -24 -6q-34 0 -45 32q-3 10 -3 20q0 43 34 60q12 6 24 6zM308 305l-5 -61q-7 -92 -62 -139q-9 -8 -24 -19q-75 -55 -75 -126q0 -89 72 -100q9 -1 18 -1q40 1 71 16l20 107q4 18 14 21q7 1 21 1q39 0 46 -31 q1 -5 1 -10q0 -57 -65 -103q-57 -39 -120 -39q-100 0 -142 73q-21 37 -21 82q0 118 117 181l8 4q54 27 69 47q15 22 19 56l4 41h34z" glyph-name="questiondown" horiz-adv-x="448" unicode="¿"/>
<glyph d="M355 690l-129 42q-40 15 -41 58q0 34 28 50q10 5 19 5q7 0 20 -15q2 -1 2 -2l108 -122zM-8 0l2 25l16 3q28 5 38 22q5 8 10 20l241 580h43q25 0 33 -25q1 -3 2 -5l140 -550q7 -29 34 -37q6 -2 12 -3l18 -3l-2 -27h-258l3 27l101 12l-43 175h-210l-69 -176l92 -11l-2 -27 h-201zM188 254h184l-70 289z" glyph-name="Agrave" horiz-adv-x="574" unicode="À"/>
<glyph d="M299 690l-5 15l122 123q17 17 26 17q22 0 34 -23q7 -13 7 -29q-1 -44 -54 -61zM-8 0l2 25l16 3q28 5 38 22q5 8 10 20l241 580h43q25 0 33 -25q1 -3 2 -5l140 -550q7 -29 34 -37q6 -2 12 -3l18 -3l-2 -27h-258l3 27l101 12l-43 175h-210l-69 -176l92 -11l-2 -27h-201z M188 254h184l-70 289z" glyph-name="Aacute" horiz-adv-x="574" unicode="Á"/>
<glyph d="M231 696l-16 4l76 105q17 24 33 26q5 1 9 1h13q22 0 33 -18q3 -5 5 -9l57 -105l-16 -4l-92 68zM-8 0l2 25l16 3q28 5 38 22q5 8 10 20l241 580h43q25 0 33 -25q1 -3 2 -5l140 -550q7 -29 34 -37q6 -2 12 -3l18 -3l-2 -27h-258l3 27l101 12l-43 175h-210l-69 -176l92 -11 l-2 -27h-201zM188 254h184l-70 289z" glyph-name="Acircumflex" horiz-adv-x="574" unicode="Â"/>
<glyph d="M364 718q-21 0 -52 18q-19 10 -33 10q-24 0 -38 -31l-2 -6h-19q19 107 79 108q16 0 49 -17q21 -11 37 -11q25 0 37 31l4 14l19 -2q-20 -109 -81 -114zM-8 0l2 25l16 3q28 5 38 22q5 8 10 20l241 580h43q25 0 33 -25q1 -3 2 -5l140 -550q7 -29 34 -37q6 -2 12 -3l18 -3 l-2 -27h-258l3 27l101 12l-43 175h-210l-69 -176l92 -11l-2 -27h-201zM188 254h184l-70 289z" glyph-name="Atilde" horiz-adv-x="574" unicode="Ã"/>
<glyph d="M251 717q-36 0 -44 34q-2 8 -2 15q0 45 37 58q10 3 21 3q36 0 44 -34q2 -8 2 -15q0 -45 -37 -58q-10 -3 -21 -3zM403 717q-36 0 -44 34q-2 8 -2 15q0 45 37 58q10 3 21 3q36 0 44 -34q2 -8 2 -15q0 -45 -37 -58q-10 -3 -21 -3zM-8 0l2 25l16 3q28 5 38 22q5 8 10 20 l241 580h43q25 0 33 -25q1 -3 2 -5l140 -550q7 -29 34 -37q6 -2 12 -3l18 -3l-2 -27h-258l3 27l101 12l-43 175h-210l-69 -176l92 -11l-2 -27h-201zM188 254h184l-70 289z" glyph-name="Adieresis" horiz-adv-x="574" unicode="Ä"/>
<glyph d="M326 692q-59 0 -75 49q-5 15 -5 30q0 62 47 91q23 14 50 14q59 0 75 -49q5 -15 5 -30q0 -62 -47 -91q-23 -14 -50 -14zM330 734q38 0 45 42q2 9 2 17q-2 40 -38 41q-38 0 -45 -42q-2 -9 -2 -17q2 -40 38 -41zM-8 0l2 25l16 3q28 5 38 22q5 8 10 20l241 580h43 q25 0 33 -25q1 -3 2 -5l140 -550q7 -29 34 -37q6 -2 12 -3l18 -3l-2 -27h-258l3 27l101 12l-43 175h-210l-69 -176l92 -11l-2 -27h-201zM188 254h184l-70 289z" glyph-name="Aring" horiz-adv-x="574" unicode="Å"/>
<glyph d="M684 -7q-6 0 -44 2q-97 5 -134 5h-267l2 26l101 11l15 177h-161l-98 -177l85 -11l-2 -26h-186l2 25l9 3q30 10 47 37l6 10l284 498q5 10 5 16q-2 20 -32 26l-36 6l2 25h471q23 -2 24 -22q0 -5 -2 -26l-12 -136h-23l-4 33q-9 76 -51 96q-29 14 -86 14h-119l-21 -244h173 l25 88h23l-18 -216h-24l-9 88h-174l-23 -273q48 -11 105 -11q88 0 129 39q27 28 55 90l13 29l21 -5l-37 -172q-7 -24 -34 -25zM219 254h141l25 299z" glyph-name="AE" horiz-adv-x="772" unicode="Æ"/>
<glyph d="M274 -247q-53 0 -77 36q-10 15 -10 31q0 25 23 31q4 1 8 1q17 0 20 -8q1 -2 1 -4l8 -57q11 -7 20 -7q37 0 45 39q1 7 1 15q-2 48 -53 65l39 92q-147 10 -199 146q-23 63 -23 144q0 169 92 280q86 102 211 103q76 0 141 -30q28 -18 29 -46q0 -9 -4 -54l-7 -81h-24 q-11 165 -134 173h-14q-90 0 -142 -104q-44 -90 -44 -226q0 -194 92 -249q31 -19 69 -19q91 0 154 153q7 17 13 35l25 -3l-24 -124q-10 -53 -36 -69q-12 -7 -29 -12q-52 -15 -103 -18l-28 -47q72 -21 72 -87q0 -60 -54 -86q-26 -13 -58 -13z" glyph-name="Ccedilla" horiz-adv-x="560" unicode="Ç"/>
<glyph d="M388 690l-129 42q-40 15 -41 58q0 34 28 50q10 5 19 5q7 0 20 -15q2 -1 2 -2l108 -122zM24 0l2 25l37 6q50 8 62 28q10 17 13 54l34 395q4 41 4 52q0 36 -26 46q-13 6 -36 9l-36 6l2 25h464q23 -2 24 -22q0 -5 -2 -26l-12 -136h-23l-4 33q-9 76 -51 96q-29 14 -86 14 h-119l-21 -244h173l25 88h23l-18 -216h-24l-9 88h-174l-23 -273q48 -11 105 -11q88 0 129 39q27 28 55 90l13 29l21 -5l-37 -172q-7 -24 -34 -25q-6 0 -44 2q-97 5 -134 5h-273z" glyph-name="Egrave" horiz-adv-x="563" unicode="È"/>
<glyph d="M332 690l-5 15l122 123q17 17 26 17q22 0 34 -23q7 -13 7 -29q-1 -44 -54 -61zM24 0l2 25l37 6q50 8 62 28q10 17 13 54l34 395q4 41 4 52q0 36 -26 46q-13 6 -36 9l-36 6l2 25h464q23 -2 24 -22q0 -5 -2 -26l-12 -136h-23l-4 33q-9 76 -51 96q-29 14 -86 14h-119 l-21 -244h173l25 88h23l-18 -216h-24l-9 88h-174l-23 -273q48 -11 105 -11q88 0 129 39q27 28 55 90l13 29l21 -5l-37 -172q-7 -24 -34 -25q-6 0 -44 2q-97 5 -134 5h-273z" glyph-name="Eacute" horiz-adv-x="563" unicode="É"/>
<glyph d="M264 696l-16 4l76 105q17 24 33 26q5 1 9 1h13q22 0 33 -18q3 -5 5 -9l57 -105l-16 -4l-92 68zM24 0l2 25l37 6q50 8 62 28q10 17 13 54l34 395q4 41 4 52q0 36 -26 46q-13 6 -36 9l-36 6l2 25h464q23 -2 24 -22q0 -5 -2 -26l-12 -136h-23l-4 33q-9 76 -51 96 q-29 14 -86 14h-119l-21 -244h173l25 88h23l-18 -216h-24l-9 88h-174l-23 -273q48 -11 105 -11q88 0 129 39q27 28 55 90l13 29l21 -5l-37 -172q-7 -24 -34 -25q-6 0 -44 2q-97 5 -134 5h-273z" glyph-name="Ecircumflex" horiz-adv-x="563" unicode="Ê"/>
<glyph d="M284 717q-36 0 -44 34q-2 8 -2 15q0 45 37 58q10 3 21 3q36 0 44 -34q2 -8 2 -15q0 -45 -37 -58q-10 -3 -21 -3zM436 717q-36 0 -44 34q-2 8 -2 15q0 45 37 58q10 3 21 3q36 0 44 -34q2 -8 2 -15q0 -45 -37 -58q-10 -3 -21 -3zM24 0l2 25l37 6q50 8 62 28q10 17 13 54 l34 395q4 41 4 52q0 36 -26 46q-13 6 -36 9l-36 6l2 25h464q23 -2 24 -22q0 -5 -2 -26l-12 -136h-23l-4 33q-9 76 -51 96q-29 14 -86 14h-119l-21 -244h173l25 88h23l-18 -216h-24l-9 88h-174l-23 -273q48 -11 105 -11q88 0 129 39q27 28 55 90l13 29l21 -5l-37 -172 q-7 -24 -34 -25q-6 0 -44 2q-97 5 -134 5h-273z" glyph-name="Edieresis" horiz-adv-x="563" unicode="Ë"/>
<glyph d="M262 690l-129 42q-40 15 -41 58q0 34 28 50q10 5 19 5q7 0 20 -15q2 -1 2 -2l108 -122zM24 0l2 25l36 6q50 9 63 28q10 17 13 54l34 400q3 36 3 47q0 35 -25 45q-13 6 -37 10l-35 6l2 25h296l-2 -25l-35 -6q-50 -9 -62 -28q-10 -17 -13 -54l-34 -400q-3 -34 -3 -47 q0 -36 25 -46q13 -5 36 -9l39 -6l-2 -25h-301z" glyph-name="Igrave" horiz-adv-x="346" unicode="Ì"/>
<glyph d="M206 690l-5 15l122 123q17 17 26 17q22 0 34 -23q7 -13 7 -29q-1 -44 -54 -61zM24 0l2 25l36 6q50 9 63 28q10 17 13 54l34 400q3 36 3 47q0 35 -25 45q-13 6 -37 10l-35 6l2 25h296l-2 -25l-35 -6q-50 -9 -62 -28q-10 -17 -13 -54l-34 -400q-3 -34 -3 -47q0 -36 25 -46 q13 -5 36 -9l39 -6l-2 -25h-301z" glyph-name="Iacute" horiz-adv-x="346" unicode="Í"/>
<glyph d="M138 696l-16 4l76 105q17 24 33 26q5 1 9 1h13q22 0 33 -18q3 -5 5 -9l57 -105l-16 -4l-92 68zM24 0l2 25l36 6q50 9 63 28q10 17 13 54l34 400q3 36 3 47q0 35 -25 45q-13 6 -37 10l-35 6l2 25h296l-2 -25l-35 -6q-50 -9 -62 -28q-10 -17 -13 -54l-34 -400 q-3 -34 -3 -47q0 -36 25 -46q13 -5 36 -9l39 -6l-2 -25h-301z" glyph-name="Icircumflex" horiz-adv-x="346" unicode="Î"/>
<glyph d="M158 717q-36 0 -44 34q-2 8 -2 15q0 45 37 58q10 3 21 3q36 0 44 -34q2 -8 2 -15q0 -45 -37 -58q-10 -3 -21 -3zM310 717q-36 0 -44 34q-2 8 -2 15q0 45 37 58q10 3 21 3q36 0 44 -34q2 -8 2 -15q0 -45 -37 -58q-10 -3 -21 -3zM24 0l2 25l36 6q50 9 63 28q10 17 13 54 l34 400q3 36 3 47q0 35 -25 45q-13 6 -37 10l-35 6l2 25h296l-2 -25l-35 -6q-50 -9 -62 -28q-10 -17 -13 -54l-34 -400q-3 -34 -3 -47q0 -36 25 -46q13 -5 36 -9l39 -6l-2 -25h-301z" glyph-name="Idieresis" horiz-adv-x="346" unicode="Ï"/>
<glyph d="M24 0l2 25l37 6q50 8 62 28q10 17 13 54l18 207h-62l3 36h62l12 143q5 51 5 61q0 36 -26 46q-13 6 -36 9l-36 6l2 25h150q224 0 322 -130q60 -80 60 -196q0 -250 -224 -305q-61 -15 -135 -15h-229zM289 38q170 0 210 168q12 48 12 107q0 188 -116 259q-54 33 -123 34 l-22 -250h117l-3 -36h-117l-24 -273q29 -9 66 -9z" glyph-name="Eth" horiz-adv-x="633" unicode="Ð"/>
<glyph d="M448 718q-21 0 -52 18q-19 10 -33 10q-24 0 -38 -31l-2 -6h-19q19 107 79 108q16 0 49 -17q21 -11 37 -11q25 0 37 31l4 14l19 -2q-20 -109 -81 -114zM27 0l2 25l35 7q48 9 59 36q5 12 7 30l39 389q6 53 6 66q0 40 -32 52q-9 4 -20 6l-36 8l2 27h149q35 -1 47 -25 l236 -480l40 465l-107 14l2 26h253l-3 -25l-39 -8q-43 -9 -53 -32q-5 -13 -7 -33l-56 -551h-27q-29 1 -40 22l-266 526l-44 -505l107 -14l-2 -26h-252z" glyph-name="Ntilde" horiz-adv-x="664" unicode="Ñ"/>
<glyph d="M402 690l-129 42q-40 15 -41 58q0 34 28 50q10 5 19 5q7 0 20 -15q2 -1 2 -2l108 -122zM318 -14q-135 0 -199 111q-42 75 -42 184q0 176 93 285q80 93 195 94q135 0 199 -111q42 -75 42 -184q0 -176 -93 -285q-80 -93 -195 -94zM331 25q82 0 129 106q42 93 42 236 q0 169 -77 229q-32 25 -73 25q-82 0 -129 -106q-42 -93 -42 -236q0 -169 77 -229q32 -25 73 -25z" glyph-name="Ograve" horiz-adv-x="626" unicode="Ò"/>
<glyph d="M346 690l-5 15l122 123q17 17 26 17q22 0 34 -23q7 -13 7 -29q-1 -44 -54 -61zM318 -14q-135 0 -199 111q-42 75 -42 184q0 176 93 285q80 93 195 94q135 0 199 -111q42 -75 42 -184q0 -176 -93 -285q-80 -93 -195 -94zM331 25q82 0 129 106q42 93 42 236q0 169 -77 229 q-32 25 -73 25q-82 0 -129 -106q-42 -93 -42 -236q0 -169 77 -229q32 -25 73 -25z" glyph-name="Oacute" horiz-adv-x="626" unicode="Ó"/>
<glyph d="M278 696l-16 4l76 105q17 24 33 26q5 1 9 1h13q22 0 33 -18q3 -5 5 -9l57 -105l-16 -4l-92 68zM318 -14q-135 0 -199 111q-42 75 -42 184q0 176 93 285q80 93 195 94q135 0 199 -111q42 -75 42 -184q0 -176 -93 -285q-80 -93 -195 -94zM331 25q82 0 129 106q42 93 42 236 q0 169 -77 229q-32 25 -73 25q-82 0 -129 -106q-42 -93 -42 -236q0 -169 77 -229q32 -25 73 -25z" glyph-name="Ocircumflex" horiz-adv-x="626" unicode="Ô"/>
<glyph d="M411 718q-21 0 -52 18q-19 10 -33 10q-24 0 -38 -31l-2 -6h-19q19 107 79 108q16 0 49 -17q21 -11 37 -11q25 0 37 31l4 14l19 -2q-20 -109 -81 -114zM318 -14q-135 0 -199 111q-42 75 -42 184q0 176 93 285q80 93 195 94q135 0 199 -111q42 -75 42 -184q0 -176 -93 -285 q-80 -93 -195 -94zM331 25q82 0 129 106q42 93 42 236q0 169 -77 229q-32 25 -73 25q-82 0 -129 -106q-42 -93 -42 -236q0 -169 77 -229q32 -25 73 -25z" glyph-name="Otilde" horiz-adv-x="626" unicode="Õ"/>
<glyph d="M298 717q-36 0 -44 34q-2 8 -2 15q0 45 37 58q10 3 21 3q36 0 44 -34q2 -8 2 -15q0 -45 -37 -58q-10 -3 -21 -3zM450 717q-36 0 -44 34q-2 8 -2 15q0 45 37 58q10 3 21 3q36 0 44 -34q2 -8 2 -15q0 -45 -37 -58q-10 -3 -21 -3zM318 -14q-135 0 -199 111q-42 75 -42 184 q0 176 93 285q80 93 195 94q135 0 199 -111q42 -75 42 -184q0 -176 -93 -285q-80 -93 -195 -94zM331 25q82 0 129 106q42 93 42 236q0 169 -77 229q-32 25 -73 25q-82 0 -129 -106q-42 -93 -42 -236q0 -169 77 -229q32 -25 73 -25z" glyph-name="Odieresis" horiz-adv-x="626" unicode="Ö"/>
<glyph d="M136 156l-33 39l130 136l-107 138l41 40l105 -137l130 136l30 -38l-130 -137l106 -138l-38 -39l-106 136z" glyph-name="multiply" horiz-adv-x="475" unicode="×"/>
<glyph d="M26 -20l95 114q-44 76 -44 187q0 176 93 285q80 93 195 94q105 -1 169 -70l63 76h53l-91 -109q47 -78 47 -192q0 -176 -93 -285q-80 -93 -195 -94q-107 1 -172 74l-67 -80h-53zM181 279q0 -56 9 -101l287 344q-40 98 -125 99q-82 0 -129 -106q-42 -93 -42 -236zM331 25 q82 0 129 106q42 93 42 236q0 58 -11 108l-287 -345q40 -104 127 -105z" glyph-name="Oslash" horiz-adv-x="626" unicode="Ø"/>
<glyph d="M429 690l-129 42q-40 15 -41 58q0 34 28 50q10 5 19 5q7 0 20 -15q2 -1 2 -2l108 -122zM321 -12q-149 0 -187 132q-12 40 -12 90q0 40 4 78l20 225q3 30 3 46q0 35 -24 46q-13 5 -38 10l-26 5l2 26h292l-2 -27l-106 -11l-29 -334q-5 -49 -5 -79q0 -141 96 -163 q17 -4 34 -4q98 0 135 108q16 49 23 122l31 350l-90 11l2 27h240l-2 -26l-30 -5q-49 -8 -61 -27q-9 -16 -12 -55l-24 -278q-18 -207 -142 -252q-40 -15 -92 -15z" glyph-name="Ugrave" horiz-adv-x="635" unicode="Ù"/>
<glyph d="M373 690l-5 15l122 123q17 17 26 17q22 0 34 -23q7 -13 7 -29q-1 -44 -54 -61zM321 -12q-149 0 -187 132q-12 40 -12 90q0 40 4 78l20 225q3 30 3 46q0 35 -24 46q-13 5 -38 10l-26 5l2 26h292l-2 -27l-106 -11l-29 -334q-5 -49 -5 -79q0 -141 96 -163q17 -4 34 -4 q98 0 135 108q16 49 23 122l31 350l-90 11l2 27h240l-2 -26l-30 -5q-49 -8 -61 -27q-9 -16 -12 -55l-24 -278q-18 -207 -142 -252q-40 -15 -92 -15z" glyph-name="Uacute" horiz-adv-x="635" unicode="Ú"/>
<glyph d="M305 696l-16 4l76 105q17 24 33 26q5 1 9 1h13q22 0 33 -18q3 -5 5 -9l57 -105l-16 -4l-92 68zM321 -12q-149 0 -187 132q-12 40 -12 90q0 40 4 78l20 225q3 30 3 46q0 35 -24 46q-13 5 -38 10l-26 5l2 26h292l-2 -27l-106 -11l-29 -334q-5 -49 -5 -79q0 -141 96 -163 q17 -4 34 -4q98 0 135 108q16 49 23 122l31 350l-90 11l2 27h240l-2 -26l-30 -5q-49 -8 -61 -27q-9 -16 -12 -55l-24 -278q-18 -207 -142 -252q-40 -15 -92 -15z" glyph-name="Ucircumflex" horiz-adv-x="635" unicode="Û"/>
<glyph d="M325 717q-36 0 -44 34q-2 8 -2 15q0 45 37 58q10 3 21 3q36 0 44 -34q2 -8 2 -15q0 -45 -37 -58q-10 -3 -21 -3zM477 717q-36 0 -44 34q-2 8 -2 15q0 45 37 58q10 3 21 3q36 0 44 -34q2 -8 2 -15q0 -45 -37 -58q-10 -3 -21 -3zM321 -12q-149 0 -187 132q-12 40 -12 90 q0 40 4 78l20 225q3 30 3 46q0 35 -24 46q-13 5 -38 10l-26 5l2 26h292l-2 -27l-106 -11l-29 -334q-5 -49 -5 -79q0 -141 96 -163q17 -4 34 -4q98 0 135 108q16 49 23 122l31 350l-90 11l2 27h240l-2 -26l-30 -5q-49 -8 -61 -27q-9 -16 -12 -55l-24 -278q-18 -207 -142 -252 q-40 -15 -92 -15z" glyph-name="Udieresis" horiz-adv-x="635" unicode="Ü"/>
<glyph d="M310 690l-5 15l122 123q17 17 26 17q22 0 34 -23q7 -13 7 -29q-1 -44 -54 -61zM97 0l2 25l46 8q50 8 63 27q9 16 13 55l13 153l-143 314q-13 25 -33 32l-16 5l3 27h236l-2 -28l-93 -9l122 -277l166 278l-82 9l2 27h191l-2 -26l-27 -9q-31 -10 -45 -32q-2 -3 -3 -5 l-182 -300l-11 -129q-4 -45 -4 -55q0 -36 24 -47q13 -6 38 -10l45 -8l-2 -25h-319z" glyph-name="Yacute" horiz-adv-x="516" unicode="Ý"/>
<glyph d="M24 0l2 25l36 6q50 9 63 28q10 17 13 54l34 400q3 36 3 47q0 35 -25 45q-13 6 -37 10l-35 6l2 25h298l-2 -25l-37 -6q-50 -8 -62 -28q-10 -17 -13 -54l-1 -18q279 -1 280 -178q0 -158 -172 -184q-37 -6 -82 -6q-23 0 -57 5l-2 -19q-3 -34 -3 -47q0 -36 25 -46 q13 -5 36 -9l36 -6l-2 -25h-298zM272 182q152 0 165 127q1 13 1 26q0 99 -82 132q-32 13 -71 13q-18 0 -26 -1l-24 -292q3 0 13 -2q18 -3 24 -3z" glyph-name="Thorn" horiz-adv-x="545" unicode="Þ"/>
<glyph d="M21 -245q-54 0 -60 43q-1 5 -1 9q0 24 19 32q5 1 9 1q6 -1 15 -6l64 -35q33 48 41 124q2 18 3 39l28 470h-47l1 30l28 10q19 7 22 19q1 3 1 6l3 22q20 145 116 200q43 25 93 25q107 0 141 -71q12 -24 12 -52q0 -69 -62 -118q-9 -8 -27 -21q-48 -34 -60 -57q-8 -17 -8 -35 q0 -52 70 -92l12 -6l31 -16q73 -37 89 -91q6 -21 6 -47q0 -82 -71 -125q-45 -27 -107 -27q-134 1 -135 86q0 34 29 44q7 2 15 2q9 -2 13 -9l41 -81q31 -10 47 -10q67 0 85 56q5 16 5 33q0 52 -46 79q-6 3 -11 6l-39 20q-74 38 -93 80q-10 23 -10 52q0 49 50 108q49 57 57 69 q31 47 31 96q-2 94 -87 95q-69 0 -91 -91q-9 -35 -12 -82l-36 -521q-10 -147 -85 -221q-43 -42 -89 -42z" glyph-name="germandbls" horiz-adv-x="561" unicode="ß"/>
<glyph d="M338 550l-106 60q-35 21 -36 53q0 35 36 53q11 5 20 5q8 0 20 -19q2 -3 4 -7l74 -131zM203 -14q-90 0 -121 105q-12 43 -12 98q0 151 84 237q64 64 151 64q88 0 157 -30l8 -4q-14 -66 -20 -144l-15 -175q-4 -49 -4 -64q0 -30 25 -38q17 -4 51 -4l-2 -22q-48 -16 -81 -16 q-67 8 -71 73q0 24 4 61q-71 -138 -154 -141zM236 43q46 0 85 85q36 79 45 182l9 106q-43 40 -89 41q-72 0 -106 -96q-20 -59 -20 -141q0 -148 56 -173q10 -4 20 -4z" glyph-name="agrave" unicode="à"/>
<glyph d="M265 549l-9 13l97 132q20 25 28 25q30 0 42 -27q5 -12 5 -26q-1 -32 -40 -53zM203 -14q-90 0 -121 105q-12 43 -12 98q0 151 84 237q64 64 151 64q88 0 157 -30l8 -4q-14 -66 -20 -144l-15 -175q-4 -49 -4 -64q0 -30 25 -38q17 -4 51 -4l-2 -22q-48 -16 -81 -16 q-67 8 -71 73q0 24 4 61q-71 -138 -154 -141zM236 43q46 0 85 85q36 79 45 182l9 106q-43 40 -89 41q-72 0 -106 -96q-20 -59 -20 -141q0 -148 56 -173q10 -4 20 -4z" glyph-name="aacute" unicode="á"/>
<glyph d="M213 540l-18 4l71 143q14 27 31 29q4 1 9 1h22q22 0 30 -18q3 -5 5 -12l48 -143l-19 -4l-81 100zM203 -14q-90 0 -121 105q-12 43 -12 98q0 151 84 237q64 64 151 64q88 0 157 -30l8 -4q-14 -66 -20 -144l-15 -175q-4 -49 -4 -64q0 -30 25 -38q17 -4 51 -4l-2 -22 q-48 -16 -81 -16q-67 8 -71 73q0 24 4 61q-71 -138 -154 -141zM236 43q46 0 85 85q36 79 45 182l9 106q-43 40 -89 41q-72 0 -106 -96q-20 -59 -20 -141q0 -148 56 -173q10 -4 20 -4z" glyph-name="acircumflex" unicode="â"/>
<glyph d="M204 565q10 117 68 118q15 0 46 -21q23 -15 39 -15q27 0 38 41q2 9 4 19l18 -3q-6 -100 -51 -124q-10 -5 -20 -5q-25 0 -56 24q-19 15 -31 15q-22 0 -35 -41l-2 -8h-18zM203 -14q-90 0 -121 105q-12 43 -12 98q0 151 84 237q64 64 151 64q88 0 157 -30l8 -4 q-14 -66 -20 -144l-15 -175q-4 -49 -4 -64q0 -30 25 -38q17 -4 51 -4l-2 -22q-48 -16 -81 -16q-67 8 -71 73q0 24 4 61q-71 -138 -154 -141zM236 43q46 0 85 85q36 79 45 182l9 106q-43 40 -89 41q-72 0 -106 -96q-20 -59 -20 -141q0 -148 56 -173q10 -4 20 -4z" glyph-name="atilde" unicode="ã"/>
<glyph d="M229 581q-36 0 -44 34q-2 8 -2 15q0 45 37 58q10 3 21 3q36 0 44 -34q2 -8 2 -15q0 -45 -37 -58q-10 -3 -21 -3zM380 581q-36 0 -44 34q-2 8 -2 15q0 45 37 58q10 3 21 3q36 0 44 -34q2 -8 2 -15q0 -45 -37 -58q-10 -3 -21 -3zM203 -14q-90 0 -121 105q-12 43 -12 98 q0 151 84 237q64 64 151 64q88 0 157 -30l8 -4q-14 -66 -20 -144l-15 -175q-4 -49 -4 -64q0 -30 25 -38q17 -4 51 -4l-2 -22q-48 -16 -81 -16q-67 8 -71 73q0 24 4 61q-71 -138 -154 -141zM236 43q46 0 85 85q36 79 45 182l9 106q-43 40 -89 41q-72 0 -106 -96 q-20 -59 -20 -141q0 -148 56 -173q10 -4 20 -4z" glyph-name="adieresis" unicode="ä"/>
<glyph d="M304 543q-67 0 -80 58q-3 12 -3 24q0 68 49 96q22 12 48 12q67 0 80 -58q3 -12 3 -24q0 -68 -49 -96q-22 -12 -48 -12zM306 588q38 0 46 41q2 8 2 17q-3 40 -38 42q-38 0 -46 -41q-2 -8 -2 -17q3 -40 38 -42zM203 -14q-90 0 -121 105q-12 43 -12 98q0 151 84 237 q64 64 151 64q88 0 157 -30l8 -4q-14 -66 -20 -144l-15 -175q-4 -49 -4 -64q0 -30 25 -38q17 -4 51 -4l-2 -22q-48 -16 -81 -16q-67 8 -71 73q0 24 4 61q-71 -138 -154 -141zM236 43q46 0 85 85q36 79 45 182l9 106q-43 40 -89 41q-72 0 -106 -96q-20 -59 -20 -141 q0 -148 56 -173q10 -4 20 -4z" glyph-name="aring" unicode="å"/>
<glyph d="M208 -14q-108 0 -132 128q-7 34 -7 75q0 151 84 237q64 64 151 64q84 0 136 -29q50 31 111 31q82 0 113 -54q13 -23 13 -51q0 -73 -89 -108q-24 -9 -55 -17l-121 -30q1 -187 139 -188q56 1 108 45l7 -16q-69 -87 -156 -88q-123 1 -167 107q-65 -105 -135 -106zM414 279 l73 8q95 11 108 70q2 11 2 24q0 57 -42 73q-12 4 -25 4q-100 0 -115 -166q-1 -7 -1 -13zM233 43q48 0 83 81q6 14 11 29q-4 23 -4 55q1 118 59 201q-43 42 -82 47q-8 1 -16 1q-72 0 -105 -97q-20 -59 -20 -140q0 -132 46 -167q14 -10 28 -10z" glyph-name="ae" horiz-adv-x="681" unicode="æ"/>
<glyph d="M199 -247q-56 0 -77 39q-7 14 -7 29q0 22 23 28q5 1 10 1q16 0 19 -7q0 -3 1 -6l8 -54q10 -4 19 -4q41 2 42 54q0 43 -40 62q-7 4 -15 6l41 86q-117 14 -146 139q-8 36 -8 79q0 144 84 226q64 61 152 61q68 0 106 -49q22 -27 22 -58q0 -48 -39 -56q-6 -1 -11 -1 q-19 0 -23 9q-2 5 -5 17l-21 92q-26 12 -51 12q-75 0 -106 -102q-17 -56 -17 -133q0 -150 91 -174q16 -4 33 -4q64 1 118 54l9 -13q-32 -54 -99 -84q-27 -12 -51 -15l-29 -45q70 -22 71 -90q0 -68 -59 -91q-21 -8 -45 -8z" glyph-name="ccedilla" horiz-adv-x="433" unicode="ç"/>
<glyph d="M307 550l-106 60q-35 21 -36 53q0 35 36 53q11 5 20 5q8 0 20 -19q2 -3 4 -7l74 -131zM254 -15q-137 0 -173 131q-11 41 -11 92q0 146 83 226q60 58 145 58q89 0 115 -57q8 -18 8 -39q0 -64 -69 -101q-28 -14 -69 -28l-124 -41q0 -171 119 -181q9 -1 17 -1q59 1 111 45 l7 -16q-69 -87 -159 -88zM161 275l71 12q105 21 108 97q0 56 -40 70q-11 4 -23 4q-80 0 -106 -113q-7 -32 -10 -70z" glyph-name="egrave" horiz-adv-x="427" unicode="è"/>
<glyph d="M254 549l-9 13l97 132q20 25 28 25q30 0 42 -27q5 -12 5 -26q-1 -32 -40 -53zM254 -15q-137 0 -173 131q-11 41 -11 92q0 146 83 226q60 58 145 58q89 0 115 -57q8 -18 8 -39q0 -64 -69 -101q-28 -14 -69 -28l-124 -41q0 -171 119 -181q9 -1 17 -1q59 1 111 45l7 -16 q-69 -87 -159 -88zM161 275l71 12q105 21 108 97q0 56 -40 70q-11 4 -23 4q-80 0 -106 -113q-7 -32 -10 -70z" glyph-name="eacute" horiz-adv-x="427" unicode="é"/>
<glyph d="M202 540l-18 4l71 143q14 27 31 29q4 1 9 1h22q22 0 30 -18q3 -5 5 -12l48 -143l-19 -4l-81 100zM254 -15q-137 0 -173 131q-11 41 -11 92q0 146 83 226q60 58 145 58q89 0 115 -57q8 -18 8 -39q0 -64 -69 -101q-28 -14 -69 -28l-124 -41q0 -171 119 -181q9 -1 17 -1 q59 1 111 45l7 -16q-69 -87 -159 -88zM161 275l71 12q105 21 108 97q0 56 -40 70q-11 4 -23 4q-80 0 -106 -113q-7 -32 -10 -70z" glyph-name="ecircumflex" horiz-adv-x="427" unicode="ê"/>
<glyph d="M218 581q-36 0 -44 34q-2 8 -2 15q0 45 37 58q10 3 21 3q36 0 44 -34q2 -8 2 -15q0 -45 -37 -58q-10 -3 -21 -3zM369 581q-36 0 -44 34q-2 8 -2 15q0 45 37 58q10 3 21 3q36 0 44 -34q2 -8 2 -15q0 -45 -37 -58q-10 -3 -21 -3zM254 -15q-137 0 -173 131q-11 41 -11 92 q0 146 83 226q60 58 145 58q89 0 115 -57q8 -18 8 -39q0 -64 -69 -101q-28 -14 -69 -28l-124 -41q0 -171 119 -181q9 -1 17 -1q59 1 111 45l7 -16q-69 -87 -159 -88zM161 275l71 12q105 21 108 97q0 56 -40 70q-11 4 -23 4q-80 0 -106 -113q-7 -32 -10 -70z" glyph-name="edieresis" horiz-adv-x="427" unicode="ë"/>
<glyph d="M201 550l-106 60q-35 21 -36 53q0 35 36 53q11 5 20 5q8 0 20 -19q2 -3 4 -7l74 -131zM176 -8q-80 2 -81 80q0 17 5 63l18 195q4 47 4 67q0 35 -23 41q-10 2 -23 2q-11 0 -18 -1l2 22q47 18 88 18q58 -4 60 -61q0 -22 -5 -80l-19 -201q-4 -49 -4 -64q0 -31 29 -39 q17 -4 47 -4l-2 -22q-48 -16 -78 -16z" glyph-name="igrave" horiz-adv-x="262" unicode="ì"/>
<glyph d="M128 549l-9 13l97 132q20 25 28 25q30 0 42 -27q5 -12 5 -26q-1 -32 -40 -53zM176 -8q-80 2 -81 80q0 17 5 63l18 195q4 47 4 67q0 35 -23 41q-10 2 -23 2q-11 0 -18 -1l2 22q47 18 88 18q58 -4 60 -61q0 -22 -5 -80l-19 -201q-4 -49 -4 -64q0 -31 29 -39q17 -4 47 -4 l-2 -22q-48 -16 -78 -16z" glyph-name="iacute" horiz-adv-x="262" unicode="í"/>
<glyph d="M76 540l-18 4l71 143q14 27 31 29q4 1 9 1h22q22 0 30 -18q3 -5 5 -12l48 -143l-19 -4l-81 100zM176 -8q-80 2 -81 80q0 17 5 63l18 195q4 47 4 67q0 35 -23 41q-10 2 -23 2q-11 0 -18 -1l2 22q47 18 88 18q58 -4 60 -61q0 -22 -5 -80l-19 -201q-4 -49 -4 -64 q0 -31 29 -39q17 -4 47 -4l-2 -22q-48 -16 -78 -16z" glyph-name="icircumflex" horiz-adv-x="262" unicode="î"/>
<glyph d="M92 581q-36 0 -44 34q-2 8 -2 15q0 45 37 58q10 3 21 3q36 0 44 -34q2 -8 2 -15q0 -45 -37 -58q-10 -3 -21 -3zM243 581q-36 0 -44 34q-2 8 -2 15q0 45 37 58q10 3 21 3q36 0 44 -34q2 -8 2 -15q0 -45 -37 -58q-10 -3 -21 -3zM176 -8q-80 2 -81 80q0 17 5 63l18 195 q4 47 4 67q0 35 -23 41q-10 2 -23 2q-11 0 -18 -1l2 22q47 18 88 18q58 -4 60 -61q0 -22 -5 -80l-19 -201q-4 -49 -4 -64q0 -31 29 -39q17 -4 47 -4l-2 -22q-48 -16 -78 -16z" glyph-name="idieresis" horiz-adv-x="262" unicode="ï"/>
<glyph d="M255 -14q-101 0 -152 84q-34 58 -34 139q0 137 82 219q64 64 152 64q43 0 78 -20q-11 56 -54 129l-94 -36l-9 38l82 31q-32 45 -78 97l24 2q52 -43 89 -86l92 35l9 -38l-75 -28q122 -157 122 -347q0 -137 -82 -219q-64 -64 -152 -64zM277 20q61 0 94 87q24 63 24 148 q0 137 -62 185q-24 18 -52 18q-61 0 -94 -87q-24 -63 -24 -148q0 -137 62 -185q24 -18 52 -18z" glyph-name="eth" horiz-adv-x="516" unicode="ð"/>
<glyph d="M236 565q10 117 68 118q15 0 46 -21q23 -15 39 -15q27 0 38 41q2 9 4 19l18 -3q-6 -100 -51 -124q-10 -5 -20 -5q-25 0 -56 24q-19 15 -31 15q-22 0 -35 -41l-2 -8h-18zM444 -7q-81 2 -82 79q0 22 6 63l19 141q5 35 5 77q-3 74 -53 76q-127 0 -153 -313v-2l-7 -87 q-3 -26 -26 -27h-71q17 90 28 210l11 120q6 55 6 67q0 36 -26 41q-9 2 -21 2q-11 0 -18 -1l2 22q47 18 88 18q57 -2 58 -58q0 -17 -3 -55q73 113 150 125q8 1 15 1q105 -2 106 -130q0 -22 -8 -91l-17 -134q-5 -41 -5 -64q0 -32 31 -39q17 -4 46 -4l-2 -22q-45 -15 -79 -15z " glyph-name="ntilde" horiz-adv-x="529" unicode="ñ"/>
<glyph d="M329 550l-106 60q-35 21 -36 53q0 35 36 53q11 5 20 5q8 0 20 -19q2 -3 4 -7l74 -131zM255 -14q-101 0 -152 84q-34 58 -34 139q0 137 82 219q64 64 152 64q101 0 152 -84q34 -58 34 -139q0 -137 -82 -219q-64 -64 -152 -64zM277 20q61 0 94 87q24 63 24 148 q0 137 -62 185q-24 18 -52 18q-61 0 -94 -87q-24 -63 -24 -148q0 -137 62 -185q24 -18 52 -18z" glyph-name="ograve" unicode="ò"/>
<glyph d="M266 549l-9 13l97 132q20 25 28 25q30 0 42 -27q5 -12 5 -26q-1 -32 -40 -53zM255 -14q-101 0 -152 84q-34 58 -34 139q0 137 82 219q64 64 152 64q101 0 152 -84q34 -58 34 -139q0 -137 -82 -219q-64 -64 -152 -64zM277 20q61 0 94 87q24 63 24 148q0 137 -62 185 q-24 18 -52 18q-61 0 -94 -87q-24 -63 -24 -148q0 -137 62 -185q24 -18 52 -18z" glyph-name="oacute" unicode="ó"/>
<glyph d="M214 540l-18 4l71 143q14 27 31 29q4 1 9 1h22q22 0 30 -18q3 -5 5 -12l48 -143l-19 -4l-81 100zM255 -14q-101 0 -152 84q-34 58 -34 139q0 137 82 219q64 64 152 64q101 0 152 -84q34 -58 34 -139q0 -137 -82 -219q-64 -64 -152 -64zM277 20q61 0 94 87q24 63 24 148 q0 137 -62 185q-24 18 -52 18q-61 0 -94 -87q-24 -63 -24 -148q0 -137 62 -185q24 -18 52 -18z" glyph-name="ocircumflex" unicode="ô"/>
<glyph d="M205 565q10 117 68 118q15 0 46 -21q23 -15 39 -15q27 0 38 41q2 9 4 19l18 -3q-6 -100 -51 -124q-10 -5 -20 -5q-25 0 -56 24q-19 15 -31 15q-22 0 -35 -41l-2 -8h-18zM255 -14q-101 0 -152 84q-34 58 -34 139q0 137 82 219q64 64 152 64q101 0 152 -84q34 -58 34 -139 q0 -137 -82 -219q-64 -64 -152 -64zM277 20q61 0 94 87q24 63 24 148q0 137 -62 185q-24 18 -52 18q-61 0 -94 -87q-24 -63 -24 -148q0 -137 62 -185q24 -18 52 -18z" glyph-name="otilde" unicode="õ"/>
<glyph d="M230 581q-36 0 -44 34q-2 8 -2 15q0 45 37 58q10 3 21 3q36 0 44 -34q2 -8 2 -15q0 -45 -37 -58q-10 -3 -21 -3zM381 581q-36 0 -44 34q-2 8 -2 15q0 45 37 58q10 3 21 3q36 0 44 -34q2 -8 2 -15q0 -45 -37 -58q-10 -3 -21 -3zM255 -14q-101 0 -152 84q-34 58 -34 139 q0 137 82 219q64 64 152 64q101 0 152 -84q34 -58 34 -139q0 -137 -82 -219q-64 -64 -152 -64zM277 20q61 0 94 87q24 63 24 148q0 137 -62 185q-24 18 -52 18q-61 0 -94 -87q-24 -63 -24 -148q0 -137 62 -185q24 -18 52 -18z" glyph-name="odieresis" unicode="ö"/>
<glyph d="M278 465q-31 0 -39 31q-2 8 -2 15q0 39 30 53q10 5 20 5q31 0 39 -31q2 -8 2 -15q0 -39 -30 -53q-10 -5 -20 -5zM97 313l4 52h337l-5 -52h-336zM248 109q-31 0 -39 31q-2 8 -2 15q0 39 30 53q10 5 20 5q31 0 39 -31q2 -8 2 -15q0 -39 -30 -53q-10 -5 -20 -5z" glyph-name="divide" horiz-adv-x="475" unicode="÷"/>
<glyph d="M65 -62l63 100q-59 62 -59 171q0 137 82 219q64 64 152 64q54 -1 95 -26l48 75h43l-62 -98q62 -61 62 -174q0 -137 -82 -219q-64 -64 -152 -64q-56 1 -99 28l-48 -76h-43zM163 223q0 -62 14 -107l184 291q-32 50 -80 51q-61 0 -94 -87q-24 -63 -24 -148zM277 20 q61 0 94 87q24 63 24 148q0 64 -16 112l-185 -292q33 -54 83 -55z" glyph-name="oslash" horiz-adv-x="516" unicode="ø"/>
<glyph d="M312 550l-106 60q-35 21 -36 53q0 35 36 53q11 5 20 5q8 0 20 -19q2 -3 4 -7l74 -131zM202 -14q-108 2 -109 137q0 24 5 62l18 145q7 52 7 67q0 36 -26 41q-9 2 -21 2q-11 0 -18 -1l2 22q47 18 88 18q59 -2 60 -58q0 -34 -7 -83l-19 -148q-5 -32 -5 -64q0 -71 42 -79 q7 -1 15 -1q59 0 101 101q38 92 51 243l5 58q6 25 26 26h72q-20 -100 -27 -184l-13 -153q-4 -52 -4 -64q0 -31 29 -39q17 -4 47 -4l-2 -22q-45 -15 -80 -15q-77 2 -78 78q0 6 3 40q-77 -124 -162 -125z" glyph-name="ugrave" horiz-adv-x="529" unicode="ù"/>
<glyph d="M269 549l-9 13l97 132q20 25 28 25q30 0 42 -27q5 -12 5 -26q-1 -32 -40 -53zM202 -14q-108 2 -109 137q0 24 5 62l18 145q7 52 7 67q0 36 -26 41q-9 2 -21 2q-11 0 -18 -1l2 22q47 18 88 18q59 -2 60 -58q0 -34 -7 -83l-19 -148q-5 -32 -5 -64q0 -71 42 -79q7 -1 15 -1 q59 0 101 101q38 92 51 243l5 58q6 25 26 26h72q-20 -100 -27 -184l-13 -153q-4 -52 -4 -64q0 -31 29 -39q17 -4 47 -4l-2 -22q-45 -15 -80 -15q-77 2 -78 78q0 6 3 40q-77 -124 -162 -125z" glyph-name="uacute" horiz-adv-x="529" unicode="ú"/>
<glyph d="M217 540l-18 4l71 143q14 27 31 29q4 1 9 1h22q22 0 30 -18q3 -5 5 -12l48 -143l-19 -4l-81 100zM202 -14q-108 2 -109 137q0 24 5 62l18 145q7 52 7 67q0 36 -26 41q-9 2 -21 2q-11 0 -18 -1l2 22q47 18 88 18q59 -2 60 -58q0 -34 -7 -83l-19 -148q-5 -32 -5 -64 q0 -71 42 -79q7 -1 15 -1q59 0 101 101q38 92 51 243l5 58q6 25 26 26h72q-20 -100 -27 -184l-13 -153q-4 -52 -4 -64q0 -31 29 -39q17 -4 47 -4l-2 -22q-45 -15 -80 -15q-77 2 -78 78q0 6 3 40q-77 -124 -162 -125z" glyph-name="ucircumflex" horiz-adv-x="529" unicode="û"/>
<glyph d="M233 581q-36 0 -44 34q-2 8 -2 15q0 45 37 58q10 3 21 3q36 0 44 -34q2 -8 2 -15q0 -45 -37 -58q-10 -3 -21 -3zM384 581q-36 0 -44 34q-2 8 -2 15q0 45 37 58q10 3 21 3q36 0 44 -34q2 -8 2 -15q0 -45 -37 -58q-10 -3 -21 -3zM202 -14q-108 2 -109 137q0 24 5 62l18 145 q7 52 7 67q0 36 -26 41q-9 2 -21 2q-11 0 -18 -1l2 22q47 18 88 18q59 -2 60 -58q0 -34 -7 -83l-19 -148q-5 -32 -5 -64q0 -71 42 -79q7 -1 15 -1q59 0 101 101q38 92 51 243l5 58q6 25 26 26h72q-20 -100 -27 -184l-13 -153q-4 -52 -4 -64q0 -31 29 -39q17 -4 47 -4l-2 -22 q-45 -15 -80 -15q-77 2 -78 78q0 6 3 40q-77 -124 -162 -125z" glyph-name="udieresis" horiz-adv-x="529" unicode="ü"/>
<glyph d="M227 549l-9 13l97 132q20 25 28 25q30 0 42 -27q5 -12 5 -26q-1 -32 -40 -53zM78 -249q-43 0 -51 38q-1 7 -1 14q0 14 6 16q4 1 9 2l79 11q38 61 83 142q-60 258 -110 417q-1 5 -2 8q-11 35 -28 41q-7 2 -15 2q-6 0 -17 -2l-2 20q46 22 78 22q41 0 57 -25q6 -12 12 -29 q61 -187 87 -338q83 166 111 293l-33 71q-6 13 -6 17q0 11 25 16q7 1 12 1q60 -2 61 -63q0 -35 -24 -98q-52 -136 -208 -442q-3 -6 -6 -11q-46 -89 -69 -108q-19 -15 -48 -15z" glyph-name="yacute" horiz-adv-x="441" unicode="ý"/>
<glyph d="M-21 -235l3 25l37 7q30 6 39 26q3 8 5 18q15 70 20 133l53 626q3 34 3 50q0 25 -19 33q-7 2 -15 4l-42 10l2 20q52 19 148 22h11h17q-14 -84 -27 -209l-16 -168q63 129 145 130q103 0 137 -105q14 -43 14 -98q0 -147 -85 -234q-67 -67 -157 -67q-47 0 -83 8l-17 -194 l103 -9l-2 -28h-274zM271 21q69 0 106 86q28 63 28 151q0 137 -58 169q-14 8 -30 8q-49 0 -89 -87q-37 -81 -46 -193l-6 -82q32 -47 81 -51q7 -1 14 -1z" glyph-name="thorn" horiz-adv-x="521" unicode="þ"/>
</font>
</defs>
</svg>
