<?xml version="1.0" encoding="UTF-8"?>
<!DOCTYPE svg  PUBLIC '-//W3C//DTD SVG 1.1//EN'  'http://www.w3.org/Graphics/SVG/1.1/DTD/svg11.dtd'>
<svg version="1.1" xmlns="http://www.w3.org/2000/svg">
<defs>
<font id="FolhaGrafico-Medium" horiz-adv-x="540">
<font-face font-family="Folha Grafico Medium" font-weight="500" ascent="750" bbox="-51 -257 873 878" cap-height="646" descent="-250" panose-1="0 0 6 0 0 0 0 0 0 0" underline-position="-144" underline-thickness="46" unicode-range="U+0020-00FE" units-per-em="1000" x-height="488"/>
<missing-glyph/>
<glyph glyph-name="space" horiz-adv-x="215" unicode=" "/>
<glyph d="M111 182l-26 464h131l-26 -464h-79zM92 0v111h117v-111h-117z" glyph-name="exclam" horiz-adv-x="301" unicode="!"/>
<glyph d="M51 410l-8 236h95l-7 -236h-80zM212 410l-8 236h95l-7 -236h-80z" glyph-name="quotedbl" horiz-adv-x="342" unicode='"'/>
<glyph d="M82 0l18 173h-63l7 87h65l16 141h-68l7 87h69l17 158h86l-17 -158h123l17 158h86l-17 -158h74l-7 -87h-75l-16 -141h79l-8 -87h-79l-19 -173h-86l19 173h-124l-18 -173h-86zM195 260h123l16 141h-123z" glyph-name="numbersign" unicode="#"/>
<glyph d="M177 -119l14 111q-71 12 -121 42l-9 109q78 -43 142 -53l25 195l-6 2q-125 44 -150 132q-7 26 -7 57q0 105 88 154q52 28 122 28l12 92h73l-12 -97q67 -12 114 -39l-11 -100q-56 30 -116 42l-23 -187l13 -5q114 -40 143 -108q13 -31 13 -72q0 -122 -102 -171 q-49 -23 -115 -25l-14 -107h-73zM170 483q0 -55 67 -87q3 -1 5 -2l21 168q-92 -6 -93 -79zM376 175q0 51 -60 78q-9 5 -18 8l-22 -176q99 8 100 90z" glyph-name="dollar" unicode="$"/>
<glyph d="M170 284q-101 0 -126 111q-7 33 -7 73q0 140 83 175q24 9 50 9q101 0 125 -114q7 -31 7 -69q0 -140 -82 -175q-23 -10 -50 -10zM232 0h-88l371 646h88zM170 353q58 2 58 116q-1 113 -58 114q-59 -2 -59 -115q1 -114 59 -115zM578 -6q-101 0 -126 111q-7 33 -7 73 q0 140 83 175q24 9 50 9q101 0 125 -114q7 -31 7 -69q0 -140 -82 -175q-23 -10 -50 -10zM578 63q58 2 58 116q-1 113 -58 114q-59 -2 -59 -115q1 -114 59 -115z" glyph-name="percent" horiz-adv-x="747" unicode="%"/>
<glyph d="M268 -12q-142 0 -199 88q-28 44 -28 103q1 112 114 171q-44 76 -44 147q0 92 71 135q43 26 99 26q102 0 144 -71q20 -35 20 -79q-2 -120 -151 -178q59 -73 165 -144q39 75 44 199l93 -10q-9 -146 -58 -235q66 -35 127 -59l-25 -89q-87 32 -161 72q-80 -76 -211 -76z M244 390q93 35 103 95q2 10 2 20q0 55 -48 67q-10 3 -21 3q-53 0 -68 -48q-4 -14 -4 -29q1 -52 36 -108zM280 78q69 1 112 37q-121 79 -191 170q-54 -32 -55 -95q0 -88 87 -107q22 -5 47 -5z" glyph-name="ampersand" horiz-adv-x="680" unicode="&amp;"/>
<glyph d="M51 410l-8 236h95l-7 -236h-80z" glyph-name="quotesingle" horiz-adv-x="181" unicode="'"/>
<glyph d="M337 -254q-225 132 -258 414q-5 45 -5 92q1 340 263 506l21 -99q-179 -139 -179 -407q1 -268 179 -407z" glyph-name="parenleft" horiz-adv-x="366" unicode="("/>
<glyph d="M29 758q225 -132 258 -414q5 -45 5 -92q-1 -340 -263 -506l-21 99q179 139 179 407q-1 268 -179 407z" glyph-name="parenright" horiz-adv-x="366" unicode=")"/>
<glyph d="M126 404l53 131h-142l5 81l141 -11l-42 136l77 19l34 -136l115 83l43 -68l-120 -75l115 -83l-51 -61l-108 90l-45 -135z" glyph-name="asterisk" horiz-adv-x="452" unicode="*"/>
<glyph d="M58 295v88h162v182h99v-182h163v-88h-163v-201h-99v201h-162z" glyph-name="plus" unicode="+"/>
<glyph d="M120 -158l-90 14q35 84 40 159q1 24 1 55v45h99v-52q0 -127 -50 -221z" glyph-name="comma" horiz-adv-x="243" unicode=","/>
<glyph d="M50 216v84l215 10v-84z" glyph-name="hyphen" horiz-adv-x="315" unicode="-"/>
<glyph d="M62 0v117h119v-117h-119z" glyph-name="period" horiz-adv-x="243" unicode="."/>
<glyph d="M20 -250l368 1000h76l-368 -1000h-76z" glyph-name="slash" horiz-adv-x="485" unicode="/"/>
<glyph d="M272 -12q-145 0 -194 164q-21 72 -21 170q0 220 104 300q48 36 111 36q144 0 193 -160q23 -73 23 -174q0 -220 -104 -300q-48 -36 -112 -36zM272 88q114 2 114 236q-1 233 -114 234q-113 -2 -113 -236q1 -233 113 -234z" glyph-name="zero" horiz-adv-x="545" unicode="0"/>
<glyph d="M275 0h-107v524l-141 -41l-10 89l206 78h52v-650z" glyph-name="one" horiz-adv-x="382" unicode="1"/>
<glyph d="M24 0l-5 45q182 157 237 242q46 71 46 147q0 81 -68 111q-28 12 -61 12q-70 -1 -129 -49l-10 97q54 48 145 53h14q129 0 186 -90q32 -50 32 -119q0 -116 -76 -213q-50 -62 -141 -136h264l-9 -100h-425z" glyph-name="two" horiz-adv-x="484" unicode="2"/>
<glyph d="M196 -12q-86 1 -150 41l-9 101q76 -48 153 -48q117 2 118 106q0 81 -95 99q-23 4 -49 4h-18l-2 83h17q95 0 116 67q5 16 5 34q0 62 -58 82q-20 7 -43 7q-71 -1 -127 -42l-11 92q63 44 151 44q123 0 172 -82q22 -38 22 -86q0 -94 -70 -137q-9 -5 -17 -9q82 -22 108 -98 q9 -28 9 -58q0 -127 -104 -176q-51 -24 -118 -24z" glyph-name="three" horiz-adv-x="474" unicode="3"/>
<glyph d="M308 0v137h-283l-5 45l272 461l113 6v-425h84l-8 -87h-76v-137h-97zM145 224h163v277z" glyph-name="four" horiz-adv-x="524" unicode="4"/>
<glyph d="M184 -12q-79 0 -145 38l-9 102q70 -44 143 -44q103 0 122 76q4 16 4 33q0 107 -169 123q-26 2 -56 2l16 328h320l-9 -100h-219l-9 -147q165 -7 217 -113q19 -41 19 -92q0 -124 -97 -177q-55 -29 -128 -29z" glyph-name="five" horiz-adv-x="463" unicode="5"/>
<glyph d="M272 -12q-123 0 -181 115q-38 76 -38 187q0 188 130 287q96 73 242 80l9 -91q-203 -16 -258 -158q-6 -17 -10 -34q49 40 111 40q128 0 176 -99q23 -47 23 -108q0 -129 -87 -187q-50 -32 -117 -32zM272 79q85 0 101 88q3 18 3 37q0 88 -70 114q-24 9 -52 9 q-58 -1 -101 -43q5 -157 78 -195q19 -10 41 -10z" glyph-name="six" horiz-adv-x="527" unicode="6"/>
<glyph d="M47 0l257 547h-278l8 99h396l5 -45l-272 -601h-116z" glyph-name="seven" horiz-adv-x="453" unicode="7"/>
<glyph d="M258 -12q-128 0 -184 84q-29 46 -29 105q1 101 99 161q-82 53 -83 145q0 90 73 139q53 36 128 36q121 0 172 -79q25 -40 25 -92q-1 -103 -86 -155q98 -56 99 -158q0 -106 -87 -156q-54 -30 -127 -30zM299 366q60 44 61 110q0 64 -58 85q-20 7 -43 7q-72 0 -92 -53 q-5 -15 -5 -31q2 -58 81 -93zM260 78q92 0 103 77q1 10 1 19q0 56 -71 93q-14 8 -31 15l-43 19q-69 -46 -70 -119q0 -70 59 -94q23 -10 52 -10z" glyph-name="eight" horiz-adv-x="519" unicode="8"/>
<glyph d="M255 658q123 0 181 -115q38 -76 38 -187q0 -188 -130 -287q-96 -73 -242 -80l-9 91q203 16 258 158q6 17 10 34q-49 -40 -111 -40q-128 0 -176 99q-23 47 -23 108q0 129 87 187q50 32 117 32zM255 567q-85 0 -101 -88q-3 -18 -3 -37q0 -88 70 -114q24 -9 52 -9 q58 1 101 43q-5 157 -78 195q-19 10 -41 10z" glyph-name="nine" horiz-adv-x="527" unicode="9"/>
<glyph d="M62 293v117h119v-117h-119zM62 0v117h119v-117h-119z" glyph-name="colon" horiz-adv-x="243" unicode=":"/>
<glyph d="M62 293v117h119v-117h-119zM120 -158l-90 14q35 84 40 159q1 24 1 55v45h99v-52q0 -127 -50 -221z" glyph-name="semicolon" horiz-adv-x="243" unicode=";"/>
<glyph d="M483 28l-443 255v81l443 254l14 -104l-338 -187l338 -188z" glyph-name="less" unicode="&lt;"/>
<glyph d="M69 394v88h402v-88h-402zM69 196v88h402v-88h-402z" glyph-name="equal" unicode="="/>
<glyph d="M57 618l443 -255v-81l-443 -254l-14 104l338 187l-338 188z" glyph-name="greater" unicode="&gt;"/>
<glyph d="M122 185l-6 147q108 46 130 95q10 21 10 47q-2 90 -107 91q-61 0 -117 -34l8 95q63 31 133 31q117 0 165 -77q25 -40 25 -93q0 -113 -96 -172q-23 -13 -51 -25l-4 -105h-90zM111 0v111h117v-111h-117z" glyph-name="question" horiz-adv-x="416" unicode="?"/>
<glyph d="M391 -136q-169 0 -262 113q-77 94 -77 237q0 192 119 306q108 104 276 104q182 0 271 -113q59 -77 59 -189q0 -175 -106 -242q-53 -33 -125 -33q-73 1 -87 60q-3 11 -3 22q-34 -83 -97 -84q-76 0 -104 82q-12 36 -12 82q0 148 86 209q45 31 104 31q73 0 134 -27 q-10 -46 -20 -125l-10 -113v-9q-1 -8 -1 -12q2 -31 32 -32q90 0 108 129q4 29 4 62q0 156 -128 203q-48 17 -109 17q-167 0 -245 -124q-51 -83 -51 -203q0 -180 130 -241q58 -27 134 -27q99 0 163 36l-6 -85q-73 -34 -177 -34zM380 132q36 0 60 76q13 44 18 100l5 45 q-20 9 -43 9q-64 0 -79 -92q-4 -24 -4 -52q0 -73 33 -84q6 -2 10 -2z" glyph-name="at" horiz-adv-x="829" unicode="@"/>
<glyph d="M16 0l225 645l106 5l229 -650h-108l-50 147h-250l-50 -147h-102zM197 238h192l-96 284z" glyph-name="A" horiz-adv-x="592" unicode="A"/>
<glyph d="M87 0v646h195q195 0 217 -139q2 -17 2 -34q-1 -101 -95 -133q87 -17 115 -94q11 -30 11 -63q0 -145 -151 -176q-38 -7 -82 -7h-212zM191 376h97q90 0 103 67q2 11 2 21q-2 88 -109 89h-93v-177zM191 93h116q116 2 117 99q0 74 -81 92q-21 5 -46 5h-106v-196z" glyph-name="B" horiz-adv-x="583" unicode="B"/>
<glyph d="M324 -12q-183 0 -246 161q-28 74 -28 174q0 199 115 285q67 50 163 50q83 0 142 -32l-15 -102q-58 32 -123 32q-151 0 -170 -179q-3 -26 -3 -54q0 -176 107 -220q31 -13 68 -13q70 1 135 42l-9 -109q-60 -35 -136 -35z" glyph-name="C" horiz-adv-x="512" unicode="C"/>
<glyph d="M87 0v646h141q181 0 272 -115q65 -83 65 -208q0 -198 -143 -279q-79 -44 -191 -44h-144zM193 99h46q190 0 213 175q3 24 3 49q0 141 -99 196q-50 28 -117 28h-46v-448z" glyph-name="D" horiz-adv-x="613" unicode="D"/>
<glyph d="M87 0v646h407v-98h-302v-164h275v-94h-275v-192h309l-9 -98h-405z" glyph-name="E" horiz-adv-x="549" unicode="E"/>
<glyph d="M87 0v646h402l-9 -98h-287v-174h265v-94h-265v-280h-106z" glyph-name="F" horiz-adv-x="525" unicode="F"/>
<glyph d="M335 -12q-176 0 -247 144q-38 79 -38 191q0 193 114 280q71 55 175 55q92 0 165 -36l-12 -104q-72 38 -146 38q-150 0 -179 -155q-7 -36 -7 -78q0 -163 97 -214q36 -19 82 -19q47 0 89 15v145h-84v88h180v-301q-82 -49 -189 -49z" glyph-name="G" horiz-adv-x="595" unicode="G"/>
<glyph d="M87 0v646h106v-254h270v254h105v-646h-105v294h-270v-294h-106z" glyph-name="H" horiz-adv-x="655" unicode="H"/>
<glyph d="M87 0v646h106v-646h-106z" glyph-name="I" horiz-adv-x="280" unicode="I"/>
<glyph d="M28 -8l-7 96q92 8 119 63q18 37 18 105v390h105v-407q0 -163 -106 -216q-51 -25 -129 -31z" glyph-name="J" horiz-adv-x="337" unicode="J"/>
<glyph d="M87 0v646h106v-646h-106zM448 0l-246 326v13l252 307h116l-254 -309l252 -337h-120z" glyph-name="K" horiz-adv-x="577" unicode="K"/>
<glyph d="M87 0v646h106v-548h269l-9 -98h-366z" glyph-name="L" horiz-adv-x="486" unicode="L"/>
<glyph d="M66 0l43 646h127l158 -397l159 397h125l43 -646h-105l-28 491l-158 -392l-81 4l-154 386l-28 -489h-101z" glyph-name="M" horiz-adv-x="790" unicode="M"/>
<glyph d="M87 0v646h98l282 -455v455h95v-643l-91 -6l-288 465v-462h-96z" glyph-name="N" horiz-adv-x="650" unicode="N"/>
<glyph d="M315 -12q-154 0 -222 131q-43 82 -43 204q0 194 107 282q66 53 158 53q152 0 221 -128q44 -84 44 -207q0 -193 -106 -281q-66 -54 -159 -54zM315 90q127 0 150 160q5 34 5 73q0 186 -104 224q-24 9 -51 9q-142 0 -154 -196q-1 -19 -1 -37q0 -186 104 -224q24 -9 51 -9z " glyph-name="O" horiz-adv-x="630" unicode="O"/>
<glyph d="M87 0v646h187q173 0 227 -111q20 -43 20 -97q0 -131 -110 -182q-56 -26 -133 -26h-86v-230h-105zM192 327h81q138 2 139 111q0 95 -104 109q-17 2 -35 2h-81v-222z" glyph-name="P" horiz-adv-x="559" unicode="P"/>
<glyph d="M435 -137l-59 71q-32 38 -54 48q-18 7 -46 10q-146 17 -200 164q-26 72 -26 167q0 194 107 282q65 53 157 53q154 0 222 -131q43 -82 43 -204q0 -192 -106 -279q-28 -21 -59 -34q25 -13 58 -55l67 -84zM314 90q142 0 154 196q1 19 1 37q0 186 -104 224q-24 9 -51 9 q-142 0 -154 -196q-1 -19 -1 -37q0 -181 99 -222q26 -11 56 -11z" glyph-name="Q" horiz-adv-x="629" unicode="Q"/>
<glyph d="M87 0v646h198q160 0 211 -104q21 -42 21 -96q0 -102 -78 -148q-20 -11 -42 -17q25 -21 51 -77q4 -8 10 -21l77 -183h-110l-70 167q-28 66 -59 78q-15 6 -32 6h-73v-251h-104zM191 343h88q128 2 129 102q-2 105 -132 106h-85v-208z" glyph-name="R" horiz-adv-x="577" unicode="R"/>
<glyph d="M236 -12q-109 1 -185 46l-9 109q101 -58 195 -58q114 2 115 90q0 51 -59 79q-15 7 -34 14l-56 19q-130 46 -152 141q-5 23 -5 48q0 107 91 155q53 27 125 27q104 0 181 -44l-11 -100q-85 47 -171 47q-103 -4 -106 -78q0 -53 64 -85q15 -7 32 -13l55 -20q116 -41 144 -113 q12 -30 12 -68q0 -122 -102 -171q-52 -25 -124 -25z" glyph-name="S" horiz-adv-x="511" unicode="S"/>
<glyph d="M207 0v548h-185v98h481l-9 -98h-182v-548h-105z" glyph-name="T" horiz-adv-x="525" unicode="T"/>
<glyph d="M309 -12q-178 0 -223 162q-14 51 -14 114v382h106v-364q1 -191 132 -192q104 0 126 116q6 34 6 78v362h105v-379q0 -206 -137 -261q-45 -18 -101 -18z" glyph-name="U" horiz-adv-x="619" unicode="U"/>
<glyph d="M239 -3l-223 649h109l165 -491l165 491h105l-223 -644z" glyph-name="V" horiz-adv-x="577" unicode="V"/>
<glyph d="M200 -2l-161 648h111l114 -489l138 486l113 5l118 -485l134 483h106l-185 -644l-116 -4l-122 494l-134 -490z" glyph-name="W" horiz-adv-x="905" unicode="W"/>
<glyph d="M10 0l204 333l-188 313h121l135 -229l143 229h118l-202 -309l207 -337h-125l-149 248l-144 -248h-120z" glyph-name="X" horiz-adv-x="561" unicode="X"/>
<glyph d="M211 0v271l-212 375h113l154 -274l152 274h108l-210 -375v-271h-105z" glyph-name="Y" horiz-adv-x="529" unicode="Y"/>
<glyph d="M34 0l-5 45l315 503h-296v98h447l5 -45l-317 -503h320l-9 -98h-460z" glyph-name="Z" horiz-adv-x="542" unicode="Z"/>
<glyph d="M118 -256v999h240v-90h-139v-819h139v-90h-240z" glyph-name="bracketleft" horiz-adv-x="366" unicode="["/>
<glyph d="M386 -250l-368 1000h80l368 -1000h-80z" glyph-name="backslash" horiz-adv-x="485" unicode="\"/>
<glyph d="M248 743v-999h-240v90h139v819h-139v90h240z" glyph-name="bracketright" horiz-adv-x="366" unicode="]"/>
<glyph d="M52 211l175 439h86l176 -439h-105l-117 315l-116 -315h-99z" glyph-name="asciicircum" unicode="^"/>
<glyph d="M-1 -160v66h502v-66h-502z" glyph-name="underscore" horiz-adv-x="500" unicode="_"/>
<glyph d="M209 575l-45 59q-35 48 -49 83l95 4q9 -26 41 -75l45 -71h-87z" glyph-name="grave" horiz-adv-x="500" unicode="`"/>
<glyph d="M183 -12q-96 0 -130 73q-13 29 -13 66q0 117 147 155l24 6l99 21v13q-2 87 -94 88q-84 -1 -152 -48l-10 89q73 48 166 48q163 0 187 -129q4 -21 4 -44q0 -8 -1 -35q-1 -40 -1 -59v-125q0 -55 23 -104l-94 -11q-15 27 -20 69q-37 -67 -123 -73h-12zM207 67q56 0 85 54 q16 31 16 68v37l-76 -15q-81 -16 -93 -60q-2 -9 -2 -20q0 -58 59 -63q6 -1 11 -1z" glyph-name="a" horiz-adv-x="481" unicode="a"/>
<glyph d="M245 -11q-105 1 -177 53q5 52 5 171v339q0 93 -7 158l101 5q6 -42 6 -109v-188q36 80 123 81q125 0 168 -121q19 -53 19 -123q0 -179 -118 -240q-52 -26 -120 -26zM256 78q111 0 122 141q1 14 1 28q-5 157 -104 161q-72 0 -94 -99q-8 -37 -8 -83v-123q35 -25 83 -25z" glyph-name="b" horiz-adv-x="527" unicode="b"/>
<glyph d="M271 -12q-159 0 -209 135q-19 53 -19 121q0 167 108 228q50 27 115 27q67 0 117 -23l-11 -94q-43 24 -93 24q-132 -2 -133 -162q0 -123 86 -154q24 -9 53 -9q54 1 100 31l-7 -99q-51 -25 -107 -25z" glyph-name="c" horiz-adv-x="420" unicode="c"/>
<glyph d="M234 -12q-118 0 -165 112q-25 59 -25 140q0 156 92 223q50 36 117 36q59 0 101 -28v93q0 79 -7 146l102 5q5 -42 5 -113v-476q0 -72 22 -120l-95 -11q-15 28 -19 70q-33 -70 -113 -76q-8 -1 -15 -1zM253 80q77 0 96 115q5 31 5 69v109q-36 37 -90 37q-116 -2 -117 -164 q7 -160 106 -166z" glyph-name="d" horiz-adv-x="532" unicode="d"/>
<glyph d="M275 -12q-150 0 -206 120q-26 58 -26 136q0 164 100 226q47 29 111 29q160 0 185 -179q4 -29 4 -61q0 -27 -1 -38l-298 -6q6 -117 107 -133q15 -2 31 -2q92 1 157 45l-7 -95q-65 -42 -157 -42zM147 298h199q-5 115 -96 116q-78 0 -98 -83q-4 -16 -5 -33z" glyph-name="e" horiz-adv-x="490" unicode="e"/>
<glyph d="M95 0v399h-49l-5 73l32 9q20 5 23 23q1 7 1 15v12q0 114 88 163q48 27 113 27q17 0 41 -2l7 -88q-21 3 -39 3q-111 -2 -112 -115v-31h123v-89h-122v-399h-101z" glyph-name="f" horiz-adv-x="324" unicode="f"/>
<glyph d="M227 -232q-139 0 -182 77q-14 27 -14 59q0 71 67 102q14 6 30 10q-40 19 -41 66q0 48 46 71q7 4 14 6q-99 41 -100 161q0 107 83 154q44 25 103 25q19 0 97 -10q22 -3 37 -3q47 0 76 9l11 -86q-21 -7 -39 -7q-20 -1 -31 1q29 -33 29 -89q0 -160 -178 -171h-2 q-50 -5 -55 -34q-1 -3 -1 -6q0 -32 48 -36q9 -1 20 -1h80q144 -9 150 -128q0 -91 -93 -138q-64 -32 -155 -32zM231 220q85 2 86 102q0 75 -54 95q-15 5 -32 5q-66 0 -82 -63q-5 -17 -5 -37q0 -85 64 -100q11 -2 23 -2zM237 -156q114 0 134 58q3 11 3 21q-2 56 -76 57h-74 q-82 0 -96 -49q-2 -9 -2 -17q8 -67 111 -70z" glyph-name="g" horiz-adv-x="492" unicode="g"/>
<glyph d="M75 0v558q0 87 -7 152l101 5q6 -32 6 -103v-206q42 91 141 93q128 0 150 -125q5 -25 5 -54v-320h-100v294q-1 111 -81 112q-78 0 -104 -98q-11 -41 -11 -94v-214h-100z" glyph-name="h" horiz-adv-x="541" unicode="h"/>
<glyph d="M72 589v101h106v-101h-106zM75 0v488h100v-488h-100z" glyph-name="i" horiz-adv-x="250" unicode="i"/>
<glyph d="M72 589v101h106v-101h-106zM-4 -231l-9 86q60 15 77 56q11 28 11 82v495h100v-501q0 -132 -74 -181q-40 -26 -105 -37z" glyph-name="j" horiz-adv-x="250" unicode="j"/>
<glyph d="M75 0v558q0 87 -7 152l101 5q6 -32 6 -103v-612h-100zM363 0l-188 269l97 102q63 67 91 120l105 -6q-33 -71 -111 -149l-68 -66l189 -270h-115z" glyph-name="k" horiz-adv-x="484" unicode="k"/>
<glyph d="M216 -6q-101 11 -131 67q-18 35 -18 96v390q0 97 -7 163l101 5q6 -32 6 -114v-438q0 -54 26 -69q12 -8 32 -12z" glyph-name="l" horiz-adv-x="251" unicode="l"/>
<glyph d="M76 0v331q0 96 -7 155l98 6q5 -32 5 -90v-6q38 102 146 103q97 0 129 -81q5 -13 8 -26q35 90 121 105q15 2 29 2q149 -2 150 -179v-320h-100v295q0 103 -62 111q-7 1 -14 1q-68 0 -97 -85q-16 -45 -16 -105v-217h-101v295q-3 110 -75 112q-69 0 -98 -86q-15 -45 -15 -104 v-217h-101z" glyph-name="m" horiz-adv-x="825" unicode="m"/>
<glyph d="M76 0v330q0 97 -7 156l98 6q5 -33 5 -90v-6q32 91 122 102q12 1 23 1q124 0 148 -125q5 -27 5 -59v-315h-101v290q-1 116 -80 117q-70 0 -98 -88q-14 -45 -14 -104v-215h-101z" glyph-name="n" unicode="n"/>
<glyph d="M259 -12q-124 0 -181 102q-35 64 -35 154q0 148 90 216q53 39 126 39q123 0 180 -102q36 -63 36 -153q0 -148 -90 -216q-53 -40 -126 -40zM259 82q84 0 106 98q6 30 6 64q0 121 -69 153q-20 9 -43 9q-86 0 -107 -100q-6 -28 -6 -62q0 -122 70 -153q20 -9 43 -9z" glyph-name="o" horiz-adv-x="517" unicode="o"/>
<glyph d="M76 -220v550q0 97 -7 156l98 6q5 -55 5 -84q21 59 79 82q24 9 50 9q119 0 164 -115q22 -57 22 -135q0 -179 -113 -236q-45 -23 -104 -23q-54 1 -93 28v-238h-101zM265 78q98 0 115 118q3 23 3 48q0 151 -92 162q-7 1 -14 1q-67 0 -91 -89q-10 -39 -10 -89v-116 q37 -35 89 -35z" glyph-name="p" horiz-adv-x="531" unicode="p"/>
<glyph d="M352 -220v281q-40 -71 -123 -72q-120 0 -164 119q-21 57 -21 134q0 158 99 223q52 34 124 34q110 0 185 -54q4 -3 7 -5q-6 -55 -6 -140v-520h-101zM249 79q81 0 99 121q4 31 4 67v115q-36 29 -85 29q-119 -2 -120 -165q8 -160 102 -167z" glyph-name="q" horiz-adv-x="527" unicode="q"/>
<glyph d="M76 0v331q0 80 -7 155l97 6q6 -34 6 -91v-15q28 93 123 109q17 3 35 3h11l7 -95q-10 1 -31 1q-96 0 -128 -107q-13 -44 -13 -99v-198h-100z" glyph-name="r" horiz-adv-x="362" unicode="r"/>
<glyph d="M196 -12q-89 0 -154 35l-8 96q82 -45 162 -45q85 1 86 57q0 34 -44 53q-12 5 -25 9l-38 12q-102 32 -124 95q-8 23 -8 53q0 89 80 127q42 19 97 19q87 0 150 -30l-15 -88q-69 32 -137 32q-73 -1 -74 -51q0 -33 37 -51q17 -8 43 -17l37 -12q91 -30 113 -84q9 -24 9 -57 q0 -101 -92 -137q-42 -16 -95 -16z" glyph-name="s" horiz-adv-x="424" unicode="s"/>
<glyph d="M247 -10q-134 0 -157 123q-4 23 -4 49v237h-58l-5 73q48 14 62 42q9 19 18 75l85 4v-105h135v-89h-136v-222q0 -92 77 -98h11q33 1 63 16l-8 -89q-36 -16 -83 -16z" glyph-name="t" horiz-adv-x="359" unicode="t"/>
<glyph d="M218 -12q-115 0 -142 109q-7 30 -7 65v326h101v-307q2 -99 76 -100q69 0 98 98q15 52 15 124v185h100v-341q0 -77 15 -142l-96 -12q-14 52 -14 98q-42 -102 -146 -103z" glyph-name="u" horiz-adv-x="537" unicode="u"/>
<glyph d="M183 -3l-175 491h104l121 -351l123 351h101l-177 -486z" glyph-name="v" horiz-adv-x="467" unicode="v"/>
<glyph d="M156 -3l-134 491h101l91 -347l96 344l111 5l95 -347l94 345h98l-141 -485l-109 -6l-96 363l-97 -357z" glyph-name="w" horiz-adv-x="729" unicode="w"/>
<glyph d="M8 0l165 253l-149 235h112l102 -161l105 161h109l-159 -237l162 -251h-113l-112 181l-113 -181h-109z" glyph-name="x" horiz-adv-x="465" unicode="x"/>
<glyph d="M46 -231l-7 86q94 11 129 57q15 20 25 50l12 39l-197 487h105l140 -352l103 352h100l-161 -521q-38 -124 -123 -167q-50 -24 -126 -31z" glyph-name="y" horiz-adv-x="477" unicode="y"/>
<glyph d="M29 0l-3 38l239 361h-227v89h365l3 -38l-241 -361h248l-9 -89h-375z" glyph-name="z" horiz-adv-x="441" unicode="z"/>
<glyph d="M325 -257q-165 0 -188 111q-4 20 -4 43v201q0 76 -46 95q-16 7 -43 11v82q57 9 75 37q14 25 14 69v201q0 126 125 149q30 5 67 5l9 -95q-66 0 -84 -31q-12 -22 -12 -67v-175q0 -106 -78 -131q-5 -2 -10 -3q76 -20 86 -103q2 -15 2 -31v-175q0 -70 34 -88q21 -10 62 -10z " glyph-name="braceleft" horiz-adv-x="366" unicode="{"/>
<glyph d="M89 -250v1000h76v-1000h-76z" glyph-name="bar" horiz-adv-x="254" unicode="|"/>
<glyph d="M41 747q165 0 188 -111q4 -20 4 -43v-201q0 -76 46 -95q16 -7 43 -11v-82q-57 -9 -75 -37q-14 -25 -14 -69v-201q0 -126 -125 -149q-30 -5 -67 -5l-9 95q66 0 84 31q12 22 12 67v175q0 106 78 131q5 2 10 3q-76 20 -86 103q-2 15 -2 31v175q0 70 -34 88q-21 10 -62 10z " glyph-name="braceright" horiz-adv-x="366" unicode="}"/>
<glyph d="M61 253l-16 81q46 89 127 90q44 0 105 -36q59 -32 88 -34q64 0 108 81l3 6l16 -85q-42 -90 -129 -91q-44 0 -106 36q-57 31 -87 32q-66 -1 -109 -80z" glyph-name="asciitilde" unicode="~"/>
<glyph glyph-name="uni00A0" horiz-adv-x="215" unicode=" "/>
<glyph d="M209 488v-111h-117v111h117zM190 306l26 -464h-131l26 464h79z" glyph-name="exclamdown" horiz-adv-x="301" unicode="¡"/>
<glyph d="M209 -119l25 201q-116 37 -146 162q-9 38 -9 81q0 150 101 217q51 34 118 38l21 170h73l-22 -173q47 -8 82 -24l-10 -94q-40 20 -83 27l-41 -323q7 -1 18 -1q59 1 115 35l-8 -99q-57 -29 -121 -29h-16l-24 -188h-73zM183 325q1 -100 64 -140l38 298q-101 -25 -102 -158z " glyph-name="cent" unicode="¢"/>
<glyph d="M362 -39q-51 0 -162 21q-65 12 -111 14q-26 2 -41 2l-10 67q83 50 107 112q13 35 15 81q0 22 -1 33h-93l2 79h85q-9 56 -9 84q0 141 114 185q46 18 106 18q51 0 106 -19l9 -99q-56 21 -106 21q-116 -8 -120 -113q0 -16 9 -77h177l-2 -79h-168q0 -24 -1 -36 q-7 -117 -95 -169l-4 -2q27 -1 125 -18q44 -8 75 -8q67 1 117 40l-8 -106q-40 -31 -116 -31z" glyph-name="sterling" unicode="£"/>
<glyph d="M61 143l70 70q-36 55 -36 116q1 63 36 117l-70 69l64 65l70 -69q53 35 116 35q65 -1 117 -35l70 69l64 -65l-69 -69q35 -53 35 -117q-1 -64 -35 -116l69 -70l-64 -64l-70 70q-55 -36 -117 -36q-62 1 -116 36l-70 -70zM189 329q0 -65 53 -101q32 -21 69 -21q66 0 102 54 q21 31 21 68q0 66 -54 102q-31 21 -69 21q-65 0 -101 -53q-21 -32 -21 -70z" glyph-name="currency" horiz-adv-x="623" unicode="¤"/>
<glyph d="M49 128v77h172v61h-172v77h131l-171 303h113l154 -274l152 274h108l-170 -303h126v-77h-166v-61h166v-77h-166v-128h-105v128h-172z" glyph-name="yen" unicode="¥"/>
<glyph d="M89 298v452h76v-452h-76zM89 -250v452h76v-452h-76z" glyph-name="brokenbar" horiz-adv-x="254" unicode="¦"/>
<glyph d="M244 -194q-107 1 -184 47l-6 107q93 -59 195 -59q99 0 121 53q5 12 5 26q0 46 -48 77q-15 9 -35 19l-74 38q-126 63 -164 157q-23 56 -23 133q0 161 100 251q79 70 193 70q98 0 173 -37l-11 -101q-84 43 -173 43q-92 0 -107 -56q-2 -10 -2 -20q0 -42 29 -65 q17 -13 53 -32l73 -37q137 -70 170 -187q12 -44 12 -96q0 -202 -128 -285q-71 -46 -169 -46zM433 84q5 31 5 56q0 110 -102 170q-6 4 -10 6l-82 46q-71 38 -90 76q-7 15 -11 32q-10 -35 -10 -75q0 -98 80 -154q17 -11 37 -22l87 -46q61 -32 81 -61q9 -13 15 -28z" glyph-name="section" horiz-adv-x="571" unicode="§"/>
<glyph d="M121 590v99h100v-99h-100zM279 590v99h100v-99h-100z" glyph-name="dieresis" horiz-adv-x="500" unicode="¨"/>
<glyph d="M398 -44q-172 0 -269 116q-82 100 -82 251q0 181 114 283q95 83 237 83q169 0 267 -115q84 -100 84 -251q0 -178 -112 -281q-96 -86 -239 -86zM398 44q151 0 217 115q39 68 39 164q0 165 -107 237q-62 41 -149 41q-153 0 -219 -115q-38 -68 -38 -163q0 -167 108 -238 q62 -41 149 -41zM411 137q-117 0 -155 99q-14 39 -14 88q0 120 82 166q39 21 88 21q59 0 95 -19l-10 -71q-39 21 -78 21q-94 -4 -96 -118q0 -92 65 -113q16 -4 32 -4q49 1 88 27l-7 -74q-35 -23 -90 -23z" glyph-name="copyright" horiz-adv-x="796" unicode="©"/>
<glyph d="M137 293q-75 0 -95 63q-5 17 -5 37q0 92 119 118h2l66 14v5q-2 56 -65 57q-60 -1 -104 -38l-8 68q47 37 120 37q110 0 132 -84q5 -19 5 -40q0 -13 -1 -63q-2 -65 -2 -87q1 -41 17 -76l-75 -8q-9 14 -14 46q-31 -47 -92 -49zM159 355q48 0 60 50q1 10 2 19l1 36l-46 -8 q-57 -9 -62 -43q-1 -5 -1 -9q0 -38 35 -44q6 -1 11 -1z" glyph-name="ordfeminine" horiz-adv-x="366" unicode="ª"/>
<glyph d="M137 67l-106 176v2l111 176h92l-106 -175l106 -179h-97zM316 67l-106 176v2l111 176h92l-106 -175l106 -179h-97z" glyph-name="guillemotleft" horiz-adv-x="432" unicode="«"/>
<glyph d="M374 95v223h-324v88h425v-311h-101z" glyph-name="logicalnot" unicode="¬"/>
<glyph d="M50 216v84l215 10v-84z" glyph-name="uni00AD" horiz-adv-x="315" unicode="­"/>
<glyph d="M398 -44q-172 0 -269 116q-82 100 -82 251q0 181 114 283q95 83 237 83q169 0 267 -115q84 -100 84 -251q0 -178 -112 -281q-96 -86 -239 -86zM398 44q151 0 217 115q39 68 39 164q0 165 -107 237q-62 41 -149 41q-153 0 -219 -115q-38 -68 -38 -163q0 -167 108 -238 q62 -41 149 -41zM346 281v-136h-76v359h123q108 0 138 -68q9 -21 9 -46q-2 -72 -70 -92q11 -9 30 -47q1 -1 1 -2l48 -104h-79l-42 91q-17 39 -35 44q-5 1 -9 1h-38zM346 340h43q69 1 70 49q-2 50 -71 51h-42v-100z" glyph-name="registered" horiz-adv-x="796" unicode="®"/>
<glyph d="M130 602v69h240v-69h-240z" glyph-name="macron" horiz-adv-x="500" unicode="¯"/>
<glyph d="M191 297q-96 0 -135 84q-18 41 -18 95q0 101 66 151q38 28 87 28q96 0 135 -83q19 -42 19 -96q0 -100 -66 -150q-39 -29 -88 -29zM191 369q67 2 68 107q-1 106 -68 107q-66 -2 -67 -107q1 -106 67 -107z" glyph-name="degree" horiz-adv-x="383" unicode="°"/>
<glyph d="M67 388v84h155v174h95v-174h156v-84h-156v-192h-95v192h-155zM78 -1v84h384v-84h-384z" glyph-name="plusminus" unicode="±"/>
<glyph d="M28 290l-3 36q110 91 135 141q13 27 13 57q0 50 -47 59q-9 2 -17 2q-38 -1 -71 -25l-7 66q34 26 95 26q86 0 116 -60q12 -24 12 -54q0 -69 -60 -131q-23 -24 -56 -51h143l-6 -66h-247z" glyph-name="twosuperior" horiz-adv-x="309" unicode="²"/>
<glyph d="M126 283q-49 0 -87 23l-5 64q44 -26 90 -26q62 2 63 53q0 38 -42 46q-9 2 -18 2t-37 -3l-7 32l80 106h-129l6 66h213l3 -34l-93 -120q73 -5 93 -62q5 -16 5 -34q0 -78 -74 -104q-28 -9 -61 -9z" glyph-name="threesuperior" horiz-adv-x="299" unicode="³"/>
<glyph d="M203 575l45 71q27 41 40 75l96 -4q-17 -42 -53 -88l-41 -54h-87z" glyph-name="acute" horiz-adv-x="500" unicode="´"/>
<glyph d="M-14 -232l-8 85q66 17 84 59q12 29 12 81v495h101v-307q2 -99 76 -100q69 0 98 98q15 52 15 124v185h100v-341q0 -77 15 -142l-96 -12q-14 52 -14 98q-42 -102 -146 -103q-25 0 -48 6v-10q0 -129 -72 -177q-43 -29 -117 -39z" glyph-name="mu" horiz-adv-x="539" unicode="µ"/>
<glyph d="M211 -233l-8 84q67 18 85 58q12 28 12 83v107h-36q-123 0 -181 85q-37 54 -37 129q0 165 126 218q50 20 114 20h272v-551h-90v471h-67v-488q0 -128 -73 -177q-43 -28 -117 -39z" glyph-name="paragraph" horiz-adv-x="604" unicode="¶"/>
<glyph d="M50 260v106h102v-106h-102z" glyph-name="periodcentered" horiz-adv-x="202" unicode="·"/>
<glyph d="M235 -231q-41 0 -69 15l-4 62q35 -18 69 -18q41 2 42 35q0 32 -48 44q-13 3 -26 4l28 97l71 -6l-20 -53q67 -22 68 -86q0 -66 -64 -87q-22 -7 -47 -7z" glyph-name="cedilla" horiz-adv-x="500" unicode="¸"/>
<glyph d="M194 290h-74v276l-77 -21l-5 60l112 43h44v-358z" glyph-name="onesuperior" horiz-adv-x="275" unicode="¹"/>
<glyph d="M195 293q-96 0 -136 83q-20 42 -20 98q0 114 75 159q35 21 81 21q94 0 134 -80q21 -43 21 -100q0 -111 -72 -158q-36 -23 -83 -23zM195 364q71 2 72 110q0 100 -61 109q-6 1 -11 1q-73 -2 -74 -110q9 -103 74 -110z" glyph-name="ordmasculine" horiz-adv-x="389" unicode="º"/>
<glyph d="M115 421l106 -176v-2l-111 -176h-92l106 175l-106 179h97zM295 421l106 -176v-2l-111 -176h-92l106 175l-106 179h97z" glyph-name="guillemotright" horiz-adv-x="432" unicode="»"/>
<glyph d="M194 290h-74v276l-77 -21l-5 60l112 43h44v-358zM177 0h-88l371 646h88zM506 0v70h-159l-3 39l151 246l79 2v-228h45l-5 -59h-40v-70h-68zM421 129h85v140z" glyph-name="onequarter" horiz-adv-x="657" unicode="¼"/>
<glyph d="M194 290h-74v276l-77 -21l-5 60l112 43h44v-358zM177 0h-88l371 646h88zM414 0l-3 36q110 91 135 141q13 27 13 57q0 50 -47 59q-9 2 -17 2q-38 -1 -71 -25l-7 66q34 26 95 26q86 0 116 -60q12 -24 12 -54q0 -69 -60 -131q-23 -24 -56 -51h143l-6 -66h-247z" glyph-name="onehalf" horiz-adv-x="694" unicode="½"/>
<glyph d="M126 283q-49 0 -87 23l-5 64q44 -26 90 -26q62 2 63 53q0 38 -42 46q-9 2 -18 2t-37 -3l-7 32l80 106h-129l6 66h213l3 -34l-93 -120q73 -5 93 -62q5 -16 5 -34q0 -78 -74 -104q-28 -9 -61 -9zM221 0h-88l371 646h88zM546 0v70h-159l-3 39l151 246l79 2v-228h45l-5 -59 h-40v-70h-68zM461 129h85v140z" glyph-name="threequarters" horiz-adv-x="697" unicode="¾"/>
<glyph d="M303 487v-111h-117v111h117zM292 302l6 -147q-108 -46 -130 -95q-10 -21 -10 -47q2 -90 107 -91q61 0 117 34l-8 -95q-63 -31 -133 -31q-117 0 -165 77q-25 40 -25 93q0 113 96 172q23 13 51 25l4 105h90z" glyph-name="questiondown" horiz-adv-x="416" unicode="¿"/>
<glyph d="M244 695l-139 117h116l121 -117h-98zM16 0l225 645l106 5l229 -650h-108l-50 147h-250l-50 -147h-102zM197 238h192l-96 284z" glyph-name="Agrave" horiz-adv-x="592" unicode="À"/>
<glyph d="M241 695l121 117h116l-138 -117h-99zM16 0l225 645l106 5l229 -650h-108l-50 147h-250l-50 -147h-102zM197 238h192l-96 284z" glyph-name="Aacute" horiz-adv-x="592" unicode="Á"/>
<glyph d="M150 695l91 123l97 1l92 -124h-84l-58 66l-57 -66h-81zM16 0l225 645l106 5l229 -650h-108l-50 147h-250l-50 -147h-102zM197 238h192l-96 284z" glyph-name="Acircumflex" horiz-adv-x="592" unicode="Â"/>
<glyph d="M142 699q3 111 82 112q24 0 69 -21q25 -12 39 -12q24 1 28 45l64 -6q-4 -97 -64 -110q-12 -3 -26 -3q-24 0 -67 22q-21 11 -33 11q-23 0 -27 -36v-2h-65zM16 0l225 645l106 5l229 -650h-108l-50 147h-250l-50 -147h-102zM197 238h192l-96 284z" glyph-name="Atilde" horiz-adv-x="592" unicode="Ã"/>
<glyph d="M152 703v94h106v-94h-106zM322 703v94h106v-94h-106zM16 0l225 645l106 5l229 -650h-108l-50 147h-250l-50 -147h-102zM197 238h192l-96 284z" glyph-name="Adieresis" horiz-adv-x="592" unicode="Ä"/>
<glyph d="M290 682q-72 0 -98 53q-10 21 -10 45q0 58 52 85q26 13 56 13q75 0 100 -55q8 -20 8 -43q0 -58 -52 -85q-26 -13 -56 -13zM290 734q38 0 44 35q1 6 1 11q0 38 -34 45q-6 1 -11 1q-38 0 -44 -35q-1 -6 -1 -11q0 -35 31 -44q7 -2 14 -2zM16 0l225 645l106 5l229 -650h-108 l-50 147h-250l-50 -147h-102zM197 238h192l-96 284z" glyph-name="Aring" horiz-adv-x="592" unicode="Å"/>
<glyph d="M-10 0l312 646h462v-98h-302v-164h275v-94h-275v-192h309l-9 -98h-405v148h-186l-72 -148h-109zM210 238h147v305z" glyph-name="AE" horiz-adv-x="819" unicode="Æ"/>
<glyph d="M293 -229q-41 0 -74 16l-4 61q35 -18 69 -18q41 2 42 34q0 40 -63 48q-6 1 -11 1l23 79q-156 21 -205 182q-20 66 -20 149q0 199 115 285q67 50 163 50q83 0 142 -32l-15 -102q-58 32 -123 32q-151 0 -170 -179q-3 -26 -3 -54q0 -176 107 -220q31 -13 68 -13q70 1 135 42 l-9 -109q-50 -30 -121 -35l-14 -39q72 -18 73 -86q0 -66 -61 -86q-21 -6 -44 -6z" glyph-name="Ccedilla" horiz-adv-x="512" unicode="Ç"/>
<glyph d="M257 695l-139 117h116l121 -117h-98zM87 0v646h407v-98h-302v-164h275v-94h-275v-192h309l-9 -98h-405z" glyph-name="Egrave" horiz-adv-x="549" unicode="È"/>
<glyph d="M247 695l121 117h116l-138 -117h-99zM87 0v646h407v-98h-302v-164h275v-94h-275v-192h309l-9 -98h-405z" glyph-name="Eacute" horiz-adv-x="549" unicode="É"/>
<glyph d="M161 695l91 123l97 1l92 -124h-84l-58 66l-57 -66h-81zM87 0v646h407v-98h-302v-164h275v-94h-275v-192h309l-9 -98h-405z" glyph-name="Ecircumflex" horiz-adv-x="549" unicode="Ê"/>
<glyph d="M163 703v94h106v-94h-106zM333 703v94h106v-94h-106zM87 0v646h407v-98h-302v-164h275v-94h-275v-192h309l-9 -98h-405z" glyph-name="Edieresis" horiz-adv-x="549" unicode="Ë"/>
<glyph d="M88 695l-139 117h116l121 -117h-98zM87 0v646h106v-646h-106z" glyph-name="Igrave" horiz-adv-x="280" unicode="Ì"/>
<glyph d="M94 695l121 117h116l-138 -117h-99zM87 0v646h106v-646h-106z" glyph-name="Iacute" horiz-adv-x="280" unicode="Í"/>
<glyph d="M1 695l91 123l97 1l92 -124h-84l-58 66l-57 -66h-81zM87 0v646h106v-646h-106z" glyph-name="Icircumflex" horiz-adv-x="280" unicode="Î"/>
<glyph d="M3 703v94h106v-94h-106zM173 703v94h106v-94h-106zM87 0v646h106v-646h-106z" glyph-name="Idieresis" horiz-adv-x="280" unicode="Ï"/>
<glyph d="M87 0v289h-52v80h52v277h141q181 0 272 -115q65 -83 65 -208q0 -198 -143 -279q-79 -44 -191 -44h-144zM193 99h46q190 0 213 175q3 24 3 49q0 141 -99 196q-50 28 -117 28h-46v-178h116v-80h-116v-190z" glyph-name="Eth" horiz-adv-x="613" unicode="Ð"/>
<glyph d="M198 699q3 111 82 112q24 0 69 -21q25 -12 39 -12q24 1 28 45l64 -6q-4 -97 -64 -110q-12 -3 -26 -3q-24 0 -67 22q-21 11 -33 11q-23 0 -27 -36v-2h-65zM87 0v646h98l282 -455v455h95v-643l-91 -6l-288 465v-462h-96z" glyph-name="Ntilde" horiz-adv-x="650" unicode="Ñ"/>
<glyph d="M268 695l-139 117h116l121 -117h-98zM315 -12q-154 0 -222 131q-43 82 -43 204q0 194 107 282q66 53 158 53q152 0 221 -128q44 -84 44 -207q0 -193 -106 -281q-66 -54 -159 -54zM315 90q127 0 150 160q5 34 5 73q0 186 -104 224q-24 9 -51 9q-142 0 -154 -196 q-1 -19 -1 -37q0 -186 104 -224q24 -9 51 -9z" glyph-name="Ograve" horiz-adv-x="630" unicode="Ò"/>
<glyph d="M258 695l121 117h116l-138 -117h-99zM315 -12q-154 0 -222 131q-43 82 -43 204q0 194 107 282q66 53 158 53q152 0 221 -128q44 -84 44 -207q0 -193 -106 -281q-66 -54 -159 -54zM315 90q127 0 150 160q5 34 5 73q0 186 -104 224q-24 9 -51 9q-142 0 -154 -196 q-1 -19 -1 -37q0 -186 104 -224q24 -9 51 -9z" glyph-name="Oacute" horiz-adv-x="630" unicode="Ó"/>
<glyph d="M172 695l91 123l97 1l92 -124h-84l-58 66l-57 -66h-81zM315 -12q-154 0 -222 131q-43 82 -43 204q0 194 107 282q66 53 158 53q152 0 221 -128q44 -84 44 -207q0 -193 -106 -281q-66 -54 -159 -54zM315 90q127 0 150 160q5 34 5 73q0 186 -104 224q-24 9 -51 9 q-142 0 -154 -196q-1 -19 -1 -37q0 -186 104 -224q24 -9 51 -9z" glyph-name="Ocircumflex" horiz-adv-x="630" unicode="Ô"/>
<glyph d="M166 699q3 111 82 112q24 0 69 -21q25 -12 39 -12q24 1 28 45l64 -6q-4 -97 -64 -110q-12 -3 -26 -3q-24 0 -67 22q-21 11 -33 11q-23 0 -27 -36v-2h-65zM315 -12q-154 0 -222 131q-43 82 -43 204q0 194 107 282q66 53 158 53q152 0 221 -128q44 -84 44 -207 q0 -193 -106 -281q-66 -54 -159 -54zM315 90q127 0 150 160q5 34 5 73q0 186 -104 224q-24 9 -51 9q-142 0 -154 -196q-1 -19 -1 -37q0 -186 104 -224q24 -9 51 -9z" glyph-name="Otilde" horiz-adv-x="630" unicode="Õ"/>
<glyph d="M174 703v94h106v-94h-106zM344 703v94h106v-94h-106zM315 -12q-154 0 -222 131q-43 82 -43 204q0 194 107 282q66 53 158 53q152 0 221 -128q44 -84 44 -207q0 -193 -106 -281q-66 -54 -159 -54zM315 90q127 0 150 160q5 34 5 73q0 186 -104 224q-24 9 -51 9 q-142 0 -154 -196q-1 -19 -1 -37q0 -186 104 -224q24 -9 51 -9z" glyph-name="Odieresis" horiz-adv-x="630" unicode="Ö"/>
<glyph d="M60 181l149 158l-147 157l66 60l143 -151l141 150l63 -58l-145 -156l151 -160l-66 -61l-146 155l-146 -155z" glyph-name="multiply" unicode="×"/>
<glyph d="M16 -50l91 144q-57 87 -57 229q0 194 107 282q66 53 158 53q72 0 128 -31l44 69h111l-84 -133q66 -87 66 -240q0 -193 -106 -281q-66 -54 -159 -54q-81 1 -140 38l-48 -76h-111zM176 203l211 335q-31 18 -72 18q-142 0 -154 -196q-1 -19 -1 -37q0 -72 16 -120zM315 90 q127 0 150 160q5 34 5 73q0 84 -21 136l-217 -343q36 -26 83 -26z" glyph-name="Oslash" horiz-adv-x="630" unicode="Ø"/>
<glyph d="M269 695l-139 117h116l121 -117h-98zM309 -12q-178 0 -223 162q-14 51 -14 114v382h106v-364q1 -191 132 -192q104 0 126 116q6 34 6 78v362h105v-379q0 -206 -137 -261q-45 -18 -101 -18z" glyph-name="Ugrave" horiz-adv-x="619" unicode="Ù"/>
<glyph d="M259 695l121 117h116l-138 -117h-99zM309 -12q-178 0 -223 162q-14 51 -14 114v382h106v-364q1 -191 132 -192q104 0 126 116q6 34 6 78v362h105v-379q0 -206 -137 -261q-45 -18 -101 -18z" glyph-name="Uacute" horiz-adv-x="619" unicode="Ú"/>
<glyph d="M173 695l91 123l97 1l92 -124h-84l-58 66l-57 -66h-81zM309 -12q-178 0 -223 162q-14 51 -14 114v382h106v-364q1 -191 132 -192q104 0 126 116q6 34 6 78v362h105v-379q0 -206 -137 -261q-45 -18 -101 -18z" glyph-name="Ucircumflex" horiz-adv-x="619" unicode="Û"/>
<glyph d="M175 703v94h106v-94h-106zM345 703v94h106v-94h-106zM309 -12q-178 0 -223 162q-14 51 -14 114v382h106v-364q1 -191 132 -192q104 0 126 116q6 34 6 78v362h105v-379q0 -206 -137 -261q-45 -18 -101 -18z" glyph-name="Udieresis" horiz-adv-x="619" unicode="Ü"/>
<glyph d="M210 695l121 117h116l-138 -117h-99zM211 0v271l-212 375h113l154 -274l152 274h108l-210 -375v-271h-105z" glyph-name="Yacute" horiz-adv-x="529" unicode="Ý"/>
<glyph d="M87 0v646h106v-107h80q162 0 221 -103q26 -47 26 -110q0 -139 -117 -190q-54 -23 -126 -23h-84v-113h-106zM193 209h79q137 2 138 117q0 102 -108 114q-15 2 -30 2h-79v-233z" glyph-name="Thorn" horiz-adv-x="550" unicode="Þ"/>
<glyph d="M394 -11q-72 0 -131 29l-7 94q74 -39 139 -39q86 1 87 61q0 36 -40 54q-12 5 -27 10l-31 10q-86 32 -106 85q-7 21 -7 46q0 52 47 97l44 42q32 37 32 80q0 57 -60 73q-19 5 -41 5q-82 0 -96 -72q-4 -19 -4 -42v-522h-100v405h-50l-4 67l32 9q20 5 23 23q1 7 1 15v14 q0 115 89 163q48 25 111 25q137 0 183 -83q19 -34 19 -77q0 -77 -62 -130q-7 -6 -20 -17q-39 -31 -45 -50q-2 -7 -2 -14q0 -31 32 -46q12 -6 30 -12l33 -13q94 -30 113 -92q6 -21 6 -46q0 -100 -93 -136q-42 -16 -95 -16z" glyph-name="germandbls" horiz-adv-x="609" unicode="ß"/>
<glyph d="M178 574l-45 59q-35 48 -49 83l95 4q9 -26 41 -75l45 -71h-87zM182 -12q-96 0 -130 73q-13 29 -13 66q0 117 147 155l24 6l99 21v13q-2 87 -94 88q-84 -1 -152 -48l-10 89q73 48 166 48q163 0 187 -129q4 -21 4 -44q0 -8 -1 -35q-1 -40 -1 -59v-125q0 -55 23 -104 l-94 -11q-15 27 -20 69q-37 -67 -123 -73h-12zM206 67q56 0 85 54q16 31 16 68v37l-76 -15q-81 -16 -93 -60q-2 -9 -2 -20q0 -58 59 -63q6 -1 11 -1z" glyph-name="agrave" horiz-adv-x="480" unicode="à"/>
<glyph d="M172 574l45 71q27 41 40 75l96 -4q-17 -42 -53 -88l-41 -54h-87zM182 -12q-96 0 -130 73q-13 29 -13 66q0 117 147 155l24 6l99 21v13q-2 87 -94 88q-84 -1 -152 -48l-10 89q73 48 166 48q163 0 187 -129q4 -21 4 -44q0 -8 -1 -35q-1 -40 -1 -59v-125q0 -55 23 -104 l-94 -11q-15 27 -20 69q-37 -67 -123 -73h-12zM206 67q56 0 85 54q16 31 16 68v37l-76 -15q-81 -16 -93 -60q-2 -9 -2 -20q0 -58 59 -63q6 -1 11 -1z" glyph-name="aacute" horiz-adv-x="480" unicode="á"/>
<glyph d="M84 568l87 138l100 3l85 -141h-88l-49 77l-49 -77h-86zM182 -12q-96 0 -130 73q-13 29 -13 66q0 117 147 155l24 6l99 21v13q-2 87 -94 88q-84 -1 -152 -48l-10 89q73 48 166 48q163 0 187 -129q4 -21 4 -44q0 -8 -1 -35q-1 -40 -1 -59v-125q0 -55 23 -104l-94 -11 q-15 27 -20 69q-37 -67 -123 -73h-12zM206 67q56 0 85 54q16 31 16 68v37l-76 -15q-81 -16 -93 -60q-2 -9 -2 -20q0 -58 59 -63q6 -1 11 -1z" glyph-name="acircumflex" horiz-adv-x="481" unicode="â"/>
<glyph d="M93 579q1 111 72 112q23 0 60 -20q19 -10 31 -10q22 2 22 42l72 -5q0 -98 -59 -113q-9 -2 -18 -2q-26 0 -63 22q-16 10 -25 10q-18 0 -21 -26q-1 -5 -1 -10h-70zM182 -12q-96 0 -130 73q-13 29 -13 66q0 117 147 155l24 6l99 21v13q-2 87 -94 88q-84 -1 -152 -48l-10 89 q73 48 166 48q163 0 187 -129q4 -21 4 -44q0 -8 -1 -35q-1 -40 -1 -59v-125q0 -55 23 -104l-94 -11q-15 27 -20 69q-37 -67 -123 -73h-12zM206 67q56 0 85 54q16 31 16 68v37l-76 -15q-81 -16 -93 -60q-2 -9 -2 -20q0 -58 59 -63q6 -1 11 -1z" glyph-name="atilde" horiz-adv-x="480" unicode="ã"/>
<glyph d="M90 589v99h100v-99h-100zM248 589v99h100v-99h-100zM182 -12q-96 0 -130 73q-13 29 -13 66q0 117 147 155l24 6l99 21v13q-2 87 -94 88q-84 -1 -152 -48l-10 89q73 48 166 48q163 0 187 -129q4 -21 4 -44q0 -8 -1 -35q-1 -40 -1 -59v-125q0 -55 23 -104l-94 -11 q-15 27 -20 69q-37 -67 -123 -73h-12zM206 67q56 0 85 54q16 31 16 68v37l-76 -15q-81 -16 -93 -60q-2 -9 -2 -20q0 -58 59 -63q6 -1 11 -1z" glyph-name="adieresis" horiz-adv-x="480" unicode="ä"/>
<glyph d="M231 543q-87 0 -105 69q-4 16 -4 33q0 69 59 93q23 9 50 9q93 0 106 -78q2 -12 2 -24q0 -69 -59 -93q-23 -9 -49 -9zM231 595q36 0 44 36q1 7 1 14q0 42 -35 48q-5 1 -10 1q-37 0 -44 -37q-1 -6 -1 -12q0 -41 34 -49q6 -1 11 -1zM182 -12q-96 0 -130 73q-13 29 -13 66 q0 117 147 155l24 6l99 21v13q-2 87 -94 88q-84 -1 -152 -48l-10 89q73 48 166 48q163 0 187 -129q4 -21 4 -44q0 -8 -1 -35q-1 -40 -1 -59v-125q0 -55 23 -104l-94 -11q-15 27 -20 69q-37 -67 -123 -73h-12zM206 67q56 0 85 54q16 31 16 68v37l-76 -15q-81 -16 -93 -60 q-2 -9 -2 -20q0 -58 59 -63q6 -1 11 -1z" glyph-name="aring" horiz-adv-x="480" unicode="å"/>
<glyph d="M183 -12q-96 0 -130 73q-13 29 -13 66q0 117 147 155l24 6l99 21v13q-2 87 -94 88q-84 -1 -152 -48l-10 89q73 48 166 48q111 -1 151 -67q51 66 148 67q160 0 185 -179q4 -29 4 -61q0 -27 -1 -38l-298 -6q6 -117 107 -133q15 -2 31 -2q92 1 157 45l-7 -95 q-65 -42 -157 -42q-136 1 -189 95q-43 -81 -129 -93q-18 -2 -39 -2zM412 298h199q-5 115 -96 116q-78 0 -98 -83q-4 -16 -5 -33zM207 67q56 0 85 54q16 31 16 68v37l-76 -15q-81 -16 -93 -60q-2 -9 -2 -20q0 -58 59 -63q6 -1 11 -1z" glyph-name="ae" horiz-adv-x="755" unicode="æ"/>
<glyph d="M228 -231q-41 0 -69 15l-4 62q35 -18 69 -18q41 2 42 35q0 33 -51 45q-11 2 -23 3l24 82q-132 24 -164 164q-9 40 -9 87q0 167 108 228q50 27 115 27q67 0 117 -23l-11 -94q-43 24 -93 24q-132 -2 -133 -162q0 -123 86 -154q24 -9 53 -9q54 1 100 31l-7 -99 q-46 -22 -92 -24l-15 -40q68 -23 69 -86q0 -65 -62 -86q-23 -8 -50 -8z" glyph-name="ccedilla" horiz-adv-x="420" unicode="ç"/>
<glyph d="M205 575l-45 59q-35 48 -49 83l95 4q9 -26 41 -75l45 -71h-87zM275 -12q-150 0 -206 120q-26 58 -26 136q0 164 100 226q47 29 111 29q160 0 185 -179q4 -29 4 -61q0 -27 -1 -38l-298 -6q6 -117 107 -133q15 -2 31 -2q92 1 157 45l-7 -95q-65 -42 -157 -42zM147 298h199 q-5 115 -96 116q-78 0 -98 -83q-4 -16 -5 -33z" glyph-name="egrave" horiz-adv-x="490" unicode="è"/>
<glyph d="M199 575l45 71q27 41 40 75l96 -4q-17 -42 -53 -88l-41 -54h-87zM275 -12q-150 0 -206 120q-26 58 -26 136q0 164 100 226q47 29 111 29q160 0 185 -179q4 -29 4 -61q0 -27 -1 -38l-298 -6q6 -117 107 -133q15 -2 31 -2q92 1 157 45l-7 -95q-65 -42 -157 -42zM147 298 h199q-5 115 -96 116q-78 0 -98 -83q-4 -16 -5 -33z" glyph-name="eacute" horiz-adv-x="490" unicode="é"/>
<glyph d="M111 569l87 138l100 3l85 -141h-88l-49 77l-49 -77h-86zM275 -12q-150 0 -206 120q-26 58 -26 136q0 164 100 226q47 29 111 29q160 0 185 -179q4 -29 4 -61q0 -27 -1 -38l-298 -6q6 -117 107 -133q15 -2 31 -2q92 1 157 45l-7 -95q-65 -42 -157 -42zM147 298h199 q-5 115 -96 116q-78 0 -98 -83q-4 -16 -5 -33z" glyph-name="ecircumflex" horiz-adv-x="490" unicode="ê"/>
<glyph d="M117 590v99h100v-99h-100zM275 590v99h100v-99h-100zM275 -12q-150 0 -206 120q-26 58 -26 136q0 164 100 226q47 29 111 29q160 0 185 -179q4 -29 4 -61q0 -27 -1 -38l-298 -6q6 -117 107 -133q15 -2 31 -2q92 1 157 45l-7 -95q-65 -42 -157 -42zM147 298h199 q-5 115 -96 116q-78 0 -98 -83q-4 -16 -5 -33z" glyph-name="edieresis" horiz-adv-x="490" unicode="ë"/>
<glyph d="M84 575l-45 59q-35 48 -49 83l95 4q9 -26 41 -75l45 -71h-87zM75 0v488h100v-488h-100z" glyph-name="igrave" horiz-adv-x="250" unicode="ì"/>
<glyph d="M78 575l45 71q27 41 40 75l96 -4q-17 -42 -53 -88l-41 -54h-87zM75 0v488h100v-488h-100z" glyph-name="iacute" horiz-adv-x="250" unicode="í"/>
<glyph d="M-10 569l87 138l100 3l85 -141h-88l-49 77l-49 -77h-86zM75 0v488h100v-488h-100z" glyph-name="icircumflex" horiz-adv-x="250" unicode="î"/>
<glyph d="M-4 590v99h100v-99h-100zM154 590v99h100v-99h-100zM75 0v488h100v-488h-100z" glyph-name="idieresis" horiz-adv-x="250" unicode="ï"/>
<glyph d="M259 -12q-124 0 -181 102q-35 64 -35 154q0 154 93 220q51 35 121 35q36 -1 64 -20q-18 53 -60 107l-115 -34v66l71 23q-37 41 -64 66l98 8q35 -33 52 -51l106 32v-67l-59 -19q125 -159 125 -366q0 -150 -90 -217q-53 -39 -126 -39zM259 76q95 0 110 122q3 22 3 46 q0 138 -80 163q-16 5 -33 5q-95 0 -110 -122q-3 -22 -3 -46q0 -138 80 -163q16 -5 33 -5z" glyph-name="eth" horiz-adv-x="518" unicode="ð"/>
<glyph d="M149 580q1 111 72 112q23 0 60 -20q19 -10 31 -10q22 2 22 42l72 -5q0 -98 -59 -113q-9 -2 -18 -2q-26 0 -63 22q-16 10 -25 10q-18 0 -21 -26q-1 -5 -1 -10h-70zM76 0v330q0 97 -7 156l98 6q5 -33 5 -90v-6q32 91 122 102q12 1 23 1q124 0 148 -125q5 -27 5 -59v-315 h-101v290q-1 116 -80 117q-70 0 -98 -88q-14 -45 -14 -104v-215h-101z" glyph-name="ntilde" unicode="ñ"/>
<glyph d="M214 575l-45 59q-35 48 -49 83l95 4q9 -26 41 -75l45 -71h-87zM259 -12q-124 0 -181 102q-35 64 -35 154q0 148 90 216q53 39 126 39q123 0 180 -102q36 -63 36 -153q0 -148 -90 -216q-53 -40 -126 -40zM259 82q84 0 106 98q6 30 6 64q0 121 -69 153q-20 9 -43 9 q-86 0 -107 -100q-6 -28 -6 -62q0 -122 70 -153q20 -9 43 -9z" glyph-name="ograve" horiz-adv-x="517" unicode="ò"/>
<glyph d="M208 575l45 71q27 41 40 75l96 -4q-17 -42 -53 -88l-41 -54h-87zM259 -12q-124 0 -181 102q-35 64 -35 154q0 148 90 216q53 39 126 39q123 0 180 -102q36 -63 36 -153q0 -148 -90 -216q-53 -40 -126 -40zM259 82q84 0 106 98q6 30 6 64q0 121 -69 153q-20 9 -43 9 q-86 0 -107 -100q-6 -28 -6 -62q0 -122 70 -153q20 -9 43 -9z" glyph-name="oacute" horiz-adv-x="517" unicode="ó"/>
<glyph d="M120 569l87 138l100 3l85 -141h-88l-49 77l-49 -77h-86zM259 -12q-124 0 -181 102q-35 64 -35 154q0 148 90 216q53 39 126 39q123 0 180 -102q36 -63 36 -153q0 -148 -90 -216q-53 -40 -126 -40zM259 82q84 0 106 98q6 30 6 64q0 121 -69 153q-20 9 -43 9 q-86 0 -107 -100q-6 -28 -6 -62q0 -122 70 -153q20 -9 43 -9z" glyph-name="ocircumflex" horiz-adv-x="517" unicode="ô"/>
<glyph d="M129 580q1 111 72 112q23 0 60 -20q19 -10 31 -10q22 2 22 42l72 -5q0 -98 -59 -113q-9 -2 -18 -2q-26 0 -63 22q-16 10 -25 10q-18 0 -21 -26q-1 -5 -1 -10h-70zM259 -12q-124 0 -181 102q-35 64 -35 154q0 148 90 216q53 39 126 39q123 0 180 -102q36 -63 36 -153 q0 -148 -90 -216q-53 -40 -126 -40zM259 82q84 0 106 98q6 30 6 64q0 121 -69 153q-20 9 -43 9q-86 0 -107 -100q-6 -28 -6 -62q0 -122 70 -153q20 -9 43 -9z" glyph-name="otilde" horiz-adv-x="517" unicode="õ"/>
<glyph d="M126 590v99h100v-99h-100zM284 590v99h100v-99h-100zM259 -12q-124 0 -181 102q-35 64 -35 154q0 148 90 216q53 39 126 39q123 0 180 -102q36 -63 36 -153q0 -148 -90 -216q-53 -40 -126 -40zM259 82q84 0 106 98q6 30 6 64q0 121 -69 153q-20 9 -43 9q-86 0 -107 -100 q-6 -28 -6 -62q0 -122 70 -153q20 -9 43 -9z" glyph-name="odieresis" horiz-adv-x="517" unicode="ö"/>
<glyph d="M213 465v112h114v-112h-114zM69 295v88h402v-88h-402zM213 101v112h114v-112h-114z" glyph-name="divide" unicode="÷"/>
<glyph d="M27 -50l70 113q-54 69 -54 181q0 148 90 216q53 39 126 39q52 0 95 -20l36 59h94l-67 -108q58 -70 58 -186q0 -148 -90 -216q-53 -40 -126 -40q-57 0 -102 24l-38 -62h-92zM158 162l145 235q-20 9 -44 9q-86 0 -107 -100q-6 -28 -6 -62q0 -48 12 -82zM259 82q84 0 106 98 q6 30 6 64q0 52 -14 89l-148 -239q22 -12 50 -12z" glyph-name="oslash" horiz-adv-x="517" unicode="ø"/>
<glyph d="M224 575l-45 59q-35 48 -49 83l95 4q9 -26 41 -75l45 -71h-87zM218 -12q-115 0 -142 109q-7 30 -7 65v326h101v-307q2 -99 76 -100q69 0 98 98q15 52 15 124v185h100v-341q0 -77 15 -142l-96 -12q-14 52 -14 98q-42 -102 -146 -103z" glyph-name="ugrave" horiz-adv-x="537" unicode="ù"/>
<glyph d="M217 575l45 71q27 41 40 75l96 -4q-17 -42 -53 -88l-41 -54h-87zM218 -12q-115 0 -142 109q-7 30 -7 65v326h101v-307q2 -99 76 -100q69 0 98 98q15 52 15 124v185h100v-341q0 -77 15 -142l-96 -12q-14 52 -14 98q-42 -102 -146 -103z" glyph-name="uacute" horiz-adv-x="537" unicode="ú"/>
<glyph d="M128 569l87 138l100 3l85 -141h-88l-49 77l-49 -77h-86zM218 -12q-115 0 -142 109q-7 30 -7 65v326h101v-307q2 -99 76 -100q69 0 98 98q15 52 15 124v185h100v-341q0 -77 15 -142l-96 -12q-14 52 -14 98q-42 -102 -146 -103z" glyph-name="ucircumflex" horiz-adv-x="537" unicode="û"/>
<glyph d="M135 590v99h100v-99h-100zM293 590v99h100v-99h-100zM218 -12q-115 0 -142 109q-7 30 -7 65v326h101v-307q2 -99 76 -100q69 0 98 98q15 52 15 124v185h100v-341q0 -77 15 -142l-96 -12q-14 52 -14 98q-42 -102 -146 -103z" glyph-name="udieresis" horiz-adv-x="537" unicode="ü"/>
<glyph d="M188 575l45 71q27 41 40 75l96 -4q-17 -42 -53 -88l-41 -54h-87zM46 -231l-7 86q94 11 129 57q15 20 25 50l12 39l-197 487h105l140 -352l103 352h100l-161 -521q-38 -124 -123 -167q-50 -24 -126 -31z" glyph-name="yacute" horiz-adv-x="477" unicode="ý"/>
<glyph d="M75 -220v771q0 92 -7 157l100 6q6 -32 6 -109v-185q27 67 99 77q11 2 22 2q133 0 174 -133q15 -50 15 -115q0 -209 -148 -251q-35 -10 -77 -10q-52 1 -84 27v-237h-100zM263 77q115 2 116 165q-1 166 -105 167q-72 0 -93 -85q-7 -28 -7 -63v-147q41 -37 89 -37z" glyph-name="thorn" horiz-adv-x="528" unicode="þ"/>
</font>
</defs>
</svg>
